<svg xmlns="http://www.w3.org/2000/svg" width="42.689" height="41.63" viewBox="0 0 42.689 41.63">
  <g id="Group_1043" data-name="Group 1043" transform="translate(-33 1.262)">
    <g id="design-process" transform="translate(33 -7.612)">
      <path id="Path_492" data-name="Path 492" d="M7.9,6.35A9.172,9.172,0,0,1,13.418,8.1a5.572,5.572,0,0,1,2.375,4.408,5.308,5.308,0,0,1-1.579,3.7,8.093,8.093,0,0,1-3.76,2.127L8.4,21.1a.625.625,0,0,1-1.009-.01L5.339,18.333a8.094,8.094,0,0,1-3.76-2.127A5.309,5.309,0,0,1,0,12.507,5.568,5.568,0,0,1,2.378,8.1,9.161,9.161,0,0,1,7.9,6.35Zm31.127,7.393H36.592v10.04h2.432Zm-3.058-1.25h3.682a.625.625,0,0,1,.626.624v11.29a.626.626,0,0,1-.626.626H35.965a.624.624,0,0,1-.624-.626V13.117A.623.623,0,0,1,35.965,12.493ZM25.991,18.26V15.766H23.559v1.418A10.592,10.592,0,0,1,25.991,18.26Zm-3.682-1.366V15.14a.625.625,0,0,1,.626-.624h3.682a.623.623,0,0,1,.624.624v4q.411.337.787.711a10.575,10.575,0,0,1,.8.891V10.689a.625.625,0,0,1,.624-.626h3.685a.625.625,0,0,1,.624.626V24.407a.624.624,0,0,1-.624.626h-2.25a10.612,10.612,0,0,1,.2,1.241H41.439V7.6H32.708a.625.625,0,1,1,0-1.25h9.357a.625.625,0,0,1,.624.626V26.9a.625.625,0,0,1-.624.626H31.139a10.911,10.911,0,0,1-.1,1.3,10.37,10.37,0,0,1-.3,1.43.624.624,0,1,1-1.2-.338,9.426,9.426,0,0,0,.262-1.257,9.553,9.553,0,0,0,.087-1.293A9.37,9.37,0,0,0,12.021,23.41a.625.625,0,0,1-1.134-.527A10.663,10.663,0,0,1,14.819,18.4a10.553,10.553,0,0,1,5.074-1.643V6.976a.625.625,0,0,1,.624-.626h9.357a.625.625,0,1,1,0,1.25H21.144v9.161a9.936,9.936,0,0,1,1.165.132Zm8.211,6.89h1.988V11.316H30.075V22.724A10.416,10.416,0,0,1,30.52,23.783Zm5.765,9.79a.625.625,0,0,1-.884-.884l1.962-1.962a.622.622,0,0,1,.889,0l1.962,1.962a.625.625,0,1,1-.884.884l-.9-.9V38.25a3.873,3.873,0,0,1-3.864,3.862h-6.3a.625.625,0,1,1,0-1.25h6.3a2.622,2.622,0,0,0,2.614-2.612V32.677ZM10.3,39.923a.625.625,0,0,1,.884-.884L13.148,41a.628.628,0,0,1,0,.891l-1.959,1.959a.625.625,0,1,1-.884-.884l.9-.9H6.405a3.873,3.873,0,0,1-3.862-3.864V20.2a.625.625,0,1,1,1.25,0V38.207a2.623,2.623,0,0,0,2.612,2.614H11.2ZM5.162,13.133a.625.625,0,1,1,0-1.25h5.469a.625.625,0,1,1,0,1.25Zm0,2.319a.625.625,0,1,1,0-1.25H9.241a.625.625,0,0,1,0,1.25Zm0-4.637a.625.625,0,1,1,0-1.25h5.469a.625.625,0,1,1,0,1.25ZM21.144,36.371V39.08H24.06V36.451a.624.624,0,0,1,.366-.567A9.351,9.351,0,0,0,26.7,34.4a9.489,9.489,0,0,0,1.763-2.07A.623.623,0,1,1,29.52,33a10.617,10.617,0,0,1-4.209,3.841v6.346a4.793,4.793,0,1,1-9.586,0V36.839A10.609,10.609,0,0,1,9.9,27.364c0-.265.009-.534.031-.806s.05-.539.09-.8a.625.625,0,0,1,1.236.184c-.035.236-.064.473-.08.707s-.026.468-.026.714a9.328,9.328,0,0,0,1.475,5.051,9.423,9.423,0,0,0,3.94,3.448.621.621,0,0,1,.411.589V39.08h2.919V36.371l-4.623-9.043-.184.106a.622.622,0,0,1-.629-1.073l1.914-1.12a.623.623,0,0,1,.641,0l1.591.931,1.6-.936a.623.623,0,0,1,.641,0l1.591.931,1.6-.936a.618.618,0,0,1,.638,0l1.907,1.116a.622.622,0,1,1-.631,1.073l-.182-.106ZM16.686,26.5l-.338.2,4.169,8.161L24.689,26.7l-.34-.2-1.591.931a.623.623,0,0,1-.641,0l-1.6-.936-1.591.931a.618.618,0,0,1-.638,0ZM23.023,45.69a3.535,3.535,0,0,0,.983-1.879H17.031a3.54,3.54,0,0,0,5.991,1.879Zm-6.048-5.358v2.229H24.06V40.332ZM12.659,9.092A7.891,7.891,0,0,0,7.9,7.6,7.892,7.892,0,0,0,3.134,9.092,4.354,4.354,0,0,0,1.25,12.507a4.082,4.082,0,0,0,1.227,2.834,6.9,6.9,0,0,0,3.349,1.832.621.621,0,0,1,.383.241L7.9,19.682l1.69-2.269a.619.619,0,0,1,.355-.234,6.921,6.921,0,0,0,3.375-1.839,4.082,4.082,0,0,0,1.227-2.834,4.354,4.354,0,0,0-1.884-3.415Z"/>
    </g>
  </g>
</svg>
