<svg xmlns="http://www.w3.org/2000/svg" width="35.823" height="42.069" viewBox="0 0 35.823 42.069">
  <path id="Path_127" data-name="Path 127" d="M73.631,32.39c-.189-.847-.386-1.591-.6-2.275a.822.822,0,1,0-1.566.5c.2.638.387,1.337.565,2.135.27,1.218.154,1.688.01,1.868s-.537.372-1.675.372H62.566a4.53,4.53,0,0,0-1.124-4.178,3.617,3.617,0,0,0-2.794-1.1,4.279,4.279,0,0,0-2.727,1.152,4.272,4.272,0,0,0-2.727-1.152,3.62,3.62,0,0,0-2.795,1.1,4.531,4.531,0,0,0-1.124,4.179H41.481c-1.138,0-1.539-.2-1.675-.372s-.26-.65.01-1.868c.857-3.865,2.46-7.907,7.449-9.858l3.774,4.91a.821.821,0,0,0,1.117.176l3.765-2.589,3.767,2.589A.821.821,0,0,0,60.8,27.8l3.775-4.913A11.355,11.355,0,0,1,67.843,24.8a.822.822,0,1,0,1.064-1.252,14.76,14.76,0,0,0-7.07-3.117V17.552a8.864,8.864,0,0,0,2.936-5.831V8.864a8.86,8.86,0,1,0-17.721,0v2.858c0,1.971,1.263,4.133,2.954,5.846v2.867c-8.42,1.506-10.731,7.157-11.8,11.957a3.888,3.888,0,0,0,.313,3.253,3.67,3.67,0,0,0,2.957.986H50.04a4.391,4.391,0,0,0,.36.427l.021.021,4.931,4.761a.822.822,0,0,0,1.142,0l4.928-4.761.02-.02a4.4,4.4,0,0,0,.36-.427h8.558a3.67,3.67,0,0,0,2.957-.986,3.889,3.889,0,0,0,.313-3.254ZM55.92,23.414l-4.27-2.729V18.991a7.817,7.817,0,0,0,4.263,1.741,7.824,7.824,0,0,0,4.281-1.754v1.7Zm7-1.064L59.976,26.18l-2.569-1.766,3.787-2.421q.9.145,1.725.357ZM55.913,1.643a7.23,7.23,0,0,1,7.052,5.683c-1.655-.722-3.154-.023-4.417.566a6.411,6.411,0,0,1-2.635.81,6.4,6.4,0,0,1-2.634-.81C52.016,7.3,50.517,6.6,48.861,7.326a7.23,7.23,0,0,1,7.052-5.683ZM48.7,11.722V9.376c1.345-1.18,2.374-.7,3.889.005a7.854,7.854,0,0,0,3.329.963,7.856,7.856,0,0,0,3.329-.963c1.515-.706,2.545-1.185,3.888-.005v2.346c0,1.65-1.2,3.483-2.694,4.908h0c-1.51,1.437-3.324,2.459-4.522,2.459C53.528,19.089,48.7,15.037,48.7,11.722Zm1.95,10.272,3.788,2.421L51.867,26.18l-2.941-3.827q.81-.212,1.72-.359Zm9.623,13.913-4.347,4.2-4.349-4.2a2.881,2.881,0,0,1,.01-3.957,2.331,2.331,0,0,1,3.229.126l.046.043a1.272,1.272,0,0,0,2.129,0l.044-.042a2.333,2.333,0,0,1,3.229-.125,2.881,2.881,0,0,1,.009,3.957Z" transform="translate(-38.01 0)"/>
</svg>
