<svg xmlns="http://www.w3.org/2000/svg" width="31.465" height="27.295" viewBox="0 0 31.465 27.295">
  <path id="Path" d="M28.465.014A13.912,13.912,0,0,1,24.4,2.062,5.668,5.668,0,0,0,17.962.395a6,6,0,0,0-3.729,5.684V7.417A13.649,13.649,0,0,1,2.588,1.353S-2.588,13.4,9.057,18.757A14.694,14.694,0,0,1,0,21.434c11.645,6.694,25.878,0,25.878-15.4a6.227,6.227,0,0,0-.1-1.111A10.431,10.431,0,0,0,28.465.014Z" transform="translate(1.5 1.609)" fill="none" stroke="#000" stroke-linecap="round" stroke-linejoin="round" stroke-miterlimit="10" stroke-width="3"/>
</svg>
