<svg id="_006-share" data-name="006-share" xmlns="http://www.w3.org/2000/svg" width="31.223" height="42.069" viewBox="0 0 31.223 42.069">
  <path id="Path_137" data-name="Path 137" d="M165.95,52.184a.822.822,0,1,0,0-1.643h-6.516a.822.822,0,0,0,0,1.643Z" transform="translate(-151.002 -46.388)"/>
  <path id="Path_138" data-name="Path 138" d="M125.463,154.655a2.925,2.925,0,1,0,2.859,2.318l3.823-2.059a2.926,2.926,0,1,0,0-4.107l-3.823-2.059a2.929,2.929,0,1,0-.78,1.446l3.824,2.059a2.927,2.927,0,0,0,0,1.214l-3.824,2.059a2.912,2.912,0,0,0-2.078-.871Zm0,4.206a1.282,1.282,0,1,1,1.279-1.282A1.282,1.282,0,0,1,125.463,158.861Zm8.761-7.284a1.283,1.283,0,1,1-1.279,1.284A1.283,1.283,0,0,1,134.224,151.577Zm-8.761-2.156a1.282,1.282,0,1,1,1.279-1.282A1.282,1.282,0,0,1,125.463,149.421Z" transform="translate(-117.895 -133.283)"/>
  <path id="Path_139" data-name="Path 139" d="M89.378,25.734V3.882A3.885,3.885,0,0,0,85.5,0H69.878A3.885,3.885,0,0,0,66,3.882V9.961a.822.822,0,0,0,1.643,0V3.882a2.239,2.239,0,0,1,2.235-2.239H85.5a2.239,2.239,0,0,1,2.235,2.239V25.835a8.182,8.182,0,0,0-6.829,7.7H67.643V17.339a.822.822,0,1,0-1.643,0V35.832a3.885,3.885,0,0,0,3.878,3.882H83.334a8.165,8.165,0,1,0,6.044-13.98Zm-19.5,12.337a2.239,2.239,0,0,1-2.235-2.239v-.655H81a8.121,8.121,0,0,0,1.047,2.894Zm19.183,2.355A6.528,6.528,0,1,1,95.58,33.9,6.532,6.532,0,0,1,89.062,40.426Z" transform="translate(-66 0)"/>
  <path id="Path_140" data-name="Path 140" d="M337.495,402.8a.822.822,0,0,0-.822.822v3.426a.822.822,0,0,0,1.643,0v-3.426A.822.822,0,0,0,337.495,402.8Z" transform="translate(-314.433 -369.7)"/>
  <path id="Path_141" data-name="Path 141" d="M337.495,360.616a.823.823,0,1,0,.822.824v0A.82.82,0,0,0,337.495,360.616Z" transform="translate(-314.433 -330.986)"/>
  <path id="Path_142" data-name="Path 142" d="M66.822,157.775a.823.823,0,1,0-.822-.824v0A.82.82,0,0,0,66.822,157.775Z" transform="translate(-66 -143.301)"/>
</svg>
