<svg xmlns="http://www.w3.org/2000/svg" width="134.25" height="73.75" viewBox="0 0 134.25 73.75">
  <g id="Group_416" data-name="Group 416" transform="translate(17646 6263)">
    <g id="Icon_ionic-ios-swap" data-name="Icon ionic-ios-swap" transform="translate(-17640.258 -6283.526)" opacity="0.57">
      <path id="Path_8071" data-name="Path 8071" d="M45.67,34.308a2.158,2.158,0,0,1-.017-3.06l7.85-7.966H16.084a2.162,2.162,0,1,1,0-4.324h37.4l-7.85-7.966a2.164,2.164,0,1,1,3.077-3.043L60.188,19.59h0a2.115,2.115,0,0,1,.449.682,2.063,2.063,0,0,1,.166.832,2.168,2.168,0,0,1-.615,1.513L48.713,34.258A2.139,2.139,0,0,1,45.67,34.308Z" transform="translate(67.704 17)"/>
      <path id="Path_8072" data-name="Path 8072" d="M17.391,44.011a2.158,2.158,0,0,0,.017-3.06L9.575,32.985h37.4a2.162,2.162,0,1,0,0-4.324H9.575l7.85-7.966a2.164,2.164,0,0,0-3.077-3.043L2.872,29.293h0a2.115,2.115,0,0,0-.449.682,2.063,2.063,0,0,0-.166.832,2.168,2.168,0,0,0,.615,1.513L14.348,43.961A2.139,2.139,0,0,0,17.391,44.011Z" transform="translate(-8 7.247)"/>
    </g>
    <path id="Icon_material-touch-app" data-name="Icon material-touch-app" d="M21.929,33.438V20.3a8.709,8.709,0,1,1,17.417,0V33.438a15.675,15.675,0,1,0-17.417,0ZM56.206,49.7,40.391,41.762a4.871,4.871,0,0,0-1.881-.386H35.863V20.3a5.225,5.225,0,1,0-10.45,0V58.022L13.465,55.493a6.041,6.041,0,0,0-.836-.105,3.881,3.881,0,0,0-2.752,1.159l-2.752,2.81L24.333,76.705a5.222,5.222,0,0,0,3.692,1.545H51.677a5.089,5.089,0,0,0,5.016-4.5l2.613-18.508a5.32,5.32,0,0,0,.07-.7,5.263,5.263,0,0,0-3.17-4.846Z" transform="translate(-17610.125 -6267.5)" opacity="0.57"/>
  </g>
</svg>
