<svg id="Layer_1" data-name="Layer 1" xmlns="http://www.w3.org/2000/svg" viewBox="0 0 571.91 289.25"><defs><style>.cls-1{fill:#fbaa20;}.cls-2{fill:#f4ddc3;}.cls-3{fill:#fff;}.cls-4{fill:#231f20;}.cls-5{fill:#211e1f;}.cls-6{fill:#ffc523;}</style></defs><ellipse class="cls-1" cx="478.88" cy="342.27" rx="249.55" ry="127.66" transform="translate(-183.87 -143.81) rotate(-5.01)"/><path class="cls-2" d="M248.41,282.74s39.31,12,49,69.06-.83,93.59-42.65,113.17-81-15.8-89.35-49.48S154.65,303.28,222.11,278.2C222.11,278.2,237.54,273.91,248.41,282.74Z" transform="translate(-155.82 -186.92)"/><path class="cls-3" d="M198.41,223.53l-.36.11.92,1.53c1.91-2.37,3.54-4.94,5.48-7.29s4.08-4.59,6.2-6.8l-3-2.84c-4.61,5.94-9.05,12-13.89,17.76l3.76,2.1a52.29,52.29,0,0,1,7.11-11.6l-3.52-2.61a46,46,0,0,1-8,10.2l3.43,2.54a48.85,48.85,0,0,1,7.71-15.44l-3.5-2.6a106.35,106.35,0,0,1-10.33,13.11l3.7,2.08a102.14,102.14,0,0,1,7.67-15l-3.64-2a53.85,53.85,0,0,1-8.94,11.9l3.21,2.39a44.31,44.31,0,0,1,5.62-11.55c1.53-2.24-1.55-4.39-3.32-2.46L190,212.23l3.58,2A27,27,0,0,1,197,207.1c1.25-1.85-1.11-4.4-2.92-2.81l-3.17,2.8,3.27,1.28a8.18,8.18,0,0,1,1-5.88c-1.15-.64-2.3-1.28-3.44-1.93a5,5,0,0,1-1.22,2.05l2.81,2.7c1.4-2,3-3.82,4.5-5.73a1.75,1.75,0,0,0-2.49-2.39,30.26,30.26,0,0,0-5.17,5.78c-1.26,1.75,1.14,4.3,2.81,2.71a9.18,9.18,0,0,0,2.44-3.64c.74-2-2.2-3.91-3.43-1.92A12.42,12.42,0,0,0,190.2,209a2,2,0,0,0,3.27,1.28l3.2-2.78-2.92-2.8a31.31,31.31,0,0,0-4,8,2.07,2.07,0,0,0,3.57,2q2.38-2.58,4.75-5.18l-3.32-2.46a48.06,48.06,0,0,0-6.13,12.47c-.57,1.75,1.61,4,3.21,2.38a61.93,61.93,0,0,0,10.25-13.57c1.16-2.07-2.37-4-3.64-2a108.71,108.71,0,0,0-8.26,15.88c-1,2.4,2.14,3.75,3.7,2.07a106.2,106.2,0,0,0,10.4-13.06c1.56-2.32-1.8-4.85-3.5-2.6a51.49,51.49,0,0,0-8.3,16.4c-.56,1.89,1.66,4.22,3.42,2.54a50.18,50.18,0,0,0,8.76-11c1.39-2.39-1.71-4.86-3.52-2.61a56.13,56.13,0,0,0-7.62,12.6c-1,2.33,2.24,3.94,3.76,2.1,4.77-5.78,9.56-11.66,13.73-17.89a2.07,2.07,0,0,0-3.33-2.46c-2.12,2.53-4.25,5.08-6.17,7.78a24.84,24.84,0,0,0-4.29,8.45,1,1,0,0,0,1.35,1A1.91,1.91,0,0,0,199.7,224c.19-.76-.88-1-1.29-.51Z" transform="translate(-155.82 -186.92)"/><path class="cls-3" d="M195.78,202.51a10.55,10.55,0,0,1,6.78-6.44L200,193.63a7.58,7.58,0,0,1-4.6,3.69l2.62,2.54a4.24,4.24,0,0,1,4.88-2.87l-1.72-2.2a.87.87,0,0,1-1,.62l1.64,2.77a4,4,0,0,1,4-2.27l-1.35-3.15a4,4,0,0,1-3.55,1.94l1.93,3.21a7.59,7.59,0,0,1,6.2-3l-1.62-3.71L199.17,199l3.11,3a28,28,0,0,1,5-5.22l-3-2.86A70.56,70.56,0,0,1,193,208.3l3.39,2.51a32.4,32.4,0,0,1,4.73-7.94,29.9,29.9,0,0,1,3-3.18c.67-.61,3-3.06,3.92-2.78l-1.2-2.81A57.27,57.27,0,0,1,197,207.36l3,2.93a68.59,68.59,0,0,1,16.1-15.84l-3-2.92A125.68,125.68,0,0,1,197,211.73l3,2.92c4.08-5.38,8.21-10.72,13.83-14.58l-3.28-2.43c-4,8.72-10.22,16.07-16.38,23.31l3.35,2.48a76.2,76.2,0,0,1,18.22-21l-3.29-1.83c-.62,2.62-2.3,4.8-3.9,6.9-1.82,2.39-3.65,4.76-5.47,7.14-3.68,4.8-7.31,9.62-10.95,14.45-1.73,2.3,1.76,4.84,3.58,2.65,5.53-6.64,11.06-13.29,17.63-18.94l-3.07-3c-5.1,8.27-10.32,16.46-15.5,24.69l3.61,2.67a160.47,160.47,0,0,1,14-20.41l-3.69-2.06A209,209,0,0,1,195,238.15l3.51,2.6c3.32-5.33,6.56-10.72,9.8-16.11-1.1-.82-2.2-1.64-3.31-2.45a38.65,38.65,0,0,1-7.74,9.44l3.19,1.25a30.65,30.65,0,0,1,0-14.41c.46-1.81-2.63-2.6-3.17-.82a29.92,29.92,0,0,0-.77,15.81c.33,1.34,2,2.35,3.19,1.25a49.75,49.75,0,0,0,8.58-10.07c1.41-2.23-1.88-4.69-3.31-2.45-3.36,5.3-6.72,10.6-10,16-1.45,2.37,1.93,5,3.51,2.6a249,249,0,0,0,14.21-24.38c1.16-2.25-2.22-3.85-3.69-2.07a160.73,160.73,0,0,0-14.16,20.28c-1.44,2.45,2.08,5.15,3.61,2.67,5.11-8.27,10.17-16.57,15.34-24.8,1.23-2-1.1-4.62-3.07-2.95-6.89,5.83-12.75,12.71-18.52,19.63l3.58,2.65q6-7.93,11.89-15.9c3.38-4.58,7.52-9.09,8.89-14.75.44-1.81-2-2.83-3.29-1.83a78.37,78.37,0,0,0-19,21.65,2.09,2.09,0,0,0,3.35,2.48c6.42-7.52,12.78-15.16,16.94-24.22,1-2.06-1.66-3.53-3.27-2.43-5.9,4-10.32,9.7-14.6,15.34-1.41,1.86,1.3,4.67,3,2.92a130.09,130.09,0,0,0,16.81-21,2.13,2.13,0,0,0-3-2.92,72.48,72.48,0,0,0-16.86,16.62c-1.37,1.88,1.28,4.69,3,2.93a65,65,0,0,0,11.23-15,2.17,2.17,0,0,0-1.2-2.81c-4-1.26-7.62,2.59-10.17,5.25a35.16,35.16,0,0,0-7.12,11c-.78,1.89,1.8,4.13,3.39,2.51a90.35,90.35,0,0,0,11.88-15.3,2.09,2.09,0,0,0-3-2.86,27.15,27.15,0,0,0-5.89,5.88c-1.39,1.93,1.29,4.77,3.11,3l8.19-7.95a2.12,2.12,0,0,0-1.63-3.72,11.42,11.42,0,0,0-8.84,4.75,2.06,2.06,0,0,0,1.93,3.22,7.71,7.71,0,0,0,6.13-3.59,2,2,0,0,0-1.35-3.15,8.15,8.15,0,0,0-8.25,4.7,2,2,0,0,0,1.64,2.77,5,5,0,0,0,5.43-4.17,2,2,0,0,0-1.73-2.21,8.16,8.16,0,0,0-9,5.33,2,2,0,0,0,2.62,2.53,10.74,10.74,0,0,0,6.53-5.88,1.91,1.91,0,0,0-2.53-2.43,11.82,11.82,0,0,0-7,9.44.94.94,0,0,0,1.8.46Z" transform="translate(-155.82 -186.92)"/><path class="cls-3" d="M191.84,216.79c-2.47,5.88-2.19,12.1-.07,18.06.62,1.77,3,1,3.3-.49A16.68,16.68,0,0,0,192,220.91a1.79,1.79,0,0,0-3.15,1.37,64.6,64.6,0,0,0,5.69,18,1.85,1.85,0,0,0,3.5-1c-1.38-14.32,4.2-29.31,16.55-37.36l-1.87-2.33-5.9,4.76,2.45,1.81a22,22,0,0,1,4.14-7,17.89,17.89,0,0,1,1.57-1.57l.5-.44c.7-.28.7-.53,0-.73-.66.52-1.06,2.4-1.2,3.15-.36,1.89,2.54,3.1,3.56,1.42.59-1,1.18-1.95,1.78-2.92l-3.42-1.91a59.82,59.82,0,0,1-7.37,16c1.1.61,2.2,1.22,3.29,1.84a30.24,30.24,0,0,1,10.08-14.69l-3-1.69c-.52,7.22-5,13.09-9.21,18.64l3.48,2a52.33,52.33,0,0,1,8.78-17.68l-3,.06c.75,1.18-.45,3.12-.95,4.18-.59,1.23-1.2,2.45-1.86,3.64-1.36,2.45-2.93,4.77-4.51,7.07,1.2.68,2.41,1.35,3.62,2,2.26-4.71,4.6-9.51,8.63-13l-3-1.67a28.14,28.14,0,0,1-6.24,16.46l3.49,1.95c2.08-6.21,4.25-12.34,6.89-18.33l-3.35-1.34a50.88,50.88,0,0,0-3.26,9.86l4,.48a56.86,56.86,0,0,1,2.23-11.64l-3.64-.43a164.59,164.59,0,0,1,3.67,18.64l3.38-1a22,22,0,0,1-1.41-13.66l-3.32,0a47,47,0,0,1-1.08,16.46l3.73-.55a46,46,0,0,1-2.06-11.15l-3.87.58c1,3.81,2,7.65,3,11.45.7,2.47,4.69,2,4.06-.61l-2.91-12c-.47-1.95-3.87-2.31-3.85.05A51.09,51.09,0,0,0,222,220.67c.54,2.07,3.69,2.35,4,0q.84-7,1.66-14l-3.6.05a113.61,113.61,0,0,0,4,18.24c.64,2.06,4.15,1.05,3.67-1.07-1.27-5.61-2.4-11.27-3.26-17l-3.65,1.06a149.1,149.1,0,0,1,7.33,20.21c.64,2.19,4.39,1.11,3.89-1.13a87.81,87.81,0,0,0-4.51-14.26c-.63-1.54-3.39-1.3-3.41.5a24.81,24.81,0,0,0,.72,6.59c.47,1.81,3.25,1.5,2.95-.44a20.61,20.61,0,0,1-.12-5.71l-3.41.5c1.45,4.41,2.67,8.91,3.74,13.42l3.89-1.12a184.26,184.26,0,0,0-7.56-20.11,1.93,1.93,0,0,0-3.66,1.06,158.14,158.14,0,0,0,3.24,17l3.68-1.06a81.41,81.41,0,0,1-3.9-17.21c-.22-2.09-3.3-1.94-3.6,0l-2,14,4,0a50.66,50.66,0,0,1-1.55-11.56l-3.86,0,2.7,12.08,4.06-.61c-1-3.82-2.15-7.61-3.23-11.42a2,2,0,0,0-3.87.58,49.77,49.77,0,0,0,2.35,12.15c.66,2.06,3.35,1.09,3.73-.55a45.25,45.25,0,0,0,.52-17.43,1.69,1.69,0,0,0-3.33,0A27.87,27.87,0,0,0,225,218.92c.76,1.92,3.58,1,3.38-1A141,141,0,0,0,225,199.26c-.41-1.68-3-2.35-3.64-.42a45.48,45.48,0,0,0-2.66,12.57,2,2,0,0,0,4,.48,32.85,32.85,0,0,1,2.66-9c1-2.11-2.37-3.43-3.35-1.34a146.19,146.19,0,0,0-7.28,18.17,2,2,0,0,0,3.49,1.94,33.6,33.6,0,0,0,6.7-18.4,1.88,1.88,0,0,0-3-1.68c-4.66,3.81-7.48,9.07-10.18,14.34-1.1,2.14,2.25,3.9,3.62,2a59.74,59.74,0,0,0,5.84-10.07c1.46-3.14,3-6.44,1.07-9.68-.67-1.09-2.32-.78-3,.06a51.59,51.59,0,0,0-9.48,18.43c-.57,2.08,2,3.9,3.48,1.94,4.57-6.11,9.23-12.7,9.7-20.58a1.9,1.9,0,0,0-3-1.69,34.8,34.8,0,0,0-11.27,16.2c-.64,1.95,2,3.74,3.3,1.84a63,63,0,0,0,8-16.8c.6-2-2.15-4-3.41-1.91l-1.8,2.91,3.57,1.42c.39-2,1.95-3.39.72-5.53a3.07,3.07,0,0,0-4.62-.85c-3.76,2.59-6.5,7.11-8,11.34a1.58,1.58,0,0,0,2.44,1.81c1.94-1.63,3.86-3.26,5.8-4.88a1.49,1.49,0,0,0-1.87-2.33c-12,9.51-20,24.68-18.32,40.23l3.5-1a57.43,57.43,0,0,1-5.53-17l-3.15,1.38a14.74,14.74,0,0,1,2.41,10.8l3.3-.49A29.56,29.56,0,0,1,192.81,217a.51.51,0,0,0-1-.25Z" transform="translate(-155.82 -186.92)"/><path class="cls-3" d="M241.2,227.38l-3,1.36,1.23,2a169.93,169.93,0,0,1,17.93-15.87L255.05,212c-6.71,5.92-13.24,12.08-19.83,18.13l2.47,2.38a71.58,71.58,0,0,1,27.11-22.73c-.54-.89-1.08-1.79-1.63-2.68a93.47,93.47,0,0,1-21.73,15.49l1.87,2.34a45,45,0,0,1,18.6-13.49c.52-.2,1-.39,1.56-.57.91-.32,1.54-.79,1,.38s-2.2,2.17-3.17,3c-9.15,7.59-18.33,15.13-27.42,22.79-1.58,1.34.4,3.83,2,2.52,10.27-8.27,20.85-16.87,33.21-21.83l-1.5-2.47q-16.74,13-33.38,26.09c.7.86,1.39,1.73,2.09,2.6,9.85-7.78,19.85-15.72,31.41-20.81l-1.7-2.81q-14.88,13.54-30.66,26a1.76,1.76,0,0,0,2.2,2.75c9.19-7.29,18.52-14.43,29.52-18.78l-2.24-1.66c0,2.24-4.41,4.67-6,5.94l-6.82,5.47q-6.83,5.47-13.66,10.94l2.18,2.71A96.83,96.83,0,0,1,266.2,237l-1.72-2.83c-8.38,7.34-16.8,14.63-25.13,22-1.57,1.4.47,4,2.06,2.57,7.23-6.35,14.55-12.67,23.23-17l-1.59-2.6c-6.32,6.35-12.9,12.46-19.63,18.38l2,2.51A78.4,78.4,0,0,1,262,248.25L260.17,246a117.88,117.88,0,0,1-12,12c-1.44,1.31.36,3.62,1.9,2.38,3.35-2.68,6.72-5.33,10-8.07l-1.46-1.09a25.64,25.64,0,0,1-5.66,8.19.82.82,0,1,0,1.18,1.14,49.87,49.87,0,0,0,6.11-8.41,1,1,0,0,0-1.35-1.3c-3.61,2.34-7.17,4.77-10.74,7.16l1.9,2.38a82.42,82.42,0,0,0,12.57-12.62,1.52,1.52,0,0,0-1.83-2.28,76.29,76.29,0,0,0-17.36,12.11c-1.5,1.41.46,3.91,2,2.51,6.69-6,13.18-12.17,19.54-18.5,1.14-1.13.1-3.43-1.59-2.6-8.93,4.38-16.52,10.8-24,17.21.69.86,1.38,1.71,2.06,2.57,8.44-7.27,16.78-14.65,25.16-22a1.68,1.68,0,0,0-1.72-2.83A89.86,89.86,0,0,0,238.43,251c-1.61,1.5.43,4.15,2.18,2.71q7.9-6.47,15.82-12.89l7.54-6.14c1.84-1.5,4.12-3,4.1-5.64a1.63,1.63,0,0,0-2.23-1.66c-11.45,3.9-21.06,11.54-30.42,19l2.2,2.75q15.74-12.56,30.53-26.2a1.67,1.67,0,0,0-1.71-2.81c-11.85,5.3-22.06,13.2-32.16,21.25a1.67,1.67,0,0,0,2.09,2.6q16.59-13.17,33.11-26.42a1.46,1.46,0,0,0-1.5-2.47c-12.7,5.22-23.4,13.47-34.05,22l2,2.52c6.07-5.09,12.08-10.26,18.12-15.39l9.05-7.71c1.79-1.52,4.65-3.2,4.59-5.87-.15-6.13-9.88-.64-12.24.61a49.16,49.16,0,0,0-14.65,11.9,1.56,1.56,0,0,0,1.87,2.34,96,96,0,0,0,22.46-15.85c1.23-1.17.09-3.5-1.63-2.68a76.42,76.42,0,0,0-28.61,23.56c-1.13,1.54,1,3.71,2.47,2.37,6.66-6,13.41-11.86,20-18,1.69-1.59-.42-4.33-2.29-2.85a96.08,96.08,0,0,0-17.34,17.09c-.87,1.14.62,2.31,1.7,1.63l2.77-1.76c.92-.58,0-2-1-1.61Z" transform="translate(-155.82 -186.92)"/><path class="cls-3" d="M159.91,237.28l-1.51.53c.47.6.94,1.19,1.42,1.78a49.74,49.74,0,0,1,13.8-12.29c-.68-.85-1.36-1.69-2-2.54a91.53,91.53,0,0,1-11.18,16.08c-1.29,1.47,1.07,3.79,2.49,2.4,4.6-4.51,8.91-9.07,14.22-12.79l-2.06-2a115.54,115.54,0,0,1-13.82,17.21c-1.37,1.41.52,3.85,1.95,2.42,5.25-5.23,10.59-10.51,17.13-14.15l-2-2.52a112.7,112.7,0,0,1-12.41,15.65c-1.43,1.51,1,3.51,2.51,2.42,5.35-3.82,10.56-7.81,15.93-11.6L182,235.68q-5.88,7-11.77,14c-1.49,1.77,1.31,3.69,2.83,2.1A61.54,61.54,0,0,1,185.18,242l-2.35-2.25c-3.47,4.87-7.19,9.55-10.85,14.28-1.17,1.53,1,3.74,2.48,2.38,4.85-4.47,9.78-8.92,15.79-11.8l-1.85-2.31c-4.62,5.48-9.55,10.7-14.18,16.16-1.29,1.51,1,3.74,2.5,2.41,5.36-4.75,10.77-9.48,17.3-12.55L192.15,246c-4.57,5.49-9.33,10.81-13.85,16.34-1.2,1.47,1,3.56,2.41,2.31,5.73-4.95,11.5-9.86,18.49-12.95l-1.77-2.22c-5,5.45-10.06,10.84-15.07,16.27-1.19,1.28.87,3.19,2.18,2.1,6.14-5.13,12.35-10.26,19.67-13.64l-1.83-2.28q-7.23,8.73-15.25,16.77c-1.38,1.39.38,3.75,2,2.43,6.14-5.15,12-10.35,19.54-13.29l-1.56-2c-4.1,4.42-8.43,8.58-12.65,12.87-1.29,1.32.32,3.52,1.85,2.3a127.45,127.45,0,0,1,16.4-11.13l-1.58-2a31.12,31.12,0,0,1-8,8.4c-1.43,1.07.3,3.22,1.73,2.16,4.52-3.32,9.27-6.3,14.07-9.19,1.07-.64.4-2.4-.81-1.84a97,97,0,0,0-15,8.87l1.73,2.16a32.57,32.57,0,0,0,8.34-9c.65-1-.34-2.64-1.57-2a132.42,132.42,0,0,0-17.19,11.22c.62.77,1.23,1.54,1.85,2.3,4.45-4.38,8.62-9.05,12.88-13.62,1-1-.47-2.38-1.57-2-7.59,2.92-14.28,8-20.44,13.23l2,2.43q8.26-8.34,15.73-17.4a1.52,1.52,0,0,0-1.82-2.29c-7.55,3.53-14,8.73-20.36,14l2.18,2.1c5-5.45,10-10.92,15-16.34,1-1.12-.52-2.77-1.77-2.21-7.2,3.16-13.36,8-19.41,13l2.4,2.31c4.65-5.41,9-11,13.64-16.49,1-1.22-.51-2.95-1.87-2.35-6.85,3.06-12.59,7.82-18.24,12.66l2.5,2.41c4.7-5.4,9.11-11,13.83-16.43,1-1.18-.52-2.92-1.85-2.31-6.31,2.88-11.55,7.36-16.72,11.91l2.47,2.37c3.76-4.64,7.22-9.54,10.71-14.39,1.16-1.62-.83-3.19-2.35-2.26a67.11,67.11,0,0,0-12.54,9.92l2.51,2.42q5.76-7.11,11.54-14.2c1.19-1.47-.88-3.27-2.32-2.22-5.31,3.87-10.77,7.53-16.1,11.38l2.51,2.41A111.29,111.29,0,0,0,181,233.42c.82-1.26-.44-3.42-2-2.52-6.79,3.85-12.3,9.24-17.73,14.78l2.22,2.14a125.69,125.69,0,0,0,13.91-17.63,1.44,1.44,0,0,0-2.05-2,115.14,115.14,0,0,0-14.6,12.31l2.49,2.4a76.29,76.29,0,0,0,11.29-16.53c.81-1.65-1.35-2.79-2.62-1.94a52.54,52.54,0,0,0-13.95,13.74,1.18,1.18,0,0,0,1.42,1.77l1.47-.61c1.36-.56.44-2.55-.91-2.07Z" transform="translate(-155.82 -186.92)"/><path class="cls-3" d="M198.25,250.63a19.35,19.35,0,0,0,5.28-4.51c1.43-2,2.93-3.84,4.49-5.69,3-3.58,6.39-6.87,9.41-10.46l-10.22-5.72a101.67,101.67,0,0,1-6.9,10.55,70.18,70.18,0,0,1-8,9.93l7.48,7.2c4.61-5,8.81-10.33,13.45-15.3a140.85,140.85,0,0,1,14.59-13l-8.7-6.45c-2.93,6.1-7.76,11.29-12.09,16.42a149.55,149.55,0,0,0-12.75,16.71,5,5,0,0,0,.58,6.56c1.67,1.56,4.78,2.11,6.58.33,8.93-8.79,16.34-19.53,28.06-24.87L223.46,229c-.1-.48.33-.46-.18,0s-.85,1-1.29,1.46c-1.06,1.16-2.15,2.29-3.22,3.43L212,241.1c-4.4,4.69-8.76,9.42-13.14,14.13-3.82,4.11,3.17,10.94,7.15,6.88a124.83,124.83,0,0,1,33.15-24.6L232.42,231c-1.07,2-3.32,3.4-5,4.82q-3.55,3-7,6.22c-4.7,4.32-9.21,8.83-13.59,13.47-1.73,1.85-1.09,5.18.6,6.75,2,1.86,4.55,1.78,6.77.34,5.18-3.37,9.8-7.49,14.72-11.21a47.77,47.77,0,0,1,15.47-8.07l-5.72-7.15c-5.7,6.9-13.44,12.62-20.86,17.54l6,7.42c5.28-4.62,11-7.85,17.28-10.92l-5.39-6.73a105.23,105.23,0,0,1-8.14,9.4c-2.7,2.9,1.34,7,4.55,5.69a38.26,38.26,0,0,0,4.53-2c1.45-.84,2.66-2,4.18-2.75L238,250.31c-1.87,2.87-4.61,4.43-7.54,6.12-3.84,2.22-1.19,8.6,2.84,6.43,3.17-1.72,6-4,9.21-5.61l-3.74-4.68c-1.55,2-2.92,4-4.27,6.07s1.12,4.68,3.16,3,3.77-3.11,5.54-4.85a3.12,3.12,0,0,0-3.2-5.25c-3.5,1.26-7.5,2.82-10.32,5.33l4.4,5.47a25.7,25.7,0,0,0,3.91-4.56,27.79,27.79,0,0,1,3.76-4.74c1.32-1.41-.32-4.22-2.21-3.69-1.73.47-3.51.36-5.25.68a42.71,42.71,0,0,0-5.23,1.63l3.89,6.39a105.84,105.84,0,0,1,9.13-8.46,4.45,4.45,0,0,0,1-5.77c-1.27-2-3.38-2.44-5.58-1.78-7.23,2.18-14,6.67-19.63,11.65-4.6,4.11.91,10.84,6,7.42,8-5.4,14.7-11.85,21.67-18.44,3.24-3.07,1.28-9.2-3.66-8.39-13.39,2.21-23.19,13.05-34,20.26l7.36,7.09q6.53-7,13.62-13.52c4.61-4.19,10-7.8,13-13.37,2.11-3.9-3-8.38-6.73-6.5a129.09,129.09,0,0,0-36.21,26.95l8,6c4.83-5.54,9.68-11.07,14.47-16.64l7-8.16c2.19-2.53,4.36-5.11,3.66-8.71a4.41,4.41,0,0,0-6.07-3.34c-12.18,5.61-20.8,16.46-30.82,25l7.17,6.9c3.58-6.28,8.26-11.62,13-17a199.35,199.35,0,0,0,13.44-16.69,5.75,5.75,0,0,0-.13-6.84c-1.43-1.77-4.53-2.85-6.63-1.61-6.57,3.88-12,9.18-17.2,14.76a148.32,148.32,0,0,0-13.48,16.81c-3.79,5.56,4.28,11.59,8.41,6.23,2.87-3.72,6.12-7.12,9.09-10.77s5.71-7.45,8.54-11.19c4-5.25-3.32-12.63-8.43-8.12a60.33,60.33,0,0,0-10,11.9c-1.35,2-2.63,4.07-3.84,6.17a11.78,11.78,0,0,0-1.82,3.92c-.2,1.26-.22,2.6-.33,3.87a3.28,3.28,0,0,0,5.24,2.92Z" transform="translate(-155.82 -186.92)"/><path class="cls-3" d="M212.86,218.29l-.05,0,.4-.24a4.19,4.19,0,0,1-1,.42l.57-.17-.43.1a6.64,6.64,0,0,0-1,.27l3.34,3.22a7.84,7.84,0,0,1,.7-1.73l-.34.62a7.41,7.41,0,0,1,1.09-1.46l-.54.55.24-.23q-2.19-2.08-4.36-4.19c-.52.68-1,1.38-1.53,2.07a2.54,2.54,0,0,0-.51,1.15,2.46,2.46,0,0,0-.1,1.29l.25.85a2.45,2.45,0,0,0,.74,1,1.71,1.71,0,0,0,.67.49,2.51,2.51,0,0,0,1.19.42h.88a3.23,3.23,0,0,0,1.57-.69c.11-.1.22-.2.34-.29a10.31,10.31,0,0,0,.87-.88c-.19.21-.39.41-.59.62.51-.53,1.14-.94,1.6-1.5a5.32,5.32,0,0,0,.51-.94,2.82,2.82,0,0,0,.25-1.69,2.87,2.87,0,0,0-1.09-1.88,2.76,2.76,0,0,0-1.52-.62h-.28a3.33,3.33,0,0,0-1.36.13,2.11,2.11,0,0,0-.54.2c-.44.24-.87.5-1.28.78a7.4,7.4,0,0,0-1.6,1.56l5.69,3.18c.37-.77.76-1.53,1.12-2.3a2.26,2.26,0,0,0,.19-1.17,2.37,2.37,0,0,0-.23-1.2l-.41-.67a2.41,2.41,0,0,0-.91-.74,1.51,1.51,0,0,0-.72-.28,2.23,2.23,0,0,0-1.2-.09l-.79.23a2.94,2.94,0,0,0-1.21,1A10,10,0,0,0,210.3,218a9.82,9.82,0,0,0-.43,2.69c0,.22,0,.45,0,.67s.12.43.19.65l.33.55a1.86,1.86,0,0,0,.74.6,1.31,1.31,0,0,0,.6.24,1.21,1.21,0,0,0,.65.07,1.24,1.24,0,0,0,.66-.09,2,2,0,0,0,.88-.43,3.41,3.41,0,0,0,.61-.59,1.63,1.63,0,0,0,.17-.2,3.83,3.83,0,0,0,.28-.42,6.48,6.48,0,0,0,.66-1.38c0-.15.08-.3.11-.45a1.33,1.33,0,0,0-.07-.71,1.74,1.74,0,0,0-.64-.95,2.17,2.17,0,0,0-.85-.34,1.41,1.41,0,0,0-.71.07,1.34,1.34,0,0,0-.63.31Z" transform="translate(-155.82 -186.92)"/><path class="cls-3" d="M213.67,261.72a32,32,0,0,0,4.15-.13A21.51,21.51,0,0,0,222,260.5a2.44,2.44,0,0,0-1.34-4.63c-2.15.55-4.26,1.23-6.38,1.88a2.45,2.45,0,0,0,1.35,4.66c3.77-.78,7.54-1.52,11.34-2.18l-.75-5c-1.82.47-3.61,1-5.41,1.52l-4.67,1.37c.47,1.6.93,3.19,1.39,4.79a98.54,98.54,0,0,1,11.81-3l-1.86-4.25c-.29.18-.65.35-1.06.64a11.84,11.84,0,0,0-.92.81c-.61.54-1.23,1-1.87,1.55l1.94,2.41a8.58,8.58,0,0,1,2.89-1.76c1-.4.5-1.88-.51-1.78a20.16,20.16,0,0,0-4,.92c-1.68.51-.84,3.26.85,2.95.87-.16,1.73-.34,2.58-.57a8.67,8.67,0,0,0,1.5-.46,17.36,17.36,0,0,0,1.6-1,2.41,2.41,0,0,0,.69-2.85,2.46,2.46,0,0,0-2.56-1.41c-4.42.83-8.81,1.89-13.13,3.15a2.52,2.52,0,0,0,1.38,4.79c3.58-1,7.19-1.93,10.74-3a2.54,2.54,0,0,0-1.4-4.83c-3.76.86-7.52,1.62-11.31,2.36l1.35,4.66c1.92-.56,3.85-1.09,5.74-1.73-.66-1.48-1.31-3-2-4.45-1.08.45-2.2.79-3.29,1.19s-2,.77-3.09,1.06a1.74,1.74,0,0,0-1.45,1.73,1.71,1.71,0,0,0,1.5,1.69Z" transform="translate(-155.82 -186.92)"/><path class="cls-3" d="M238.82,250.63a44.5,44.5,0,0,1,4.1-1.84,33.4,33.4,0,0,0,4.12-2.42,56.89,56.89,0,0,0,7.09-5.77,2.05,2.05,0,0,0-2.56-3.2c-2.41,1.78-4.93,3.45-7.21,5.39-1.13,1-2.26,1.88-3.3,2.94a32.07,32.07,0,0,1-3.24,3.25c-.85.65,0,2.22,1,1.65Z" transform="translate(-155.82 -186.92)"/><path class="cls-3" d="M233.43,258.89l-.2,0c-1.28,0-1.19,2.08,0,2.22s2.52-.73,3.6-1.2,2.22-1.13,3.32-1.71a35.28,35.28,0,0,0,6.37-4c.65-.54.22-1.9-.72-1.65a25.83,25.83,0,0,0-3.53,1.22c-1.18.51-2.32,1.1-3.47,1.69s-2.25,1.09-3.32,1.74-2.52,1.23-3.15,2.37l1.91-.28-.2-.22c0,.14.07.28.11.41v-.2c0-.35-.42-.73-.75-.42Z" transform="translate(-155.82 -186.92)"/><path class="cls-4" d="M221.93,279.73c17,2.4,32.58,8.43,44.33,21.47,12,13.36,19.26,30.58,24.14,47.69,9.33,32.7,9.52,71.13-14.87,97.52-10.15,11-24,18.38-39.06,19.25s-29.57-5.23-41.08-14.42c-27.64-22-33-59.32-26.71-92.29,3.44-18,10.08-35.84,20.87-50.8A79.09,79.09,0,0,1,207.39,290c7.24-5.18,15.38-7.91,23.86-10.31,4.16-1.18,5.27-8.6-.11-8.57-17.11.1-32.27,10.71-43.4,23-12.14,13.4-20.43,30.3-25.51,47.55-10.94,37.2-9.88,82.09,19,111.23,24.87,25.12,63,32.26,92,9.81,31.85-24.58,38-66.83,29.91-104.11-4.79-21.9-13-44.91-28.27-61.74-12.92-14.2-33.76-26.42-53.38-20-1.51.49-1,2.73.44,2.93Z" transform="translate(-155.82 -186.92)"/><path class="cls-3" d="M351.63,329.18a3.12,3.12,0,0,1,4.2,2.07,5.43,5.43,0,0,1,.17,2.59,8.32,8.32,0,0,1-.68,2.32l-.56.86-1.05.41a4.3,4.3,0,0,0-.58,3.3,4.08,4.08,0,0,0,1.66,2.27,5.88,5.88,0,0,0,2.93,1,6.11,6.11,0,0,0,3.21-.6,10.53,10.53,0,0,0,3.83-3,18.9,18.9,0,0,0,2.66-4.29,21.41,21.41,0,0,0,1.55-4.85,27,27,0,0,0,.51-4.65l-.19-1.26-.56-1.46a12.52,12.52,0,0,0-4.58-3.17,13,13,0,0,0-5.85-1.06,11.24,11.24,0,0,0-10.13,7.54c-.4.8-.89,1-1.49.65a5.46,5.46,0,0,1-1.68-1.8,10.19,10.19,0,0,1-1.19-2.82,3.56,3.56,0,0,1,.06-2.49,11.76,11.76,0,0,1,2.1-3.4,12.29,12.29,0,0,1,3.48-2.23,14.67,14.67,0,0,1,5.16-1.32,19.73,19.73,0,0,1,5.22.33,19.31,19.31,0,0,1,4.92,1.72,18.33,18.33,0,0,1,4.14,2.8,13.75,13.75,0,0,1,2.72,3.58,17.58,17.58,0,0,1,1.56,4.44,10.29,10.29,0,0,1-.08,3.77,31.87,31.87,0,0,1-1.18,4.5c-.51,1.53-1.09,3-1.73,4.45a36.25,36.25,0,0,1-1.85,3.66,15.31,15.31,0,0,1-1.65,2.21,21.48,21.48,0,0,1-2.09,2,8.23,8.23,0,0,1-4.29,2,12,12,0,0,1-4.62-.3,7.88,7.88,0,0,1-4.08-2.69,13.88,13.88,0,0,1-2.53-4.63,14.52,14.52,0,0,1-.72-5.41,11.57,11.57,0,0,1,1.35-5,11.06,11.06,0,0,1,.81-1.15A2.79,2.79,0,0,1,351.63,329.18Z" transform="translate(-155.82 -186.92)"/><path class="cls-3" d="M381.41,319.92a6.71,6.71,0,0,1-2.13-2.21,5.31,5.31,0,0,1-.79-2.75,2.47,2.47,0,0,1,1.42-2.22c1.29-.59,2.67-1.19,4.15-1.77a21,21,0,0,1,4.52-1.27,12.31,12.31,0,0,1,4.41,0,7.6,7.6,0,0,1,3.82,2,12,12,0,0,1,3.27,6.49,35.67,35.67,0,0,1,.54,8.56,60.67,60.67,0,0,1-1.11,8.94c-.59,2.94-1.18,5.46-1.79,7.54-.85.82-1.54,1.16-2.07,1a1.94,1.94,0,0,1-1.27-1,5.57,5.57,0,0,1-.58-2.19,9.05,9.05,0,0,1,.08-2.36,45.11,45.11,0,0,1,1.43-5.9q.88-2.74,1.51-5.41a26.35,26.35,0,0,0,.71-5.33,14.09,14.09,0,0,0-1-5.49l-.37-.72-.48-.35-.62-.17-.28-.13-.88-.21-.85,0-1,.23-1.92.89-6.05,4.23A3.1,3.1,0,0,1,381.41,319.92Z" transform="translate(-155.82 -186.92)"/><path class="cls-3" d="M417.81,335.61c.31,1.73,0,3-.85,3.81a3.85,3.85,0,0,1-3.09,1.06,5.11,5.11,0,0,1-3.24-1.66,5.44,5.44,0,0,1-1.29-4.35,40.77,40.77,0,0,1,1.55-9.43,9.22,9.22,0,0,1,2.63-4.46,3.71,3.71,0,0,1,3.37-.67,11.61,11.61,0,0,1,3.75,1.89,31.43,31.43,0,0,1,3.77,3.24q1.86,1.86,3.42,3.39a20.19,20.19,0,0,0,2.69,2.3c.77.51,1.3.49,1.62-.07q.39-2.55.83-5.35a18.86,18.86,0,0,0,.12-5.28,8.85,8.85,0,0,0-1.76-4.32,7.47,7.47,0,0,0-4.77-2.46,10.91,10.91,0,0,0-3.53-.12,36.26,36.26,0,0,0-3.79.7q-2,.45-3.84,1a25.21,25.21,0,0,1-3.67.67,5.8,5.8,0,0,1-3.75-.82,2.4,2.4,0,0,1-.84-3,8.56,8.56,0,0,1,1.28-2.59,7.41,7.41,0,0,1,1.77-1.63,16.47,16.47,0,0,1,2.3-1.24c.85-.38,1.79-.85,2.79-1.4q3.11-1.58,5.82-2.62t5.58-1.85c1.92-.55,3.95-1.06,6.11-1.55s4.54-1.11,7.17-1.84a3.52,3.52,0,0,1,2.47,1.09,6.32,6.32,0,0,1,1.71,2.53,4.63,4.63,0,0,1,.19,2.71,2.43,2.43,0,0,1-2,1.71,14.53,14.53,0,0,1-1.56.1l-2.26.08c-.8,0-1.55.06-2.26.07a14.36,14.36,0,0,0-1.57.11c-2,.25-3.89.45-5.64.63a45.87,45.87,0,0,0-5.19.81,35,35,0,0,0-5.24,1.59,40.1,40.1,0,0,0-5.66,2.77,52.37,52.37,0,0,1,12.11-2.57,16.13,16.13,0,0,1,8,1.17,9.08,9.08,0,0,1,4.45,4.64,21.45,21.45,0,0,1,1.6,7.86,14,14,0,0,1-.21,2.94,32.3,32.3,0,0,1-.84,3.8,34,34,0,0,1-1.29,3.7,8.44,8.44,0,0,1-1.62,2.64,2.64,2.64,0,0,1-2.74.92,11,11,0,0,1-3.47-1.49,32.76,32.76,0,0,1-3.79-2.78q-2-1.64-3.69-2.92a14.52,14.52,0,0,0-3.14-1.84,1.93,1.93,0,0,0-2.23.24,5.39,5.39,0,0,0-1.29,2,6.22,6.22,0,0,0-.37,2.11,3.62,3.62,0,0,0,.32,1.58c.2.4.47.55.79.44a1.39,1.39,0,0,1,1.08.06,2.06,2.06,0,0,1,.69.62,2.34,2.34,0,0,1,.38.8C417.75,335.31,417.79,335.5,417.81,335.61Z" transform="translate(-155.82 -186.92)"/><path class="cls-3" d="M448.16,310a6.71,6.71,0,0,1-2.13-2.21,5.28,5.28,0,0,1-.79-2.75,2.48,2.48,0,0,1,1.42-2.22c1.29-.59,2.67-1.18,4.15-1.77a21.62,21.62,0,0,1,4.52-1.27,12.31,12.31,0,0,1,4.41,0,7.6,7.6,0,0,1,3.82,2.05,12,12,0,0,1,3.27,6.49,35.71,35.71,0,0,1,.54,8.56,60.67,60.67,0,0,1-1.11,8.94c-.59,3-1.18,5.46-1.79,7.55-.85.81-1.54,1.15-2.07,1a1.94,1.94,0,0,1-1.27-1.05,5.74,5.74,0,0,1-.58-2.18,9.11,9.11,0,0,1,.08-2.37,45.11,45.11,0,0,1,1.43-5.9q.88-2.75,1.51-5.41a26.25,26.25,0,0,0,.71-5.33,14.09,14.09,0,0,0-1-5.49l-.37-.72-.48-.35-.62-.17-.28-.13-.88-.21-.85,0-1,.24-1.92.88-6.05,4.24A3.11,3.11,0,0,1,448.16,310Z" transform="translate(-155.82 -186.92)"/><path class="cls-3" d="M496.34,303a3.1,3.1,0,0,1-2.49-.31,6,6,0,0,1-2.91-4.32,3.79,3.79,0,0,1,.55-2.61,6.34,6.34,0,0,1,3.61-1.05,5.87,5.87,0,0,1,3.11,1,8.19,8.19,0,0,1,2.34,2.51,9,9,0,0,1,1.24,3.42,28.29,28.29,0,0,1,.28,3.59,33.06,33.06,0,0,1-.14,3.66,34.17,34.17,0,0,1-1.05,6.49,39,39,0,0,0-1.15,6.42,6.82,6.82,0,0,0,2.79.62,24.56,24.56,0,0,0,3.62-.12c1.24-.12,2.44-.3,3.61-.53s2.1-.4,2.83-.51a2.21,2.21,0,0,1,.66-.18,13.23,13.23,0,0,0,1.67-3.71,26.71,26.71,0,0,0,.8-4.15c.16-1.42.25-2.81.28-4.19s.06-2.66.11-3.87c.07-2.17.11-4.4.12-6.65s.1-4.52.27-6.8a57.06,57.06,0,0,1,.93-6.73,31.43,31.43,0,0,1,2.07-6.52c.59-1,1.3-1.43,2.12-1.3a3.7,3.7,0,0,1,2.22,1.39,8.52,8.52,0,0,1,1.52,2.81,4.86,4.86,0,0,1,.15,3,26.71,26.71,0,0,0-2.83,6.59A49.81,49.81,0,0,0,521.2,298c-.33,2.41-.57,4.82-.73,7.21s-.38,4.72-.67,7q-.39,3.13-1.1,6.46a14.57,14.57,0,0,1-2.71,5.92,1.29,1.29,0,0,1-.87.47l-.51.07a54.41,54.41,0,0,1-5.95,1.41,26.3,26.3,0,0,1-6,.37,7.84,7.84,0,0,1-4.47-1.51,6.59,6.59,0,0,1-2.1-3.24,13.22,13.22,0,0,1-.49-4.43c.07-1.63.21-3.32.4-5.06s.37-3.46.52-5.17a20.26,20.26,0,0,0-.09-4.65C496.42,302.93,496.39,303,496.34,303Z" transform="translate(-155.82 -186.92)"/><path class="cls-3" d="M499,279.64a4.76,4.76,0,0,1,.81-3.2,3,3,0,0,1,2-1.2,3,3,0,0,1,2.15.62,3.17,3.17,0,0,1,1.22,2.18l.2.74c-.57,1.17-.75,2-.56,2.35s.64.52,1.3.36a8.26,8.26,0,0,0,2.48-1.18,18.88,18.88,0,0,0,2.91-2.31,19.66,19.66,0,0,0,2.55-3,9,9,0,0,0,1.48-3.3,5.24,5.24,0,0,1,2-2,12.1,12.1,0,0,1,3-1.43,8.21,8.21,0,0,1,2.67-.44c.75,0,1.08.34,1,.92a39.18,39.18,0,0,1-3.31,5.71,35,35,0,0,1-3.91,4.74,22.68,22.68,0,0,1-4.29,3.41,13.32,13.32,0,0,1-4.49,1.79,10.13,10.13,0,0,1-3,.15,9.38,9.38,0,0,1-2.81-.74,6.12,6.12,0,0,1-2.16-1.61A5.38,5.38,0,0,1,499,279.64Z" transform="translate(-155.82 -186.92)"/><path class="cls-3" d="M535.06,297.39a3.1,3.1,0,0,1-2.49-.31,5.92,5.92,0,0,1-1.94-1.82,5.84,5.84,0,0,1-1-2.5,3.72,3.72,0,0,1,.55-2.61,8.13,8.13,0,0,1,4.21-1.66,6.91,6.91,0,0,1,3.79.77,7.9,7.9,0,0,1,2.84,2.66,9.28,9.28,0,0,1,1.42,4.11,18.65,18.65,0,0,1-.36,6.47q-.76,3.28-1.48,6.48c-.27,1.29-.52,2.63-.77,4a16.76,16.76,0,0,0-.27,4,9.65,9.65,0,0,0,3.16-2.09q1.62-1.53,3.27-3.35c1.1-1.23,2.22-2.44,3.35-3.67a19.33,19.33,0,0,1,3.49-3c-.09-1-.16-1.93-.22-2.93a23.59,23.59,0,0,1,0-3,24.27,24.27,0,0,1,.36-3.65c.23-1.35.49-2.73.8-4.15s.64-2.78,1-4.08a32.75,32.75,0,0,1,1.19-3.52c.59-1,1.29-1.43,2.12-1.3a3.71,3.71,0,0,1,2.21,1.39,8.41,8.41,0,0,1,1.53,2.8,5,5,0,0,1,.15,3,15.08,15.08,0,0,0-.94,2.06c-.31.82-.58,1.65-.83,2.48s-.48,1.66-.7,2.46-.41,1.5-.55,2.09c-.22.84-.4,1.69-.56,2.57s-.31,1.78-.45,2.72a6.11,6.11,0,0,1,3,2.2,12.44,12.44,0,0,1,2,3.81,14.71,14.71,0,0,1,.74,4.35,8,8,0,0,1-.84,3.88c-.62,1.18-1.31,1.81-2.07,1.9a3.43,3.43,0,0,1-2.27-.61,8,8,0,0,1-2-1.88,10.05,10.05,0,0,1-1.29-2c-.36-.92-.69-1.81-1-2.68a21.5,21.5,0,0,1-.76-2.8,4.6,4.6,0,0,1-.67.7,25.26,25.26,0,0,0-2.34,2.7q-1.29,1.7-2.71,3.36a39.27,39.27,0,0,1-2.92,3.09,9.29,9.29,0,0,1-3,2,3.75,3.75,0,0,1-2.92-.08,9.28,9.28,0,0,1-3.48-5,8.43,8.43,0,0,1-.22-2.1c0-1,0-1.89,0-2.78a23.79,23.79,0,0,1,.28-2.74q.28-2.7.65-5.4t.65-5.41a3.86,3.86,0,0,1,0-.73,12.34,12.34,0,0,0,0-1.25l-.59.09A5.84,5.84,0,0,0,535.06,297.39Zm22.7,10.49a19.22,19.22,0,0,0,.28,3.34,11.6,11.6,0,0,0,.92,3l.21-.29a8.2,8.2,0,0,0,.62-3.6,2.8,2.8,0,0,0-1.95-2.45Z" transform="translate(-155.82 -186.92)"/><path class="cls-3" d="M577.17,295.67a3.56,3.56,0,0,1,2.82.22,3.49,3.49,0,0,1,1.38,1.85,5.56,5.56,0,0,1,.18,2.59,8.32,8.32,0,0,1-.68,2.32l-.56.86-1,.41a4.31,4.31,0,0,0-.59,3.3,4.1,4.1,0,0,0,1.67,2.27,5.85,5.85,0,0,0,2.93,1,6.1,6.1,0,0,0,3.2-.6,10.48,10.48,0,0,0,3.84-3,19.63,19.63,0,0,0,2.66-4.29,21.41,21.41,0,0,0,1.55-4.85,27,27,0,0,0,.51-4.66l-.19-1.25-.56-1.46a12.61,12.61,0,0,0-4.58-3.17,13,13,0,0,0-5.85-1.06A11.74,11.74,0,0,0,578.1,288a11.89,11.89,0,0,0-4.39,5.66c-.39.8-.89,1-1.48.65a5.46,5.46,0,0,1-1.68-1.8,9.62,9.62,0,0,1-1.19-2.82,3.66,3.66,0,0,1,0-2.5,11.9,11.9,0,0,1,2.11-3.39,12.29,12.29,0,0,1,3.48-2.23,14.62,14.62,0,0,1,5.15-1.32,19.3,19.3,0,0,1,10.15,2,19.18,19.18,0,0,1,4.14,2.81,14,14,0,0,1,2.72,3.58,18.47,18.47,0,0,1,1.56,4.43,10.16,10.16,0,0,1-.09,3.78,31.8,31.8,0,0,1-1.17,4.5c-.51,1.53-1.09,3-1.73,4.45a38.32,38.32,0,0,1-1.86,3.66,16.45,16.45,0,0,1-1.64,2.21,22.68,22.68,0,0,1-2.09,2,8.31,8.31,0,0,1-4.29,2,12.11,12.11,0,0,1-4.63-.3,8,8,0,0,1-4.08-2.69,14.35,14.35,0,0,1-2.53-4.63,14.72,14.72,0,0,1-.71-5.41,11.71,11.71,0,0,1,1.34-5,9.86,9.86,0,0,1,.82-1.15A2.76,2.76,0,0,1,577.17,295.67Z" transform="translate(-155.82 -186.92)"/><path class="cls-3" d="M569.56,274.07a2.87,2.87,0,0,1-1.54-.84,7.93,7.93,0,0,1-1.43-1.8,5.37,5.37,0,0,1-.71-1.65c-.26-2.53.19-4.35,1.37-5.46s3.08-1.47,5.71-1.07a35.14,35.14,0,0,1,4.5,1c1.61.45,3.24.83,4.88,1.16a29.34,29.34,0,0,0,4.84.56,10.17,10.17,0,0,0,4.3-.72,3.44,3.44,0,0,1,1.74.77,7.35,7.35,0,0,1,1.66,1.68,5.06,5.06,0,0,1,.91,2.09,2,2,0,0,1-.45,1.82,23.23,23.23,0,0,1-8,0,35.49,35.49,0,0,1-5.6-1.65q-2.41-1-4.61-1.63a9.49,9.49,0,0,0-5.16.12l-.93.66-.56.85-.14.79.07,1,.26,1.16C570.41,273.76,570.05,274.14,569.56,274.07Z" transform="translate(-155.82 -186.92)"/><path class="cls-3" d="M591.53,256.9a2.54,2.54,0,0,1-2,.3,5.28,5.28,0,0,1-2.07-.94,3.54,3.54,0,0,1-1.26-1.61,1.59,1.59,0,0,1,.3-1.71,3.22,3.22,0,0,0,.58-.39,1.17,1.17,0,0,0,.38-1.21,8.53,8.53,0,0,0-.36-1.27c-.21-.63-.39-1.3-.56-2a6.64,6.64,0,0,1-.14-2.12,2.6,2.6,0,0,1,.94-1.76,3.27,3.27,0,0,1,2.2.14,6.94,6.94,0,0,1,2.11,1.23,3,3,0,0,1,1.06,1.64q.16.87-1,1.38a1.18,1.18,0,0,0-.38.32,2.38,2.38,0,0,0-.27,1.62c.1.64.23,1.31.38,2a17.83,17.83,0,0,1,.37,2.17A4.64,4.64,0,0,1,591.53,256.9Z" transform="translate(-155.82 -186.92)"/><path class="cls-3" d="M617.81,280.56a18.18,18.18,0,0,1,1.93,5.19,23.88,23.88,0,0,1,.5,4.76,25.64,25.64,0,0,1-.32,3.94l-.48,2.82,1.92.82c1.4.59,2.65,1.13,3.75,1.63a15,15,0,0,1,3.41,2.19c.2-1.34.38-2.83.54-4.45s.27-3.26.33-4.93.11-3.32.12-5,0-3.2,0-4.62,0-2.75,0-4.32a10,10,0,0,1,1-4.22c.59-1,1.27-1.43,2-1.29a3.77,3.77,0,0,1,2.13,1.36,7.87,7.87,0,0,1,1.52,2.77,4.47,4.47,0,0,1,.13,2.89,6.91,6.91,0,0,0-1.17,3.89c0,1.52-.08,2.86-.14,4-.08,1.32-.17,2.84-.26,4.53s-.24,3.42-.43,5.16-.47,3.42-.8,5a30,30,0,0,1-1.16,4.24.88.88,0,0,0-.37.4.58.58,0,0,0-.25.07.33.33,0,0,1-.16.07,3.28,3.28,0,0,1-1,0,3,3,0,0,1-.83-.35c-.57-.43-1.12-.86-1.64-1.3s-1-.84-1.55-1.22a33.89,33.89,0,0,0-3.77-2.27,40.84,40.84,0,0,0-4.12-1.87,27.76,27.76,0,0,1-1.18,4.5,24.5,24.5,0,0,1-2,4.37,10.15,10.15,0,0,1-1,1.3,3,3,0,0,1-2.14,1.13,4.73,4.73,0,0,1-4.63-2.31,10.42,10.42,0,0,1-1.53-3.7,7.64,7.64,0,0,1,.28-4.15,6.89,6.89,0,0,1,.81-1.75,10.7,10.7,0,0,1,1.4-1.79,7.49,7.49,0,0,1,1.73-1.37,4.13,4.13,0,0,1,1.84-.58,3.9,3.9,0,0,1,1,.2c.23-.77.52-1.93.89-3.47a31.34,31.34,0,0,0,.77-4.4,8.37,8.37,0,0,0-.2-3.3q-.39-1.23-2-.39a3.11,3.11,0,0,1-2.4-.59,4.74,4.74,0,0,1-1.58-2,5,5,0,0,1-.41-2.5,3.32,3.32,0,0,1,1.08-2.22,4.21,4.21,0,0,1,2.66-1.38,4.16,4.16,0,0,1,2.45.62,8.16,8.16,0,0,1,2,1.76A10.77,10.77,0,0,1,617.81,280.56Zm-5.36,18.6a1.89,1.89,0,0,0-1.69.21,2.79,2.79,0,0,0-.89,1.46,1.83,1.83,0,0,0-.06,1,2,2,0,0,0,.42.84,1.12,1.12,0,0,0,.61.38c.21,0,.35-.08.43-.32.24-.66.44-1.25.59-1.76S612.21,299.88,612.45,299.16Z" transform="translate(-155.82 -186.92)"/><path class="cls-3" d="M331.85,410.21a3.06,3.06,0,0,1-2.49-.32,5.79,5.79,0,0,1-1.94-1.81,6,6,0,0,1-1-2.5A3.78,3.78,0,0,1,327,403a6.36,6.36,0,0,1,3.61-1.05,6,6,0,0,1,3.11,1,8.5,8.5,0,0,1,2.35,2.52,9.18,9.18,0,0,1,1.23,3.42,26.69,26.69,0,0,1,.28,3.59,41.93,41.93,0,0,1-1.19,10.15,38,38,0,0,0-1.14,6.42,6.61,6.61,0,0,0,2.78.62,24.54,24.54,0,0,0,3.62-.11c1.24-.13,2.44-.31,3.61-.54s2.1-.4,2.83-.51a2.21,2.21,0,0,1,.66-.18,13.29,13.29,0,0,0,1.67-3.72,26.81,26.81,0,0,0,.8-4.14c.16-1.42.25-2.82.28-4.19s.06-2.66.11-3.87q.11-3.27.12-6.65T352,399a57.94,57.94,0,0,1,.93-6.73,31.53,31.53,0,0,1,2.07-6.51c.59-1,1.3-1.43,2.12-1.3a3.73,3.73,0,0,1,2.22,1.38,8.69,8.69,0,0,1,1.53,2.82,4.93,4.93,0,0,1,.14,3,26.71,26.71,0,0,0-2.83,6.59,49.81,49.81,0,0,0-1.47,7.11c-.33,2.41-.57,4.82-.73,7.21s-.38,4.72-.67,7c-.26,2.09-.62,4.25-1.1,6.45a14.49,14.49,0,0,1-2.71,5.93,1.25,1.25,0,0,1-.87.47l-.51.08a52.19,52.19,0,0,1-5.95,1.39,26.34,26.34,0,0,1-6,.39,7.93,7.93,0,0,1-4.46-1.52,6.53,6.53,0,0,1-2.11-3.25,13.13,13.13,0,0,1-.49-4.42c.07-1.63.21-3.32.4-5.06s.37-3.47.52-5.17a20.36,20.36,0,0,0-.09-4.66A.08.08,0,0,1,331.85,410.21Z" transform="translate(-155.82 -186.92)"/><path class="cls-3" d="M334.46,386.88a4.76,4.76,0,0,1,.81-3.2,2.85,2.85,0,0,1,4.15-.57,3.13,3.13,0,0,1,1.22,2.17l.19.74c-.56,1.17-.74,2-.54,2.35s.63.52,1.29.36a8.51,8.51,0,0,0,2.48-1.18,18.37,18.37,0,0,0,2.91-2.32,19.11,19.11,0,0,0,2.55-3,9,9,0,0,0,1.48-3.31,5.29,5.29,0,0,1,2-2,12.46,12.46,0,0,1,3-1.43,8,8,0,0,1,2.68-.44c.74,0,1.07.34,1,.92a38.66,38.66,0,0,1-3.31,5.71,35,35,0,0,1-3.91,4.74,23.16,23.16,0,0,1-4.29,3.42,13.5,13.5,0,0,1-4.49,1.78,9.8,9.8,0,0,1-3,.14,9.08,9.08,0,0,1-2.81-.73,6.12,6.12,0,0,1-2.16-1.61A5.38,5.38,0,0,1,334.46,386.88Z" transform="translate(-155.82 -186.92)"/><path class="cls-3" d="M370.57,404.63a3.1,3.1,0,0,1-2.49-.32,5.89,5.89,0,0,1-1.94-1.81,6,6,0,0,1-1-2.51,3.76,3.76,0,0,1,.55-2.6,8,8,0,0,1,4.21-1.65,6.73,6.73,0,0,1,3.79.76,7.9,7.9,0,0,1,2.84,2.66,9.28,9.28,0,0,1,1.42,4.11,18.72,18.72,0,0,1-.36,6.48c-.51,2.18-1,4.34-1.48,6.46-.26,1.3-.52,2.64-.77,4a16.25,16.25,0,0,0-.26,4,9.62,9.62,0,0,0,3.15-2.09q1.62-1.53,3.27-3.36c1.1-1.21,2.22-2.44,3.35-3.66a20.23,20.23,0,0,1,3.49-3.05c-.09-.95-.16-1.92-.22-2.91a23.9,23.9,0,0,1,0-3.05,24.52,24.52,0,0,1,.36-3.65c.23-1.34.49-2.72.8-4.14s.64-2.77,1-4.09a33.3,33.3,0,0,1,1.19-3.51c.59-1,1.3-1.44,2.12-1.3a3.65,3.65,0,0,1,2.21,1.38,8.71,8.71,0,0,1,1.54,2.82,5,5,0,0,1,.14,3,15.08,15.08,0,0,0-.94,2.06c-.3.82-.58,1.65-.83,2.48s-.48,1.65-.7,2.46-.41,1.5-.55,2.09c-.22.83-.4,1.69-.56,2.57s-.31,1.79-.45,2.72a6.11,6.11,0,0,1,3,2.2,12.44,12.44,0,0,1,2,3.81,14.33,14.33,0,0,1,.74,4.34,8.09,8.09,0,0,1-.84,3.9q-.93,1.75-2.07,1.89a3.47,3.47,0,0,1-2.27-.6,8.26,8.26,0,0,1-2-1.89,9.79,9.79,0,0,1-1.29-2c-.36-.92-.69-1.81-1-2.68a21.5,21.5,0,0,1-.76-2.8,5.12,5.12,0,0,1-.67.7,24.3,24.3,0,0,0-2.34,2.7q-1.29,1.69-2.71,3.36a39.27,39.27,0,0,1-2.92,3.09,9.12,9.12,0,0,1-3,2,3.71,3.71,0,0,1-2.92-.08,9.32,9.32,0,0,1-3.48-5,8.61,8.61,0,0,1-.22-2.11c0-1,0-1.89,0-2.79a24.08,24.08,0,0,1,.28-2.73q.28-2.7.65-5.41c.25-1.8.46-3.6.65-5.4a5,5,0,0,1,0-.73,12.42,12.42,0,0,0,0-1.25l-.59.09A5.32,5.32,0,0,0,370.57,404.63Zm22.7,10.49a19.22,19.22,0,0,0,.28,3.34,11.8,11.8,0,0,0,.92,3l.21-.3a8.2,8.2,0,0,0,.62-3.6,2.79,2.79,0,0,0-1.95-2.45Z" transform="translate(-155.82 -186.92)"/><path class="cls-3" d="M509.75,386.09a44.23,44.23,0,0,0,.17,13.84,3.71,3.71,0,0,1,2.06.85,7,7,0,0,1,1.56,1.87,5.91,5.91,0,0,1,.76,2.28,3,3,0,0,1-.42,2,6,6,0,0,1-2.05,1.77,2.89,2.89,0,0,1-2.32.21,5.17,5.17,0,0,1-2-1.21,8.1,8.1,0,0,1-1.49-2,11.4,11.4,0,0,1-1-2.13,16.86,16.86,0,0,1-.87-4.7c-.08-1.73-.13-3.36-.13-4.9a50,50,0,0,1,.39-6.31q.4-3.32,1.1-6.71t1.58-6.66c.59-2.17,1.23-4.21,1.91-6.15s1.35-3.78,2.14-5.75a53.18,53.18,0,0,0,2-5.9,29.53,29.53,0,0,0,1-5.89,15.73,15.73,0,0,0-.63-5.72,7.48,7.48,0,0,0-.86-1.72,8.7,8.7,0,0,0-1.34-1.55l-1.09-.44a5.64,5.64,0,0,1-.76.07c-.23,0-.48,0-.76.07a6.6,6.6,0,0,0-3.37,1.83,10.75,10.75,0,0,0-2.1,3.13,16.49,16.49,0,0,0-1.18,3.91c-.25,1.4-.44,2.77-.59,4.1q-.66,1.9-1.77,1.89a3.22,3.22,0,0,1-2.21-1,8,8,0,0,1-1.81-2.68,5.44,5.44,0,0,1-.49-3c.12-.7.22-1.29.29-1.76a12.3,12.3,0,0,1,.27-1.32,10.34,10.34,0,0,1,.42-1.26,15.66,15.66,0,0,1,.78-1.66,24.47,24.47,0,0,1,1.71-2.86,13.82,13.82,0,0,1,2.18-2.6,10.64,10.64,0,0,1,5.42-3,7.58,7.58,0,0,1,4.68.72,11.3,11.3,0,0,1,3.78,3.24,21.41,21.41,0,0,1,2.69,4.57,10.51,10.51,0,0,1,.61,3.51,28.34,28.34,0,0,1-.23,4.18c-.19,1.43-.44,2.82-.76,4.18s-.57,2.48-.78,3.37c-.59,2.14-1.21,4.36-1.83,6.65s-1.24,4.62-1.83,7-1.14,4.71-1.66,7S510.06,383.93,509.75,386.09Z" transform="translate(-155.82 -186.92)"/><path class="cls-3" d="M521.42,398.39a15.66,15.66,0,0,1,.23-4.22c.28-1.58.59-3.21.94-4.9s.66-3.36.92-5a21.75,21.75,0,0,0,.25-4.66,5.57,5.57,0,0,1-2.56-2.79,4.1,4.1,0,0,1,.22-3.71,4.91,4.91,0,0,0,.86-.56,1.64,1.64,0,0,1,.8-.38,3.8,3.8,0,0,1,3.2.47,6.33,6.33,0,0,1,2,2.52,13.52,13.52,0,0,1,1.07,3.44,15.42,15.42,0,0,1,.26,3.21,31.45,31.45,0,0,1-.71,4.73c-.36,1.59-.77,3.2-1.21,4.8s-.84,3.21-1.17,4.8a22.43,22.43,0,0,0-.5,4.7,3.51,3.51,0,0,0,.05.93,4.79,4.79,0,0,0,1.61-1,20.81,20.81,0,0,0,2.68-3,37.07,37.07,0,0,0,3.39-5.39,16.84,16.84,0,0,1-.87-2.39,10.3,10.3,0,0,1-.38-2.56,29.53,29.53,0,0,1,.49-5.34,23.27,23.27,0,0,1,1.72-5.48,16.16,16.16,0,0,1,3.12-4.61,10.81,10.81,0,0,1,4.71-2.84,2.4,2.4,0,0,1,1.93.87,5.69,5.69,0,0,1,1.07,2l-.44,1.61h0a72.23,72.23,0,0,1-2.9,9,91.72,91.72,0,0,1-4.1,9,11.72,11.72,0,0,0,2.74,3.75,10,10,0,0,0,4.14,2.25l2.26-.34a4,4,0,0,1,2.6,1.07,8,8,0,0,1,2,2.48,4.31,4.31,0,0,1,.52,2.66c-.13.85-.77,1.42-1.93,1.7a15.4,15.4,0,0,1-5-.46,12.75,12.75,0,0,1-4-1.85,16.72,16.72,0,0,1-3.22-3,23.75,23.75,0,0,1-2.63-3.9c-1.19,2-2.45,3.92-3.77,5.75a59.54,59.54,0,0,1-4.28,5.21,7.15,7.15,0,0,1-1.36,0,4.58,4.58,0,0,1-2.24-1.21,7.09,7.09,0,0,1-1.47-2.13,10.65,10.65,0,0,1-.82-2.62C521.61,400.12,521.49,399.24,521.42,398.39Zm16.42-17.93a7.73,7.73,0,0,0-.46,1.44c-.11.47-.21.94-.31,1.41l2.48-6.36A13.33,13.33,0,0,0,537.84,380.46Z" transform="translate(-155.82 -186.92)"/><path class="cls-3" d="M529.28,360.84a8,8,0,0,0,1-2.19,6.68,6.68,0,0,1-1.1-1,3.84,3.84,0,0,1-.73-1.22,2,2,0,0,1-.06-1.23,1.55,1.55,0,0,1,.8-1,3,3,0,0,1,2,0,4.81,4.81,0,0,1,1.71,1.16,5.56,5.56,0,0,1,1.17,1.83,5.42,5.42,0,0,1,.4,2.09A13,13,0,0,0,538,357a20.64,20.64,0,0,0,2.81-3.2,33.3,33.3,0,0,0,2.36-3.77q1.07-2,2-3.93a2,2,0,0,1,1.93.05,6.77,6.77,0,0,1,2,1.55,9.28,9.28,0,0,1,1.48,2.17,3.36,3.36,0,0,1,.42,1.95,32.59,32.59,0,0,1-3.9,4.05,39,39,0,0,1-4.43,3.31c-1.56,1-3.18,1.95-4.84,2.86s-3.31,1.82-4.94,2.74a1.46,1.46,0,0,1-1,0,4,4,0,0,1-1-.54,6.78,6.78,0,0,1-.89-.81,5.86,5.86,0,0,1-.64-.84.3.3,0,0,0-.12-.24,2.85,2.85,0,0,1-.15-.75A2.25,2.25,0,0,1,529.28,360.84Z" transform="translate(-155.82 -186.92)"/><path class="cls-3" d="M566.15,396.37c.31,1.72,0,3-.85,3.81a3.86,3.86,0,0,1-3.09,1.06,5.16,5.16,0,0,1-3.25-1.66,5.48,5.48,0,0,1-1.28-4.35,40.87,40.87,0,0,1,1.55-9.43,9.14,9.14,0,0,1,2.63-4.46,3.71,3.71,0,0,1,3.37-.67,11.63,11.63,0,0,1,3.74,1.88,31.75,31.75,0,0,1,3.78,3.25q1.86,1.88,3.42,3.39a19.29,19.29,0,0,0,2.69,2.29q1.14.78,1.62-.06c.26-1.69.54-3.48.83-5.35a18.47,18.47,0,0,0,.11-5.28,8.74,8.74,0,0,0-1.75-4.32A7.47,7.47,0,0,0,574.9,374a10.64,10.64,0,0,0-3.53-.11,33.75,33.75,0,0,0-3.79.69c-1.3.31-2.58.62-3.84,1a22.11,22.11,0,0,1-3.67.67,5.83,5.83,0,0,1-3.76-.8,2.43,2.43,0,0,1-.83-3.05,8.56,8.56,0,0,1,1.28-2.59,7.42,7.42,0,0,1,1.77-1.63,17,17,0,0,1,2.3-1.24c.85-.38,1.78-.85,2.79-1.4a60.87,60.87,0,0,1,5.81-2.61c1.81-.71,3.67-1.32,5.59-1.87s4-1,6.11-1.54,4.54-1.1,7.17-1.84a3.54,3.54,0,0,1,2.47,1.09,6.43,6.43,0,0,1,1.71,2.53,4.63,4.63,0,0,1,.19,2.71,2.4,2.4,0,0,1-2,1.7,14.16,14.16,0,0,1-1.57.11c-.71,0-1.46,0-2.25.08l-2.26.08a15,15,0,0,0-1.57.1q-3,.36-5.64.62a48.27,48.27,0,0,0-5.19.82,35,35,0,0,0-5.24,1.59,41.87,41.87,0,0,0-5.67,2.77,52,52,0,0,1,12.12-2.57,16,16,0,0,1,8,1.17,9.09,9.09,0,0,1,4.46,4.64,21.45,21.45,0,0,1,1.59,7.85,13.29,13.29,0,0,1-.2,2.95,30.64,30.64,0,0,1-.85,3.81,32.13,32.13,0,0,1-1.29,3.7,8.14,8.14,0,0,1-1.62,2.63,2.6,2.6,0,0,1-2.73.92,11,11,0,0,1-3.47-1.49,32.51,32.51,0,0,1-3.8-2.78q-2-1.64-3.68-2.92a14.76,14.76,0,0,0-3.14-1.84,2,2,0,0,0-2.24.24,5.45,5.45,0,0,0-1.28,2,6.14,6.14,0,0,0-.37,2.11,3.68,3.68,0,0,0,.32,1.58c.2.39.47.54.79.43a1.39,1.39,0,0,1,1.08.06,2.06,2.06,0,0,1,.69.62,2.54,2.54,0,0,1,.38.8C566.09,396.07,566.13,396.26,566.15,396.37Z" transform="translate(-155.82 -186.92)"/><path class="cls-3" d="M562.44,353a4.81,4.81,0,0,1,.81-3.21,2.87,2.87,0,0,1,4.15-.57,3.15,3.15,0,0,1,1.23,2.17l.19.75c-.57,1.16-.75,2-.55,2.35s.63.52,1.3.36a8.75,8.75,0,0,0,2.47-1.18,19,19,0,0,0,2.91-2.32,20.31,20.31,0,0,0,2.56-3,8.94,8.94,0,0,0,1.47-3.3,5.19,5.19,0,0,1,2-2,11.77,11.77,0,0,1,3-1.43,7.91,7.91,0,0,1,2.67-.45q1.13.06,1,.93a38.24,38.24,0,0,1-3.3,5.71,34.94,34.94,0,0,1-3.92,4.73,21.76,21.76,0,0,1-4.29,3.42,13.24,13.24,0,0,1-4.48,1.78,9.57,9.57,0,0,1-3,.15,8.76,8.76,0,0,1-2.8-.74,6.23,6.23,0,0,1-2.17-1.6A5.63,5.63,0,0,1,562.44,353Z" transform="translate(-155.82 -186.92)"/><path class="cls-3" d="M597.46,381.28a4.26,4.26,0,0,1-1.38-2.11,10.74,10.74,0,0,1-.72-3.36,6.85,6.85,0,0,1,.53-3.12,2.37,2.37,0,0,1,2.4-1.38,8,8,0,0,1,3.36,1.89,17.44,17.44,0,0,1,2.51,3,24.36,24.36,0,0,1,1.94,3.61c.57,1.29,1.14,2.54,1.72,3.77l1.12,2.61a14.43,14.43,0,0,0,1.34,2.42l.17,0a10.08,10.08,0,0,0,2.18-3.7,31.58,31.58,0,0,0,1.1-4.15c.24-1.06.47-2.2.69-3.4a24.7,24.7,0,0,0,.4-3.65,19.92,19.92,0,0,0-.2-3.7,13.46,13.46,0,0,0-1-3.52,1.6,1.6,0,0,0-.53.76c-.1.3-.21.63-.32,1a2.07,2.07,0,0,1-2.16.75,3.9,3.9,0,0,1-1.83-1.4,7.3,7.3,0,0,1-1.22-2.39,6.24,6.24,0,0,1-.31-2.39c.89-1.73,1.87-2.77,3-3.13a3.85,3.85,0,0,1,3.12.22,8.07,8.07,0,0,1,2.72,2.46,13.37,13.37,0,0,1,1.83,3.41,18.52,18.52,0,0,1,1,5.5,34,34,0,0,1-.36,5.92,50.67,50.67,0,0,1-1.26,6q-.8,2.94-1.7,5.55c-.33.85-.69,1.9-1.07,3.16a5.26,5.26,0,0,1-1.89,2.85,2.26,2.26,0,0,1-1.72.51,3.52,3.52,0,0,1-1.65-.7,7.58,7.58,0,0,1-1.39-1.33c-.42-.51-.77-1-1.06-1.38a26.28,26.28,0,0,1-1.51-2.69c-.57-1.11-1.19-2.22-1.87-3.32a22.88,22.88,0,0,0-2.15-3A7.09,7.09,0,0,0,599,381c-.29,0-.47.07-.52.25S598.05,381.42,597.46,381.28Z" transform="translate(-155.82 -186.92)"/><path class="cls-3" d="M641.4,367a4.62,4.62,0,0,1,2,1.29,8.52,8.52,0,0,1,1.73,2.4,4.35,4.35,0,0,1,.42,2.55c-.14.81-.78,1.37-1.94,1.65h-.51c-.46,0-.8.57-1,1.66l-.9,4.07a38.93,38.93,0,0,1-1.51,5.1,12.21,12.21,0,0,1-2.91,4.59,2.14,2.14,0,0,1-1.19.05,8.2,8.2,0,0,1-1.1-.48,10.56,10.56,0,0,1-2.33-2.74,27.41,27.41,0,0,1-1.91-3.65,40.19,40.19,0,0,1-1.48-3.89,32.6,32.6,0,0,1-1-3.63,29.19,29.19,0,0,1-.59-6.29,21.89,21.89,0,0,1,1-6.27,10.37,10.37,0,0,1,4.26-5.3,22.83,22.83,0,0,1,7.11-3.15,29.83,29.83,0,0,1,7.9-1,16.52,16.52,0,0,1,6.56,1.21,13.91,13.91,0,0,1,5.67,4.46,14.31,14.31,0,0,1,2.52,6.3,22,22,0,0,1-.29,7.58,42.82,42.82,0,0,1-2.58,8.26c-.47,1.1-1,2.23-1.55,3.4a33.6,33.6,0,0,1-1.82,3.27,2.27,2.27,0,0,1-2.43.66,4.93,4.93,0,0,1-2.26-1.64,6.46,6.46,0,0,1-1.27-2.81,3.81,3.81,0,0,1,.43-2.84,17.57,17.57,0,0,0,1.37-2q1.15-1.8,2.38-4.21a36.85,36.85,0,0,0,2.08-5,8.65,8.65,0,0,0,.52-4.31,9.57,9.57,0,0,0-3-5.33,11.54,11.54,0,0,0-5.22-2.56,16.43,16.43,0,0,0-6.3-.05,17.86,17.86,0,0,0-6.16,2.28,15.6,15.6,0,0,0-2.29,1.63,7.24,7.24,0,0,0-1.51,2.19,9.16,9.16,0,0,0-.82,4,31.14,31.14,0,0,0,.43,5.2,38.16,38.16,0,0,0,1.27,5.37,39.5,39.5,0,0,0,1.7,4.55,12,12,0,0,0,1.58-5.2q.28-3,.52-5.77a12.23,12.23,0,0,1,1.09-4.44C638.65,367.12,639.75,366.72,641.4,367Z" transform="translate(-155.82 -186.92)"/><path class="cls-3" d="M681.65,353.87a18.57,18.57,0,0,1,1.92,5.19,23.9,23.9,0,0,1,.5,4.77,25.75,25.75,0,0,1-.32,3.94c-.19,1.17-.36,2.11-.48,2.81l1.92.83q2.1.88,3.75,1.62a15.69,15.69,0,0,1,3.41,2.19q.3-2,.54-4.44c.16-1.62.27-3.27.34-4.93s.1-3.33.11-5,0-3.2,0-4.62,0-2.75,0-4.33a10,10,0,0,1,1-4.22c.59-1,1.27-1.42,2-1.28a3.7,3.7,0,0,1,2.13,1.35,8,8,0,0,1,1.52,2.77,4.58,4.58,0,0,1,.14,2.9,6.81,6.81,0,0,0-1.18,3.89c0,1.52-.08,2.85-.13,4-.09,1.33-.18,2.84-.27,4.54s-.23,3.41-.43,5.15-.46,3.43-.79,5a29.53,29.53,0,0,1-1.17,4.24.93.93,0,0,0-.37.4.73.73,0,0,0-.25.08.33.33,0,0,1-.16.07,2.94,2.94,0,0,1-1,0,3.11,3.11,0,0,1-.82-.34c-.58-.44-1.13-.87-1.65-1.3s-1-.85-1.55-1.23a34.63,34.63,0,0,0-3.76-2.26,37.81,37.81,0,0,0-4.13-1.87,27.76,27.76,0,0,1-1.18,4.5,24.09,24.09,0,0,1-2,4.36,9.94,9.94,0,0,1-1,1.31,3,3,0,0,1-2.14,1.13,4.72,4.72,0,0,1-4.62-2.31,10.23,10.23,0,0,1-1.54-3.71,7.66,7.66,0,0,1,.28-4.15,6.89,6.89,0,0,1,.81-1.75,10.66,10.66,0,0,1,1.41-1.79,7.51,7.51,0,0,1,1.72-1.37,4.11,4.11,0,0,1,1.84-.57,3.9,3.9,0,0,1,1,.2c.23-.78.53-1.93.9-3.47a33.05,33.05,0,0,0,.76-4.4,8.41,8.41,0,0,0-.2-3.31q-.39-1.21-2-.39a3.1,3.1,0,0,1-2.4-.58,5,5,0,0,1-1.58-2,5.16,5.16,0,0,1-.41-2.51,3.34,3.34,0,0,1,1.08-2.22,3.92,3.92,0,0,1,5.11-.76,8.16,8.16,0,0,1,2,1.76A11.75,11.75,0,0,1,681.65,353.87Zm-5.37,18.61a1.93,1.93,0,0,0-1.69.2,2.76,2.76,0,0,0-.89,1.46,1.9,1.9,0,0,0,.36,1.87,1.08,1.08,0,0,0,.62.39c.2,0,.34-.08.42-.33.24-.66.44-1.25.6-1.75S676,373.2,676.28,372.48Z" transform="translate(-155.82 -186.92)"/><path class="cls-4" d="M204.41,336.92c0-.07,0-.13-.07-.2,0,.15.09.3.13.44a2.3,2.3,0,0,1-.06-.28c-.22.58-.45,1.15-.68,1.73a2.76,2.76,0,0,0,.65-.63,2.86,2.86,0,0,0,.51-1.31c0-.11,0-.21.06-.32l-.18.7a2.77,2.77,0,0,1,.26-.64l-.37.66a2.71,2.71,0,0,1,.41-.55l-.57.59a3.94,3.94,0,0,1,.45-.36l-.75.46a2.66,2.66,0,0,1,.52-.23l-.92.27a2.42,2.42,0,0,1,.47-.07h-1a2.25,2.25,0,0,1,.52.07l-1-.25a2,2,0,0,1,.48.2l-.91-.51a4.88,4.88,0,0,1,.8.62l-.79-.76a2.8,2.8,0,0,1,.46.57l-.59-1a3.05,3.05,0,0,1,.27.61c-.11-.39-.22-.78-.34-1.16a2.05,2.05,0,0,1,.1.65c0-.41,0-.82,0-1.23a2.63,2.63,0,0,1-.06.48l.3-1.18a1.45,1.45,0,0,1-.11.29c.82-.86,1.65-1.71,2.47-2.56-.17.08-.35.13-.52.21a3.44,3.44,0,0,1-.53.21l1.25-.36a3.51,3.51,0,0,1-.78.12l1.3,0a4.06,4.06,0,0,1-.92-.11l1.22.31a3.82,3.82,0,0,1-.92-.36l1.08.61c-.16-.09-.31-.2-.46-.3-.48-.32-1-.54-1.5-.81l1,.59a3,3,0,0,1-.62-.45l.83.8-.14-.14a3.81,3.81,0,0,0-1.32-1.08c.34.19-.38-.24-.53-.3a5.07,5.07,0,0,0-1.28-.36,3.35,3.35,0,0,0-1.62.16l-.51.15-.89.53,0,0c-.07.06-.68.7-.73.77a4.14,4.14,0,0,0-.29.51c-.11.19-.23.39-.33.6a3.34,3.34,0,0,0-.32,1.2,7.32,7.32,0,0,0,0,1.24v.08a14.42,14.42,0,0,0,.43,1.5,8.55,8.55,0,0,0,1,1.75,3.21,3.21,0,0,0,.55.56,4.26,4.26,0,0,0,.58.54,7.94,7.94,0,0,0,.89.52,6.13,6.13,0,0,0,1.29.62,8.57,8.57,0,0,0,4.08.4,10.17,10.17,0,0,0,1.66-.46,2.65,2.65,0,0,0,.42-.18,6.12,6.12,0,0,0,2.17-1.77,4.23,4.23,0,0,0,.44-.71l.29-.52c.1-.4.2-.79.31-1.19a10.59,10.59,0,0,0,0-1.38c0,.41,0,.83,0,1.25a10.35,10.35,0,0,0,0-1.67,2,2,0,0,0-.05-.24c-.12-.45-.24-.92-.4-1.36a8.61,8.61,0,0,0-.79-1.38,2.82,2.82,0,0,0-.29-.39,6.7,6.7,0,0,0-1.54-1.37,8.51,8.51,0,0,0-1.35-.72l-.12,0a6.33,6.33,0,0,0-1.12-.28l-.27,0a6.58,6.58,0,0,0-2.91.47,6.33,6.33,0,0,0-1.18.7,5.64,5.64,0,0,0-.95.94,2.49,2.49,0,0,0-.23.31,6.69,6.69,0,0,0-.6,1.12,8.3,8.3,0,0,0-.31,1.16,2.32,2.32,0,0,0-.06.45,6,6,0,0,0,.23,2.07,4.14,4.14,0,0,0,.27.77,3.21,3.21,0,0,0,.91,1.18,2.61,2.61,0,0,0,2.14.45l-1.41-.35a4.09,4.09,0,0,0,.92.44,2.18,2.18,0,0,0,.84.1,1.57,1.57,0,0,0,.92-.49,1.61,1.61,0,0,0,.32-1.76Z" transform="translate(-155.82 -186.92)"/><path class="cls-4" d="M251.29,332a.86.86,0,0,1-.14-.13l.41.4a2.63,2.63,0,0,1-.39-.49c.12.19.23.38.34.57a3,3,0,0,1-.26-.62l.21.74a10.29,10.29,0,0,0-.35-1.35,5.32,5.32,0,0,1-.26-.66l.24.82a4.33,4.33,0,0,1-.15-1c0,.3,0,.59,0,.88,0-.4,0-.8,0-1.2,0,.29,0,.59,0,.88a3.8,3.8,0,0,1,.11-.95l-.21.83a3.34,3.34,0,0,1,.3-.76l-.41.73a2.71,2.71,0,0,1,.41-.55l-.59.61a3,3,0,0,1,.52-.42c-.24.15-.48.3-.73.44a3.39,3.39,0,0,1,.68-.29l-.85.24a3.38,3.38,0,0,1,.71-.1H250a3.81,3.81,0,0,1,1,.12l-.83-.21a3.94,3.94,0,0,1,.9.36l-.73-.41a4.85,4.85,0,0,1,.79.58l-.61-.59a4,4,0,0,1,.6.75l-.44-.73a1.68,1.68,0,0,1,.16.33c-.08-.29-.16-.57-.25-.85a2.6,2.6,0,0,1,.06.56c0-.3,0-.61,0-.91a2.72,2.72,0,0,1-.08.63c.08-.29.16-.59.23-.89a2.56,2.56,0,0,1-.22.58l.46-.83c-.24.42-.49.84-.72,1.28l.47-.85a3.09,3.09,0,0,1-.4.55c.22-.23.44-.47.67-.7a3.38,3.38,0,0,1-.63.5l.84-.51a3.88,3.88,0,0,1-.91.4l1-.28a4.1,4.1,0,0,1-1,.16l1,0a3.47,3.47,0,0,1-.85-.1l.95.25a3,3,0,0,1-.67-.26l.84.47a8.8,8.8,0,0,0-1.12-.62l-.33-.14.81.45a2.24,2.24,0,0,1-.43-.31l.63.61-.19-.21a3.36,3.36,0,0,0-1.78-1.12,3.21,3.21,0,0,0-2.18.15,4.06,4.06,0,0,0-1.33,1.07,2.48,2.48,0,0,0-.52,1.17,2.53,2.53,0,0,0-.1,1.31,2.12,2.12,0,0,0,.06.44,5.74,5.74,0,0,0,.39,1.28,8,8,0,0,0,.67,1.13,4.6,4.6,0,0,0,1.82,1.35,6.94,6.94,0,0,0,3.63.55,7.62,7.62,0,0,0,1.87-.45,3.81,3.81,0,0,0,.85-.38,7.77,7.77,0,0,0,2.15-1.72,5.73,5.73,0,0,0,.95-1.57,5.63,5.63,0,0,0,.25-1,.68.68,0,0,0,0-.14,2.17,2.17,0,0,0,0-.26,5.87,5.87,0,0,0-.07-1.5,7,7,0,0,0-.46-1.48,12.33,12.33,0,0,0-.77-1.25l.44.73a6.61,6.61,0,0,0-1.13-1.68,8.82,8.82,0,0,0-1-.92,7.75,7.75,0,0,0-1.24-.73,6.64,6.64,0,0,0-1.94-.61,3.93,3.93,0,0,0-.59-.06,8,8,0,0,0-1.46.07,6.41,6.41,0,0,0-2.58,1.12,3.09,3.09,0,0,0-.39.33,7.14,7.14,0,0,0-.9,1,6.09,6.09,0,0,0-.79,1.62,7.2,7.2,0,0,0-.33,2.24,6.46,6.46,0,0,0,.51,2.37,3.94,3.94,0,0,0,.26.55c.18.31.37.62.57.91a3.41,3.41,0,0,0,1.39,1.07l-.69-.39a6.42,6.42,0,0,0,2.22.9,4.07,4.07,0,0,0,1.63,0,2.17,2.17,0,0,0,1-3.86Z" transform="translate(-155.82 -186.92)"/><path class="cls-4" d="M419.17,407.52c10.82,6.68,23.73,8.23,36,5.2a54.43,54.43,0,0,0,17.39-7.63c4.95-3.3,10.53-8,12.37-13.86,1.14-3.65-3-7.37-6.26-4.64-4,3.34-7.07,7.56-11.38,10.62a41.52,41.52,0,0,1-13.89,6.39A45.55,45.55,0,0,1,423,400.67c-4-1.9-7.68,4.48-3.84,6.85Z" transform="translate(-155.82 -186.92)"/><path class="cls-4" d="M432.91,369.87h0a5.3,5.3,0,0,0-4.17-3.09l-.13,0,1.33.34a1.54,1.54,0,0,1-.35-.15l1.21.68a8.9,8.9,0,0,0-1.5-.85,2.37,2.37,0,0,1-.36-.17l1.21.68a2.59,2.59,0,0,1-.53-.39l1,.95a3.31,3.31,0,0,1-.47-.58,5,5,0,0,0-1.38-1.46,8.38,8.38,0,0,0-3.37-1.39,4.52,4.52,0,0,0-2.38.35,4.55,4.55,0,0,0-2.67,3.6,4.63,4.63,0,0,0,.36,2.38,1.42,1.42,0,0,1,.07.22c-.11-.4-.23-.8-.34-1.2a6.73,6.73,0,0,1,.12,1.1l.39,1.35,0,.08a1,1,0,0,1,.07.15c0,.09.08.19.13.28a13.51,13.51,0,0,0,1,1.68,2.76,2.76,0,0,0,.37.46,8.79,8.79,0,0,0,1.45,1.31,5.89,5.89,0,0,0,2.75,1.12,13.29,13.29,0,0,0,1.67,0,5.46,5.46,0,0,0,1.85-.49,5.26,5.26,0,0,0,2.1-1.67,5.41,5.41,0,0,0,1-2.49,5.77,5.77,0,0,0,0-.72,4,4,0,0,0-.4-2Z" transform="translate(-155.82 -186.92)"/><path class="cls-4" d="M465.12,366.45v-.11c0,.31,0,.63,0,.94a2.46,2.46,0,0,1,.07-.6l-2.29,3.09,0,0a4.32,4.32,0,0,0,1.73-1.38,4.23,4.23,0,0,0,.81-2,3.4,3.4,0,0,1,.09-.46c-.1.37-.19.75-.29,1.12,0-.05,0-.1.05-.16L463,369.29l.12,0,1.07-.65a3.63,3.63,0,0,0,1.15-1.43,2.48,2.48,0,0,0,.46-1.14,3.56,3.56,0,0,0,.13-1.89,3.71,3.71,0,0,1,0-.47c0,.42,0,.84,0,1.27a3.71,3.71,0,0,1,.1-.94c-.1.38-.19.76-.29,1.14a3.48,3.48,0,0,1,.32-.83l-.54,1c.23-.41.48-.8.69-1.22l.27-1.08c0-.38,0-.77,0-1.15s-.22-.74-.32-1.11a3.29,3.29,0,0,0-1-1.34,2.16,2.16,0,0,0-.88-.64,2,2,0,0,0-1-.41,2,2,0,0,0-1.11-.13,3.2,3.2,0,0,0-1.69.32,5.49,5.49,0,0,0-1.45,1,9.48,9.48,0,0,0-1.21,1.32,10.38,10.38,0,0,0-.89,1.6,11.77,11.77,0,0,0-.52,1.82c0,.43,0,.86,0,1.29a3.59,3.59,0,0,0,.68,1.77,2.42,2.42,0,0,0,.77,1,3.55,3.55,0,0,0,1.52,1l.1,0L457,367c.06.14.12.28.19.42a9.53,9.53,0,0,0,.67,1.1,4.27,4.27,0,0,0,3,1.6l-1.83-.74.3.21a11.15,11.15,0,0,0,1.07.59,3.47,3.47,0,0,0,3.45-.51,3.56,3.56,0,0,0,1-1.41,3.42,3.42,0,0,0,.21-1.79Z" transform="translate(-155.82 -186.92)"/><path class="cls-4" d="M194.23,369.21c11.78,9.66,26.38,18.62,42.28,16.94,12.5-1.33,27-9.1,27.72-23.11.21-4.23-6.23-6.55-7.66-2-3.14,10.06-11.72,17.44-22.36,18.22-13.41,1-26.05-7.39-36.51-14.75-3.08-2.17-6.36,2.3-3.47,4.67Z" transform="translate(-155.82 -186.92)"/><path class="cls-4" d="M265.85,351.35a17.31,17.31,0,0,1,.69-1.73,13.22,13.22,0,0,0,.61-1.94l.48-1.87a7.25,7.25,0,0,0,.12-.95,2.29,2.29,0,0,0-.13-1.27,1.12,1.12,0,0,0-1.72-.42,2.18,2.18,0,0,0-.5.67,5.47,5.47,0,0,0-.15.58c-.07.31-.17.62-.21.94-.08.63-.1,1.27-.15,1.9a11.48,11.48,0,0,0-.05,2,15.83,15.83,0,0,1,.08,1.82c0,.51.75.81.93.24Z" transform="translate(-155.82 -186.92)"/><path class="cls-4" d="M270.51,352.45c1.1.24,1.73-1.56,1.93-2.36s.37-1.49.53-2.25.31-1.5.46-2.25a5.23,5.23,0,0,0,.13-3,1.74,1.74,0,0,0-3-.33,5.67,5.67,0,0,0-.75,2.92c-.1.81-.2,1.63-.28,2.44a14.43,14.43,0,0,0-.19,2.7c.06.84.19,1.95,1.16,2.16Z" transform="translate(-155.82 -186.92)"/><path class="cls-4" d="M277.26,351.59c.31-1.17.61-2.35.92-3.52a37.47,37.47,0,0,0,.76-3.91,1.7,1.7,0,0,0-1.47-1.88,1.74,1.74,0,0,0-1.88,1.47,33.16,33.16,0,0,0-.63,3.56l-.39,3.59a1.41,1.41,0,0,0,1,1.52,1.39,1.39,0,0,0,1.65-.83Z" transform="translate(-155.82 -186.92)"/><path class="cls-4" d="M180.82,357.33a4.65,4.65,0,0,0,.4-1.21c0-.17.07-.34.11-.51s0-.21.07-.31c0,.14,0,.1,0,0s.14-.5.2-.74l.06-.26c.09-.4-.06.17,0-.06s.21-.7.33-1c.23-.67.47-1.34.74-2a11.1,11.1,0,0,0,.76-2.28,1.11,1.11,0,0,0-.57-1.1,1.14,1.14,0,0,0-1.23.09A5.77,5.77,0,0,0,180,350a10.48,10.48,0,0,0-.88,2.14,13.15,13.15,0,0,0-.52,2.46c0,.39-.05.78-.05,1.17a3.07,3.07,0,0,0,0,.8,6.75,6.75,0,0,0,.25.76,1.09,1.09,0,0,0,2,0Z" transform="translate(-155.82 -186.92)"/><path class="cls-4" d="M186.2,357.32l1-3.18a8.88,8.88,0,0,0,.59-3.87,1.44,1.44,0,0,0-2.57-.65c-.08.13-.16.25-.23.38a2.1,2.1,0,0,0-.34.88c-.07.27-.13.54-.19.82a13.48,13.48,0,0,0-.26,1.67c-.11,1.11-.23,2.23-.34,3.35a1.22,1.22,0,0,0,2.35.6Z" transform="translate(-155.82 -186.92)"/><path class="cls-4" d="M189.66,359.15c.39-1.07.8-2.12,1.17-3.2s.68-2.17,1-3.26a1.25,1.25,0,0,0-2.33-.93c-.37,1.07-.78,2.13-1.11,3.22s-.63,2.19-1,3.29a1.19,1.19,0,0,0,2.21.88Z" transform="translate(-155.82 -186.92)"/><path class="cls-4" d="M187.66,279.19c5.28-2.59,10.32-5.51,15.81-7.69a78.77,78.77,0,0,1,18.12-4.73,103.72,103.72,0,0,1,18.89-.76c6.16.27,12.34,1.45,18.49,1.27,1.93-.06,2.25-3.21.44-3.75-6.18-1.86-13-2-19.44-2.24a107.82,107.82,0,0,0-19.59,1c-11.88,1.82-25.2,6.12-34.3,14.31-1.22,1.1-.05,3.38,1.58,2.58Z" transform="translate(-155.82 -186.92)"/><path class="cls-4" d="M187.84,272.77c-2.28-3.55-6-6.54-9-9.47s-6-5.7-8.87-8.66c-5.39-5.59-10.63-13.38-7.47-21.42,1.09-2.76,2.45-6.16,5.21-7.64s7.58-1.12,9.91,1c5.58,5.2,10.18,12,14.12,18.5,1.1,1.81,4.11,0,3.17-1.92a79.63,79.63,0,0,0-12.37-18.14c-2.34-2.58-4.51-4.17-8-4.75a14.24,14.24,0,0,0-9.29,1.26c-5,2.86-8.28,10.21-8.47,15.79-.27,7.45,3.68,14,8.63,19.21,3.06,3.23,6.44,6.14,9.76,9.1,3.48,3.11,7,6.89,11.15,9.14,1.28.7,2.12-1.08,1.51-2Z" transform="translate(-155.82 -186.92)"/><path class="cls-4" d="M193.09,240c-.3-3.49-2-7-2.78-10.39a44.13,44.13,0,0,1-1-10.45c.07-6.48.9-13,4.09-18.77,3.1-5.59,8.61-9.32,15.15-8.8s12.58,4.45,16.39,9.8c5.06,7.1,6.2,15.64,7.6,24,.48,2.89,4.51,2.15,4.4-.66-.59-15.83-8.29-34.21-25.49-37.44a20.06,20.06,0,0,0-19.25,6.93c-4.66,5.56-6.47,13.25-6.69,20.35a53.38,53.38,0,0,0,1,13.47c1,4.18,2.55,9.26,5.7,12.31a.46.46,0,0,0,.8-.35Z" transform="translate(-155.82 -186.92)"/><path class="cls-4" d="M238.14,228.72c2.37-2.43,4.3-5.38,6.53-7.95a91.17,91.17,0,0,1,7.68-8c2.59-2.35,6-5.12,9.77-4.55,3.35.51,5.69,3.5,6.69,6.55,2.12,6.44.71,14.57-1.27,20.89A58.83,58.83,0,0,1,258.26,253c-1.82,2.49,1.75,4.93,3.76,2.79,5.41-5.8,8.93-13.47,10.85-21.09s3.18-17.58-1.13-24.64a12.74,12.74,0,0,0-8.39-6.13c-4.05-.72-7.91,1.11-11,3.56a61.82,61.82,0,0,0-8.95,9.27c-2.6,3.14-5.59,6.8-7.13,10.6-.43,1.06,1,2.32,1.9,1.41Z" transform="translate(-155.82 -186.92)"/><path class="cls-5" d="M201.16,249.63l-2.45.36.29,1.93,2.45-.36a1,1,0,0,1,1.06.8l.11.8a3.54,3.54,0,0,0-1.84-.21,3.75,3.75,0,0,0-3.09,4.29L198,259a3.69,3.69,0,1,0,7.3-1.09l-.13-.85-.12-.86-.61-4.07A2.87,2.87,0,0,0,201.16,249.63Zm2.21,8.51a1.79,1.79,0,1,1-3.54.53l-.25-1.71a1.79,1.79,0,1,1,3.53-.53l.13.86Z" transform="translate(-155.82 -186.92)"/><path class="cls-5" d="M221.63,254.56l-.12-.86-.61-4.07a2.86,2.86,0,0,0-3.22-2.45l-2.46.36.29,1.93,2.45-.36a.93.93,0,0,1,1.06.8l.11.79a3.64,3.64,0,0,0-1.83-.21,3.77,3.77,0,0,0-3.1,4.3l.26,1.7a3.69,3.69,0,1,0,7.3-1.08Zm-1.75,1.13a1.79,1.79,0,1,1-3.54.52l-.25-1.7a1.79,1.79,0,1,1,3.53-.53l.13.86Z" transform="translate(-155.82 -186.92)"/><path class="cls-5" d="M232.84,257.59a3.73,3.73,0,0,0,3.09-4.29l-.13-.85-.13-.85-.6-4.07a2.87,2.87,0,0,0-3.22-2.46l-2.46.37.29,1.93,2.45-.37a1,1,0,0,1,1.06.81l.12.79a3.57,3.57,0,0,0-1.84-.21,3.75,3.75,0,0,0-3.1,4.29l.26,1.71A3.74,3.74,0,0,0,232.84,257.59Zm-2.58-5.19a1.78,1.78,0,1,1,3.53-.52l.13.85.13.85a1.79,1.79,0,1,1-3.54.53Z" transform="translate(-155.82 -186.92)"/><path class="cls-5" d="M224.44,249.11a.94.94,0,0,1,.78-1.08l2.45-.37-.29-1.92-2.45.36a2.87,2.87,0,0,0-2.37,3.29l1.38,9.32,1.89-.28Z" transform="translate(-155.82 -186.92)"/><polygon class="cls-5" points="59.2 73.11 53.22 67.71 57.27 60.98 54.8 61.35 52.39 65.36 51.34 58.3 49.46 58.58 51.78 74.22 53.66 73.94 53.11 70.21 56.74 73.48 59.2 73.11"/><path class="cls-6" d="M199.41,213.05c18.1-18.48,51.52,21.64,18.39,29.3-6.6,1.37-13.85.94-18.88-3.08C190.85,232.78,193.19,219.39,199.41,213.05Z" transform="translate(-155.82 -186.92)"/><path class="cls-3" d="M215.94,243.33c-4.79.71-12,.77-17.41-3.57a14.79,14.79,0,0,1-5.37-11A22.05,22.05,0,0,1,199,212.6h0c5.25-5.36,12.44-6.47,19.7-3,8.53,4,14.57,13.08,13.76,20.62-.67,6.24-5.81,10.79-14.48,12.79C217.34,243.09,216.67,243.22,215.94,243.33Zm-7.6-34.3a14.81,14.81,0,0,0-8.48,4.46h0a20.73,20.73,0,0,0-5.44,15.15,13.74,13.74,0,0,0,4.9,10.14c5.84,4.67,14,3.86,18.35,3,8.2-1.9,12.88-6,13.49-11.7.76-7-5-15.54-13-19.34A16.92,16.92,0,0,0,208.34,209Z" transform="translate(-155.82 -186.92)"/><path class="cls-3" d="M229,228.14c-2.82,2.34-4.54,2.85-5.73,3a9.88,9.88,0,0,1-1.39.1,3.14,3.14,0,0,1-2.66-1.21c-1.17-1.42-1.73-4.17-1.64-7.93.08-3.21.18-6,.23-6.25a1.09,1.09,0,0,0-.35-.94c-.65-.7-2-1.61-2.66-1.52a.74.74,0,0,0-.26.1v0a23.08,23.08,0,0,1-4.63,2.79s-.69-5.16-2.5-5.09c-.14,0-.28,0-.45,0a2,2,0,0,0-1.08.53c-.5.54-.33,1.36-.08,2.48,0,.16.06.32.1.49a24,24,0,0,1,.44,3.53,10.44,10.44,0,0,1-2.58.61,10.77,10.77,0,0,1-2,0,3.83,3.83,0,0,1-.71-.09,3.74,3.74,0,0,0-1.05,0,1.45,1.45,0,0,0-.43.14,1.22,1.22,0,0,0-.61,1.44c.27,1,1,1.56,2.27,1.88a14.41,14.41,0,0,0,4.75.08c-.2,2.81-.65,6.21-5.54,12.89-.51.71-1.19,1.38-1,2.18a1,1,0,0,0,.9.89c.94.14,2.71-.92,4.19-2.69,2.85-3.43,4.84-6.3,5.71-14.33.93-.49,2.14-1,2.91-1.44a56,56,0,0,0,.75,10.1,7.7,7.7,0,0,0,4.86,6.13,9.42,9.42,0,0,0,3.08.48,6.18,6.18,0,0,0,.62-.07h0a7.91,7.91,0,0,0,5.74-3.65,11.9,11.9,0,0,0,1.56-4,1.17,1.17,0,0,1,0-.2l.3-1.3Z" transform="translate(-155.82 -186.92)"/><path class="cls-4" d="M306.54,290.4a2.47,2.47,0,0,1,2,.11,2.42,2.42,0,0,1,1,1.27,3.83,3.83,0,0,1,.16,1.8,5.88,5.88,0,0,1-.44,1.64l-.38.6-.73.31a3,3,0,0,0-.36,2.3A2.9,2.9,0,0,0,309,300a4.39,4.39,0,0,0,4.28.17,7.23,7.23,0,0,0,2.64-2.12,14.25,14.25,0,0,0,1.8-3,14.92,14.92,0,0,0,1-3.4,18.48,18.48,0,0,0,.29-3.26l-.15-.87-.41-1a8.71,8.71,0,0,0-3.24-2.15,9.2,9.2,0,0,0-4.1-.66,7.85,7.85,0,0,0-7,5.41c-.27.57-.61.73-1,.48a3.86,3.86,0,0,1-1.2-1.24,6.66,6.66,0,0,1-.87-1.95,2.53,2.53,0,0,1,0-1.73,8.48,8.48,0,0,1,1.42-2.41,8.38,8.38,0,0,1,2.4-1.6,10.15,10.15,0,0,1,3.58-1,13.88,13.88,0,0,1,3.65.16,13.72,13.72,0,0,1,3.46,1.12,13,13,0,0,1,2.93,1.9,9.57,9.57,0,0,1,1.94,2.46,12.24,12.24,0,0,1,1.16,3.07,7.08,7.08,0,0,1,0,2.64,21.1,21.1,0,0,1-.75,3.15c-.34,1.08-.72,2.13-1.15,3.14a24.29,24.29,0,0,1-1.24,2.58,10.86,10.86,0,0,1-1.11,1.56,16.11,16.11,0,0,1-1.43,1.45,5.8,5.8,0,0,1-3,1.43,8.59,8.59,0,0,1-3.23-.14,5.62,5.62,0,0,1-2.89-1.82,10,10,0,0,1-1.83-3.2,10.59,10.59,0,0,1-.58-3.77,8.18,8.18,0,0,1,.87-3.53,7.73,7.73,0,0,1,.55-.81A2,2,0,0,1,306.54,290.4Z" transform="translate(-155.82 -186.92)"/><path class="cls-4" d="M311.64,305.37a9.89,9.89,0,0,1-2.22-.26A6.55,6.55,0,0,1,306,303a11,11,0,0,1-2-3.51,11.39,11.39,0,0,1-.63-4.14,9.29,9.29,0,0,1,1-4,9.49,9.49,0,0,1,.65-1,3,3,0,0,1,1.16-.92l.15-.05a3.16,3.16,0,0,1,4.15,2,4.77,4.77,0,0,1,.21,2.27,6.73,6.73,0,0,1-.53,1.93l-.6,1-.67.28a1.68,1.68,0,0,0,.64,2.26,3.35,3.35,0,0,0,3.29.12,6.3,6.3,0,0,0,2.31-1.85,12.92,12.92,0,0,0,1.66-2.81,13.67,13.67,0,0,0,.94-3.18,17.6,17.6,0,0,0,.27-3.08l-.13-.72-.27-.61a7.88,7.88,0,0,0-2.77-1.78,8.11,8.11,0,0,0-3.66-.59,7.18,7.18,0,0,0-3.51,1.23,7.43,7.43,0,0,0-2.6,3.55,1.88,1.88,0,0,1-1.15,1.15,1.56,1.56,0,0,1-1.31-.18,4.8,4.8,0,0,1-1.52-1.55,7.79,7.79,0,0,1-1-2.23,3.44,3.44,0,0,1,.06-2.43,9,9,0,0,1,1.6-2.66,9.3,9.3,0,0,1,2.68-1.82,11.36,11.36,0,0,1,3.93-1.09,14.71,14.71,0,0,1,3.92.17,14.37,14.37,0,0,1,3.71,1.2,13.57,13.57,0,0,1,3.15,2.05,10.48,10.48,0,0,1,2.17,2.73,13.4,13.4,0,0,1,1.25,3.32,8.28,8.28,0,0,1,0,3,23.72,23.72,0,0,1-.79,3.29,33.44,33.44,0,0,1-1.18,3.23,25.11,25.11,0,0,1-1.29,2.68,11.46,11.46,0,0,1-1.23,1.73,16.75,16.75,0,0,1-1.52,1.53,6.69,6.69,0,0,1-3.48,1.67A9.3,9.3,0,0,1,311.64,305.37Zm-4.76-14a1,1,0,0,0-.32.28c-.18.24-.34.47-.48.7a7.22,7.22,0,0,0-.73,3.06,9.34,9.34,0,0,0,.53,3.41,8.89,8.89,0,0,0,1.64,2.88,4.6,4.6,0,0,0,2.38,1.5,7.51,7.51,0,0,0,2.83.12,4.66,4.66,0,0,0,2.46-1.2,12.86,12.86,0,0,0,1.33-1.34,8.91,8.91,0,0,0,1-1.42,23.06,23.06,0,0,0,1.18-2.46c.42-1,.79-2,1.12-3a23.06,23.06,0,0,0,.72-3,6.1,6.1,0,0,0,0-2.26,11.09,11.09,0,0,0-1.05-2.81,8.66,8.66,0,0,0-1.75-2.2,12,12,0,0,0-2.68-1.74,12.56,12.56,0,0,0-3.21-1,12.32,12.32,0,0,0-3.38-.14,9.28,9.28,0,0,0-3.24.9,5.47,5.47,0,0,0-3.33,3.49,1.61,1.61,0,0,0,0,1.09,5.89,5.89,0,0,0,.74,1.67,3.69,3.69,0,0,0,.56.68,9.26,9.26,0,0,1,3.26-4.22,9.15,9.15,0,0,1,4.47-1.56,10.07,10.07,0,0,1,4.54.72,9.76,9.76,0,0,1,3.6,2.4l.19.3.42,1,.2,1.08a18.4,18.4,0,0,1-.28,3.59,16,16,0,0,1-1.08,3.64,14.88,14.88,0,0,1-1.92,3.25,8.4,8.4,0,0,1-3,2.41,5.3,5.3,0,0,1-2.72.57,5.16,5.16,0,0,1-2.55-.81,3.85,3.85,0,0,1-1.6-2.09,4,4,0,0,1,.42-3.07l.17-.33.77-.32.21-.33a4.63,4.63,0,0,0,.3-1.24,2.81,2.81,0,0,0-.11-1.34,1.45,1.45,0,0,0-.59-.76A1.61,1.61,0,0,0,306.88,291.34Z" transform="translate(-155.82 -186.92)"/><path class="cls-4" d="M305.69,271.24a3.37,3.37,0,0,1,.51-2.25,2.13,2.13,0,0,1,1.39-.86,2,2,0,0,1,1.5.4A2.19,2.19,0,0,1,310,270l.14.52c-.4.9-.46,1.51-.16,1.82a1.57,1.57,0,0,0,1.48.29,8.33,8.33,0,0,0,2.45-.93,17.71,17.71,0,0,0,2.73-1.78,15.84,15.84,0,0,0,2.32-2.22,5.29,5.29,0,0,0,1.22-2.37,2.93,2.93,0,0,1,1.32-1.39,9.4,9.4,0,0,1,2.08-1,4.91,4.91,0,0,1,1.88-.26c.55.05.79.27.75.68a14.8,14.8,0,0,1-2.71,4,24.64,24.64,0,0,1-3.75,3.3,25.87,25.87,0,0,1-4,2.36,16.44,16.44,0,0,1-3.56,1.27,7.13,7.13,0,0,1-2.11.14,6.26,6.26,0,0,1-2-.47,4.27,4.27,0,0,1-1.54-1.09A3.76,3.76,0,0,1,305.69,271.24Z" transform="translate(-155.82 -186.92)"/><path class="cls-4" d="M310.64,275.56c-.22,0-.44,0-.67,0a7.62,7.62,0,0,1-2.28-.55,5.32,5.32,0,0,1-1.88-1.35,4.85,4.85,0,0,1-1.1-2.18l0-.17a4.27,4.27,0,0,1,.73-2.91,3,3,0,0,1,2-1.24,3.1,3.1,0,0,1,2.21.58,3.19,3.19,0,0,1,1.29,2.14l.22.76L311,271a2.61,2.61,0,0,0-.26.78c.06,0,.23,0,.5-.05a7.39,7.39,0,0,0,2.14-.83,17.8,17.8,0,0,0,2.59-1.68,14.82,14.82,0,0,0,2.17-2.08,4.24,4.24,0,0,0,1-1.91,3.91,3.91,0,0,1,1.8-2.06,10.06,10.06,0,0,1,2.3-1.05,5.79,5.79,0,0,1,2.25-.3,1.87,1.87,0,0,1,1.34.62,1.55,1.55,0,0,1,.32,1.17l-.08.29a15.78,15.78,0,0,1-2.89,4.3,25.84,25.84,0,0,1-3.91,3.44,27.36,27.36,0,0,1-4.16,2.45,17.27,17.27,0,0,1-3.78,1.33A7.5,7.5,0,0,1,310.64,275.56Zm-4-4.46a2.72,2.72,0,0,0,.61,1.21,3.26,3.26,0,0,0,1.19.84,5.34,5.34,0,0,0,1.44.38,1.87,1.87,0,0,1-.69-.48,2.41,2.41,0,0,1-.16-2.57l-.05-.18a1.3,1.3,0,0,0-.5-.95,1.1,1.1,0,0,0-.8-.23,1,1,0,0,0-.73.48A2.42,2.42,0,0,0,306.68,271.1Zm18.24-7.34a4.32,4.32,0,0,0-1.06.21,8,8,0,0,0-1.86.86,2,2,0,0,0-.91.89,5.88,5.88,0,0,1-1.39,2.65,16.39,16.39,0,0,1-2.47,2.37,20.45,20.45,0,0,1-2.87,1.88l-.25.12c.38-.15.78-.32,1.19-.51a25.59,25.59,0,0,0,3.85-2.27,23.3,23.3,0,0,0,3.6-3.17A14,14,0,0,0,324.92,263.76Z" transform="translate(-155.82 -186.92)"/><path class="cls-4" d="M336.57,284a3.21,3.21,0,0,1,1.4.87,5.77,5.77,0,0,1,1.24,1.65,3,3,0,0,1,.33,1.77c-.08.58-.52,1-1.33,1.19h-.36c-.31,0-.55.4-.7,1.16s-.33,1.72-.56,2.86a29.78,29.78,0,0,1-1,3.58,8.37,8.37,0,0,1-2,3.24,1.45,1.45,0,0,1-.83.06A5.84,5.84,0,0,1,332,300a7.39,7.39,0,0,1-1.67-1.88,19.12,19.12,0,0,1-1.39-2.52c-.41-.89-.77-1.79-1.08-2.69a21.24,21.24,0,0,1-.73-2.52,19.82,19.82,0,0,1-.5-4.38,15.18,15.18,0,0,1,.63-4.39,7.24,7.24,0,0,1,2.9-3.76,16,16,0,0,1,4.91-2.31,21.48,21.48,0,0,1,5.5-.78,11.74,11.74,0,0,1,4.6.75,9.76,9.76,0,0,1,4,3,10,10,0,0,1,1.85,4.36,15.26,15.26,0,0,1-.09,5.29,30.21,30.21,0,0,1-1.68,5.8c-.31.77-.66,1.57-1,2.39a20.89,20.89,0,0,1-1.23,2.31,1.55,1.55,0,0,1-1.68.49,3.43,3.43,0,0,1-1.6-1.1,4.61,4.61,0,0,1-.93-1.94,2.67,2.67,0,0,1,.27-2,12.18,12.18,0,0,0,.92-1.41c.52-.85,1.05-1.84,1.6-3a24.47,24.47,0,0,0,1.38-3.5,6,6,0,0,0,.3-3,6.67,6.67,0,0,0-2.18-3.68,8.15,8.15,0,0,0-3.68-1.71,11.47,11.47,0,0,0-4.4.06,12.3,12.3,0,0,0-4.27,1.68,10.61,10.61,0,0,0-1.57,1.17,5.06,5.06,0,0,0-1,1.55,6.15,6.15,0,0,0-.51,2.81,20.7,20.7,0,0,0,.37,3.63,28.71,28.71,0,0,0,1,3.73,26.88,26.88,0,0,0,1.26,3.14,8.45,8.45,0,0,0,1-3.65c.09-1.41.19-2.76.27-4a8.67,8.67,0,0,1,.7-3.12Q334.83,283.68,336.57,284Z" transform="translate(-155.82 -186.92)"/><path class="cls-4" d="M333.09,301.39a2.12,2.12,0,0,1-.57-.08,6.28,6.28,0,0,1-.92-.37,8.43,8.43,0,0,1-2.07-2.23,22.06,22.06,0,0,1-1.45-2.66,28.9,28.9,0,0,1-1.13-2.78,25.22,25.22,0,0,1-.76-2.62,21.12,21.12,0,0,1-.52-4.59,16.5,16.5,0,0,1,.67-4.68,8.3,8.3,0,0,1,3.28-4.3,17,17,0,0,1,5.22-2.44,22.22,22.22,0,0,1,5.77-.83,13.5,13.5,0,0,1,5,.83A10.74,10.74,0,0,1,350,278a10.91,10.91,0,0,1,2,4.79,16.22,16.22,0,0,1-.09,5.63,31.07,31.07,0,0,1-1.74,6c-.31.79-.67,1.6-1.05,2.44a22.75,22.75,0,0,1-1.29,2.41,2.61,2.61,0,0,1-2.83.92,4.3,4.3,0,0,1-2.06-1.41,5.59,5.59,0,0,1-1.14-2.36,3.6,3.6,0,0,1,.38-2.73l.18-.22c.07-.1.34-.52.75-1.2s1-1.79,1.55-2.89a24.2,24.2,0,0,0,1.33-3.36,5.11,5.11,0,0,0,.27-2.51,5.56,5.56,0,0,0-1.84-3.12,7.17,7.17,0,0,0-3.23-1.5,10.7,10.7,0,0,0-4,.06,11.36,11.36,0,0,0-3.92,1.54,9.65,9.65,0,0,0-1.42,1.05,3.94,3.94,0,0,0-.81,1.25,5.46,5.46,0,0,0-.42,2.38,21.41,21.41,0,0,0,.36,3.45,26.7,26.7,0,0,0,.93,3.6c.08.23.15.45.23.67a9.1,9.1,0,0,0,.11-.93l.28-4a9.55,9.55,0,0,1,.79-3.48c.33-.7,1.22-1.83,3.38-1.45h0a4.07,4.07,0,0,1,1.87,1.11,6.8,6.8,0,0,1,1.45,1.94,3.93,3.93,0,0,1,.43,2.36,2.45,2.45,0,0,1-2.06,2h-.24c0,.09-.06.21-.1.39l-.56,2.85a30.28,30.28,0,0,1-1,3.72,9.4,9.4,0,0,1-2.2,3.61l-.18.19-.24.07A2.92,2.92,0,0,1,333.09,301.39Zm7.67-25.58h-.14a19.92,19.92,0,0,0-5.24.75,14.8,14.8,0,0,0-4.61,2.16,6.22,6.22,0,0,0-2.52,3.24,14.05,14.05,0,0,0-.59,4.09,19.67,19.67,0,0,0,.48,4.16,23,23,0,0,0,.7,2.41,27.18,27.18,0,0,0,1.05,2.6,18,18,0,0,0,1.32,2.4,6.47,6.47,0,0,0,1.43,1.63c.08,0,.28.1.45.15h0a7.58,7.58,0,0,0,1.54-2.66,26.21,26.21,0,0,0,.95-3.46l.56-2.85c.25-1.27.81-1.93,1.64-2h.39c-.07,0,.33-.14.35-.33a1.93,1.93,0,0,0-.23-1.18,4.7,4.7,0,0,0-1-1.37,2.42,2.42,0,0,0-.92-.62c-1-.16-1.12.17-1.21.35a7.58,7.58,0,0,0-.6,2.75l-.28,4a9.42,9.42,0,0,1-1.16,4.08l-.94,1.63-.82-1.69a25.88,25.88,0,0,1-1.3-3.27,28.68,28.68,0,0,1-1-3.86,21.41,21.41,0,0,1-.39-3.8,7.23,7.23,0,0,1,.61-3.25,5.78,5.78,0,0,1,1.24-1.85,11.23,11.23,0,0,1,1.72-1.28,13.24,13.24,0,0,1,4.61-1.82,12.43,12.43,0,0,1,4.78-.06,9.05,9.05,0,0,1,4.12,1.92,7.65,7.65,0,0,1,2.52,4.21,6.94,6.94,0,0,1-.31,3.55,27,27,0,0,1-1.44,3.64c-.57,1.17-1.11,2.19-1.64,3.06a15.84,15.84,0,0,1-1,1.48,1.69,1.69,0,0,0-.1,1.19,3.47,3.47,0,0,0,.72,1.52,2.32,2.32,0,0,0,1.13.79c.14,0,.34.11.67-.24.28-.5.67-1.24,1-2s.72-1.59,1-2.35a30.13,30.13,0,0,0,1.63-5.61,14.74,14.74,0,0,0,.09-4.94,9,9,0,0,0-1.67-3.94,8.84,8.84,0,0,0-3.62-2.72A10.54,10.54,0,0,0,340.76,275.81Zm-2.86,14.64h0Z" transform="translate(-155.82 -186.92)"/><path class="cls-4" d="M364,295a2.5,2.5,0,0,1-1.33-.76,4.15,4.15,0,0,1-.95-1.36,1.92,1.92,0,0,1-.11-1.34c.13-.4.54-.62,1.21-.65l.55.09a5.59,5.59,0,0,0,2-1.33,10.06,10.06,0,0,0,1.56-2.06,12.88,12.88,0,0,0,1.09-2.46,7.75,7.75,0,0,0,.4-2.38l-.07,0a6.08,6.08,0,0,0-1.88-.13,9.91,9.91,0,0,0-2,.37,12,12,0,0,0-1.94.75,15.62,15.62,0,0,0-1.7.95q-.87.51-1.44.9a3.85,3.85,0,0,1-1.42.6,2.3,2.3,0,0,1-1.17-.88,4.21,4.21,0,0,1-.88-2.55,8.37,8.37,0,0,1,.44-2.89,11.91,11.91,0,0,1,1.32-2.8,14.09,14.09,0,0,1,1.77-2.28,15.64,15.64,0,0,1,2.39-2,13.34,13.34,0,0,1,2.71-1.51l1.05-.36c.43-.16.88-.31,1.36-.47l1.33-.44,1-.32a2.09,2.09,0,0,1,1.38.57,4.34,4.34,0,0,1,1,1.32,2.56,2.56,0,0,1,.25,1.49,1.15,1.15,0,0,1-1,.95c-.27,0-.62.11-1,.2l-1.33.29c-.47.1-.91.2-1.33.31a8.48,8.48,0,0,1-1,.24,12.2,12.2,0,0,0-5.3,3,9.21,9.21,0,0,0-2.81,5.36c.73-.68,1.59-1.43,2.59-2.24a11.2,11.2,0,0,1,2.85-1.74c.64-.23,1.29-.43,1.94-.6a5.61,5.61,0,0,1,1.89-.17,3,3,0,0,1,2.7,1.82,8.35,8.35,0,0,1,.61,3.73,16.66,16.66,0,0,1-.75,4.24,17.12,17.12,0,0,1-1.4,3.39,11.22,11.22,0,0,1-1.92,2.3A3.44,3.44,0,0,1,364,295Z" transform="translate(-155.82 -186.92)"/><path class="cls-4" d="M364.26,296h-.45a3.58,3.58,0,0,1-1.86-1,5.31,5.31,0,0,1-1.17-1.69,2.8,2.8,0,0,1-.13-2,2.06,2.06,0,0,1,2.1-1.35l.46.06a4.83,4.83,0,0,0,1.4-1,9,9,0,0,0,1.41-1.86,12,12,0,0,0,1-2.26,7.6,7.6,0,0,0,.29-1.27,5.47,5.47,0,0,0-.81,0,9.36,9.36,0,0,0-1.8.34,10.22,10.22,0,0,0-1.78.69,14.73,14.73,0,0,0-1.6.89c-.59.34-1.05.63-1.41.88a4.9,4.9,0,0,1-1.76.75l-.3.07-.28-.1a3.4,3.4,0,0,1-1.65-1.26,5.18,5.18,0,0,1-1.05-3.08,9.52,9.52,0,0,1,.49-3.22,13.29,13.29,0,0,1,1.43-3,14.64,14.64,0,0,1,1.9-2.45,16.91,16.91,0,0,1,2.53-2.11,15.07,15.07,0,0,1,2.91-1.62l1.09-.37,1.13-.4,1.59-.52,1.32-.37a2.85,2.85,0,0,1,2,.82,4.94,4.94,0,0,1,1.28,1.64,3.37,3.37,0,0,1,.34,2.07,2.13,2.13,0,0,1-1.73,1.77l-1.07.21-1.24.27c-.53.11-1,.21-1.36.32a10.23,10.23,0,0,1-1.14.25,11.29,11.29,0,0,0-4.77,2.77,8.62,8.62,0,0,0-1.13,1.31,11.35,11.35,0,0,1,2.71-1.58c.7-.25,1.37-.46,2.05-.63a6.57,6.57,0,0,1,2.23-.2,4,4,0,0,1,3.53,2.42,9.61,9.61,0,0,1,.69,4.17,18,18,0,0,1-.8,4.48,17,17,0,0,1-1.49,3.6,12.45,12.45,0,0,1-2.11,2.54A4.41,4.41,0,0,1,364.26,296Zm-.16-2a2.41,2.41,0,0,0,1.85-.62,9.77,9.77,0,0,0,1.74-2.09,16,16,0,0,0,1.3-3.15,15.42,15.42,0,0,0,.7-4,7.48,7.48,0,0,0-.52-3.3,2,2,0,0,0-1.89-1.22,4.63,4.63,0,0,0-1.54.15c-.62.16-1.24.35-1.85.57a10.12,10.12,0,0,0-2.56,1.58c-1,.79-1.82,1.52-2.53,2.19l-.92.87.12.08a2.69,2.69,0,0,0,.76-.36c.41-.28.91-.6,1.52-1a19.24,19.24,0,0,1,1.76-1,14.31,14.31,0,0,1,2.11-.81,10.83,10.83,0,0,1,2.19-.4,6.66,6.66,0,0,1,2.2.15l.34.15.42.3.07.57a9.16,9.16,0,0,1-.45,2.68,13.36,13.36,0,0,1-1.17,2.66,11.42,11.42,0,0,1-1.72,2.26,6.72,6.72,0,0,1-2.31,1.55l-.25.1-.83-.13-.17.08s0,.18.15.54a3.29,3.29,0,0,0,.73,1A1.71,1.71,0,0,0,364.1,294Zm5.29-23.35-.85.27c-.41.12-.85.27-1.31.42l-1.34.47-1.09.37a13,13,0,0,0-2.44,1.37,15.26,15.26,0,0,0-2.24,1.87,13,13,0,0,0-1.65,2.12,11.46,11.46,0,0,0-1.22,2.58,7.65,7.65,0,0,0-.38,2.56,3.12,3.12,0,0,0,.18,1.07l.08-.5a10.19,10.19,0,0,1,3.1-5.93,13.22,13.22,0,0,1,5.73-3.27c.35-.07.66-.14,1-.24l1.37-.33,1.33-.28,1.09-.22a1,1,0,0,0,0-1,3.12,3.12,0,0,0-.79-1A1.17,1.17,0,0,0,369.39,270.69Z" transform="translate(-155.82 -186.92)"/><path class="cls-4" d="M378.47,274.8a4.67,4.67,0,0,1-1.52-1.51,3.68,3.68,0,0,1-.59-1.91,1.74,1.74,0,0,1,1-1.57c.89-.43,1.84-.86,2.87-1.3a15.33,15.33,0,0,1,3.14-.95,8.64,8.64,0,0,1,3.08,0,5.3,5.3,0,0,1,2.69,1.37,8.42,8.42,0,0,1,2.38,4.48,25.66,25.66,0,0,1,.5,6,42.17,42.17,0,0,1-.65,6.26q-.56,3.09-1.14,5.28c-.58.59-1.06.83-1.43.76a1.37,1.37,0,0,1-.9-.72,3.9,3.9,0,0,1-.44-1.51,6.51,6.51,0,0,1,0-1.66,32.34,32.34,0,0,1,.92-4.14c.38-1.28.71-2.54,1-3.79a18.15,18.15,0,0,0,.42-3.73,9.78,9.78,0,0,0-.8-3.82l-.26-.49-.35-.24-.43-.11-.2-.09-.62-.13-.59,0-.69.18-1.33.64-4.16,3.05A2.21,2.21,0,0,1,378.47,274.8Z" transform="translate(-155.82 -186.92)"/><path class="cls-4" d="M388.9,292.65a1.27,1.27,0,0,1-.34,0,2.32,2.32,0,0,1-1.57-1.2,4.94,4.94,0,0,1-.56-1.9,7.54,7.54,0,0,1,0-1.91,31.65,31.65,0,0,1,.94-4.27q.57-1.89,1-3.72a17.49,17.49,0,0,0,.39-3.52,8.78,8.78,0,0,0-.72-3.44l-.11-.19-.87-.25-1,.18-1.14.58-4.31,3.1a3.16,3.16,0,0,1-2.67-.43,5.68,5.68,0,0,1-1.83-1.82,4.73,4.73,0,0,1-.75-2.42,2.72,2.72,0,0,1,1.45-2.45c1-.48,1.95-.91,3-1.36a17.56,17.56,0,0,1,3.34-1,9.72,9.72,0,0,1,3.44,0,6.31,6.31,0,0,1,3.19,1.61,9.43,9.43,0,0,1,2.68,5,26.58,26.58,0,0,1,.53,6.2,43.94,43.94,0,0,1-.67,6.4c-.36,2.06-.75,3.87-1.15,5.37l-.07.26-.19.19A3.11,3.11,0,0,1,388.9,292.65Zm-1.74-22.45,1.76.52.65.59.26.49a10.93,10.93,0,0,1,.92,4.3,20,20,0,0,1-.44,3.93c-.27,1.27-.61,2.56-1,3.87a30.55,30.55,0,0,0-.88,4,5.29,5.29,0,0,0,0,1.39,2.81,2.81,0,0,0,.32,1.12c.09.17.16.22.21.23s.12-.08.36-.29c.36-1.4.71-3.05,1.05-4.94a41.49,41.49,0,0,0,.63-6.11,24.24,24.24,0,0,0-.48-5.73,7.39,7.39,0,0,0-2.09-4,4.2,4.2,0,0,0-2.18-1.12,7.56,7.56,0,0,0-2.72,0,14.74,14.74,0,0,0-2.93.89c-1,.43-1.95.85-2.82,1.28a.67.67,0,0,0-.4.65,2.68,2.68,0,0,0,.44,1.4A3.69,3.69,0,0,0,379,274h0a1.21,1.21,0,0,0,.89.23l4-2.92,1.48-.74.88-.25Z" transform="translate(-155.82 -186.92)"/></svg>