<svg id="Layer_1" data-name="Layer 1" xmlns="http://www.w3.org/2000/svg" viewBox="0 0 178.84 95"><defs><style>.cls-1{fill:#f4ddc3;}.cls-2{fill:#fff;}.cls-3{fill:#231f20;}.cls-4{fill:#ffc523;}.cls-5{fill:#211e1f;}</style></defs><path class="cls-1" d="M91.76,76.51s12.91,3.94,16.09,22.68-.28,30.74-14,37.17-26.61-5.19-29.35-16.25S61,83.26,83.12,75C83.12,75,88.19,73.61,91.76,76.51Z" transform="translate(-61.35 -45.04)"/><path class="cls-2" d="M75.34,57.06l-.12,0,.3.5c.63-.78,1.17-1.62,1.8-2.39s1.34-1.51,2-2.24l-1-.93c-1.52,2-3,3.94-4.56,5.83l1.23.69a17.3,17.3,0,0,1,2.33-3.81l-1.15-.85a15.19,15.19,0,0,1-2.63,3.35l1.13.83A15.87,15.87,0,0,1,77.27,53l-1.15-.85a35.22,35.22,0,0,1-3.39,4.3l1.21.68a35.1,35.1,0,0,1,2.52-4.92l-1.19-.66a18.05,18.05,0,0,1-2.94,3.91l1,.78a14.81,14.81,0,0,1,1.85-3.79.68.68,0,0,0-1.09-.81l-1.56,1.7,1.17.66a9.26,9.26,0,0,1,1.13-2.35c.42-.6-.36-1.44-.95-.92l-1.05.92,1.08.43a2.68,2.68,0,0,1,.32-1.94l-1.13-.63a1.69,1.69,0,0,1-.4.67l.92.89c.46-.65,1-1.26,1.48-1.88a.58.58,0,0,0-.82-.79,9.92,9.92,0,0,0-1.7,1.9c-.41.57.38,1.41.93.89a3,3,0,0,0,.8-1.19c.24-.67-.72-1.29-1.13-.64a4.09,4.09,0,0,0-.59,2.91.67.67,0,0,0,1.08.42l1-.91-1-.92A10,10,0,0,0,72.5,53.5a.68.68,0,0,0,1.17.66l1.56-1.7-1.09-.81a15.72,15.72,0,0,0-2,4.09c-.19.58.53,1.31,1.05.79a20.36,20.36,0,0,0,3.37-4.46c.38-.68-.78-1.33-1.2-.67a36.9,36.9,0,0,0-2.71,5.22c-.33.79.7,1.23,1.22.68A35.27,35.27,0,0,0,77.27,53a.72.72,0,0,0-1.15-.85,17,17,0,0,0-2.73,5.38c-.18.62.55,1.39,1.13.84a16.52,16.52,0,0,0,2.87-3.63.72.72,0,0,0-1.15-.85A18.49,18.49,0,0,0,73.74,58c-.34.77.73,1.3,1.23.69a73.11,73.11,0,0,0,4.51-5.87A.68.68,0,0,0,78.39,52c-.7.83-1.4,1.67-2,2.56A8.17,8.17,0,0,0,75,57.37a.32.32,0,0,0,.44.33.63.63,0,0,0,.37-.47c.06-.25-.29-.33-.42-.17Z" transform="translate(-61.35 -45.04)"/><path class="cls-2" d="M74.47,50.16A3.48,3.48,0,0,1,76.7,48l-.83-.8a2.49,2.49,0,0,1-1.51,1.22l.86.83a1.38,1.38,0,0,1,1.6-.94l-.56-.73a.29.29,0,0,1-.33.21l.53.91A1.32,1.32,0,0,1,77.78,48l-.45-1a1.27,1.27,0,0,1-1.16.63l.63,1.06a2.47,2.47,0,0,1,2-1l-.53-1.22L75.59,49l1,1a8.92,8.92,0,0,1,1.64-1.72l-1-.94a22.81,22.81,0,0,1-3.7,4.72l1.11.83a10.44,10.44,0,0,1,1.56-2.61,10.78,10.78,0,0,1,1-1.05c.22-.2,1-1,1.29-.91-.14-.31-.27-.61-.4-.92a18.44,18.44,0,0,1-3.25,4.35l1,1a22.55,22.55,0,0,1,5.29-5.21l-1-1a40.75,40.75,0,0,1-5.28,6.64c.33.32.66.64,1,1a20.42,20.42,0,0,1,4.54-4.78l-1.08-.8A33.92,33.92,0,0,1,74,56.22l1.1.81a25,25,0,0,1,6-6.88L80,49.55a6.43,6.43,0,0,1-1.28,2.26l-1.8,2.35c-1.21,1.57-2.4,3.16-3.6,4.74-.57.76.58,1.59,1.18.87a50.85,50.85,0,0,1,5.79-6.22l-1-1c-1.68,2.72-3.39,5.41-5.09,8.11l1.19.88a50.9,50.9,0,0,1,4.59-6.7l-1.22-.68a68.05,68.05,0,0,1-4.52,7.68l1.15.85c1.1-1.75,2.16-3.52,3.22-5.29l-1.08-.81a12.68,12.68,0,0,1-2.55,3.1l1,.42a10.13,10.13,0,0,1,0-4.74c.15-.59-.86-.85-1-.27a9.78,9.78,0,0,0-.25,5.2.66.66,0,0,0,1.05.41,16.77,16.77,0,0,0,2.81-3.31c.47-.73-.62-1.54-1.08-.81q-1.67,2.61-3.29,5.25c-.47.77.64,1.63,1.15.85a81.15,81.15,0,0,0,4.67-8c.38-.74-.73-1.26-1.21-.68a52.92,52.92,0,0,0-4.65,6.66c-.47.81.68,1.69,1.19.88,1.67-2.72,3.33-5.44,5-8.15.41-.64-.36-1.51-1-1a51.6,51.6,0,0,0-6.09,6.45l1.18.87q2-2.6,3.9-5.22c1.11-1.5,2.47-3,2.92-4.84.15-.6-.66-.93-1.08-.6A25.62,25.62,0,0,0,74,56.22a.68.68,0,0,0,1.1.81,35.34,35.34,0,0,0,5.57-8c.31-.68-.55-1.16-1.08-.8a21.44,21.44,0,0,0-4.79,5c-.47.61.43,1.53,1,1a41.6,41.6,0,0,0,5.52-6.89.69.69,0,0,0-1-1,23.69,23.69,0,0,0-5.54,5.45c-.45.62.42,1.54,1,1a21.62,21.62,0,0,0,3.69-4.92A.72.72,0,0,0,79,47c-1.32-.41-2.5.85-3.34,1.73a11.55,11.55,0,0,0-2.34,3.62c-.25.62.59,1.36,1.12.83a29.69,29.69,0,0,0,3.9-5,.69.69,0,0,0-1-.94,9.06,9.06,0,0,0-1.93,1.93c-.46.64.42,1.57,1,1l2.69-2.62a.7.7,0,0,0-.53-1.22,3.81,3.81,0,0,0-2.91,1.56.68.68,0,0,0,.64,1.06,2.54,2.54,0,0,0,2-1.18.65.65,0,0,0-.44-1,2.68,2.68,0,0,0-2.71,1.54.67.67,0,0,0,.53.91,1.65,1.65,0,0,0,1.79-1.37.66.66,0,0,0-.57-.72,2.67,2.67,0,0,0-3,1.75.65.65,0,0,0,.86.83A3.54,3.54,0,0,0,77,47.71a.63.63,0,0,0-.83-.8A3.87,3.87,0,0,0,73.88,50a.31.31,0,0,0,.59.15Z" transform="translate(-61.35 -45.04)"/><path class="cls-2" d="M73.18,54.85a8,8,0,0,0,0,5.93c.2.58,1,.33,1.08-.16a5.44,5.44,0,0,0-1-4.42.59.59,0,0,0-1,.45,21.1,21.1,0,0,0,1.87,5.91.61.61,0,0,0,1.15-.33c-.46-4.7,1.38-9.63,5.43-12.27L80,49.19c-.64.53-1.29,1.05-1.94,1.57l.8.59A7.52,7.52,0,0,1,80.27,49a6.14,6.14,0,0,1,.51-.51l.17-.14c.23-.1.22-.18,0-.24a2.19,2.19,0,0,0-.39,1,.66.66,0,0,0,1.17.47l.58-1-1.12-.63a19.62,19.62,0,0,1-2.42,5.26l1.08.6a9.93,9.93,0,0,1,3.31-4.82l-1-.56c-.17,2.37-1.62,4.3-3,6.13l1.14.63a17.26,17.26,0,0,1,2.89-5.8l-1,0c.25.38-.15,1-.31,1.37s-.39.81-.61,1.2c-.45.8-1,1.56-1.48,2.32l1.19.66a12.41,12.41,0,0,1,2.83-4.26l-1-.55a9.22,9.22,0,0,1-2,5.4l1.15.64c.68-2,1.39-4,2.26-6l-1.1-.44A16.85,16.85,0,0,0,82,53.08l1.3.16A18.29,18.29,0,0,1,84,49.42l-1.2-.14A55.17,55.17,0,0,1,84,55.4l1.11-.32a7.22,7.22,0,0,1-.46-4.49H83.59A15.64,15.64,0,0,1,83.23,56l1.23-.18a14.77,14.77,0,0,1-.68-3.66l-1.27.18c.33,1.26.64,2.52,1,3.77.23.81,1.54.65,1.33-.2l-1-4c-.15-.64-1.27-.76-1.26,0a17,17,0,0,0,.47,4.14.66.66,0,0,0,1.31,0c.18-1.54.36-3.07.55-4.61l-1.19,0a37.19,37.19,0,0,0,1.3,6c.21.68,1.37.34,1.21-.35-.42-1.85-.79-3.7-1.07-5.58l-1.2.35a50.63,50.63,0,0,1,2.41,6.64c.21.72,1.44.36,1.27-.37a27.36,27.36,0,0,0-1.48-4.68c-.21-.51-1.11-.43-1.12.16a8.28,8.28,0,0,0,.24,2.16c.16.6,1.07.5,1-.14a6.58,6.58,0,0,1,0-1.88L85.13,54c.48,1.45.88,2.93,1.23,4.41L87.63,58a57.76,57.76,0,0,0-2.48-6.61.63.63,0,0,0-1.2.35A52.76,52.76,0,0,0,85,57.35L86.22,57a26.82,26.82,0,0,1-1.28-5.66.6.6,0,0,0-1.18,0c-.22,1.53-.45,3.06-.67,4.59l1.31,0a16.79,16.79,0,0,1-.51-3.8l-1.27,0c.3,1.32.59,2.64.89,4l1.33-.2c-.33-1.26-.71-2.5-1.06-3.75a.64.64,0,0,0-1.27.18,16.09,16.09,0,0,0,.77,4c.22.67,1.1.35,1.23-.18a14.74,14.74,0,0,0,.16-5.73.55.55,0,0,0-1.09,0,9.13,9.13,0,0,0,.49,5.09c.25.63,1.18.31,1.11-.32a45.71,45.71,0,0,0-1.12-6.14c-.14-.55-1-.77-1.2-.14A15,15,0,0,0,82,53.08a.66.66,0,0,0,1.3.16,10.85,10.85,0,0,1,.87-3c.32-.69-.78-1.12-1.1-.44a48,48,0,0,0-2.39,6,.66.66,0,0,0,1.14.64A11,11,0,0,0,84,50.4a.62.62,0,0,0-1-.55,14.07,14.07,0,0,0-3.35,4.71c-.36.71.74,1.28,1.19.67a19.82,19.82,0,0,0,1.92-3.31c.48-1,1-2.12.35-3.18a.62.62,0,0,0-1,0,16.92,16.92,0,0,0-3.11,6.05c-.19.69.66,1.28,1.14.64,1.5-2,3-4.17,3.19-6.76a.62.62,0,0,0-1-.55,11.37,11.37,0,0,0-3.7,5.32c-.21.64.67,1.22,1.08.6a20.43,20.43,0,0,0,2.62-5.52c.2-.65-.7-1.29-1.12-.62-.2.31-.39.63-.59.95l1.17.47c.13-.66.64-1.12.24-1.82a1,1,0,0,0-1.52-.28A7.65,7.65,0,0,0,78,51a.52.52,0,0,0,.8.59l1.9-1.6a.49.49,0,0,0-.61-.77c-3.94,3.13-6.57,8.11-6,13.22l1.15-.34a18.68,18.68,0,0,1-1.81-5.59l-1,.45a4.85,4.85,0,0,1,.79,3.55l1.09-.16a9.66,9.66,0,0,1-.7-5.39.17.17,0,0,0-.32-.08Z" transform="translate(-61.35 -45.04)"/><path class="cls-2" d="M89.39,58.33l-1,.44.4.66a57.13,57.13,0,0,1,5.89-5.21l-.75-.93c-2.2,1.94-4.35,4-6.51,6l.81.78a23.55,23.55,0,0,1,8.9-7.46c-.17-.3-.35-.59-.53-.88a30.4,30.4,0,0,1-7.14,5.08l.62.77A15,15,0,0,1,94,54.17a16,16,0,0,1,2.2-1.07l.51-.19c.29-.1.5-.25.34.13s-.72.71-1,1c-3,2.49-6,5-9,7.48a.53.53,0,0,0,.66.83c3.37-2.71,6.85-5.54,10.91-7.17l-.5-.81q-5.49,4.26-11,8.57l.69.85c3.23-2.55,6.51-5.16,10.31-6.83-.18-.31-.37-.62-.56-.93q-4.87,4.45-10.07,8.56c-.58.46.14,1.36.73.9a39,39,0,0,1,9.69-6.17l-.73-.55c0,.74-1.45,1.54-2,2L93,62.5l-4.49,3.59.72.9a31.83,31.83,0,0,1,8.4-5.5c-.18-.31-.37-.62-.56-.93-2.75,2.41-5.52,4.81-8.25,7.24-.52.46.15,1.3.67.84a35.9,35.9,0,0,1,7.63-5.57l-.52-.86c-2.08,2.09-4.24,4.09-6.45,6l.66.83a25.75,25.75,0,0,1,5.44-3.9l-.6-.75a37.77,37.77,0,0,1-4,3.95c-.47.43.12,1.19.63.78,1.1-.88,2.2-1.75,3.29-2.64l-.48-.36a8.65,8.65,0,0,1-1.86,2.69.27.27,0,1,0,.39.37,16.06,16.06,0,0,0,2-2.76A.31.31,0,0,0,95.2,66c-1.19.77-2.36,1.57-3.53,2.35l.63.78A26.88,26.88,0,0,0,96.42,65a.5.5,0,0,0-.6-.75,25,25,0,0,0-5.7,4c-.49.46.15,1.28.66.83,2.2-2,4.33-4,6.42-6.08.38-.38,0-1.13-.52-.86a38.56,38.56,0,0,0-7.89,5.66l.67.84c2.77-2.39,5.51-4.81,8.27-7.22a.55.55,0,0,0-.57-.93,29.63,29.63,0,0,0-8.68,5.6c-.53.5.14,1.37.72.9l5.2-4.24,2.47-2c.6-.49,1.35-1,1.35-1.85a.53.53,0,0,0-.73-.54c-3.77,1.28-6.92,3.79-10,6.23l.73.9q5.16-4.12,10-8.61a.55.55,0,0,0-.56-.92,50.35,50.35,0,0,0-10.56,7,.55.55,0,0,0,.69.85q5.44-4.32,10.87-8.67a.48.48,0,0,0-.49-.82C94,56,90.5,58.71,87,61.5l.66.83c2-1.67,4-3.37,6-5.06l3-2.53c.59-.49,1.53-1.05,1.51-1.92,0-2-3.24-.22-4,.2a16,16,0,0,0-4.81,3.91.51.51,0,0,0,.61.76,31.74,31.74,0,0,0,7.38-5.2c.4-.39,0-1.15-.54-.88a25.09,25.09,0,0,0-9.39,7.74c-.38.5.32,1.21.81.78,2.19-2,4.4-3.9,6.55-5.91a.6.6,0,0,0-.75-.93,31.48,31.48,0,0,0-5.69,5.61c-.29.37.2.76.55.53l.91-.57c.31-.19,0-.68-.32-.53Z" transform="translate(-61.35 -45.04)"/><path class="cls-2" d="M62.69,61.58l-.49.17.46.59a16.38,16.38,0,0,1,4.54-4l-.67-.83a30.56,30.56,0,0,1-3.67,5.28c-.43.48.35,1.24.82.79a37.23,37.23,0,0,1,4.67-4.2l-.68-.65a38.49,38.49,0,0,1-4.54,5.65c-.45.46.17,1.26.64.79a26.37,26.37,0,0,1,5.63-4.64l-.66-.83a37.44,37.44,0,0,1-4.08,5.14c-.47.49.32,1.15.83.79C67.24,64.34,69,63,70.72,61.78L70,61.05c-1.29,1.54-2.57,3.08-3.87,4.61-.49.58.43,1.21.93.69a19.74,19.74,0,0,1,4-3.21l-.77-.74c-1.14,1.6-2.36,3.13-3.56,4.69-.39.5.33,1.22.81.78A21.85,21.85,0,0,1,72.66,64c-.2-.25-.41-.5-.61-.76-1.52,1.8-3.13,3.52-4.66,5.31-.42.5.34,1.23.83.79a24.26,24.26,0,0,1,5.68-4.12c-.21-.25-.41-.51-.62-.77-1.5,1.8-3.06,3.55-4.55,5.37a.56.56,0,0,0,.79.76,25.14,25.14,0,0,1,6.08-4.26L75,65.59c-1.65,1.78-3.31,3.56-5,5.34-.39.42.28,1,.71.69a29.85,29.85,0,0,1,6.46-4.48l-.6-.75q-2.37,2.86-5,5.51c-.45.45.13,1.23.64.8a23.33,23.33,0,0,1,6.42-4.37l-.51-.64c-1.35,1.45-2.77,2.82-4.15,4.23-.43.43.1,1.15.6.75A41.88,41.88,0,0,1,80,69c-.18-.21-.35-.43-.52-.64a10.43,10.43,0,0,1-2.62,2.76c-.47.35.1,1.05.57.71,1.48-1.09,3-2.07,4.62-3,.35-.21.13-.79-.27-.61a31.25,31.25,0,0,0-4.92,2.92l.57.71a11,11,0,0,0,2.74-3c.21-.33-.12-.87-.52-.65A42.07,42.07,0,0,0,74,71.92l.6.75c1.46-1.44,2.83-3,4.23-4.47.31-.34-.15-.78-.51-.65a24.3,24.3,0,0,0-6.72,4.35l.64.8C74.09,70.87,75.81,69,77.44,67a.5.5,0,0,0-.6-.75,31.61,31.61,0,0,0-6.69,4.61l.72.69c1.64-1.79,3.27-3.59,4.92-5.37.34-.37-.17-.91-.58-.73a28.17,28.17,0,0,0-6.38,4.28l.79.76c1.53-1.78,3-3.63,4.48-5.42.34-.4-.17-1-.61-.77a25.26,25.26,0,0,0-6,4.16l.83.79c1.54-1.78,3-3.63,4.54-5.4.34-.39-.17-1-.61-.76A23.26,23.26,0,0,0,66.76,67l.81.78c1.24-1.52,2.37-3.13,3.52-4.72.38-.53-.28-1-.77-.74a21.93,21.93,0,0,0-4.12,3.25l.82.8,3.79-4.67c.39-.48-.28-1.07-.76-.73-1.74,1.28-3.54,2.48-5.29,3.74l.83.79a36,36,0,0,0,4-5.17c.27-.41-.15-1.12-.67-.83a27.35,27.35,0,0,0-5.82,4.86l.73.7a41.85,41.85,0,0,0,4.57-5.79.48.48,0,0,0-.68-.65,37.65,37.65,0,0,0-4.79,4l.82.79A25.06,25.06,0,0,0,67.48,58c.27-.54-.44-.91-.85-.63A17,17,0,0,0,62,61.88a.39.39,0,0,0,.47.58l.48-.2c.45-.19.15-.84-.3-.68Z" transform="translate(-61.35 -45.04)"/><path class="cls-2" d="M75.29,66A6.27,6.27,0,0,0,77,64.48c.47-.64,1-1.26,1.47-1.87,1-1.17,2.1-2.25,3.1-3.43L78.23,57.3A31.7,31.7,0,0,1,76,60.76,23.61,23.61,0,0,1,73.34,64l2.46,2.36c1.51-1.64,2.89-3.39,4.41-5A46.32,46.32,0,0,1,85,57.09L82.15,55a26.77,26.77,0,0,1-4,5.39A49.44,49.44,0,0,0,74,65.85,1.66,1.66,0,0,0,74.18,68a1.62,1.62,0,0,0,2.16.1c2.93-2.88,5.37-6.41,9.22-8.16l-2-1.1c0-.16.11-.16,0,0s-.28.32-.43.48L82,60.47,79.8,62.83c-1.45,1.54-2.88,3.1-4.32,4.64-1.25,1.36,1,3.6,2.35,2.26a41.05,41.05,0,0,1,10.89-8.07l-2.21-2.14a6.66,6.66,0,0,1-1.63,1.59c-.78.66-1.55,1.34-2.3,2-1.54,1.42-3,2.9-4.46,4.42a1.68,1.68,0,0,0,.19,2.22,1.74,1.74,0,0,0,2.23.11c1.7-1.11,3.22-2.46,4.83-3.68a15.82,15.82,0,0,1,5.08-2.65l-1.88-2.35A31.05,31.05,0,0,1,81.72,67c.66.81,1.31,1.63,2,2.44a25.11,25.11,0,0,1,5.68-3.59l-1.77-2.21a35.74,35.74,0,0,1-2.68,3.09c-.88,1,.44,2.31,1.5,1.87a13.07,13.07,0,0,0,1.48-.66c.48-.28.88-.67,1.38-.91l-.93-1.15a6.61,6.61,0,0,1-2.48,2c-1.26.73-.38,2.82.94,2.11,1-.56,2-1.3,3-1.84L88.59,66.6a23.11,23.11,0,0,0-1.4,2,.73.73,0,0,0,1,1c.63-.51,1.24-1,1.82-1.59a1,1,0,0,0-1-1.72A10.39,10.39,0,0,0,85.61,68l1.44,1.8a8.38,8.38,0,0,0,1.29-1.5,9.21,9.21,0,0,1,1.23-1.55.77.77,0,0,0-.72-1.21c-.57.15-1.15.11-1.73.22a13,13,0,0,0-1.71.53l1.27,2.1a35.65,35.65,0,0,1,3-2.77,1.47,1.47,0,0,0,.32-1.9,1.5,1.5,0,0,0-1.83-.59A17.87,17.87,0,0,0,81.72,67a1.57,1.57,0,0,0,2,2.44,58,58,0,0,0,7.12-6.06,1.57,1.57,0,0,0-1.2-2.75c-4.4.72-7.62,4.28-11.18,6.65l2.42,2.33c1.42-1.54,2.91-3,4.47-4.44s3.29-2.56,4.28-4.39c.69-1.28-1-2.75-2.21-2.14a42.56,42.56,0,0,0-11.9,8.85l2.64,2c1.59-1.82,3.18-3.63,4.76-5.46l2.31-2.69c.72-.83,1.43-1.67,1.2-2.85a1.44,1.44,0,0,0-2-1.1c-4,1.84-6.83,5.4-10.12,8.22l2.35,2.26a33.53,33.53,0,0,1,4.29-5.58,66.46,66.46,0,0,0,4.41-5.48,1.89,1.89,0,0,0,0-2.24A1.85,1.85,0,0,0,83.11,54a25.68,25.68,0,0,0-5.65,4.85A48.89,48.89,0,0,0,73,64.34a1.72,1.72,0,0,0,2.77,2c.94-1.22,2-2.34,3-3.54s1.88-2.44,2.81-3.67c1.3-1.73-1.1-4.15-2.77-2.67a20.19,20.19,0,0,0-3.29,3.91c-.44.66-.86,1.34-1.26,2a4.06,4.06,0,0,0-.6,1.28c-.06.42-.07.86-.1,1.28a1.07,1.07,0,0,0,1.72.95Z" transform="translate(-61.35 -45.04)"/><path class="cls-2" d="M80.08,55.34h0l.13-.08a1.3,1.3,0,0,1-.32.14l.19,0-.14,0a1.89,1.89,0,0,0-.34.09l1.09,1.06a2.35,2.35,0,0,1,.23-.57l-.11.2a2.15,2.15,0,0,1,.36-.48l-.18.18.08-.07-1.43-1.38c-.17.22-.34.45-.5.68a.77.77,0,0,0-.17.38.74.74,0,0,0,0,.42l.08.28a.78.78,0,0,0,.24.33.52.52,0,0,0,.22.17.9.9,0,0,0,.39.13h.29a1.11,1.11,0,0,0,.52-.23l.11-.09a3.83,3.83,0,0,0,.28-.29l-.19.2c.17-.17.37-.3.53-.49a1.82,1.82,0,0,0,.16-.31.88.88,0,0,0,.08-.55.93.93,0,0,0-.35-.62,1,1,0,0,0-.5-.21h-.1a1,1,0,0,0-.44.05.42.42,0,0,0-.18.06,4.78,4.78,0,0,0-.42.26,2.29,2.29,0,0,0-.52.51l1.86,1c.13-.25.25-.5.37-.75a.67.67,0,0,0,.06-.39.77.77,0,0,0-.07-.39l-.14-.22a.73.73,0,0,0-.29-.24.51.51,0,0,0-.24-.1.9.9,0,0,0-.4,0L80,54.1a1,1,0,0,0-.4.32,3.15,3.15,0,0,0-.39.83,3.24,3.24,0,0,0-.14.88,1.62,1.62,0,0,0,0,.22l.06.21a1.74,1.74,0,0,0,.11.18.52.52,0,0,0,.24.2.44.44,0,0,0,.2.08.31.31,0,0,0,.21,0,.42.42,0,0,0,.22,0,.62.62,0,0,0,.28-.14,1,1,0,0,0,.21-.19l0-.07a.71.71,0,0,0,.1-.14A2.31,2.31,0,0,0,81,56l0-.15a.46.46,0,0,0,0-.23.51.51,0,0,0-.21-.31.57.57,0,0,0-.28-.11.36.36,0,0,0-.23,0,.51.51,0,0,0-.21.1Z" transform="translate(-61.35 -45.04)"/><path class="cls-2" d="M80.35,69.6a8.83,8.83,0,0,0,1.36,0,6.59,6.59,0,0,0,1.37-.36.8.8,0,0,0-.44-1.52c-.71.19-1.4.41-2.1.62A.81.81,0,0,0,81,69.83c1.23-.25,2.47-.5,3.72-.71-.08-.55-.17-1.1-.25-1.65-.59.15-1.18.32-1.78.5l-1.53.45c.16.52.31,1,.46,1.57a31.9,31.9,0,0,1,3.88-1c-.21-.47-.41-.93-.61-1.4-.1.06-.22.12-.35.21a3.85,3.85,0,0,0-.3.27c-.2.18-.41.34-.62.51l.64.79a2.65,2.65,0,0,1,1-.58c.33-.13.16-.62-.17-.58a6.55,6.55,0,0,0-1.31.3c-.55.17-.27,1.07.28,1l.85-.19a2.77,2.77,0,0,0,.49-.15,5.74,5.74,0,0,0,.53-.32.77.77,0,0,0,.22-.93.78.78,0,0,0-.83-.46c-1.46.27-2.9.62-4.32,1a.83.83,0,0,0,.46,1.57c1.17-.33,2.36-.63,3.52-1a.83.83,0,0,0-.46-1.58c-1.23.28-2.47.53-3.71.77.15.51.29,1,.44,1.53.63-.18,1.27-.35,1.89-.57-.22-.48-.44-1-.65-1.46-.36.15-.72.26-1.08.4s-.67.25-1,.34a.58.58,0,0,0-.48.57.55.55,0,0,0,.49.55Z" transform="translate(-61.35 -45.04)"/><path class="cls-2" d="M88.61,66c.42-.25.9-.39,1.35-.6a12.2,12.2,0,0,0,1.35-.79,19.32,19.32,0,0,0,2.33-1.9.67.67,0,0,0-.84-1.05c-.79.58-1.62,1.13-2.37,1.77a14.11,14.11,0,0,0-1.08,1,10.71,10.71,0,0,1-1.07,1.06c-.28.21,0,.73.33.54Z" transform="translate(-61.35 -45.04)"/><path class="cls-2" d="M86.84,68.68h-.06c-.43,0-.4.68,0,.73A2.62,2.62,0,0,0,88,69c.37-.17.73-.37,1.09-.56a12.22,12.22,0,0,0,2.09-1.31c.21-.18.07-.63-.24-.55a9.2,9.2,0,0,0-1.15.4c-.39.17-.77.37-1.15.56s-.74.36-1.08.57-.84.41-1,.78l.63-.09-.07-.07,0,.13v-.06c0-.12-.14-.25-.25-.14Z" transform="translate(-61.35 -45.04)"/><path class="cls-3" d="M83.06,75.52c5.58.79,10.7,2.77,14.56,7s6.33,10.05,7.93,15.67c3.07,10.74,3.13,23.36-4.88,32a19.18,19.18,0,0,1-12.83,6.33,20.19,20.19,0,0,1-13.49-4.74c-9.08-7.24-10.84-19.48-8.78-30.31a41.88,41.88,0,0,1,6.86-16.69,25.9,25.9,0,0,1,5.86-6,24.6,24.6,0,0,1,7.83-3.39c1.37-.39,1.73-2.82,0-2.81-5.62,0-10.6,3.51-14.26,7.55a40.11,40.11,0,0,0-8.37,15.61c-3.6,12.22-3.25,27,6.22,36.54,8.17,8.25,20.68,10.59,30.23,3.22,10.46-8.07,12.5-22,9.82-34.2-1.57-7.19-4.25-14.74-9.28-20.27-4.24-4.67-11.09-8.68-17.53-6.58-.5.16-.32.9.14,1Z" transform="translate(-61.35 -45.04)"/><path class="cls-3" d="M125.66,91.76a1.14,1.14,0,0,1,.92.08,1.11,1.11,0,0,1,.46.6,1.84,1.84,0,0,1,.06.85,2.81,2.81,0,0,1-.23.77l-.18.28-.35.13a1.43,1.43,0,0,0-.19,1.08,1.35,1.35,0,0,0,.55.75,1.89,1.89,0,0,0,1,.32,2,2,0,0,0,1.06-.19,3.53,3.53,0,0,0,1.26-1,6.77,6.77,0,0,0,.87-1.41,7.37,7.37,0,0,0,.51-1.59,8.66,8.66,0,0,0,.16-1.53l-.06-.41-.18-.48a4.1,4.1,0,0,0-1.51-1,4.26,4.26,0,0,0-1.92-.35,3.82,3.82,0,0,0-1.89.62,3.88,3.88,0,0,0-1.44,1.86q-.19.39-.48.21a1.78,1.78,0,0,1-.56-.59,3.51,3.51,0,0,1-.39-.93,1.18,1.18,0,0,1,0-.82,4.11,4.11,0,0,1,.69-1.11,3.94,3.94,0,0,1,1.15-.73,4.75,4.75,0,0,1,1.69-.44,6.59,6.59,0,0,1,1.72.11,6.29,6.29,0,0,1,1.61.56,6.12,6.12,0,0,1,1.36.92,4.53,4.53,0,0,1,.89,1.18,5.58,5.58,0,0,1,.52,1.46,3.5,3.5,0,0,1,0,1.24,10.69,10.69,0,0,1-.39,1.47q-.25.76-.57,1.47a11,11,0,0,1-.61,1.2,4.47,4.47,0,0,1-.53.72,8.9,8.9,0,0,1-.69.67,2.74,2.74,0,0,1-1.41.64,3.91,3.91,0,0,1-1.52-.09,2.67,2.67,0,0,1-1.34-.89,4.58,4.58,0,0,1-.83-1.52,4.83,4.83,0,0,1-.24-1.78,3.75,3.75,0,0,1,.45-1.65,3.69,3.69,0,0,1,.26-.38A1,1,0,0,1,125.66,91.76Z" transform="translate(-61.35 -45.04)"/><path class="cls-3" d="M135.44,88.72a2.22,2.22,0,0,1-.7-.73,1.76,1.76,0,0,1-.26-.9.82.82,0,0,1,.47-.73c.42-.19.88-.39,1.36-.58a7.88,7.88,0,0,1,1.49-.42,4.15,4.15,0,0,1,1.45,0,2.52,2.52,0,0,1,1.25.67,3.93,3.93,0,0,1,1.07,2.14,11.7,11.7,0,0,1,.18,2.81,20.4,20.4,0,0,1-.36,2.93c-.2,1-.39,1.8-.59,2.48-.28.27-.51.38-.68.34a.66.66,0,0,1-.42-.34,2,2,0,0,1-.19-.72,3.26,3.26,0,0,1,0-.78A14.89,14.89,0,0,1,140,93c.19-.6.36-1.19.49-1.77a8.87,8.87,0,0,0,.24-1.75,4.78,4.78,0,0,0-.34-1.81l-.12-.23-.16-.12-.21,0-.09,0-.29-.07-.28,0-.32.07-.63.29-2,1.4A1,1,0,0,1,135.44,88.72Z" transform="translate(-61.35 -45.04)"/><path class="cls-3" d="M147.4,93.87a1.29,1.29,0,0,1-.28,1.25,1.25,1.25,0,0,1-1,.35,1.63,1.63,0,0,1-1.06-.54,1.84,1.84,0,0,1-.43-1.43,13.45,13.45,0,0,1,.51-3.1,2.94,2.94,0,0,1,.87-1.46,1.2,1.2,0,0,1,1.11-.22,3.75,3.75,0,0,1,1.23.62,10.76,10.76,0,0,1,1.24,1.06l1.12,1.12a7,7,0,0,0,.88.75c.25.17.43.16.53,0l.28-1.76a5.94,5.94,0,0,0,0-1.73,2.85,2.85,0,0,0-.57-1.42,2.51,2.51,0,0,0-1.57-.81,3.44,3.44,0,0,0-1.16,0,11.65,11.65,0,0,0-1.24.23l-1.26.31a8,8,0,0,1-1.21.22,1.91,1.91,0,0,1-1.23-.26.79.79,0,0,1-.28-1,2.92,2.92,0,0,1,.42-.85,2.53,2.53,0,0,1,.59-.54,5.25,5.25,0,0,1,.75-.4c.28-.13.59-.28.92-.46a17,17,0,0,1,1.91-.86,17.84,17.84,0,0,1,1.83-.61q.94-.27,2-.51c.7-.16,1.49-.37,2.35-.61a1.19,1.19,0,0,1,.81.36,2,2,0,0,1,.56.83,1.45,1.45,0,0,1,.07.89.79.79,0,0,1-.65.56,4.39,4.39,0,0,1-.52,0l-.74,0-.74,0a5,5,0,0,0-.51,0l-1.86.21a14,14,0,0,0-1.7.26,12.05,12.05,0,0,0-1.72.53,13.18,13.18,0,0,0-1.86.91,17.22,17.22,0,0,1,4-.85,5.26,5.26,0,0,1,2.61.39,3,3,0,0,1,1.47,1.52,7.28,7.28,0,0,1,.52,2.58,4.59,4.59,0,0,1-.07,1,8.86,8.86,0,0,1-.28,1.25,10.1,10.1,0,0,1-.42,1.21,2.89,2.89,0,0,1-.53.87.86.86,0,0,1-.9.3,3.67,3.67,0,0,1-1.14-.49,11.17,11.17,0,0,1-1.25-.91c-.43-.36-.83-.68-1.21-1a5.09,5.09,0,0,0-1-.61.63.63,0,0,0-.73.09,1.62,1.62,0,0,0-.42.66,2,2,0,0,0-.13.7,1.21,1.21,0,0,0,.11.51c.07.14.15.18.26.15a.41.41,0,0,1,.35,0,.64.64,0,0,1,.23.2,1.05,1.05,0,0,1,.13.26C147.38,93.77,147.39,93.84,147.4,93.87Z" transform="translate(-61.35 -45.04)"/><path class="cls-3" d="M157.37,85.46a2.09,2.09,0,0,1-.7-.72,1.73,1.73,0,0,1-.26-.91.81.81,0,0,1,.46-.73l1.37-.58a7.08,7.08,0,0,1,1.48-.41,3.93,3.93,0,0,1,1.45,0,2.46,2.46,0,0,1,1.25.68,3.88,3.88,0,0,1,1.08,2.13,11.7,11.7,0,0,1,.18,2.81,19.37,19.37,0,0,1-.37,2.94c-.19,1-.39,1.79-.59,2.47-.28.27-.5.38-.68.34a.62.62,0,0,1-.41-.34,1.65,1.65,0,0,1-.19-.72,2.84,2.84,0,0,1,0-.78,14.35,14.35,0,0,1,.47-1.93c.19-.61.36-1.2.5-1.78a8.75,8.75,0,0,0,.23-1.75,4.73,4.73,0,0,0-.34-1.8l-.12-.24L162,84l-.2,0-.09,0-.29-.07h-.28l-.33.08-.63.29-2,1.39A1,1,0,0,1,157.37,85.46Z" transform="translate(-61.35 -45.04)"/><path class="cls-3" d="M173.19,83.15a1,1,0,0,1-.82-.1,2,2,0,0,1-.64-.59,2,2,0,0,1-.31-.83,1.17,1.17,0,0,1,.18-.85,2.08,2.08,0,0,1,1.18-.35,1.91,1.91,0,0,1,1,.34,2.57,2.57,0,0,1,.77.83,3,3,0,0,1,.41,1.12,10.68,10.68,0,0,1,.09,1.18,9.32,9.32,0,0,1,0,1.2,10.28,10.28,0,0,1-.34,2.13,13.19,13.19,0,0,0-.38,2.11,2.09,2.09,0,0,0,.92.2,8,8,0,0,0,1.19,0,10.78,10.78,0,0,0,1.18-.18l.93-.17.22-.06a4.29,4.29,0,0,0,.55-1.21,9,9,0,0,0,.26-1.37c0-.46.08-.92.09-1.37s0-.88,0-1.27c0-.72,0-1.45,0-2.19s0-1.48.09-2.23a19.92,19.92,0,0,1,.3-2.21,10.43,10.43,0,0,1,.68-2.14c.2-.33.43-.47.7-.43a1.25,1.25,0,0,1,.73.46,2.8,2.8,0,0,1,.5.92,1.66,1.66,0,0,1,.05,1,8.45,8.45,0,0,0-.93,2.16,16.62,16.62,0,0,0-.49,2.33q-.15,1.2-.24,2.37c-.05.79-.12,1.55-.22,2.3a21.36,21.36,0,0,1-.36,2.12,4.72,4.72,0,0,1-.89,1.94.4.4,0,0,1-.28.16l-.17,0a17.32,17.32,0,0,1-1.95.46,9,9,0,0,1-2,.13,2.61,2.61,0,0,1-1.47-.5,2.18,2.18,0,0,1-.69-1.06,4.52,4.52,0,0,1-.16-1.46c0-.53.07-1.09.13-1.66s.12-1.14.17-1.7a6.41,6.41,0,0,0,0-1.53S173.21,83.15,173.19,83.15Z" transform="translate(-61.35 -45.04)"/><path class="cls-3" d="M174.05,75.49a1.53,1.53,0,0,1,.26-1,1,1,0,0,1,.66-.39,1,1,0,0,1,.7.2,1,1,0,0,1,.41.72l.06.24c-.19.38-.25.64-.18.77s.21.17.43.12a2.88,2.88,0,0,0,.81-.39,6.46,6.46,0,0,0,1-.76,5.58,5.58,0,0,0,.84-1,3.05,3.05,0,0,0,.49-1.08,1.7,1.7,0,0,1,.64-.68,4.47,4.47,0,0,1,1-.47,2.8,2.8,0,0,1,.88-.14c.24,0,.35.11.32.3a12.4,12.4,0,0,1-1.08,1.88,11.91,11.91,0,0,1-1.29,1.55,7.22,7.22,0,0,1-1.41,1.12,4.32,4.32,0,0,1-1.47.59,3.3,3.3,0,0,1-1,0,3.36,3.36,0,0,1-.92-.24,2.1,2.1,0,0,1-.71-.53A1.69,1.69,0,0,1,174.05,75.49Z" transform="translate(-61.35 -45.04)"/><path class="cls-3" d="M185.9,81.32a1,1,0,0,1-.81-.1,1.93,1.93,0,0,1-.64-.6,2,2,0,0,1-.32-.82,1.31,1.31,0,0,1,.18-.86,2.66,2.66,0,0,1,1.39-.54,2.22,2.22,0,0,1,1.24.25,2.57,2.57,0,0,1,.93.87,3,3,0,0,1,.47,1.35,5.92,5.92,0,0,1-.12,2.13c-.16.72-.33,1.43-.49,2.13-.08.42-.17.86-.25,1.31a5.42,5.42,0,0,0-.08,1.32,3,3,0,0,0,1-.69c.36-.33.71-.7,1.08-1.1s.72-.8,1.1-1.2a6.48,6.48,0,0,1,1.14-1c0-.31-.05-.63-.07-1a8.34,8.34,0,0,1,0-1,9.71,9.71,0,0,1,.12-1.2c.08-.44.16-.89.26-1.36s.21-.91.34-1.34a10.46,10.46,0,0,1,.39-1.16c.19-.32.43-.47.7-.42a1.16,1.16,0,0,1,.72.45,2.79,2.79,0,0,1,.51.93,1.62,1.62,0,0,1,0,1,5.68,5.68,0,0,0-.3.68,7.92,7.92,0,0,0-.28.82c-.08.27-.16.54-.23.8l-.18.69q-.11.4-.18.84t-.15.9a2,2,0,0,1,1,.72,4.3,4.3,0,0,1,.67,1.25,5,5,0,0,1,.24,1.43,2.7,2.7,0,0,1-.28,1.27c-.2.39-.43.6-.68.63a1.14,1.14,0,0,1-.74-.2,2.62,2.62,0,0,1-.67-.62,2.76,2.76,0,0,1-.42-.67c-.12-.3-.23-.59-.33-.88a7.2,7.2,0,0,1-.25-.92,1.5,1.5,0,0,1-.22.23,8.53,8.53,0,0,0-.77.89c-.28.37-.58.74-.89,1.1a11.75,11.75,0,0,1-1,1,3,3,0,0,1-1,.65,1.23,1.23,0,0,1-1,0,2,2,0,0,1-.88-1,1.92,1.92,0,0,1-.26-.64A2.71,2.71,0,0,1,186,87c0-.32,0-.62,0-.91a6.86,6.86,0,0,1,.09-.9c.06-.59.13-1.18.21-1.78s.16-1.18.22-1.77a.9.9,0,0,1,0-.24,2.74,2.74,0,0,0,0-.41l-.19,0A1.77,1.77,0,0,0,185.9,81.32Zm7.46,3.45a6.5,6.5,0,0,0,.09,1.09,4.78,4.78,0,0,0,.3,1l.07-.1a2.57,2.57,0,0,0,.21-1.18.93.93,0,0,0-.64-.81Z" transform="translate(-61.35 -45.04)"/><path class="cls-3" d="M199.74,80.76a1.11,1.11,0,0,1,.92.07,1.18,1.18,0,0,1,.46.61,1.83,1.83,0,0,1,0,.85,2.44,2.44,0,0,1-.22.76l-.18.28-.35.14a1.42,1.42,0,0,0-.19,1.08,1.37,1.37,0,0,0,.55.75,2.06,2.06,0,0,0,2,.12,3.42,3.42,0,0,0,1.26-1,6.49,6.49,0,0,0,.88-1.4,7.07,7.07,0,0,0,.5-1.6,7.86,7.86,0,0,0,.17-1.53l-.06-.41-.18-.48a4.19,4.19,0,0,0-1.51-1,4.4,4.4,0,0,0-1.92-.35,3.7,3.7,0,0,0-3.33,2.48c-.13.26-.29.33-.49.21a1.86,1.86,0,0,1-.55-.59,3.25,3.25,0,0,1-.39-.93,1.15,1.15,0,0,1,0-.81,3.61,3.61,0,0,1,.69-1.12,4.24,4.24,0,0,1,1.14-.73,4.86,4.86,0,0,1,1.7-.44,6.51,6.51,0,0,1,1.71.11,6.38,6.38,0,0,1,1.62.57,5.8,5.8,0,0,1,1.36.92,4.65,4.65,0,0,1,.89,1.17,6.12,6.12,0,0,1,.51,1.46,3.47,3.47,0,0,1,0,1.24,11.21,11.21,0,0,1-.39,1.48c-.17.5-.36,1-.57,1.46a11,11,0,0,1-.61,1.2,4.45,4.45,0,0,1-.54.73,7.42,7.42,0,0,1-.69.66,2.69,2.69,0,0,1-1.4.65,4.1,4.1,0,0,1-1.52-.1,2.61,2.61,0,0,1-1.34-.88,4.63,4.63,0,0,1-.83-1.53,4.8,4.8,0,0,1-.24-1.77,3.89,3.89,0,0,1,.44-1.66,4.33,4.33,0,0,1,.27-.37A.83.83,0,0,1,199.74,80.76Z" transform="translate(-61.35 -45.04)"/><path class="cls-3" d="M197.24,73.66a.91.91,0,0,1-.51-.27,2.84,2.84,0,0,1-.47-.59,2,2,0,0,1-.23-.55,2,2,0,0,1,.45-1.79,2.15,2.15,0,0,1,1.87-.35,11.54,11.54,0,0,1,1.48.31c.53.15,1.06.28,1.61.38A9.85,9.85,0,0,0,203,71a3.3,3.3,0,0,0,1.42-.24A1.16,1.16,0,0,1,205,71a2.56,2.56,0,0,1,.54.55,1.62,1.62,0,0,1,.3.69.62.62,0,0,1-.15.6,7.51,7.51,0,0,1-2.64,0,11.61,11.61,0,0,1-1.84-.54c-.52-.21-1-.39-1.51-.53a3.06,3.06,0,0,0-1.69,0l-.31.21-.18.28-.05.26,0,.34.09.38C197.52,73.56,197.4,73.69,197.24,73.66Z" transform="translate(-61.35 -45.04)"/><path class="cls-3" d="M204.45,68a.83.83,0,0,1-.66.1,1.83,1.83,0,0,1-.68-.31,1.11,1.11,0,0,1-.41-.53.51.51,0,0,1,.1-.56.63.63,0,0,0,.19-.13.37.37,0,0,0,.12-.39,2.45,2.45,0,0,0-.12-.42l-.18-.66a2.39,2.39,0,0,1-.05-.7.9.9,0,0,1,.31-.58,1.1,1.1,0,0,1,.73,0,2.36,2.36,0,0,1,.69.4,1,1,0,0,1,.35.54c0,.19-.07.34-.32.45a.43.43,0,0,0-.12.11.76.76,0,0,0-.09.53q0,.31.12.66a3.9,3.9,0,0,1,.12.71A1.41,1.41,0,0,1,204.45,68Z" transform="translate(-61.35 -45.04)"/><path class="cls-3" d="M213.09,75.79a5.93,5.93,0,0,1,.63,1.71,8.1,8.1,0,0,1,.16,1.56,8.48,8.48,0,0,1-.1,1.3c-.07.38-.12.69-.16.92l.63.27c.46.2.87.37,1.23.54a5.06,5.06,0,0,1,1.12.71c.07-.44.13-.92.18-1.46s.09-1.07.11-1.61,0-1.1,0-1.64,0-1,0-1.52,0-.9,0-1.42a3.05,3.05,0,0,1,.33-1.38c.19-.33.41-.47.66-.43a1.25,1.25,0,0,1,.7.45,2.58,2.58,0,0,1,.5.91,1.49,1.49,0,0,1,0,1,2.3,2.3,0,0,0-.38,1.28c0,.5,0,.93-.05,1.31s0,.93-.08,1.49-.08,1.12-.14,1.69-.16,1.13-.26,1.66a9.08,9.08,0,0,1-.39,1.39c-.07,0-.11.09-.12.13l-.08,0,0,0a1,1,0,0,1-.34,0,1.4,1.4,0,0,1-.27-.11l-.54-.43c-.17-.14-.34-.28-.51-.4a11.32,11.32,0,0,0-1.24-.75,11.64,11.64,0,0,0-1.35-.61,8.78,8.78,0,0,1-.39,1.48,7.46,7.46,0,0,1-.67,1.43,3.75,3.75,0,0,1-.33.43,1,1,0,0,1-.7.37,1.55,1.55,0,0,1-1.52-.76,3.5,3.5,0,0,1-.51-1.22,2.54,2.54,0,0,1,.1-1.36,2.17,2.17,0,0,1,.26-.57,3.23,3.23,0,0,1,.46-.59,2.35,2.35,0,0,1,.57-.45,1.4,1.4,0,0,1,.6-.19,1.43,1.43,0,0,1,.32.07q.12-.39.3-1.14a11.93,11.93,0,0,0,.25-1.45,2.75,2.75,0,0,0-.07-1.08c-.08-.27-.3-.32-.65-.13a1,1,0,0,1-.78-.19,1.52,1.52,0,0,1-.52-.66,1.66,1.66,0,0,1-.14-.82,1,1,0,0,1,.36-.73,1.28,1.28,0,0,1,1.67-.25,2.83,2.83,0,0,1,.67.58A3.88,3.88,0,0,1,213.09,75.79Zm-1.77,6.11a.62.62,0,0,0-.55.07.91.91,0,0,0-.29.48.57.57,0,0,0,0,.34.5.5,0,0,0,.14.27.31.31,0,0,0,.2.13c.06,0,.11,0,.14-.11s.14-.41.19-.57S211.24,82.14,211.32,81.9Z" transform="translate(-61.35 -45.04)"/><path class="cls-3" d="M119.16,118.38a1,1,0,0,1-.81-.11,1.94,1.94,0,0,1-1-1.42,1.28,1.28,0,0,1,.18-.85,2.11,2.11,0,0,1,1.19-.35,1.91,1.91,0,0,1,1,.34,2.79,2.79,0,0,1,.77.83,3,3,0,0,1,.4,1.12,8.65,8.65,0,0,1,.1,1.18,11.55,11.55,0,0,1,0,1.2,11,11,0,0,1-.34,2.13,12.17,12.17,0,0,0-.38,2.11,2.19,2.19,0,0,0,.92.21,9.66,9.66,0,0,0,1.19,0,11.17,11.17,0,0,0,1.18-.18c.38-.07.69-.13.93-.16a.53.53,0,0,1,.22-.06,4.8,4.8,0,0,0,.55-1.22,10.21,10.21,0,0,0,.26-1.36q.07-.7.09-1.38c0-.45,0-.88,0-1.27,0-.72,0-1.45,0-2.19s0-1.48.09-2.23a17.81,17.81,0,0,1,.31-2.21,9.85,9.85,0,0,1,.68-2.14c.19-.33.42-.47.69-.43a1.22,1.22,0,0,1,.73.46,2.48,2.48,0,0,1,.5.92,1.59,1.59,0,0,1,.05,1,9.4,9.4,0,0,0-.93,2.16,18.16,18.16,0,0,0-.48,2.33q-.17,1.2-.24,2.37c0,.79-.12,1.55-.22,2.3s-.21,1.39-.36,2.12a4.76,4.76,0,0,1-.89,1.95.43.43,0,0,1-.29.15l-.16,0a15.14,15.14,0,0,1-2,.46,8.91,8.91,0,0,1-2,.13,2.53,2.53,0,0,1-1.46-.5,2.12,2.12,0,0,1-.69-1.06,4.23,4.23,0,0,1-.16-1.46c0-.53.06-1.09.13-1.66s.12-1.14.17-1.7a7,7,0,0,0,0-1.53S119.18,118.37,119.16,118.38Z" transform="translate(-61.35 -45.04)"/><path class="cls-3" d="M120,110.71a1.6,1.6,0,0,1,.27-1,1,1,0,0,1,.66-.39,1,1,0,0,1,.7.2,1,1,0,0,1,.4.72l.07.24c-.19.38-.25.64-.18.77s.2.17.42.12a2.65,2.65,0,0,0,.81-.39,5.52,5.52,0,0,0,1-.76,6.58,6.58,0,0,0,.84-1,2.79,2.79,0,0,0,.48-1.08,1.73,1.73,0,0,1,.65-.68,4.4,4.4,0,0,1,1-.47,2.84,2.84,0,0,1,.88-.14q.38,0,.33.3A13.36,13.36,0,0,1,127.2,109a12,12,0,0,1-1.28,1.55,7.68,7.68,0,0,1-1.41,1.13,4.5,4.5,0,0,1-1.47.58,3.21,3.21,0,0,1-1.92-.19,2.1,2.1,0,0,1-.71-.53A1.83,1.83,0,0,1,120,110.71Z" transform="translate(-61.35 -45.04)"/><path class="cls-3" d="M131.88,116.54a1,1,0,0,1-.82-.1,1.9,1.9,0,0,1-.63-.6,1.83,1.83,0,0,1-.32-.82,1.2,1.2,0,0,1,.18-.86,2.66,2.66,0,0,1,1.38-.54,2.25,2.25,0,0,1,1.25.25,2.68,2.68,0,0,1,.93.88,3.06,3.06,0,0,1,.47,1.35,6.35,6.35,0,0,1-.12,2.12c-.17.72-.33,1.43-.49,2.13-.09.42-.17.86-.25,1.31a5.47,5.47,0,0,0-.09,1.32,3.13,3.13,0,0,0,1-.68c.35-.34.71-.71,1.07-1.11l1.1-1.2a7,7,0,0,1,1.15-1c0-.31-.06-.63-.08-1a8.38,8.38,0,0,1,0-1,6.94,6.94,0,0,1,.12-1.2c.07-.44.16-.89.26-1.36s.21-.91.33-1.34.26-.81.4-1.15.42-.47.69-.43a1.23,1.23,0,0,1,.73.45,2.77,2.77,0,0,1,.5.93,1.58,1.58,0,0,1,.05,1,3.86,3.86,0,0,0-.31.67c-.1.27-.19.54-.27.82s-.16.54-.23.8-.14.5-.18.69-.13.56-.19.84-.1.59-.14.9a2,2,0,0,1,1,.72,4,4,0,0,1,.66,1.25,4.38,4.38,0,0,1,.24,1.43,2.62,2.62,0,0,1-.27,1.28c-.21.38-.43.59-.68.62a1.13,1.13,0,0,1-.75-.2,2.79,2.79,0,0,1-.67-.62,3.56,3.56,0,0,1-.42-.67c-.12-.3-.23-.59-.33-.88a7.51,7.51,0,0,1-.25-.91,1.9,1.9,0,0,1-.21.23,7.4,7.4,0,0,0-.77.88c-.28.37-.58.74-.89,1.1a11.75,11.75,0,0,1-1,1,3,3,0,0,1-1,.65,1.23,1.23,0,0,1-1,0,1.94,1.94,0,0,1-.88-1,2.17,2.17,0,0,1-.27-.64,3.23,3.23,0,0,1-.07-.69c0-.32,0-.62,0-.91s0-.59.1-.9c.06-.59.13-1.18.21-1.78s.15-1.18.21-1.77c0,0,0-.12,0-.24s0-.26,0-.41l-.19,0A1.77,1.77,0,0,0,131.88,116.54Zm7.46,3.45a6.71,6.71,0,0,0,.09,1.1,3.86,3.86,0,0,0,.3,1l.07-.1a2.67,2.67,0,0,0,.2-1.18.92.92,0,0,0-.64-.81Z" transform="translate(-61.35 -45.04)"/><path class="cls-3" d="M177.59,110.45a14.44,14.44,0,0,0,.06,4.55,1.14,1.14,0,0,1,.67.28,2.19,2.19,0,0,1,.52.61,1.9,1.9,0,0,1,.25.75,1,1,0,0,1-.14.67,2.05,2.05,0,0,1-.67.58,1,1,0,0,1-.77.07,1.91,1.91,0,0,1-.65-.4,2.89,2.89,0,0,1-.48-.64,3.51,3.51,0,0,1-.32-.7,5.62,5.62,0,0,1-.29-1.55c0-.56,0-1.1,0-1.61a16.91,16.91,0,0,1,.13-2.07c.09-.72.21-1.46.36-2.2s.33-1.48.52-2.19.4-1.38.63-2,.44-1.24.7-1.89a16.37,16.37,0,0,0,.65-1.94,10,10,0,0,0,.34-1.93,5.42,5.42,0,0,0-.21-1.88,2.44,2.44,0,0,0-.28-.56,3,3,0,0,0-.44-.51l-.36-.15-.25,0-.25,0a2.11,2.11,0,0,0-1.11.6,3.72,3.72,0,0,0-.69,1,5.62,5.62,0,0,0-.39,1.28c-.08.46-.14.91-.19,1.35s-.34.62-.58.62a1.07,1.07,0,0,1-.73-.34,2.72,2.72,0,0,1-.59-.88,1.76,1.76,0,0,1-.16-1c0-.24.07-.43.09-.58l.09-.44a4,4,0,0,1,.14-.41,4.16,4.16,0,0,1,.26-.54,6.56,6.56,0,0,1,.56-.95,4.61,4.61,0,0,1,.71-.85,3.47,3.47,0,0,1,1.78-1,2.44,2.44,0,0,1,1.54.23A3.68,3.68,0,0,1,179.24,95a7.15,7.15,0,0,1,.89,1.5,3.76,3.76,0,0,1,.2,1.15,9.28,9.28,0,0,1-.08,1.38,12.69,12.69,0,0,1-.25,1.37c-.1.44-.19.81-.25,1.1l-.61,2.19c-.21.75-.41,1.52-.6,2.29s-.37,1.55-.54,2.31S177.69,109.74,177.59,110.45Z" transform="translate(-61.35 -45.04)"/><path class="cls-3" d="M181.43,114.49a5.12,5.12,0,0,1,.07-1.38c.09-.52.2-1.06.31-1.61s.22-1.11.3-1.66a6.29,6.29,0,0,0,.08-1.53,1.82,1.82,0,0,1-.83-.92,1.32,1.32,0,0,1,.07-1.22,1.34,1.34,0,0,0,.28-.18.48.48,0,0,1,.26-.12A1.24,1.24,0,0,1,183,106a2.06,2.06,0,0,1,.67.83A4.25,4.25,0,0,1,184,108a5.19,5.19,0,0,1,.09,1,10.55,10.55,0,0,1-.23,1.55c-.12.53-.26,1-.4,1.58s-.28,1.06-.39,1.58a7.39,7.39,0,0,0-.16,1.54,1.19,1.19,0,0,0,0,.31,1.68,1.68,0,0,0,.53-.32,7.2,7.2,0,0,0,.88-1,13,13,0,0,0,1.11-1.77,5.49,5.49,0,0,1-.29-.78,3.48,3.48,0,0,1-.12-.84,9.28,9.28,0,0,1,.16-1.76,7.67,7.67,0,0,1,.56-1.8,5.46,5.46,0,0,1,1-1.51,3.46,3.46,0,0,1,1.55-.93.78.78,0,0,1,.63.28,1.79,1.79,0,0,1,.35.67l-.14.52h0a23.33,23.33,0,0,1-1,3,27.51,27.51,0,0,1-1.34,2.94,3.7,3.7,0,0,0,.9,1.23,3.17,3.17,0,0,0,1.36.74l.74-.11a1.38,1.38,0,0,1,.85.35,2.6,2.6,0,0,1,.67.82,1.33,1.33,0,0,1,.17.87c0,.28-.25.47-.63.56a5.23,5.23,0,0,1-1.62-.15A4.43,4.43,0,0,1,188,116a5.74,5.74,0,0,1-1.06-1,7.34,7.34,0,0,1-.86-1.28c-.39.66-.8,1.29-1.24,1.89a19.3,19.3,0,0,1-1.4,1.71,2.09,2.09,0,0,1-.45,0,1.53,1.53,0,0,1-.74-.4,2.41,2.41,0,0,1-.48-.7,3.59,3.59,0,0,1-.27-.86C181.49,115.06,181.45,114.77,181.43,114.49Zm5.39-5.89a2.4,2.4,0,0,0-.15.48c0,.15-.07.31-.1.46l.81-2.09A4.56,4.56,0,0,0,186.82,108.6Z" transform="translate(-61.35 -45.04)"/><path class="cls-3" d="M184,102.16a2.61,2.61,0,0,0,.31-.72,2.81,2.81,0,0,1-.36-.34,1.42,1.42,0,0,1-.24-.4.68.68,0,0,1,0-.4A.57.57,0,0,1,184,100a1,1,0,0,1,.67,0,1.59,1.59,0,0,1,.56.38,1.71,1.71,0,0,1,.38.6,1.54,1.54,0,0,1,.13.69,4.24,4.24,0,0,0,1.17-.77,6.71,6.71,0,0,0,.93-1,11.78,11.78,0,0,0,.77-1.24c.23-.44.45-.87.65-1.29a.66.66,0,0,1,.64,0,2,2,0,0,1,.65.51,3,3,0,0,1,.48.71,1.11,1.11,0,0,1,.14.64,10.77,10.77,0,0,1-1.28,1.33,12.77,12.77,0,0,1-1.45,1.09c-.52.33-1.05.64-1.59.94s-1.09.59-1.63.9a.5.5,0,0,1-.32,0,1.14,1.14,0,0,1-.32-.18,1.2,1.2,0,0,1-.29-.26,1.57,1.57,0,0,1-.21-.28.15.15,0,0,0,0-.08.81.81,0,0,1-.06-.24A1.16,1.16,0,0,1,184,102.16Z" transform="translate(-61.35 -45.04)"/><path class="cls-3" d="M196.12,113.83a1.29,1.29,0,0,1-.28,1.25,1.25,1.25,0,0,1-1,.35,1.69,1.69,0,0,1-1.06-.55,1.8,1.8,0,0,1-.43-1.42,13.45,13.45,0,0,1,.51-3.1,3,3,0,0,1,.87-1.47,1.24,1.24,0,0,1,1.1-.22,4,4,0,0,1,1.23.62,10,10,0,0,1,1.25,1.07c.4.41.78.78,1.12,1.11a5.6,5.6,0,0,0,.88.75c.25.18.43.17.53,0,.09-.55.18-1.14.28-1.75a6.39,6.39,0,0,0,0-1.74,2.93,2.93,0,0,0-.57-1.42,2.48,2.48,0,0,0-1.57-.8,3.44,3.44,0,0,0-1.16,0,11.56,11.56,0,0,0-1.24.22l-1.27.32a7.61,7.61,0,0,1-1.2.22,1.85,1.85,0,0,1-1.23-.27.79.79,0,0,1-.28-1,3.2,3.2,0,0,1,.42-.85,2.43,2.43,0,0,1,.58-.53,6,6,0,0,1,.76-.41c.28-.13.59-.28.92-.46a20.42,20.42,0,0,1,1.91-.86c.59-.23,1.2-.43,1.83-.61s1.3-.35,2-.51,1.49-.36,2.35-.6a1.11,1.11,0,0,1,.81.36,2,2,0,0,1,.56.83,1.45,1.45,0,0,1,.07.89.81.81,0,0,1-.65.56,5,5,0,0,1-.52,0l-.74,0-.74,0a4.81,4.81,0,0,0-.52,0c-.66.08-1.28.15-1.85.2a16.25,16.25,0,0,0-1.7.27,12,12,0,0,0-1.72.52,13.18,13.18,0,0,0-1.86.91,17.13,17.13,0,0,1,4-.84,5.26,5.26,0,0,1,2.61.38,3,3,0,0,1,1.46,1.53,7,7,0,0,1,.53,2.58,4.47,4.47,0,0,1-.07,1,8.56,8.56,0,0,1-.28,1.25,10.26,10.26,0,0,1-.42,1.22,2.89,2.89,0,0,1-.53.87.86.86,0,0,1-.9.3,3.67,3.67,0,0,1-1.14-.49,11.33,11.33,0,0,1-1.25-.92c-.43-.35-.83-.67-1.21-1a4.3,4.3,0,0,0-1-.61.63.63,0,0,0-.73.08,1.65,1.65,0,0,0-.42.67,2,2,0,0,0-.13.69,1.22,1.22,0,0,0,.11.52c.07.13.15.18.26.14a.46.46,0,0,1,.35,0,.58.58,0,0,1,.23.21.68.68,0,0,1,.12.26A1.86,1.86,0,0,1,196.12,113.83Z" transform="translate(-61.35 -45.04)"/><path class="cls-3" d="M194.9,99.59a1.57,1.57,0,0,1,.27-1,.94.94,0,0,1,.65-.4,1,1,0,0,1,.71.21,1,1,0,0,1,.4.71l.06.24q-.27.58-.18.78c.07.13.21.17.43.12a2.9,2.9,0,0,0,.81-.39,6,6,0,0,0,1-.76,6.66,6.66,0,0,0,.84-1,2.88,2.88,0,0,0,.48-1.08,1.78,1.78,0,0,1,.65-.67,3.84,3.84,0,0,1,1-.47,2.57,2.57,0,0,1,.88-.15c.25,0,.35.12.33.31a13.25,13.25,0,0,1-1.09,1.87,11.39,11.39,0,0,1-1.29,1.56,7.25,7.25,0,0,1-1.4,1.12,4.5,4.5,0,0,1-1.48.59,3.27,3.27,0,0,1-1,0,2.77,2.77,0,0,1-.92-.24,2,2,0,0,1-.71-.53A1.84,1.84,0,0,1,194.9,99.59Z" transform="translate(-61.35 -45.04)"/><path class="cls-3" d="M206.4,108.87a1.33,1.33,0,0,1-.45-.69,3.44,3.44,0,0,1-.24-1.1,2.26,2.26,0,0,1,.17-1,.79.79,0,0,1,.79-.45,2.64,2.64,0,0,1,1.11.62,5.68,5.68,0,0,1,.82,1,8.87,8.87,0,0,1,.64,1.18c.18.43.37.84.56,1.24l.37.86a5,5,0,0,0,.44.79h.06a3.32,3.32,0,0,0,.71-1.22,9.48,9.48,0,0,0,.36-1.36c.08-.35.16-.73.23-1.12a7.87,7.87,0,0,0,.13-1.2,6.1,6.1,0,0,0-.06-1.21,4.21,4.21,0,0,0-.35-1.16.53.53,0,0,0-.17.25c0,.1-.07.21-.1.32a.67.67,0,0,1-.71.25,1.32,1.32,0,0,1-.61-.46,2.59,2.59,0,0,1-.39-.78,2.14,2.14,0,0,1-.11-.79,1.9,1.9,0,0,1,1-1,1.29,1.29,0,0,1,1,.07,2.68,2.68,0,0,1,.89.81,4.38,4.38,0,0,1,.6,1.12,6,6,0,0,1,.33,1.81,10.65,10.65,0,0,1-.12,1.94,17.92,17.92,0,0,1-.41,2c-.18.65-.36,1.26-.56,1.83-.11.28-.23.62-.35,1a1.79,1.79,0,0,1-.62.94.75.75,0,0,1-.57.17,1.17,1.17,0,0,1-.54-.23,2.39,2.39,0,0,1-.46-.44l-.35-.45c-.14-.22-.31-.52-.49-.88s-.39-.73-.61-1.09a8.53,8.53,0,0,0-.71-1,2.46,2.46,0,0,0-.74-.61c-.09,0-.15,0-.17.08S206.59,108.92,206.4,108.87Z" transform="translate(-61.35 -45.04)"/><path class="cls-3" d="M220.83,104.2a1.44,1.44,0,0,1,.66.42,2.66,2.66,0,0,1,.56.79,1.33,1.33,0,0,1,.14.83c0,.27-.26.46-.64.55h-.16c-.15,0-.27.18-.35.54s-.17.8-.29,1.34a14,14,0,0,1-.49,1.67,4.15,4.15,0,0,1-1,1.51.65.65,0,0,1-.39,0,2.33,2.33,0,0,1-.36-.15,3.31,3.31,0,0,1-.77-.9,11.35,11.35,0,0,1-.63-1.2c-.18-.42-.34-.85-.48-1.28a9.72,9.72,0,0,1-.32-1.19,9.07,9.07,0,0,1-.19-2.07,7.11,7.11,0,0,1,.34-2.06,3.39,3.39,0,0,1,1.4-1.74,7.33,7.33,0,0,1,2.33-1,10,10,0,0,1,2.6-.32,5.46,5.46,0,0,1,2.15.4,4.47,4.47,0,0,1,2.69,3.54,7.48,7.48,0,0,1-.09,2.48,14.16,14.16,0,0,1-.85,2.72q-.24.54-.51,1.11a10.91,10.91,0,0,1-.6,1.08.74.74,0,0,1-.8.21,1.65,1.65,0,0,1-.74-.53,2.09,2.09,0,0,1-.42-.93,1.23,1.23,0,0,1,.15-.93s.19-.26.45-.66A14,14,0,0,0,225,107a12.25,12.25,0,0,0,.69-1.63,2.9,2.9,0,0,0,.17-1.42,3.17,3.17,0,0,0-1-1.75,3.91,3.91,0,0,0-1.72-.84,5.27,5.27,0,0,0-2.06,0,5.9,5.9,0,0,0-2,.75,4.6,4.6,0,0,0-.75.54,2.3,2.3,0,0,0-.5.72,3.09,3.09,0,0,0-.27,1.32,10.39,10.39,0,0,0,.15,1.7,12.67,12.67,0,0,0,.41,1.77,13.55,13.55,0,0,0,.56,1.49,3.87,3.87,0,0,0,.52-1.71c.06-.66.12-1.29.17-1.89a4,4,0,0,1,.36-1.46C219.93,104.22,220.29,104.09,220.83,104.2Z" transform="translate(-61.35 -45.04)"/><path class="cls-3" d="M234.05,99.87a5.93,5.93,0,0,1,.63,1.71,8.16,8.16,0,0,1,.17,1.56,8.41,8.41,0,0,1-.11,1.3c-.06.38-.12.69-.16.92l.63.27,1.24.53a5.82,5.82,0,0,1,1.12.72c.06-.44.12-.92.17-1.46s.09-1.07.11-1.61,0-1.1,0-1.64,0-1,0-1.52,0-.9,0-1.42a3.34,3.34,0,0,1,.33-1.38c.19-.33.42-.47.67-.43a1.28,1.28,0,0,1,.7.45,2.75,2.75,0,0,1,.5.91,1.49,1.49,0,0,1,0,1,2.23,2.23,0,0,0-.39,1.28c0,.5,0,.93,0,1.31s-.06.93-.09,1.49-.08,1.12-.14,1.69-.15,1.13-.26,1.66a10.48,10.48,0,0,1-.38,1.39.39.39,0,0,0-.13.13l-.08,0-.05,0a.94.94,0,0,1-.33,0,1.77,1.77,0,0,1-.28-.11l-.54-.43c-.17-.14-.34-.28-.51-.4a10.29,10.29,0,0,0-1.23-.75,12.6,12.6,0,0,0-1.36-.61,8.72,8.72,0,0,1-.38,1.48,8.11,8.11,0,0,1-.67,1.43,3.75,3.75,0,0,1-.33.43,1,1,0,0,1-.71.37,1.56,1.56,0,0,1-1.52-.76,3.31,3.31,0,0,1-.5-1.22,2.44,2.44,0,0,1,.09-1.36,2.23,2.23,0,0,1,.27-.57,3.23,3.23,0,0,1,.46-.59,2.31,2.31,0,0,1,.56-.45,1.28,1.28,0,0,1,.61-.19,1.56,1.56,0,0,1,.32.07c.07-.26.17-.64.29-1.14a10.26,10.26,0,0,0,.25-1.45,2.83,2.83,0,0,0-.06-1.09c-.09-.26-.31-.3-.65-.12a1,1,0,0,1-.79-.2,1.57,1.57,0,0,1-.52-.65,1.78,1.78,0,0,1-.14-.82,1.14,1.14,0,0,1,.36-.73,1.34,1.34,0,0,1,.87-.45,1.36,1.36,0,0,1,.81.2,2.42,2.42,0,0,1,.66.58A3.88,3.88,0,0,1,234.05,99.87ZM232.29,106a.65.65,0,0,0-.56.07.88.88,0,0,0-.29.48.57.57,0,0,0,0,.34.58.58,0,0,0,.14.27.33.33,0,0,0,.2.13c.07,0,.11,0,.14-.11s.14-.41.2-.57S232.21,106.22,232.29,106Z" transform="translate(-61.35 -45.04)"/><path class="cls-3" d="M77.31,94.3a.14.14,0,0,1,0-.06c0,.05,0,.1,0,.14a.29.29,0,0,1,0-.09l-.22.57a1,1,0,0,0,.21-.21,1.08,1.08,0,0,0,.17-.43.36.36,0,0,1,0-.1l-.06.23a1,1,0,0,1,.08-.21l-.12.21a1.1,1.1,0,0,1,.14-.18l-.19.2a.57.57,0,0,1,.15-.12l-.25.15.17-.08-.3.09.15,0h-.33a.47.47,0,0,1,.17,0l-.32-.09.16.07-.3-.17a1.71,1.71,0,0,1,.26.21,3.07,3.07,0,0,0-.26-.25.84.84,0,0,1,.15.18l-.19-.32a.88.88,0,0,1,.09.2c0-.12-.07-.25-.11-.38a.78.78,0,0,1,0,.22v-.41c0,.06,0,.11,0,.16,0-.13.06-.26.1-.39a.3.3,0,0,1,0,.1l.81-.84-.17.07-.17.07.41-.12-.26,0h.43a1,1,0,0,1-.3,0l.4.11a1.66,1.66,0,0,1-.31-.12l.36.2-.15-.1a3.4,3.4,0,0,0-.5-.26l.35.19a1,1,0,0,1-.2-.15l.27.26-.05,0a1.25,1.25,0,0,0-.43-.36l-.18-.1a1.93,1.93,0,0,0-.41-.12,1.19,1.19,0,0,0-.54.06l-.17,0-.29.17h0l-.24.25s-.12.22-.1.17-.07.13-.1.2a1.09,1.09,0,0,0-.11.39,1.88,1.88,0,0,0,0,.41v0a4.58,4.58,0,0,0,.15.49,2.68,2.68,0,0,0,.32.57,1,1,0,0,0,.18.19,1,1,0,0,0,.19.17,2.82,2.82,0,0,0,.29.18,3.23,3.23,0,0,0,.42.2,2.93,2.93,0,0,0,1.35.13,3.63,3.63,0,0,0,.54-.15l.14-.06a2.09,2.09,0,0,0,.71-.58,1.76,1.76,0,0,0,.14-.23l.1-.18c0-.13.07-.26.1-.39a2.26,2.26,0,0,0,0-.45c0,.14,0,.27,0,.41a5,5,0,0,0,0-.55s0,0,0-.08-.08-.3-.13-.44a2.9,2.9,0,0,0-.26-.46l-.09-.12a2.17,2.17,0,0,0-.51-.45,2.28,2.28,0,0,0-.44-.24h0a2.49,2.49,0,0,0-.37-.09h-.09a2.14,2.14,0,0,0-1,.16,1.68,1.68,0,0,0-.38.23,1.78,1.78,0,0,0-.31.3.76.76,0,0,0-.08.11,2.18,2.18,0,0,0-.2.37c0,.12-.07.25-.1.38a.59.59,0,0,0,0,.14,1.93,1.93,0,0,0,.08.68.89.89,0,0,0,.09.26,1.07,1.07,0,0,0,.29.38.87.87,0,0,0,.71.15l-.46-.12a1.05,1.05,0,0,0,.3.15.63.63,0,0,0,.27,0,.49.49,0,0,0,.3-.16.54.54,0,0,0,.11-.58Z" transform="translate(-61.35 -45.04)"/><path class="cls-3" d="M92.7,92.69l0,0a.86.86,0,0,0,.14.13.51.51,0,0,1-.13-.16l.11.19a.88.88,0,0,1-.09-.2,2.17,2.17,0,0,1,.07.24,3.69,3.69,0,0,0-.11-.45,1,1,0,0,1-.09-.21c0,.09,0,.18.08.27a1.27,1.27,0,0,1,0-.34,2.71,2.71,0,0,0,0,.29c0-.13,0-.26,0-.39,0,.09,0,.19,0,.29a1.05,1.05,0,0,1,0-.31c0,.09,0,.18-.07.27a1.09,1.09,0,0,1,.1-.25l-.14.24a.86.86,0,0,1,.14-.18l-.19.2a.75.75,0,0,1,.17-.14l-.24.15a.62.62,0,0,1,.22-.1l-.28.08.24,0h-.29a1.1,1.1,0,0,1,.31,0l-.27-.07a1.48,1.48,0,0,1,.29.12l-.24-.14a2.48,2.48,0,0,1,.26.19l-.2-.19a1.16,1.16,0,0,1,.2.24l-.15-.23.06.1L92.46,92a.65.65,0,0,1,0,.19v-.3a.76.76,0,0,1,0,.21c0-.1,0-.2.08-.3a1.07,1.07,0,0,1-.07.19l.15-.27-.24.42.16-.28a.86.86,0,0,1-.14.18,2.39,2.39,0,0,0,.22-.23,1.06,1.06,0,0,1-.2.17l.27-.17a1,1,0,0,1-.3.13l.32-.09a1.27,1.27,0,0,1-.34,0h.33a1,1,0,0,1-.28,0l.31.08a.9.9,0,0,1-.21-.08l.27.15a2.64,2.64,0,0,0-.37-.2l-.1,0,.26.15a.71.71,0,0,1-.14-.1l.21.2L92.58,92a1.19,1.19,0,0,0-.59-.37,1.15,1.15,0,0,0-.71,0,1.29,1.29,0,0,0-.44.36.77.77,0,0,0-.17.38.89.89,0,0,0,0,.43s0,.1,0,.14a2.35,2.35,0,0,0,.13.43,2.77,2.77,0,0,0,.22.37,1.53,1.53,0,0,0,.6.44,2.22,2.22,0,0,0,1.19.18,2.1,2.1,0,0,0,.61-.15,1.48,1.48,0,0,0,.29-.12,2.54,2.54,0,0,0,.7-.57A1.79,1.79,0,0,0,94.7,93a2,2,0,0,0,.09-.33v0a.22.22,0,0,0,0-.08,2.13,2.13,0,0,0,0-.5,2.06,2.06,0,0,0-.15-.48,2.8,2.8,0,0,0-.25-.41l.14.24a1.72,1.72,0,0,0-.37-.55,2.42,2.42,0,0,0-.33-.31,2.75,2.75,0,0,0-.41-.24,2.28,2.28,0,0,0-.64-.2h-.19a2,2,0,0,0-.48,0,2.12,2.12,0,0,0-.85.36l-.12.11a1.87,1.87,0,0,0-.3.33,2.17,2.17,0,0,0-.26.53A2.15,2.15,0,0,0,90.62,93a.76.76,0,0,0,.09.18l.18.3a1.13,1.13,0,0,0,.46.35l-.23-.13a2.21,2.21,0,0,0,.73.3,1.4,1.4,0,0,0,.54,0,.71.71,0,0,0,.31-1.27Z" transform="translate(-61.35 -45.04)"/><path class="cls-4" d="M147.85,117.49a15.36,15.36,0,0,0,11.83,1.71,17.8,17.8,0,0,0,5.71-2.51c1.63-1.08,3.46-2.62,4.06-4.55a1.33,1.33,0,0,0-2-1.52c-1.32,1.09-2.32,2.48-3.74,3.49a13.92,13.92,0,0,1-4.56,2.1,15,15,0,0,1-10-1c-1.32-.62-2.52,1.47-1.25,2.25Z" transform="translate(-61.35 -45.04)"/><path class="cls-4" d="M152.36,105.13h0a1.82,1.82,0,0,0-.55-.68,1.78,1.78,0,0,0-.82-.33h-.05l.44.11a.22.22,0,0,1-.11,0l.39.23a2.39,2.39,0,0,0-.49-.28l-.12-.06.4.23a1.09,1.09,0,0,1-.17-.13l.32.31a.9.9,0,0,1-.15-.19,1.5,1.5,0,0,0-.46-.48,2.81,2.81,0,0,0-1.1-.46,1.55,1.55,0,0,0-.79.12,1.49,1.49,0,0,0-.59.47,1.52,1.52,0,0,0-.28.71,1.49,1.49,0,0,0,.12.78.64.64,0,0,0,0,.07c0-.13-.07-.26-.11-.39,0,.12,0,.24,0,.36s.08.3.13.45v0l0,0,0,.09a3.76,3.76,0,0,0,.32.55,1,1,0,0,0,.12.16,2.92,2.92,0,0,0,.48.43,2,2,0,0,0,.9.36,3.37,3.37,0,0,0,.55,0,1.84,1.84,0,0,0,.61-.16,1.73,1.73,0,0,0,.68-.55,1.47,1.47,0,0,0,.33-1,1.28,1.28,0,0,0-.13-.67Z" transform="translate(-61.35 -45.04)"/><path class="cls-4" d="M162.93,104v0c0,.1,0,.2,0,.31a1.23,1.23,0,0,1,0-.2l-.75,1h0a1.48,1.48,0,0,0,.56-.46,1.36,1.36,0,0,0,.27-.67l0-.15-.09.37v-.05l-.78.81,0,0,.35-.21a1.24,1.24,0,0,0,.38-.47.85.85,0,0,0,.15-.37,1.22,1.22,0,0,0,0-.63s0-.1,0-.15c0,.14,0,.28,0,.42a1.55,1.55,0,0,1,0-.31l-.09.37a1,1,0,0,1,.1-.27l-.18.32c.08-.13.16-.26.23-.4l.09-.35v-.38c0-.12-.08-.25-.11-.37a1.06,1.06,0,0,0-.32-.43.7.7,0,0,0-.29-.22.68.68,0,0,0-.33-.13.67.67,0,0,0-.37,0,1,1,0,0,0-.55.1,1.58,1.58,0,0,0-.48.33,2.72,2.72,0,0,0-.4.43,3.39,3.39,0,0,0-.29.53,4,4,0,0,0-.17.59c0,.14,0,.29,0,.43a1.12,1.12,0,0,0,.22.58.76.76,0,0,0,.25.31,1.15,1.15,0,0,0,.5.34l0,0-.8-.78a.38.38,0,0,0,.06.13,2.41,2.41,0,0,0,.22.37,1.39,1.39,0,0,0,1,.52l-.6-.24.1.07a3,3,0,0,0,.35.19,1.15,1.15,0,0,0,1.48-.63,1.19,1.19,0,0,0,.06-.59Z" transform="translate(-61.35 -45.04)"/><path class="cls-3" d="M74,104.91c3.86,3.17,8.66,6.12,13.88,5.56,4.11-.43,8.88-3,9.11-7.59.06-1.39-2-2.15-2.52-.64a8.37,8.37,0,0,1-7.34,6c-4.41.33-8.56-2.43-12-4.85A1,1,0,0,0,74,104.91Z" transform="translate(-61.35 -45.04)"/><path class="cls-3" d="M97.49,99c.06-.19.14-.38.22-.57a2.72,2.72,0,0,0,.2-.63c.06-.21.11-.41.16-.62a1.55,1.55,0,0,0,0-.31.68.68,0,0,0,0-.42.36.36,0,0,0-.56-.13.62.62,0,0,0-.17.22s0,.13,0,.19-.05.2-.07.31,0,.41,0,.62a3.74,3.74,0,0,0,0,.67,5.91,5.91,0,0,1,0,.6c0,.16.25.26.31.07Z" transform="translate(-61.35 -45.04)"/><path class="cls-3" d="M99,99.4c.36.08.57-.51.63-.77l.18-.74.15-.74a1.67,1.67,0,0,0,0-1,.55.55,0,0,0-.45-.34.57.57,0,0,0-.53.23,1.83,1.83,0,0,0-.25,1l-.09.8a4.34,4.34,0,0,0-.06.88c0,.28.06.65.38.71Z" transform="translate(-61.35 -45.04)"/><path class="cls-3" d="M101.24,99.12l.3-1.15a11.3,11.3,0,0,0,.25-1.29.57.57,0,0,0-.48-.62.57.57,0,0,0-.62.49,9.25,9.25,0,0,0-.21,1.17c0,.39-.09.78-.13,1.18a.45.45,0,0,0,.35.49.46.46,0,0,0,.54-.27Z" transform="translate(-61.35 -45.04)"/><path class="cls-3" d="M69.56,101a1.44,1.44,0,0,0,.13-.4c0-.06,0-.11,0-.17a.36.36,0,0,0,0-.1s0,0,0,0a2.33,2.33,0,0,0,.07-.25s0,0,0-.08,0,.06,0,0,.06-.23.1-.34.16-.44.25-.66a3.28,3.28,0,0,0,.24-.75.36.36,0,0,0-.18-.36.4.4,0,0,0-.41,0,2,2,0,0,0-.56.7,4.3,4.3,0,0,0-.29.7,5.84,5.84,0,0,0-.17.81c0,.13,0,.26,0,.38a1.22,1.22,0,0,0,0,.27,2.41,2.41,0,0,0,.08.25.36.36,0,0,0,.65,0Z" transform="translate(-61.35 -45.04)"/><path class="cls-3" d="M71.33,101c.11-.34.21-.69.32-1a3,3,0,0,0,.2-1.27.47.47,0,0,0-.85-.21l-.07.12a.93.93,0,0,0-.12.29l-.06.27a4.85,4.85,0,0,0-.08.55c0,.36-.08.73-.11,1.1a.39.39,0,0,0,.3.43.39.39,0,0,0,.47-.24Z" transform="translate(-61.35 -45.04)"/><path class="cls-3" d="M72.46,101.6c.13-.34.27-.69.39-1s.22-.72.33-1.08a.41.41,0,0,0-.76-.3c-.13.35-.26.7-.37,1.06s-.21.72-.31,1.08a.39.39,0,1,0,.72.28Z" transform="translate(-61.35 -45.04)"/><path class="cls-3" d="M71.81,75.34c1.73-.85,3.39-1.81,5.19-2.52a25.56,25.56,0,0,1,6-1.55A34,34,0,0,1,89.16,71c2,.09,4,.48,6.07.42a.64.64,0,0,0,.14-1.23A24.85,24.85,0,0,0,89,69.47a34.68,34.68,0,0,0-6.44.33c-3.9.59-8.27,2-11.26,4.69-.4.37,0,1.12.52.85Z" transform="translate(-61.35 -45.04)"/><path class="cls-3" d="M71.87,73.23a20.15,20.15,0,0,0-3-3.11c-1-.94-2-1.87-2.91-2.84-1.78-1.84-3.5-4.39-2.46-7a4.6,4.6,0,0,1,1.71-2.51,3.19,3.19,0,0,1,3.26.34,28.91,28.91,0,0,1,4.64,6.07c.36.6,1.34,0,1-.63a26.54,26.54,0,0,0-4.07-6A4.27,4.27,0,0,0,67.5,56a4.66,4.66,0,0,0-3,.41,6.67,6.67,0,0,0-2.78,5.19,8.92,8.92,0,0,0,2.83,6.3c1,1.06,2.12,2,3.21,3a21,21,0,0,0,3.66,3c.42.24.7-.35.5-.67Z" transform="translate(-61.35 -45.04)"/><path class="cls-3" d="M73.59,62.47a25.61,25.61,0,0,0-.91-3.41,14.7,14.7,0,0,1-.32-3.44,12.87,12.87,0,0,1,1.35-6.16,5.2,5.2,0,0,1,5-2.89,7.44,7.44,0,0,1,5.38,3.22c1.67,2.33,2,5.13,2.5,7.88A.73.73,0,0,0,88,57.46c-.2-5.21-2.73-11.24-8.38-12.3a6.58,6.58,0,0,0-6.32,2.27,11,11,0,0,0-2.2,6.69,17.69,17.69,0,0,0,.35,4.42,8.23,8.23,0,0,0,1.87,4,.15.15,0,0,0,.26-.11Z" transform="translate(-61.35 -45.04)"/><path class="cls-3" d="M88.39,58.77c.78-.8,1.41-1.77,2.14-2.62a30,30,0,0,1,2.53-2.64c.85-.77,2-1.68,3.2-1.49a3,3,0,0,1,2.2,2.15c.7,2.12.23,4.79-.42,6.86a19.33,19.33,0,0,1-3,5.7c-.6.81.57,1.61,1.23.91a15.79,15.79,0,0,0,3.56-6.93c.64-2.51,1-5.77-.37-8.09a4.21,4.21,0,0,0-2.75-2,4.61,4.61,0,0,0-3.62,1.17,19.66,19.66,0,0,0-2.94,3,14.5,14.5,0,0,0-2.35,3.48c-.14.35.33.77.63.47Z" transform="translate(-61.35 -45.04)"/><path class="cls-5" d="M76.24,65.64l-.8.11.09.64.81-.12a.3.3,0,0,1,.34.26l0,.26a1.1,1.1,0,0,0-.6-.06,1.23,1.23,0,0,0-1,1.4l.09.57a1.21,1.21,0,1,0,2.39-.36l0-.28,0-.28-.2-1.34A.93.93,0,0,0,76.24,65.64ZM77,68.43a.59.59,0,1,1-1.17.17L75.72,68a.59.59,0,1,1,1.16-.17l0,.28Z" transform="translate(-61.35 -45.04)"/><path class="cls-5" d="M83,67.25l0-.28-.19-1.33a1,1,0,0,0-1.06-.81l-.81.12.09.63.81-.12a.32.32,0,0,1,.35.27l0,.26a1.15,1.15,0,0,0-.61-.07,1.22,1.22,0,0,0-1,1.41l.08.56a1.21,1.21,0,1,0,2.4-.36Zm-.58.37a.6.6,0,0,1-.49.69.59.59,0,0,1-.67-.51l-.09-.56a.62.62,0,0,1,.5-.69.61.61,0,0,1,.67.51l0,.29Z" transform="translate(-61.35 -45.04)"/><path class="cls-5" d="M86.65,68.25a1.23,1.23,0,0,0,1-1.41l0-.28,0-.28-.2-1.34a.93.93,0,0,0-1.06-.8l-.81.12.1.63.8-.12a.31.31,0,0,1,.35.27l0,.26a1.11,1.11,0,0,0-.6-.07,1.23,1.23,0,0,0-1,1.41l.08.56A1.23,1.23,0,0,0,86.65,68.25Zm-.85-1.7A.59.59,0,1,1,87,66.37l0,.28,0,.28a.6.6,0,0,1-.49.69.61.61,0,0,1-.67-.51Z" transform="translate(-61.35 -45.04)"/><path class="cls-5" d="M83.89,65.46a.3.3,0,0,1,.25-.35L85,65l-.1-.63-.8.12a.93.93,0,0,0-.78,1.07l.45,3.07.62-.09Z" transform="translate(-61.35 -45.04)"/><polygon class="cls-5" points="19.44 24.01 17.48 22.24 18.81 20.03 18 20.15 17.21 21.47 16.86 19.15 16.24 19.24 17.01 24.38 17.63 24.28 17.44 23.06 18.64 24.13 19.44 24.01"/><path class="cls-4" d="M75.67,53.62c5.94-6.07,16.92,7.11,6,9.63-2.17.44-4.55.3-6.2-1C72.86,60.1,73.62,55.7,75.67,53.62Z" transform="translate(-61.35 -45.04)"/><path class="cls-2" d="M81.1,63.56a7.39,7.39,0,0,1-5.72-1.17,4.84,4.84,0,0,1-1.77-3.63,7.29,7.29,0,0,1,1.91-5.29h0a5.4,5.4,0,0,1,6.47-1c2.8,1.32,4.78,4.3,4.52,6.78-.22,2-1.91,3.54-4.76,4.2ZM78.6,52.3a4.94,4.94,0,0,0-2.79,1.46h0a6.82,6.82,0,0,0-1.78,5,4.48,4.48,0,0,0,1.61,3.33c1.92,1.53,4.6,1.27,6,1,2.7-.62,4.23-1.95,4.44-3.84.24-2.31-1.64-5.1-4.29-6.35A5.58,5.58,0,0,0,78.6,52.3Z" transform="translate(-61.35 -45.04)"/><path class="cls-2" d="M85.39,58.58a3.75,3.75,0,0,1-1.88,1l-.46,0a1,1,0,0,1-.87-.39,4.16,4.16,0,0,1-.54-2.61c0-1.05.06-2,.08-2.05a.38.38,0,0,0-.12-.31,1.57,1.57,0,0,0-.88-.5.19.19,0,0,0-.08,0h0a7.65,7.65,0,0,1-1.51.92S78.89,53,78.3,53h-.15a.59.59,0,0,0-.36.18c-.16.18-.11.44,0,.81a.94.94,0,0,1,0,.16,8.21,8.21,0,0,1,.14,1.16,3.41,3.41,0,0,1-.84.2,3.08,3.08,0,0,1-.68,0l-.23,0a2.08,2.08,0,0,0-.35,0l-.14,0a.41.41,0,0,0-.2.47.88.88,0,0,0,.75.62,5.11,5.11,0,0,0,1.56,0c-.07.92-.22,2-1.82,4.23-.17.23-.39.45-.34.71a.35.35,0,0,0,.29.3A2.08,2.08,0,0,0,77.32,61a7.35,7.35,0,0,0,1.88-4.7l1-.48a18.75,18.75,0,0,0,.25,3.32,2.5,2.5,0,0,0,1.6,2,2.78,2.78,0,0,0,1,.16l.2,0h0a2.6,2.6,0,0,0,1.89-1.2,3.9,3.9,0,0,0,.51-1.32s0,0,0-.06l.1-.43Z" transform="translate(-61.35 -45.04)"/><path class="cls-4" d="M110.85,79a.82.82,0,0,1,.65,0,.87.87,0,0,1,.33.42,1.28,1.28,0,0,1,0,.59,1.74,1.74,0,0,1-.15.54l-.12.2-.24.1a.9.9,0,0,0,.27,1.27,1.47,1.47,0,0,0,.68.21,1.42,1.42,0,0,0,.73-.16,2.42,2.42,0,0,0,.87-.69,5.26,5.26,0,0,0,.59-1,5.35,5.35,0,0,0,.33-1.12,5.87,5.87,0,0,0,.09-1.07l-.05-.29-.13-.33a3.19,3.19,0,0,0-2.41-.92,2.79,2.79,0,0,0-1.31.46,2.69,2.69,0,0,0-1,1.32c-.09.19-.2.24-.34.16a1.29,1.29,0,0,1-.39-.41,2.2,2.2,0,0,1-.29-.64.91.91,0,0,1,0-.57,2.78,2.78,0,0,1,.47-.79,2.74,2.74,0,0,1,.79-.53,3.24,3.24,0,0,1,1.17-.32,4.36,4.36,0,0,1,1.2.05,4.23,4.23,0,0,1,1.14.37,4.28,4.28,0,0,1,1,.62,2.9,2.9,0,0,1,.64.81,4,4,0,0,1,.38,1,2.47,2.47,0,0,1,0,.86,8.68,8.68,0,0,1-.25,1c-.11.35-.24.7-.38,1a6.61,6.61,0,0,1-.41.84,3.41,3.41,0,0,1-.36.52,5.2,5.2,0,0,1-.47.47,1.87,1.87,0,0,1-1,.47,2.76,2.76,0,0,1-1.07,0,1.86,1.86,0,0,1-.94-.6,3.05,3.05,0,0,1-.61-1,3.7,3.7,0,0,1-.19-1.24,2.76,2.76,0,0,1,.29-1.16,3.16,3.16,0,0,1,.18-.27A.69.69,0,0,1,110.85,79Z" transform="translate(-61.35 -45.04)"/><path class="cls-4" d="M112.53,83.94a3.55,3.55,0,0,1-.73-.08,2.16,2.16,0,0,1-1.12-.71A3.45,3.45,0,0,1,110,82a3.49,3.49,0,0,1-.21-1.36,3,3,0,0,1,.32-1.3,2.11,2.11,0,0,1,.21-.31,1,1,0,0,1,.38-.31h0a1.09,1.09,0,0,1,.9.08,1.07,1.07,0,0,1,.46.58,1.53,1.53,0,0,1,.07.74,2.12,2.12,0,0,1-.17.64l-.2.32-.22.09a.55.55,0,0,0,.21.74,1.11,1.11,0,0,0,1.08,0,2,2,0,0,0,.76-.61,4.23,4.23,0,0,0,.55-.92,4.75,4.75,0,0,0,.3-1,4.66,4.66,0,0,0,.09-1l0-.24-.09-.2a2.61,2.61,0,0,0-.91-.59,2.75,2.75,0,0,0-1.2-.19,2.38,2.38,0,0,0-1.15.4,2.46,2.46,0,0,0-.86,1.17.63.63,0,0,1-.37.38.57.57,0,0,1-.44-.06,1.74,1.74,0,0,1-.5-.51,2.53,2.53,0,0,1-.32-.73,1.13,1.13,0,0,1,0-.8,2.89,2.89,0,0,1,.52-.87,3,3,0,0,1,.88-.6,3.72,3.72,0,0,1,1.29-.36,4.64,4.64,0,0,1,1.29.06,4.45,4.45,0,0,1,1.22.39,5,5,0,0,1,1,.67,4,4,0,0,1,.71.9,4.66,4.66,0,0,1,.41,1.09,2.74,2.74,0,0,1,0,1,7.8,7.8,0,0,1-.26,1.09,9.41,9.41,0,0,1-.39,1.05,8.38,8.38,0,0,1-.42.89,3.67,3.67,0,0,1-.4.56,5.92,5.92,0,0,1-.5.51,2.24,2.24,0,0,1-1.15.55A3.4,3.4,0,0,1,112.53,83.94ZM111,79.33a.94.94,0,0,0-.1.1,1.88,1.88,0,0,0-.16.23,2.42,2.42,0,0,0-.24,1,3.24,3.24,0,0,0,.17,1.12,3.05,3.05,0,0,0,.54,1,1.54,1.54,0,0,0,.79.49,2.42,2.42,0,0,0,.93,0,1.5,1.5,0,0,0,.8-.39,4.56,4.56,0,0,0,.44-.44,2.8,2.8,0,0,0,.33-.47,6.18,6.18,0,0,0,.39-.81c.14-.32.26-.66.37-1a7.8,7.8,0,0,0,.23-1,2.06,2.06,0,0,0,0-.74,3.33,3.33,0,0,0-.35-.92,2.63,2.63,0,0,0-.57-.73,3.92,3.92,0,0,0-.88-.57,4.37,4.37,0,0,0-1.06-.34,4.12,4.12,0,0,0-1.11,0,2.86,2.86,0,0,0-1.06.3,2.7,2.7,0,0,0-.69.45,2.54,2.54,0,0,0-.4.7.49.49,0,0,0,0,.35,2.13,2.13,0,0,0,.24.55,1.06,1.06,0,0,0,.18.22A3,3,0,0,1,110.85,77a2.86,2.86,0,0,1,1.46-.51,3.38,3.38,0,0,1,2.68,1l.06.1.14.33.06.36a6,6,0,0,1-.09,1.18,5.59,5.59,0,0,1-.35,1.19,5.19,5.19,0,0,1-.63,1.07,2.71,2.71,0,0,1-1,.79,1.79,1.79,0,0,1-.89.19,1.67,1.67,0,0,1-.84-.27,1.21,1.21,0,0,1-.52-.69,1.26,1.26,0,0,1,.14-1l0-.11.26-.11.06-.11a1.2,1.2,0,0,0,.1-.4,1,1,0,0,0,0-.44.5.5,0,0,0-.2-.25A.51.51,0,0,0,111,79.33Z" transform="translate(-61.35 -45.04)"/><path class="cls-4" d="M110.57,72.73a1.15,1.15,0,0,1,.17-.74.67.67,0,0,1,1-.15.73.73,0,0,1,.29.5l0,.16q-.19.45-.06.6a.51.51,0,0,0,.49.1,2.69,2.69,0,0,0,.81-.31,5.88,5.88,0,0,0,.89-.58,4.82,4.82,0,0,0,.76-.73,1.62,1.62,0,0,0,.4-.78,1,1,0,0,1,.44-.45,2.8,2.8,0,0,1,.68-.32,1.58,1.58,0,0,1,.62-.08c.18,0,.26.09.24.22a4.61,4.61,0,0,1-.88,1.32,7.88,7.88,0,0,1-1.24,1.09,8.58,8.58,0,0,1-1.31.77,5.24,5.24,0,0,1-1.17.42,2.3,2.3,0,0,1-.69,0,1.94,1.94,0,0,1-.65-.16,1.22,1.22,0,0,1-.5-.36A1.19,1.19,0,0,1,110.57,72.73Z" transform="translate(-61.35 -45.04)"/><path class="cls-4" d="M112.2,74.15H112a2.29,2.29,0,0,1-.75-.18,1.71,1.71,0,0,1-.62-.44,1.63,1.63,0,0,1-.36-.72v0a1.52,1.52,0,0,1,.24-1,1,1,0,0,1,.67-.4,1,1,0,0,1,.73.19,1,1,0,0,1,.42.7l.08.25,0,.11a1.31,1.31,0,0,0-.09.25h.17a2.89,2.89,0,0,0,.7-.27,6.22,6.22,0,0,0,.85-.56,4.61,4.61,0,0,0,.71-.68,1.48,1.48,0,0,0,.33-.63,1.28,1.28,0,0,1,.59-.67,3,3,0,0,1,.76-.35,2,2,0,0,1,.74-.1.62.62,0,0,1,.43.2.52.52,0,0,1,.11.39l0,.09a5.16,5.16,0,0,1-.94,1.42,9.16,9.16,0,0,1-1.29,1.13,8.76,8.76,0,0,1-1.36.8,5.9,5.9,0,0,1-1.25.44A2.6,2.6,0,0,1,112.2,74.15Zm-1.3-1.46a.89.89,0,0,0,.2.4,1.23,1.23,0,0,0,.39.27,1.71,1.71,0,0,0,.47.12.48.48,0,0,1-.22-.15.8.8,0,0,1-.06-.85v0a.47.47,0,0,0-.17-.32.33.33,0,0,0-.26-.07c-.06,0-.14,0-.24.15A.83.83,0,0,0,110.9,72.69Zm6-2.41a1.51,1.51,0,0,0-.35.06,2.81,2.81,0,0,0-.61.29.65.65,0,0,0-.3.29,2,2,0,0,1-.45.87,5.54,5.54,0,0,1-.82.78,5.38,5.38,0,0,1-.94.61l-.08,0,.39-.17a8.88,8.88,0,0,0,1.26-.75,8.29,8.29,0,0,0,1.19-1A4.65,4.65,0,0,0,116.89,70.28Z" transform="translate(-61.35 -45.04)"/><path class="cls-4" d="M120.71,76.92a1.09,1.09,0,0,1,.47.28,2,2,0,0,1,.4.54,1,1,0,0,1,.11.59c0,.19-.17.31-.43.39h-.12c-.11,0-.18.13-.23.38s-.11.56-.19.94a8.61,8.61,0,0,1-.32,1.17,2.78,2.78,0,0,1-.65,1.07.52.52,0,0,1-.27,0l-.25-.11a2.41,2.41,0,0,1-.55-.62,7.22,7.22,0,0,1-.46-.82c-.13-.3-.25-.59-.35-.89a5.58,5.58,0,0,1-.24-.82,6.44,6.44,0,0,1-.17-1.44,5.24,5.24,0,0,1,.21-1.45,2.38,2.38,0,0,1,1-1.23,5.25,5.25,0,0,1,1.62-.76,6.86,6.86,0,0,1,1.8-.25,3.68,3.68,0,0,1,1.51.24,3.13,3.13,0,0,1,1.93,2.43,5.11,5.11,0,0,1,0,1.74,10.14,10.14,0,0,1-.55,1.9c-.1.26-.22.52-.34.79s-.26.52-.4.76a.54.54,0,0,1-.56.16,1.14,1.14,0,0,1-.52-.36,1.53,1.53,0,0,1-.31-.64.92.92,0,0,1,.09-.66,4.42,4.42,0,0,0,.3-.46,10.64,10.64,0,0,0,.53-1,7.62,7.62,0,0,0,.45-1.15,2,2,0,0,0,.1-1,2.18,2.18,0,0,0-.72-1.2,2.66,2.66,0,0,0-1.21-.57,3.89,3.89,0,0,0-1.44,0,4,4,0,0,0-1.4.55,4.08,4.08,0,0,0-.52.39,1.5,1.5,0,0,0-.33.51,1.94,1.94,0,0,0-.17.92,6.32,6.32,0,0,0,.12,1.19,8.54,8.54,0,0,0,.32,1.23,8.17,8.17,0,0,0,.41,1,2.87,2.87,0,0,0,.34-1.2c0-.46.06-.91.09-1.32a2.66,2.66,0,0,1,.23-1C120.08,77,120.33,76.85,120.71,76.92Z" transform="translate(-61.35 -45.04)"/><path class="cls-4" d="M119.57,82.64a.52.52,0,0,1-.18,0l-.31-.12a2.82,2.82,0,0,1-.68-.74,5.61,5.61,0,0,1-.47-.87,9.1,9.1,0,0,1-.62-1.77,7.78,7.78,0,0,1-.18-1.51,5.47,5.47,0,0,1,.23-1.54,2.71,2.71,0,0,1,1.07-1.41,5.65,5.65,0,0,1,1.72-.8,6.8,6.8,0,0,1,1.89-.27,4.24,4.24,0,0,1,1.64.27,3.6,3.6,0,0,1,1.46,1.1,3.65,3.65,0,0,1,.66,1.58,5.26,5.26,0,0,1,0,1.85,9.4,9.4,0,0,1-.57,2c-.1.26-.22.53-.34.81a6.63,6.63,0,0,1-.43.79.85.85,0,0,1-.93.3,1.4,1.4,0,0,1-.67-.46,1.78,1.78,0,0,1-.38-.78,1.18,1.18,0,0,1,.13-.89l.06-.08.24-.39a9.08,9.08,0,0,0,.51-1,9.34,9.34,0,0,0,.44-1.1,1.85,1.85,0,0,0,.09-.83,1.82,1.82,0,0,0-.61-1,2.37,2.37,0,0,0-1.06-.5,3.68,3.68,0,0,0-1.32,0,3.91,3.91,0,0,0-1.29.51,2.57,2.57,0,0,0-.46.35,1.19,1.19,0,0,0-.27.41,1.91,1.91,0,0,0-.14.78,7.63,7.63,0,0,0,.12,1.13,8.49,8.49,0,0,0,.31,1.18c0,.08,0,.15.07.22a2.72,2.72,0,0,0,0-.3l.09-1.33a3.25,3.25,0,0,1,.26-1.14.93.93,0,0,1,1.11-.48h0a1.35,1.35,0,0,1,.62.36,2.29,2.29,0,0,1,.48.64,1.34,1.34,0,0,1,.14.77.81.81,0,0,1-.68.66h-.08a.5.5,0,0,0,0,.12l-.19.94a8.92,8.92,0,0,1-.33,1.22,3.2,3.2,0,0,1-.72,1.19l-.06.06-.08,0A1,1,0,0,1,119.57,82.64Zm2.52-8.41h0a6.82,6.82,0,0,0-1.73.25,4.76,4.76,0,0,0-1.51.71,2.1,2.1,0,0,0-.83,1.06,4.82,4.82,0,0,0-.19,1.34A5.76,5.76,0,0,0,118,79a5.69,5.69,0,0,0,.23.79,7,7,0,0,0,.34.86,7.52,7.52,0,0,0,.43.79,2.27,2.27,0,0,0,.48.53l.14,0h0a2.38,2.38,0,0,0,.51-.87A9.81,9.81,0,0,0,120.4,80l.19-.93c.08-.42.26-.64.53-.65h.13s.11,0,.12-.11a.72.72,0,0,0-.08-.39,1.62,1.62,0,0,0-.34-.45.76.76,0,0,0-.3-.2c-.32,0-.37.05-.4.11a2.62,2.62,0,0,0-.2.91L120,79.58a2.93,2.93,0,0,1-.38,1.34l-.31.54L119,80.9a8.87,8.87,0,0,1-.42-1.07,8.44,8.44,0,0,1-.33-1.27,6.88,6.88,0,0,1-.13-1.24,2.27,2.27,0,0,1,.2-1.07,1.85,1.85,0,0,1,.41-.61,3.36,3.36,0,0,1,.56-.42,4.48,4.48,0,0,1,1.52-.6,4.16,4.16,0,0,1,1.57,0,3.05,3.05,0,0,1,1.35.63,2.56,2.56,0,0,1,.83,1.38,2.32,2.32,0,0,1-.1,1.17A8.83,8.83,0,0,1,124,79a10,10,0,0,1-.54,1,4.09,4.09,0,0,1-.31.49.56.56,0,0,0,0,.39,1.23,1.23,0,0,0,.24.5.84.84,0,0,0,.37.26s.11,0,.22-.08.22-.41.34-.67.23-.52.33-.77a9.54,9.54,0,0,0,.54-1.84,4.93,4.93,0,0,0,0-1.62,3,3,0,0,0-.55-1.3,2.9,2.9,0,0,0-1.19-.89A3.55,3.55,0,0,0,122.09,74.23ZM121.15,79h0Z" transform="translate(-61.35 -45.04)"/><path class="cls-4" d="M129.72,80.55a.86.86,0,0,1-.44-.25,1.3,1.3,0,0,1-.31-.45.63.63,0,0,1,0-.44c0-.13.18-.2.4-.21l.18,0a1.8,1.8,0,0,0,.65-.43,3.55,3.55,0,0,0,.51-.68,3.7,3.7,0,0,0,.36-.81,2.54,2.54,0,0,0,.13-.78h0a2.08,2.08,0,0,0-.62-.05,3.08,3.08,0,0,0-.66.13,3.81,3.81,0,0,0-.64.24c-.2.1-.39.21-.55.31a5.26,5.26,0,0,0-.48.3,1.3,1.3,0,0,1-.46.2.84.84,0,0,1-.39-.29,1.49,1.49,0,0,1-.29-.84,2.9,2.9,0,0,1,.15-1,4.05,4.05,0,0,1,.43-.92,5.27,5.27,0,0,1,.58-.75,5.38,5.38,0,0,1,.79-.65,4.79,4.79,0,0,1,.89-.5l.34-.12.45-.15.44-.14.33-.11a.69.69,0,0,1,.46.19,1.27,1.27,0,0,1,.34.43.79.79,0,0,1,.08.49.36.36,0,0,1-.32.31l-.34.07-.44.09-.44.11-.34.07a4,4,0,0,0-1.74,1,3,3,0,0,0-.92,1.76c.24-.22.52-.47.85-.74a3.87,3.87,0,0,1,.94-.57c.21-.07.42-.14.63-.19a1.68,1.68,0,0,1,.62-.06,1,1,0,0,1,.89.6,2.77,2.77,0,0,1,.2,1.22,5.55,5.55,0,0,1-.24,1.39,5.31,5.31,0,0,1-.47,1.12,3.3,3.3,0,0,1-.63.75A1.13,1.13,0,0,1,129.72,80.55Z" transform="translate(-61.35 -45.04)"/><path class="cls-4" d="M129.81,80.88h-.15a1.18,1.18,0,0,1-.61-.34,1.69,1.69,0,0,1-.38-.56.9.9,0,0,1,0-.66.68.68,0,0,1,.69-.44l.16,0a1.73,1.73,0,0,0,.45-.33,2.83,2.83,0,0,0,.47-.61,5,5,0,0,0,.33-.75,3.38,3.38,0,0,0,.09-.41,1.13,1.13,0,0,0-.26,0,3.16,3.16,0,0,0-.6.11,3.5,3.5,0,0,0-.58.23,4.35,4.35,0,0,0-.53.29l-.46.29a1.72,1.72,0,0,1-.58.25l-.1,0-.09,0a1.06,1.06,0,0,1-.54-.41,1.62,1.62,0,0,1-.34-1,3.24,3.24,0,0,1,.15-1.06,5,5,0,0,1,.47-1,4.85,4.85,0,0,1,.63-.8,5.52,5.52,0,0,1,.83-.69,4.63,4.63,0,0,1,1-.53l.35-.13.38-.13L131,72l.43-.12a.93.93,0,0,1,.67.27,1.58,1.58,0,0,1,.42.54,1.16,1.16,0,0,1,.12.68.71.71,0,0,1-.57.58l-.36.07-.4.09-.45.1-.37.09a3.55,3.55,0,0,0-1.57.91,2.16,2.16,0,0,0-.37.43,3.31,3.31,0,0,1,.89-.52l.67-.21a2.06,2.06,0,0,1,.73-.07,1.3,1.3,0,0,1,1.16.8,3.16,3.16,0,0,1,.23,1.37,5.83,5.83,0,0,1-.26,1.47,6.58,6.58,0,0,1-.49,1.18,3.91,3.91,0,0,1-.7.84A1.46,1.46,0,0,1,129.81,80.88Zm-.05-.66a.78.78,0,0,0,.61-.2,3.28,3.28,0,0,0,.57-.69,5,5,0,0,0,.42-1,4.69,4.69,0,0,0,.23-1.31,2.46,2.46,0,0,0-.17-1.08.64.64,0,0,0-.62-.4,1.43,1.43,0,0,0-.5,0l-.61.19a3.32,3.32,0,0,0-.84.52c-.33.26-.6.5-.83.72l-.31.28,0,0a.65.65,0,0,0,.25-.12l.5-.31a3.87,3.87,0,0,1,.58-.32,4.92,4.92,0,0,1,.69-.27,3.64,3.64,0,0,1,.72-.13,1.89,1.89,0,0,1,.72,0l.12,0,.14.1,0,.18a2.9,2.9,0,0,1-.15.88,4.5,4.5,0,0,1-.38.87,3.53,3.53,0,0,1-.57.75,2.21,2.21,0,0,1-.76.51l-.08,0-.27,0-.06,0a1.35,1.35,0,0,0,.05.18,1.06,1.06,0,0,0,.24.34A.55.55,0,0,0,129.76,80.22Zm1.73-7.67-.28.09-.43.14-.44.15c-.15,0-.26.1-.35.12a3.76,3.76,0,0,0-.8.46,4.81,4.81,0,0,0-.74.61,3.68,3.68,0,0,0-.54.7,3.41,3.41,0,0,0-.4.84,2.53,2.53,0,0,0-.13.84,1,1,0,0,0,.06.35l0-.16a3.32,3.32,0,0,1,1-2,4.27,4.27,0,0,1,1.88-1.07l.34-.08.45-.11.44-.09.36-.07a.35.35,0,0,0,0-.33.9.9,0,0,0-.25-.33A.48.48,0,0,0,131.49,72.55Z" transform="translate(-61.35 -45.04)"/><path class="cls-4" d="M134.48,73.9a1.47,1.47,0,0,1-.5-.49,1.26,1.26,0,0,1-.2-.63.59.59,0,0,1,.32-.52c.29-.14.6-.28.94-.42a4.9,4.9,0,0,1,1-.32,2.86,2.86,0,0,1,1,0A1.8,1.8,0,0,1,138,72a2.76,2.76,0,0,1,.78,1.47,8.33,8.33,0,0,1,.16,2,14.1,14.1,0,0,1-.21,2.06c-.12.67-.25,1.25-.37,1.73-.19.2-.35.28-.47.25a.43.43,0,0,1-.3-.23,1.4,1.4,0,0,1-.14-.5,2.43,2.43,0,0,1,0-.54,11.94,11.94,0,0,1,.3-1.36,12.77,12.77,0,0,0,.32-1.25,5.71,5.71,0,0,0,.14-1.22,3.23,3.23,0,0,0-.26-1.26l-.09-.16-.11-.08-.14,0-.07,0-.2,0-.2,0-.22.05-.44.22-1.37,1A.7.7,0,0,1,134.48,73.9Z" transform="translate(-61.35 -45.04)"/><path class="cls-4" d="M137.9,79.76h-.11a.74.74,0,0,1-.51-.39,1.61,1.61,0,0,1-.19-.63,2.55,2.55,0,0,1,0-.62,10.88,10.88,0,0,1,.31-1.41c.12-.41.23-.82.31-1.22a5,5,0,0,0,.13-1.16,2.71,2.71,0,0,0-.23-1.12l0-.07-.29-.08-.32.06-.38.19-1.41,1a1,1,0,0,1-.88-.14,1.91,1.91,0,0,1-.6-.6,1.47,1.47,0,0,1-.24-.8.87.87,0,0,1,.47-.8c.32-.16.64-.3,1-.44a5,5,0,0,1,1.1-.34,3.3,3.3,0,0,1,1.13,0,2,2,0,0,1,1.05.53,3.11,3.11,0,0,1,.88,1.65,8.93,8.93,0,0,1,.17,2,13.48,13.48,0,0,1-.22,2.11c-.12.67-.25,1.27-.38,1.76l0,.08-.06.07A1,1,0,0,1,137.9,79.76Zm-.57-7.37.58.17.21.19.09.17a3.55,3.55,0,0,1,.3,1.41,6.23,6.23,0,0,1-.15,1.29,12.43,12.43,0,0,1-.32,1.27,9.54,9.54,0,0,0-.29,1.32,1.65,1.65,0,0,0,0,.45,1,1,0,0,0,.1.37.31.31,0,0,0,.07.08s0,0,.12-.1c.12-.46.24-1,.35-1.62a13.43,13.43,0,0,0,.21-2,8.18,8.18,0,0,0-.16-1.88,2.48,2.48,0,0,0-.69-1.3,1.44,1.44,0,0,0-.71-.37,2.49,2.49,0,0,0-.9,0,4.81,4.81,0,0,0-1,.29l-.93.42a.23.23,0,0,0-.13.21.81.81,0,0,0,.15.46,1.21,1.21,0,0,0,.39.39h0a.38.38,0,0,0,.29.08l1.32-1,.48-.24.29-.08Z" transform="translate(-61.35 -45.04)"/></svg>