<?xml version="1.0" encoding="utf-8"?>
<!-- Generator: Adobe Illustrator 24.3.0, SVG Export Plug-In . SVG Version: 6.00 Build 0)  -->
<svg version="1.1" id="Layer_1" xmlns="http://www.w3.org/2000/svg" xmlns:xlink="http://www.w3.org/1999/xlink" x="0px" y="0px"
	 viewBox="0 0 165.1 298.1" style="enable-background:new 0 0 165.1 298.1;" xml:space="preserve">
<style type="text/css">
	.st0{fill:#231F20;}
	.st1{fill:url(#SVGID_1_);}
	.st2{fill:#FFFFFF;}
</style>
<g>
	<g>
		<g>
			<path class="st0" d="M35.7,156.7h-8.3v6.4h8.3c1.7,0,3.1,1.4,3.1,3.1v2.6c-1.8-1-3.8-1.6-6-1.6c-6.8,0-12.4,5.6-12.4,12.4v5.7
				c0,6.8,5.6,12.4,12.4,12.4c6.8,0,12.4-5.6,12.4-12.4v-2.8v-2.8v-13.5C45.2,161,41,156.7,35.7,156.7z M38.8,185.3c0,3.3-2.7,6-6,6
				c-3.3,0-6-2.7-6-6v-5.7c0-3.3,2.7-6,6-6c3.3,0,6,2.7,6,6v2.8V185.3z"/>
			<path class="st0" d="M101.4,182.5v-2.8v-13.5c0-5.2-4.3-9.5-9.5-9.5h-8.3v6.4h8.3c1.7,0,3.1,1.4,3.1,3.1v2.6
				c-1.8-1-3.8-1.6-6-1.6c-6.8,0-12.4,5.6-12.4,12.4v5.7c0,6.8,5.6,12.4,12.4,12.4c6.8,0,12.4-5.6,12.4-12.4V182.5z M95,185.3
				c0,3.3-2.7,6-6,6c-3.3,0-6-2.7-6-6v-5.7c0-3.3,2.7-6,6-6c3.3,0,6,2.7,6,6v2.8V185.3z"/>
			<path class="st0" d="M137.2,197.8c6.8,0,12.4-5.6,12.4-12.4v-2.8v-2.8v-13.5c0-5.2-4.3-9.5-9.5-9.5h-8.3v6.4h8.3
				c1.7,0,3.1,1.4,3.1,3.1v2.6c-1.8-1-3.8-1.6-6-1.6c-6.8,0-12.4,5.6-12.4,12.4v5.7C124.7,192.2,130.3,197.8,137.2,197.8z
				 M131.1,179.7c0-3.3,2.7-6,6-6c3.3,0,6,2.7,6,6v2.8v2.8c0,3.3-2.7,6-6,6c-3.3,0-6-2.7-6-6V179.7z"/>
			<path class="st0" d="M113.4,166.2c0-1.7,1.4-3.1,3.1-3.1h8.3v-6.4h-8.3c-5.2,0-9.5,4.3-9.5,9.5v30.9h6.4V166.2z"/>
			<path class="st0" d="M32.8,205.6c-6.8,0-12.4,5.6-12.4,12.4v5.7c0,6.8,5.6,12.4,12.4,12.4c2.2,0,4.2-0.6,6-1.6v2.6
				c0,1.7-1.4,3.1-3.1,3.1h-8.3v6.4h8.3c5.2,0,9.5-4.3,9.5-9.5v-13.5v-2.8V218C45.2,211.1,39.7,205.6,32.8,205.6z M38.8,223.7
				c0,3.3-2.7,6-6,6c-3.3,0-6-2.7-6-6V218c0-3.3,2.7-6,6-6c3.3,0,6,2.7,6,6v2.8V223.7z"/>
			<path class="st0" d="M137.2,205.9c-6.8,0-12.4,5.6-12.4,12.4v1v4.6v22.3h6.4v-11.5c1.8,1,3.8,1.6,6,1.6c6.8,0,12.4-5.6,12.4-12.4
				v-5.7C149.6,211.5,144,205.9,137.2,205.9z M143.2,224c0,3.3-2.7,6-6,6c-3.3,0-6-2.7-6-6v-4.6v-1c0-3.3,2.7-6,6-6c3.3,0,6,2.7,6,6
				V224z"/>
			<path class="st0" d="M79.8,205.6c-6.8,0-12.4,5.6-12.4,12.4v16.2c0,6.8,5.6,12.4,12.4,12.4c6.8,0,12.4-5.6,12.4-12.4V218
				C92.2,211.1,86.6,205.6,79.8,205.6z M85.8,234.2c0,3.3-2.7,6-6,6c-3.3,0-6-2.7-6-6V218c0-3.3,2.7-6,6-6c3.3,0,6,2.7,6,6V234.2z"
				/>
			<path class="st0" d="M112.9,234.2c0,3.3-2.3,6-5.1,6c-2.8,0-5.1-2.7-5.1-6v-28.3h-6.4v28.3c0,6.8,5.2,12.4,11.5,12.4
				c6.4,0,11.5-5.6,11.5-12.4v-28.3h-6.4V234.2z"/>
			<path class="st0" d="M50.7,215.4v30.9h6.4v-30.9c0-1.7,1.4-3.1,3.1-3.1h5.7v-6.4h-5.7C54.9,205.9,50.7,210.2,50.7,215.4z"/>
			<polygon class="st0" points="76.7,197.1 59.4,176.7 76.2,156.8 67.9,156.8 57.8,168.7 57.8,145.3 51.4,145.3 51.4,197.1 
				57.8,197.1 57.8,184.7 68.3,197.1 			"/>
		</g>
		<g>
			
				<radialGradient id="SVGID_1_" cx="502.92" cy="-411.4772" r="98.4406" gradientTransform="matrix(0.8971 0.2728 -0.3779 0.8815 -539.6706 280.8186)" gradientUnits="userSpaceOnUse">
				<stop  offset="0" style="stop-color:#FDE8A2"/>
				<stop  offset="0.5" style="stop-color:#FFCB05"/>
				<stop  offset="1" style="stop-color:#F8AC1C"/>
			</radialGradient>
			<path class="st1" d="M44.7,22.8c75.5-55.6,174.8,103.3,50.8,112.9c-24.6,1.4-50.6-4-66.6-20.8C3.1,87.9,18.8,41.9,44.7,22.8z"/>
			<g>
				
					<image style="overflow:visible;" width="786" height="706" xlink:href="A8E62A.png"  transform="matrix(0.24 0 0 0.24 -4.628 -14.7776)">
				</image>
			</g>
			<path class="st2" d="M143.8,90.8c-11.5,6.8-18,7.7-22.4,7.7c-1.8,0-3.5-0.2-5.1-0.4c-4-0.5-7-2.4-9-5.6c-3.5-5.6-4-15.6-1.7-28.8
				c2-11.3,3.8-20.8,4.2-21.9c0.4-1,0.1-2.2-0.8-3.5c-2-2.8-6.5-6.8-8.8-6.8c-0.4,0-0.7,0.1-1,0.2l-0.1,0
				c-5.9,3.2-10.5,5.1-18.2,7.4c0-0.1,0.3-18.6-6.3-19.2c-0.5,0-1-0.2-1.7-0.2c-1.6,0-3.1,0.5-4.2,1.3c-2.1,1.7-1.9,4.6-1.7,8.7
				c0,0.6,0.1,1.1,0.1,1.8c0.3,5,0,9-0.3,12.7c-3.6,0.8-6.5,0.8-9.6,0.8c-2.5,0-5-0.5-7.4-1c-0.8-0.1-1.7-0.4-2.5-0.7
				c-1.4-0.4-2.4-0.7-3.8-0.7c-0.6,0-1.1,0.1-1.6,0.3c-2.6,1-3.2,3.2-3,4.8c0.4,3.7,2.8,6,7.2,7.8c6.3,2.6,16.3,2.8,17.1,2.8
				c-2.2,9.8-5.7,21.5-27,42.5c-2.3,2.2-5,4.2-4.9,7.1c0.1,2.3,1.5,3.2,2.8,3.6c3.3,1,10.3-1.8,16.6-7.3
				C63,93.6,71.7,84.5,79.2,56.6c3.6-1.2,8.3-2.5,11.3-3.5c-1.1,6.3-3.3,22.7-2.7,36c0.5,11,5.8,20,14.3,24.1
				c2.6,1.3,7.6,3.1,10.9,3.3c0.7,0,1.6,0.1,2.3,0.1h0c9.2,0,16.8-3.3,22.7-9.9c4.7-5.2,6.9-10.9,7.8-13.3c0.1-0.3,0.2-0.5,0.3-0.7
				l1.8-4.4L143.8,90.8z"/>
		</g>
	</g>
	<g>
		<path class="st0" d="M30.7,261.8c1.2,0,2.4,0.2,3.4,0.7c1,0.5,1.9,1.2,2.6,2.1c0.7,0.9,1.3,1.9,1.7,3.2c0.4,1.3,0.6,2.6,0.6,4.2
			c0,1.5-0.2,2.8-0.5,3.9c-0.3,1.2-0.8,2.2-1.5,3c-0.6,0.8-1.4,1.4-2.3,1.9c-0.9,0.4-1.9,0.7-3.1,0.7c-0.7,0-1.5-0.1-2.3-0.3
			c-0.8-0.2-1.6-0.4-2.2-0.7c-0.1,0-0.2-0.1-0.3-0.2c-0.1-0.1-0.2-0.4-0.2-0.7v-8.9c0-0.2,0.1-0.4,0.2-0.6c0.1-0.2,0.3-0.2,0.4-0.2
			h3.2c0.2,0,0.3,0.1,0.5,0.2c0.1,0.1,0.2,0.3,0.3,0.6l0.2,1.4c0,0.2,0,0.4-0.1,0.6c-0.1,0.2-0.3,0.3-0.5,0.3h-1.3
			c0,0-0.1,0-0.1,0.1v4.8c0,0.1,0,0.1,0,0.1c0,0,0.1,0,0.1,0.1h0c0.2,0.1,0.5,0.1,0.7,0.2c0.2,0.1,0.4,0.1,0.6,0.1
			c0.2,0,0.4,0,0.6,0c1.5,0,2.7-0.6,3.5-1.7c0.8-1.1,1.3-2.7,1.3-4.8c0-1.2-0.2-2.3-0.5-3.1c-0.3-0.9-0.7-1.5-1.2-2.1
			c-0.5-0.5-1-0.9-1.6-1.1c-0.6-0.2-1.2-0.3-1.7-0.3c-0.5,0-0.9,0-1.4,0.1c-0.4,0.1-0.8,0.2-1.1,0.3c-0.4,0.1-0.7,0.3-1,0.5
			c-0.2,0.1-0.3,0.1-0.4,0c-0.1-0.1-0.2-0.3-0.2-0.7c0-0.1,0-0.2,0-0.4c0-0.2-0.1-0.4-0.1-0.6c0-0.2-0.1-0.5-0.1-0.8
			c0-0.4,0-0.6,0.1-0.7c0.1-0.1,0.2-0.2,0.3-0.2c0.6-0.2,1.2-0.4,1.8-0.5C29.5,261.9,30.1,261.8,30.7,261.8z"/>
		<path class="st0" d="M40.8,255.9c0.2,0,0.4,0.1,0.5,0.2c0.1,0.2,0.2,0.4,0.1,0.6l-0.2,1.7c0,0.2-0.1,0.3-0.3,0.4
			c-0.1,0.1-0.3,0.2-0.4,0.2h-7.9c-0.2,0-0.3-0.1-0.5-0.2c-0.1-0.2-0.2-0.3-0.2-0.6v-2.5c0-0.2,0.1-0.4,0.2-0.5
			c0.1-0.2,0.3-0.3,0.4-0.3l0.9-0.2c0.2-0.1,0.4,0,0.5,0.1c0.1,0.1,0.2,0.3,0.2,0.6v0.4c0,0.1,0,0.1,0.1,0.1H40.8z"/>
		<path class="st0" d="M51.2,261.8c0.9,0,1.7,0.2,2.5,0.5c0.8,0.3,1.5,0.8,2.1,1.3c0.6,0.6,1.1,1.3,1.5,2.1c0.4,0.8,0.6,1.7,0.6,2.7
			v11.9c0,0.2-0.1,0.4-0.2,0.6c-0.1,0.2-0.3,0.2-0.4,0.2h-1.5c-0.2,0-0.3-0.1-0.4-0.2c-0.1-0.2-0.2-0.4-0.2-0.6V269
			c0-0.6-0.1-1.1-0.3-1.6c-0.2-0.5-0.5-0.9-0.8-1.3c-0.3-0.3-0.8-0.6-1.2-0.8c-0.5-0.2-0.9-0.3-1.5-0.3c-0.8,0-1.5,0.1-2.2,0.4
			c-0.7,0.3-1.2,0.7-1.6,1.2c0,0.1-0.1,0.1-0.1,0.2c0,0.1-0.1,0.2-0.1,0.5v2.9c0.2-0.2,0.5-0.3,0.7-0.3c0.2-0.1,0.5-0.1,0.6-0.1h2.1
			c0.2,0,0.3,0.1,0.5,0.2c0.1,0.2,0.2,0.3,0.3,0.5l0.2,1.5c0,0.2,0,0.4-0.1,0.6c-0.1,0.2-0.3,0.2-0.5,0.2h-2.5
			c-0.3,0-0.5,0.1-0.6,0.2c-0.2,0.1-0.3,0.3-0.4,0.4c-0.1,0.2-0.1,0.4-0.2,0.6c0,0.2,0,0.4,0,0.5v5.8c0,0.2-0.1,0.4-0.2,0.6
			c-0.1,0.2-0.3,0.2-0.5,0.2h-1.5c-0.2,0-0.3-0.1-0.5-0.2c-0.1-0.2-0.2-0.4-0.2-0.6v-13.6c0-0.3,0-0.5,0.1-0.7
			c0-0.2,0.1-0.4,0.2-0.6c0.3-0.6,0.6-1.2,1.1-1.6c0.5-0.5,1-0.8,1.6-1.1c0.6-0.3,1.2-0.5,1.9-0.7C49.9,261.9,50.5,261.8,51.2,261.8
			z"/>
		<path class="st0" d="M70.3,269.7c0.9,0.4,1.7,0.8,2.3,1.2c0.6,0.4,1.1,0.9,1.5,1.4c0.4,0.5,0.6,1.1,0.8,1.6
			c0.1,0.6,0.2,1.2,0.2,1.9c0,0.5-0.1,1.1-0.3,1.8c-0.2,0.7-0.5,1.3-1,1.8c-0.4,0.6-1,1-1.7,1.4c-0.7,0.4-1.6,0.6-2.6,0.6
			c-0.5,0-1-0.1-1.5-0.2c-0.5-0.1-0.9-0.3-1.3-0.4c-0.4-0.2-0.7-0.3-1-0.5c-0.3-0.2-0.5-0.3-0.6-0.4c-0.2-0.2-0.3-0.3-0.4-0.5
			c0-0.2-0.1-0.4,0-0.6l0.3-1.8c0-0.3,0.1-0.5,0.3-0.5c0.2-0.1,0.3,0,0.5,0.1c0.3,0.2,0.7,0.5,1.3,0.8c0.6,0.4,1.4,0.5,2.3,0.5
			c1.1,0,1.9-0.2,2.3-0.6c0.5-0.4,0.7-0.9,0.7-1.5c0-0.6-0.2-1.2-0.7-1.6c-0.4-0.5-1.1-0.9-2.1-1.3c-0.3-0.1-0.8-0.3-1.3-0.6
			c-0.6-0.3-1.1-0.7-1.7-1.1c-0.5-0.5-1-1.1-1.4-1.8c-0.4-0.7-0.6-1.6-0.6-2.6c0-1,0.2-1.8,0.5-2.4c0.3-0.6,0.8-1.1,1.3-1.5
			c0.5-0.4,1.1-0.7,1.8-0.8c0.7-0.2,1.4-0.2,2.1-0.2c0.4,0,0.8,0.1,1.2,0.2c0.4,0.1,0.8,0.2,1.2,0.3c0.4,0.1,0.7,0.3,1,0.4
			c0.3,0.1,0.5,0.2,0.7,0.3c0.1,0.1,0.2,0.2,0.2,0.4c0,0.2,0,0.3,0,0.5l-0.2,1.6c0,0.2-0.1,0.4-0.3,0.5c-0.2,0.1-0.4,0.1-0.6-0.1
			c-0.2-0.1-0.5-0.3-1-0.5c-0.5-0.2-1.2-0.3-2.1-0.4c-0.7,0-1.2,0.1-1.5,0.2c-0.4,0.1-0.7,0.3-0.9,0.5c-0.2,0.2-0.3,0.4-0.4,0.6
			c0,0.2-0.1,0.4-0.1,0.5c0,0.6,0.2,1.1,0.7,1.5C68.5,268.9,69.3,269.3,70.3,269.7z"/>
		<path class="st0" d="M84.8,262c1.2,0,2.1,0.2,2.8,0.6c0.7,0.4,1.3,0.9,1.7,1.6c0.4,0.6,0.7,1.3,0.8,2.1c0.1,0.8,0.2,1.5,0.2,2.2
			v12c0,0.2-0.1,0.4-0.2,0.6c-0.1,0.2-0.3,0.2-0.5,0.2h-1.4c-0.2,0-0.3-0.1-0.4-0.2c-0.1-0.2-0.2-0.4-0.2-0.6v-12.3
			c0-0.7-0.1-1.2-0.3-1.6c-0.2-0.4-0.5-0.7-0.8-0.9c-0.3-0.2-0.7-0.3-1.1-0.4c-0.4-0.1-0.8-0.1-1.2-0.1c-0.4,0-0.7,0-1,0.1
			c-0.3,0.1-0.6,0.2-0.9,0.3c-0.3,0.1-0.6,0.3-0.9,0.4c-0.2,0.1-0.3,0.1-0.6,0.1c-0.2,0-0.4-0.2-0.5-0.4l-0.5-1.1
			c-0.1-0.2-0.1-0.4-0.1-0.6c0-0.2,0.1-0.4,0.3-0.5c0.4-0.3,0.8-0.5,1.3-0.8c0.4-0.2,0.9-0.4,1.5-0.5C83.4,262,84.1,262,84.8,262z"
			/>
		<path class="st0" d="M105.3,262.5c0.9,0.4,1.6,0.9,2.1,1.6c0.5,0.6,0.9,1.3,1.2,2.1c0.2,0.8,0.4,1.6,0.4,2.3v11.9
			c0,0.2-0.1,0.4-0.2,0.6c-0.1,0.2-0.3,0.2-0.4,0.2h-1.5c-0.2,0-0.3-0.1-0.4-0.2c-0.1-0.1-0.2-0.3-0.2-0.7V269
			c0-0.8-0.1-1.4-0.4-1.9c-0.2-0.5-0.6-0.8-0.9-1.1c-0.4-0.3-0.8-0.4-1.2-0.5c-0.4-0.1-0.8-0.1-1.1-0.1c-0.9,0-1.6,0.1-2.2,0.3
			c-0.6,0.2-1,0.4-1.1,0.5c0,0.1-0.1,0.1-0.1,0.3v13.9c0,0.2-0.1,0.4-0.2,0.6c-0.1,0.2-0.3,0.2-0.4,0.2h-1.5c-0.2,0-0.3-0.1-0.4-0.2
			c-0.1-0.2-0.2-0.4-0.2-0.6v-15.9c0-0.2,0-0.3,0.1-0.5c0.1-0.2,0.2-0.4,0.4-0.5c0.5-0.3,1.1-0.6,1.7-0.8c0.5-0.2,1-0.4,1.6-0.6
			c0.6-0.2,1.2-0.3,1.8-0.3h0.2C103.3,261.8,104.4,262,105.3,262.5z"/>
		<path class="st0" d="M120.5,269.7c0.9,0.4,1.7,0.8,2.3,1.2c0.6,0.4,1.1,0.9,1.5,1.4c0.4,0.5,0.6,1.1,0.8,1.6
			c0.1,0.6,0.2,1.2,0.2,1.9c0,0.5-0.1,1.1-0.3,1.8c-0.2,0.7-0.5,1.3-1,1.8c-0.4,0.6-1,1-1.7,1.4c-0.7,0.4-1.6,0.6-2.6,0.6
			c-0.5,0-1-0.1-1.5-0.2c-0.5-0.1-0.9-0.3-1.3-0.4c-0.4-0.2-0.7-0.3-1-0.5c-0.3-0.2-0.5-0.3-0.6-0.4c-0.2-0.2-0.3-0.3-0.4-0.5
			c-0.1-0.2-0.1-0.4,0-0.6l0.3-1.8c0-0.3,0.1-0.5,0.3-0.5c0.1-0.1,0.3,0,0.5,0.1c0.3,0.2,0.7,0.5,1.3,0.8c0.6,0.4,1.4,0.5,2.3,0.5
			c1.1,0,1.9-0.2,2.3-0.6c0.5-0.4,0.7-0.9,0.7-1.5c0-0.6-0.2-1.2-0.7-1.6c-0.4-0.5-1.1-0.9-2.1-1.3c-0.3-0.1-0.8-0.3-1.3-0.6
			c-0.6-0.3-1.1-0.7-1.7-1.1c-0.5-0.5-1-1.1-1.4-1.8c-0.4-0.7-0.6-1.6-0.6-2.6c0-1,0.2-1.8,0.5-2.4c0.3-0.6,0.8-1.1,1.3-1.5
			s1.1-0.7,1.8-0.8c0.7-0.2,1.4-0.2,2.1-0.2c0.4,0,0.8,0.1,1.2,0.2c0.4,0.1,0.8,0.2,1.2,0.3c0.4,0.1,0.7,0.3,1,0.4
			c0.3,0.1,0.5,0.2,0.7,0.3c0.1,0.1,0.2,0.2,0.2,0.4c0,0.2,0,0.3,0,0.5l-0.2,1.6c0,0.2-0.1,0.4-0.3,0.5c-0.2,0.1-0.4,0.1-0.6-0.1
			c-0.2-0.1-0.5-0.3-1-0.5c-0.5-0.2-1.2-0.3-2.1-0.4c-0.7,0-1.2,0.1-1.5,0.2c-0.4,0.1-0.7,0.3-0.9,0.5c-0.2,0.2-0.3,0.4-0.4,0.6
			c0,0.2-0.1,0.4-0.1,0.5c0,0.6,0.2,1.1,0.7,1.5C118.7,268.9,119.5,269.3,120.5,269.7z"/>
		<path class="st0" d="M121.8,283.7c0.2,0,0.3,0.1,0.5,0.2c0.1,0.2,0.2,0.3,0.2,0.6v6.3c0,0.2-0.1,0.4-0.2,0.6
			c-0.1,0.2-0.3,0.2-0.5,0.2h-1.5c-0.2,0-0.3-0.1-0.4-0.2c-0.1-0.2-0.2-0.4-0.2-0.6v-3.9c0-0.1,0-0.1-0.1-0.1h-1.1
			c-0.2,0-0.3-0.1-0.4-0.2c-0.1-0.2-0.2-0.4-0.1-0.6l0.2-1.5c0-0.2,0.1-0.4,0.3-0.5c0.1-0.2,0.3-0.2,0.5-0.2H121.8z"/>
		<path class="st0" d="M126.1,254.4c0.1,0.2,0.2,0.3,0.2,0.5c0,0.1,0,0.3,0,0.6c0,0.3,0,0.7-0.1,1.1c-0.1,0.4-0.2,0.8-0.3,1.2
			c-0.2,0.4-0.4,0.8-0.7,1.1c-0.3,0.3-0.6,0.5-0.9,0.7c-0.3,0.2-0.6,0.3-0.8,0.3c-0.2,0.1-0.4,0.1-0.6,0.1c-0.2,0-0.3,0-0.4,0
			c-0.4-0.1-0.6-0.3-0.6-0.7v-0.4c0-0.3-0.1-0.6-0.2-0.9c-0.1-0.3-0.3-0.5-0.7-0.5c-0.1,0-0.4,0.2-0.7,0.7c-0.1,0.2-0.2,0.2-0.4,0.2
			c-0.2,0-0.3-0.1-0.4-0.2c-0.1-0.2-0.2-0.4-0.3-0.5c-0.1-0.1-0.2-0.2-0.4-0.2c-0.2,0-0.4,0.1-0.4,0.3c-0.1,0.2-0.1,0.4-0.1,0.6v0.8
			c0,0.2-0.1,0.4-0.2,0.5c-0.1,0.1-0.3,0.2-0.4,0.2h-1c-0.2,0-0.3-0.1-0.4-0.2c-0.1-0.2-0.2-0.3-0.2-0.5l0-0.6c0-1,0.2-1.8,0.7-2.4
			c0.3-0.3,0.5-0.6,0.9-0.7c0.3-0.2,0.7-0.3,1.2-0.3c0.1,0,0.3,0,0.4,0.1c0.1,0.1,0.2,0.2,0.3,0.3c0.1,0.1,0.1,0.2,0.2,0.4
			c0,0.1,0.1,0.2,0.2,0.2c0.1,0,0.2-0.1,0.4-0.3c0.1-0.2,0.2-0.3,0.2-0.4c0.1-0.1,0.2-0.2,0.3-0.3c0.1-0.1,0.2-0.1,0.4-0.1
			c0.7,0.1,1.3,0.3,1.8,0.6c0.4,0.3,0.8,0.9,1,1.8c0.2-0.2,0.2-0.5,0.1-0.9c-0.1-0.4-0.1-0.8-0.1-1c-0.1-0.5,0-0.8,0.4-1l1.3-0.3
			C125.8,254.2,126,254.2,126.1,254.4z"/>
		<path class="st0" d="M137.6,281.5c-0.6,0-1.3-0.1-1.9-0.3c-0.6-0.2-1.2-0.4-1.7-0.6c-0.5-0.2-0.9-0.4-1.2-0.6
			c-0.3-0.2-0.5-0.3-0.5-0.3c-0.2-0.1-0.3-0.2-0.3-0.4c-0.1-0.2-0.1-0.4-0.1-0.5V263c0-0.2,0.1-0.4,0.2-0.6c0.1-0.2,0.3-0.3,0.5-0.3
			h1.5c0.2,0,0.3,0.1,0.5,0.3c0.1,0.2,0.2,0.4,0.2,0.6v13.9c0,0.1,0,0.2,0.1,0.2c0.2,0.1,0.5,0.3,1.1,0.5c0.6,0.2,1.3,0.3,2.2,0.3
			c0.3,0,0.7,0,1.1-0.1c0.4-0.1,0.8-0.3,1.2-0.5c0.4-0.3,0.7-0.6,0.9-1.1c0.2-0.5,0.4-1.1,0.4-1.9v-16.9c0-0.4,0.1-0.6,0.2-0.7
			c0.1-0.1,0.3-0.2,0.4-0.2h1.5c0.2,0,0.3,0.1,0.5,0.3c0.1,0.2,0.2,0.4,0.2,0.6v17.4c0,0.8-0.1,1.5-0.3,2.3
			c-0.2,0.8-0.6,1.5-1.2,2.1c-0.5,0.7-1.2,1.2-2.1,1.6C139.9,281.3,138.8,281.5,137.6,281.5z"/>
	</g>
</g>
</svg>
