<svg xmlns="http://www.w3.org/2000/svg" width="177.368" height="94.859" viewBox="0 0 177.368 94.859">
  <g id="Group_139" data-name="Group 139" transform="translate(-49.439 -155.568)">
    <g id="Group_119" data-name="Group 119" transform="translate(49.439 155.568)">
      <g id="Group_60" data-name="Group 60" transform="translate(1.859 30.153)">
        <path id="Path_61" data-name="Path 61" d="M84.009,178.452s12.1,5.754,12.484,24.624-4.754,30.144-19.181,34.456-25.365-8.98-26.446-20.242,1.919-36.7,24.876-41.559C75.743,175.73,80.924,175.086,84.009,178.452Z" transform="translate(-50.679 -175.681)" fill="#fff"/>
      </g>
      <g id="Group_62" data-name="Group 62" transform="translate(18.87 2.708)">
        <g id="Group_61" data-name="Group 61">
          <path id="Path_62" data-name="Path 62" d="M65.055,166.1l-.121.019.222.535c.732-.67,1.381-1.42,2.118-2.085s1.534-1.285,2.327-1.9l-.819-1.06c-1.772,1.7-3.5,3.433-5.331,5.066l1.111.858a17.013,17.013,0,0,1,2.848-3.4q-.5-.506-1.009-1.01a15.05,15.05,0,0,1-3.069,2.907l.983.983a16.007,16.007,0,0,1,3.226-4.613l-1-1a34.423,34.423,0,0,1-3.961,3.734l1.1.846a33.274,33.274,0,0,1,3.19-4.463l-1.075-.829a17.607,17.607,0,0,1-3.454,3.412q.461.461.921.921a14.522,14.522,0,0,1,2.366-3.453.674.674,0,0,0-.952-.952q-.891.72-1.78,1.442l1.057.814a8.95,8.95,0,0,1,1.451-2.135c.492-.534-.147-1.472-.807-1.045l-1.159.753,1,.57a2.674,2.674,0,0,1,.594-1.851L64,158.372a1.665,1.665,0,0,1-.492.6l.778,1.007c.547-.574,1.147-1.091,1.724-1.633a.57.57,0,0,0-.688-.892,9.889,9.889,0,0,0-1.944,1.618c-.489.5.163,1.441.778,1.007a3.038,3.038,0,0,0,.962-1.055c.333-.618-.523-1.369-1.018-.784a4.053,4.053,0,0,0-1,2.768.667.667,0,0,0,.994.571q.582-.371,1.163-.745l-.805-1.043a10.132,10.132,0,0,0-1.673,2.4.676.676,0,0,0,1.055.816c.6-.478,1.187-.961,1.781-1.441l-.952-.952a15.716,15.716,0,0,0-2.577,3.726c-.265.54.331,1.36.922.922a20.157,20.157,0,0,0,3.958-3.884c.472-.612-.571-1.418-1.076-.829a35.368,35.368,0,0,0-3.427,4.726c-.438.726.513,1.312,1.1.846a34.673,34.673,0,0,0,3.977-3.717.711.711,0,0,0-1-1,16.824,16.824,0,0,0-3.463,4.892c-.271.582.336,1.441.983.983a16.321,16.321,0,0,0,3.352-3.138.714.714,0,0,0-1.009-1.01,18.2,18.2,0,0,0-3.061,3.7c-.441.7.532,1.379,1.111.858,1.814-1.634,3.642-3.3,5.286-5.111a.676.676,0,0,0-.955-.955c-.807.718-1.618,1.435-2.363,2.216a8.067,8.067,0,0,0-1.789,2.522.315.315,0,0,0,.387.385.626.626,0,0,0,.429-.408c.1-.235-.235-.364-.391-.228Z" transform="translate(-62.026 -157.375)" fill="#fff"/>
        </g>
      </g>
      <g id="Group_64" data-name="Group 64" transform="translate(19.401 1.314)">
        <g id="Group_63" data-name="Group 63">
          <path id="Path_63" data-name="Path 63" d="M65.037,159.656a3.433,3.433,0,0,1,2.495-1.751l-.7-.907a2.48,2.48,0,0,1-1.66.97l.724.943a1.379,1.379,0,0,1,1.712-.691c-.151-.264-.3-.529-.451-.793a.283.283,0,0,1-.355.151q.2.486.394.971a1.3,1.3,0,0,1,1.4-.54c-.094-.361-.19-.721-.285-1.081a1.284,1.284,0,0,1-1.237.456l.468,1.129a2.47,2.47,0,0,1,2.145-.676l-.346-1.276q-1.522,1.068-3.045,2.132l.859,1.115a9.169,9.169,0,0,1,1.862-1.447L68.2,157.3a22.965,22.965,0,0,1-4.327,4.1q.488.486.973.973a10.558,10.558,0,0,1,1.908-2.336,9.586,9.586,0,0,1,1.115-.883c.244-.165,1.1-.846,1.4-.708-.084-.321-.168-.643-.253-.964a18.609,18.609,0,0,1-3.823,3.8l.843,1.091a22.387,22.387,0,0,1,5.95-4.34q-.421-.542-.838-1.085a40.784,40.784,0,0,1-6.148,5.745q.421.542.838,1.085a20.445,20.445,0,0,1,5.159-4.037c-.313-.315-.627-.627-.938-.94a33.883,33.883,0,0,1-6.4,6.731q.479.481.961.961a24.769,24.769,0,0,1,6.883-5.887l-.973-.748a6.281,6.281,0,0,1-1.591,2.04q-1.05,1.023-2.106,2.039Q64.7,165.99,62.6,168.07c-.672.661.333,1.646,1.027,1.027a50.554,50.554,0,0,1,6.592-5.262q-.425-.549-.849-1.1c-2.042,2.421-4.118,4.814-6.181,7.219l1.036,1.034a52.479,52.479,0,0,1,5.486-5.911l-1.091-.843a67.987,67.987,0,0,1-5.561,6.878l1.007,1.007c1.328-1.562,2.63-3.145,3.934-4.729l-.949-.949a12.6,12.6,0,0,1-2.95,2.676l.968.556a10.014,10.014,0,0,1,.7-4.649c.234-.559-.723-.964-.985-.414a9.773,9.773,0,0,0-1,5.063.651.651,0,0,0,.968.556,16.217,16.217,0,0,0,3.25-2.84c.561-.651-.384-1.6-.949-.949-1.339,1.55-2.678,3.1-3.992,4.67-.58.694.385,1.7,1.007,1.007a81.35,81.35,0,0,0,5.754-7.184c.478-.669-.534-1.348-1.093-.843a52.343,52.343,0,0,0-5.538,5.86c-.583.723.423,1.762,1.036,1.034,2.043-2.423,4.072-4.857,6.135-7.264.492-.574-.133-1.541-.847-1.1A50.421,50.421,0,0,0,62.6,168.07l1.027,1.027q2.305-2.271,4.594-4.558c1.312-1.316,2.862-2.571,3.576-4.331.228-.562-.513-1.01-.973-.748a25.567,25.567,0,0,0-7.175,6.07.68.68,0,0,0,.961.961,35,35,0,0,0,6.626-7c.4-.618-.367-1.219-.94-.94a21.53,21.53,0,0,0-5.444,4.247c-.544.532.2,1.57.838,1.085a42.471,42.471,0,0,0,6.427-5.961.7.7,0,0,0-.838-1.085,23.7,23.7,0,0,0-6.235,4.55c-.532.541.189,1.576.843,1.091a21.174,21.174,0,0,0,4.339-4.292.706.706,0,0,0-.252-.964c-1.24-.6-2.583.471-3.532,1.205a11.467,11.467,0,0,0-2.827,3.22c-.339.571.382,1.418.973.973a29.613,29.613,0,0,0,4.568-4.366.681.681,0,0,0-.823-1.064,8.761,8.761,0,0,0-2.18,1.613c-.543.555.184,1.6.859,1.115q1.511-1.088,3.021-2.175a.692.692,0,0,0-.345-1.277,3.735,3.735,0,0,0-3.081,1.111.671.671,0,0,0,.468,1.13,2.525,2.525,0,0,0,2.151-.865.654.654,0,0,0-.285-1.081,2.662,2.662,0,0,0-2.887,1.12.666.666,0,0,0,.4.971A1.631,1.631,0,0,0,68.4,157.77a.654.654,0,0,0-.451-.795,2.659,2.659,0,0,0-3.162,1.288.65.65,0,0,0,.726.941,3.5,3.5,0,0,0,2.385-1.583.625.625,0,0,0-.7-.909,3.859,3.859,0,0,0-2.724,2.709.306.306,0,0,0,.558.234Z" transform="translate(-62.38 -156.445)" fill="#fff"/>
        </g>
      </g>
      <g id="Group_66" data-name="Group 66" transform="translate(18.875 2.42)">
        <g id="Group_65" data-name="Group 65">
          <path id="Path_64" data-name="Path 64" d="M63.258,163.706a8.018,8.018,0,0,0-.891,5.821c.117.6.907.465,1.088,0a5.446,5.446,0,0,0-.345-4.486.585.585,0,0,0-1.082.294A21.152,21.152,0,0,0,63,171.411a.6.6,0,0,0,1.178-.16c.24-4.683,2.759-9.25,7.127-11.256l-.49-.84q-1.064.627-2.13,1.25l.7.7a7.206,7.206,0,0,1,1.673-2.064,5.615,5.615,0,0,1,.582-.432l.183-.115q.358-.09.03-.238c-.237.135-.456.723-.538.958a.651.651,0,0,0,1.081.63l.712-.856q-.5-.389-1.009-.78a19.4,19.4,0,0,1-3.147,4.808l.976.753a9.825,9.825,0,0,1,3.955-4.255l-.9-.691c-.513,2.3-2.226,3.986-3.865,5.573l1.03.793a17.1,17.1,0,0,1,3.681-5.279l-.967-.124c.183.414-.3.985-.51,1.3q-.369.555-.774,1.085c-.555.724-1.171,1.4-1.793,2.064l1.07.826a12.4,12.4,0,0,1,3.406-3.776c-.3-.228-.6-.457-.892-.685a9.2,9.2,0,0,1-2.8,5.009l1.031.8c.968-1.9,1.964-3.773,3.1-5.582l-1.013-.592a16.471,16.471,0,0,0-1.523,3.024l1.249.345a18.464,18.464,0,0,1,1.279-3.646l-1.154-.313a53.982,53.982,0,0,1,.291,6.187l1.136-.153a7.167,7.167,0,0,1,.2-4.475l-1.073-.145a15.323,15.323,0,0,1-1.139,5.258h1.232a14.936,14.936,0,0,1-.13-3.694H72.781c.144,1.279.267,2.562.432,3.838.106.832,1.414.871,1.337,0l-.36-4.024c-.058-.651-1.139-.931-1.246-.169A16.738,16.738,0,0,0,72.8,166.4a.658.658,0,0,0,1.286.174q.6-2.22,1.208-4.442l-1.163-.157a36.916,36.916,0,0,0,.4,6.073c.108.7,1.289.538,1.237-.168-.142-1.872-.235-3.751-.238-5.631l-1.229.168a48.914,48.914,0,0,1,1.4,6.868c.1.739,1.36.568,1.307-.177a28.6,28.6,0,0,0-.772-4.815c-.129-.529-1.03-.582-1.123,0a8.053,8.053,0,0,0-.082,2.156c.066.609.976.64.973,0a6.683,6.683,0,0,1,.232-1.847H75.116c.258,1.49.435,3,.564,4.507l1.307-.177a59.743,59.743,0,0,0-1.474-6.848.629.629,0,0,0-1.229.166,51.147,51.147,0,0,0,.231,5.631l1.237-.166a26.5,26.5,0,0,1-.432-5.739.6.6,0,0,0-1.163-.157q-.666,2.2-1.328,4.409l1.286.174a16.481,16.481,0,0,1,.054-3.8l-1.246-.168.291,4.024H74.55c-.144-1.282-.33-2.559-.493-3.838a.638.638,0,0,0-1.276,0,16.236,16.236,0,0,0,.174,4.034c.115.693,1.028.51,1.232,0a14.749,14.749,0,0,0,1-5.6.549.549,0,0,0-1.073-.145,9.051,9.051,0,0,0-.264,5.073c.151.657,1.109.48,1.136-.154a45.851,45.851,0,0,0-.208-6.187c-.051-.564-.844-.9-1.153-.312a14.861,14.861,0,0,0-1.459,3.926.648.648,0,0,0,1.249.345,10.933,10.933,0,0,1,1.288-2.777c.42-.631-.6-1.219-1.013-.592a48.067,48.067,0,0,0-3.22,5.511.66.66,0,0,0,1.031.8,10.933,10.933,0,0,0,3.045-5.616.614.614,0,0,0-.892-.685,13.933,13.933,0,0,0-3.97,4.136c-.457.639.538,1.367,1.07.826a19.534,19.534,0,0,0,2.366-2.967c.622-.943,1.292-1.933.81-3.07a.62.62,0,0,0-.967-.124,16.853,16.853,0,0,0-3.941,5.489c-.283.645.463,1.355,1.03.795,1.768-1.753,3.588-3.655,4.117-6.174a.62.62,0,0,0-.9-.691,11.317,11.317,0,0,0-4.411,4.685c-.3.6.475,1.3.974.753a20.548,20.548,0,0,0,3.378-5.037c.289-.61-.5-1.376-1.009-.78l-.718.852,1.081.628c.223-.625.792-1,.5-1.75a1.006,1.006,0,0,0-1.451-.493,7.578,7.578,0,0,0-3.111,3.274.517.517,0,0,0,.7.7q1.052-.648,2.1-1.3a.486.486,0,0,0-.49-.84c-4.319,2.492-7.631,7-7.836,12.1q.589-.079,1.177-.159a18.608,18.608,0,0,1-.967-5.755l-1.082.292a4.812,4.812,0,0,1,.259,3.6h1.088a9.635,9.635,0,0,1,.1-5.393.164.164,0,0,0-.3-.127Z" transform="translate(-62.029 -157.183)" fill="#fff"/>
        </g>
      </g>
      <g id="Group_68" data-name="Group 68" transform="translate(32.35 9.168)">
        <g id="Group_67" data-name="Group 67">
          <path id="Path_65" data-name="Path 65" d="M74.182,167.24l-1.037.292c.1.237.2.472.3.709a56.087,56.087,0,0,1,6.542-4.259q-.3-.515-.6-1.03c-2.448,1.589-4.847,3.261-7.264,4.9l.682.885a23.326,23.326,0,0,1,9.835-6.031l-.4-.942a30.42,30.42,0,0,1-7.752,3.953l.492.844a14.711,14.711,0,0,1,6.646-3.459c.175-.04.352-.078.529-.111.307-.057.535-.178.319.175s-.811.594-1.165.808c-3.312,2.01-6.637,4-9.934,6.039a.526.526,0,0,0,.531.908c3.709-2.175,7.532-4.442,11.757-5.45l-.366-.87q-6.022,3.384-12.016,6.815l.55.938c3.55-2.037,7.153-4.117,11.129-5.207l-.417-.988q-5.444,3.659-11.136,6.928a.574.574,0,0,0,.58.991A38.76,38.76,0,0,1,82.4,169.437l-.64-.64c-.1.723-1.646,1.294-2.216,1.627l-2.463,1.439q-2.462,1.439-4.928,2.874l.571.977a31.626,31.626,0,0,1,9.055-4.166l-.42-1c-3.054,1.964-6.12,3.913-9.159,5.9-.576.376-.042,1.3.541.927a36.03,36.03,0,0,1,8.3-4.361c-.129-.3-.256-.609-.385-.915-2.345,1.747-4.758,3.4-7.214,4.988l.531.908a25.444,25.444,0,0,1,5.911-3.031c-.16-.276-.321-.55-.48-.826a37.925,37.925,0,0,1-4.46,3.307c-.526.354-.057,1.184.5.858,1.208-.7,2.423-1.4,3.619-2.121l-.421-.42a8.371,8.371,0,0,1-2.217,2.369.268.268,0,1,0,.327.423,15.957,15.957,0,0,0,2.373-2.42.309.309,0,0,0-.372-.483c-1.279.58-2.541,1.193-3.809,1.795l.5.858a26.646,26.646,0,0,0,4.657-3.466.5.5,0,0,0-.48-.825,24.845,24.845,0,0,0-6.18,3.075c-.549.382-.039,1.283.531.908,2.447-1.607,4.835-3.294,7.189-5.031.423-.312.2-1.1-.385-.915a38.437,38.437,0,0,0-8.578,4.4l.541.927c3.069-1.941,6.114-3.92,9.168-5.884a.547.547,0,0,0-.42-1,29.278,29.278,0,0,0-9.337,4.238c-.6.406-.063,1.357.571.977q2.858-1.7,5.721-3.4l2.726-1.618c.664-.394,1.472-.778,1.594-1.624a.529.529,0,0,0-.64-.64c-3.881.709-7.346,2.711-10.722,4.657l.58.991q5.674-3.292,11.1-6.985a.543.543,0,0,0-.417-.988,49.643,49.643,0,0,0-11.391,5.31.544.544,0,0,0,.55.938q5.982-3.45,11.946-6.932a.478.478,0,0,0-.367-.87c-4.346,1.075-8.192,3.222-12.034,5.459l.531.908c2.2-1.351,4.388-2.73,6.581-4.1l3.289-2.051c.648-.4,1.654-.81,1.76-1.675.244-1.983-3.154-.681-3.977-.388a15.952,15.952,0,0,0-5.294,3.136.508.508,0,0,0,.49.844,31.333,31.333,0,0,0,8-4.039c.453-.316.195-1.123-.4-.942a24.922,24.922,0,0,0-10.356,6.229c-.439.442.136,1.244.682.885,2.435-1.609,4.895-3.186,7.3-4.841a.6.6,0,0,0-.6-1.03,31.423,31.423,0,0,0-6.411,4.681c-.337.328.088.777.469.609l.977-.435c.327-.144.093-.66-.238-.567Z" transform="translate(-71.017 -161.683)" fill="#fff"/>
        </g>
      </g>
      <g id="Group_70" data-name="Group 70" transform="translate(8.033 10.406)">
        <g id="Group_69" data-name="Group 69">
          <path id="Path_66" data-name="Path 66" d="M55.585,166.125l-.513.1.373.64a16.268,16.268,0,0,1,5.04-3.3l-.534-.916a29.9,29.9,0,0,1-4.375,4.652c-.487.411.165,1.273.688.892a37.555,37.555,0,0,1,5.2-3.442q-.283-.369-.568-.738a37.587,37.587,0,0,1-5.283,4.887c-.51.388-.018,1.267.511.876a26.332,26.332,0,0,1,6.207-3.743l-.529-.91a36.688,36.688,0,0,1-4.752,4.453c-.534.418.145,1.18.694.9,1.907-.974,3.781-2.012,5.694-2.976l-.639-.828q-2.233,1.979-4.466,3.958c-.567.5.244,1.252.811.813a20.115,20.115,0,0,1,4.366-2.574l-.648-.84c-1.354,1.406-2.778,2.736-4.184,4.088-.453.435.144,1.252.684.886a21.6,21.6,0,0,1,5.659-3.051l-.484-.834c-1.754,1.546-3.594,2.992-5.351,4.534-.486.426.15,1.253.693.9a24.18,24.18,0,0,1,6.181-3.219l-.492-.846c-1.735,1.55-3.528,3.037-5.249,4.606a.55.55,0,0,0,.664.861,24.946,24.946,0,0,1,6.584-3.292l-.465-.8c-1.874,1.516-3.761,3.013-5.64,4.525-.445.355.127,1.07.6.781a29.6,29.6,0,0,1,7-3.456l-.481-.825q-2.753,2.474-5.722,4.681c-.511.379-.058,1.228.513.877a23.053,23.053,0,0,1,6.938-3.351l-.411-.706c-1.531,1.226-3.13,2.361-4.694,3.544-.48.363-.066,1.15.484.831a41.439,41.439,0,0,1,5.823-2.806l-.414-.709a10.108,10.108,0,0,1-2.977,2.327c-.513.276-.058,1.051.456.78,1.616-.855,3.291-1.588,4.977-2.289.376-.157.243-.756-.174-.633a31.584,31.584,0,0,0-5.259,2.142l.456.78a10.709,10.709,0,0,0,3.123-2.507c.256-.289.015-.867-.414-.709a42.86,42.86,0,0,0-6.081,2.795l.484.831c1.646-1.2,3.214-2.507,4.806-3.776.355-.283-.037-.79-.411-.708a23.967,23.967,0,0,0-7.226,3.289l.513.877q3.065-2.294,5.908-4.86a.5.5,0,0,0-.48-.825,31.23,31.23,0,0,0-7.24,3.549q.3.389.6.781c1.872-1.516,3.736-3.042,5.613-4.553.387-.31-.036-.915-.465-.8A28,28,0,0,0,60.429,175l.664.862c1.759-1.523,3.445-3.127,5.189-4.666a.51.51,0,0,0-.492-.846,25.137,25.137,0,0,0-6.49,3.208l.693.9c1.775-1.516,3.468-3.126,5.247-4.637.388-.33-.028-.965-.486-.834a22.763,22.763,0,0,0-5.964,3.039l.684.886c1.435-1.319,2.787-2.732,4.142-4.13.451-.465-.115-1.067-.648-.84a21.777,21.777,0,0,0-4.522,2.6l.7.9q2.195-2.017,4.4-4.025c.456-.417-.124-1.1-.639-.828-1.9.994-3.835,1.913-5.74,2.9q.349.45.694.9a36.384,36.384,0,0,0,4.713-4.492c.322-.369.019-1.123-.531-.91a26.957,26.957,0,0,0-6.429,3.917l.615.8a40.991,40.991,0,0,0,5.333-5.019.472.472,0,0,0-.568-.738,37.446,37.446,0,0,0-5.3,3.273l.688.892a24.8,24.8,0,0,0,4.432-4.791c.342-.492-.3-.963-.75-.75a17.156,17.156,0,0,0-5.16,3.763.387.387,0,0,0,.373.64l.505-.127c.465-.117.265-.8-.2-.712Z" transform="translate(-54.798 -162.509)" fill="#fff"/>
        </g>
      </g>
      <g id="Group_72" data-name="Group 72" transform="translate(18.093 9.444)">
        <g id="Group_71" data-name="Group 71">
          <path id="Path_67" data-name="Path 67" d="M63.962,172.588a6.273,6.273,0,0,0,1.919-1.2q.832-.839,1.72-1.619c1.151-1.012,2.391-1.911,3.54-2.925l-3.022-2.333a33.8,33.8,0,0,1-2.732,3.072,23.118,23.118,0,0,1-3.054,2.82l2.067,2.681c1.726-1.388,3.337-2.911,5.07-4.291a46.56,46.56,0,0,1,5.33-3.5l-2.5-2.5a26.824,26.824,0,0,1-4.685,4.716,48.8,48.8,0,0,0-4.914,4.776,1.65,1.65,0,0,0-.127,2.145,1.618,1.618,0,0,0,2.108.421c3.3-2.409,6.2-5.516,10.243-6.677l-1.8-1.37c-.008-.16.13-.133-.06,0-.168.121-.322.28-.486.411-.4.321-.8.636-1.2.952l-2.531,2c-1.645,1.3-3.277,2.616-4.914,3.926-1.43,1.145.5,3.682,1.976,2.562a40.7,40.7,0,0,1,11.869-6.343L75.923,167.9a6.519,6.519,0,0,1-1.834,1.316q-1.293.812-2.553,1.672-2.582,1.756-5.027,3.694a1.665,1.665,0,0,0-.132,2.207,1.712,1.712,0,0,0,2.168.432c1.832-.84,3.519-1.944,5.285-2.908a15.465,15.465,0,0,1,5.376-1.86l-1.5-2.583a30.988,30.988,0,0,1-7.566,4.66q.783,1.338,1.567,2.679a24.881,24.881,0,0,1,6.094-2.694q-.708-1.214-1.414-2.429a34.92,34.92,0,0,1-3.078,2.64c-1.009.807.1,2.339,1.2,2.055a13.133,13.133,0,0,0,1.556-.432c.507-.2.955-.529,1.481-.688L76.8,174.39A6.61,6.61,0,0,1,74.073,176c-1.345.531-.795,2.715.609,2.207,1.1-.4,2.118-.993,3.24-1.366q-.492-.843-.983-1.688c-.594.556-1.132,1.141-1.667,1.753a.724.724,0,0,0,.873,1.132c.7-.408,1.367-.823,2.019-1.3a1.017,1.017,0,0,0-.78-1.849A10.4,10.4,0,0,0,73.8,176.12l1.156,1.976a8.253,8.253,0,0,0,1.481-1.283,8.892,8.892,0,0,1,1.441-1.348.767.767,0,0,0-.538-1.3c-.579.072-1.147-.051-1.724-.031a14.109,14.109,0,0,0-1.765.274q.474,1.124.947,2.247a34.923,34.923,0,0,1,3.349-2.288,1.453,1.453,0,0,0,.594-1.816,1.487,1.487,0,0,0-1.715-.842,17.643,17.643,0,0,0-6.887,2.818,1.553,1.553,0,0,0,1.567,2.679,56.691,56.691,0,0,0,7.872-4.911,1.559,1.559,0,0,0-.781-2.88c-4.424.072-8.1,3.1-11.946,4.9l2.036,2.639q2.44-1.961,5.04-3.708c1.687-1.129,3.6-2.036,4.839-3.69.865-1.156-.57-2.846-1.859-2.418a42.093,42.093,0,0,0-12.97,6.956l2.306,2.307c1.825-1.555,3.652-3.1,5.466-4.67q1.331-1.149,2.664-2.3c.826-.711,1.651-1.438,1.6-2.631a1.436,1.436,0,0,0-1.8-1.369c-4.2,1.228-7.5,4.312-11.139,6.595q.992,1.282,1.98,2.565a33.218,33.218,0,0,1,5.021-4.854,64.77,64.77,0,0,0,5.135-4.737,1.869,1.869,0,0,0,.285-2.211,1.829,1.829,0,0,0-2.061-.84,25.435,25.435,0,0,0-6.253,3.937,48.1,48.1,0,0,0-5.154,4.776,1.708,1.708,0,0,0,2.414,2.414c1.1-1.063,2.316-2,3.448-3.039s2.2-2.129,3.292-3.2c1.534-1.5-.468-4.232-2.333-3.022a19.682,19.682,0,0,0-3.793,3.36q-.8.877-1.535,1.805a3.873,3.873,0,0,0-.774,1.175c-.126.4-.2.831-.292,1.235a1.068,1.068,0,0,0,1.549,1.19Z" transform="translate(-61.507 -161.867)" fill="#fff"/>
        </g>
      </g>
      <g id="Group_74" data-name="Group 74" transform="translate(25.59 9.17)">
        <g id="Group_73" data-name="Group 73">
          <path id="Path_68" data-name="Path 68" d="M67.727,162.951l-.017.007.141-.06a1.418,1.418,0,0,1-.333.088l.192-.025c-.046.006-.094.009-.142.011a2.262,2.262,0,0,0-.348.039q.461.6.922,1.2a2.325,2.325,0,0,1,.31-.526l-.141.181a2.453,2.453,0,0,1,.42-.417l-.2.153.085-.063-1.2-1.562c-.2.2-.4.4-.592.6a.8.8,0,0,0-.222.345.812.812,0,0,0-.091.412l.039.285a.792.792,0,0,0,.19.363.552.552,0,0,0,.192.193.805.805,0,0,0,.364.19l.285.039a1.065,1.065,0,0,0,.54-.147l.121-.078a3.343,3.343,0,0,0,.324-.24l-.219.169c.189-.145.411-.246.588-.408a1.975,1.975,0,0,0,.21-.277.921.921,0,0,0,.16-.534.93.93,0,0,0-.262-.657.91.91,0,0,0-.46-.274c-.03-.007-.06-.012-.09-.016a1.065,1.065,0,0,0-.444-.021.671.671,0,0,0-.184.036c-.153.058-.3.121-.45.192a2.211,2.211,0,0,0-.591.427l1.681,1.3c.157-.229.319-.456.472-.688a.73.73,0,0,0,.118-.369.746.746,0,0,0-.018-.4l-.1-.237a.733.733,0,0,0-.256-.28.5.5,0,0,0-.219-.127.761.761,0,0,0-.382-.085l-.265.036a.981.981,0,0,0-.438.255,3.3,3.3,0,0,0-.5.757,3.256,3.256,0,0,0-.267.847l-.028.217.028.217.082.195a.621.621,0,0,0,.211.229.42.42,0,0,0,.18.1.818.818,0,0,0,.423.055.618.618,0,0,0,.3-.1.98.98,0,0,0,.226-.159c.021-.018.042-.036.063-.057a1.093,1.093,0,0,0,.112-.123,2.038,2.038,0,0,0,.277-.411l.058-.141a.443.443,0,0,0,.01-.234.567.567,0,0,0-.16-.336.693.693,0,0,0-.259-.15.443.443,0,0,0-.234-.01.437.437,0,0,0-.217.069Z" transform="translate(-66.509 -161.685)" fill="#fff"/>
        </g>
      </g>
      <g id="Group_76" data-name="Group 76" transform="translate(24.584 22.925)">
        <g id="Group_75" data-name="Group 75">
          <path id="Path_69" data-name="Path 69" d="M66.243,172.415a10.106,10.106,0,0,0,1.343.156,6.69,6.69,0,0,0,1.391-.151.793.793,0,0,0-.21-1.556c-.718.073-1.432.193-2.147.3a.8.8,0,0,0,.213,1.568c1.253-.07,2.505-.13,3.76-.16v-1.655c-.609.064-1.213.147-1.82.232-.511.07-1.136.16-1.568.217.072.537.145,1.073.217,1.61a31.985,31.985,0,0,1,3.952-.4l-.4-1.462c-.1.045-.225.081-.373.157a3.46,3.46,0,0,0-.336.217c-.222.144-.447.279-.678.408l.51.873a2.763,2.763,0,0,1,1.018-.432c.346-.081.252-.582-.081-.6a6.8,6.8,0,0,0-1.327.106c-.565.085-.427,1.01.135.992.288-.009.574-.028.859-.06a2.833,2.833,0,0,0,.5-.075,5.364,5.364,0,0,0,.562-.235.784.784,0,0,0,.36-.886.8.8,0,0,0-.757-.576q-2.2.083-4.388.385a.821.821,0,0,0,.219,1.61c1.2-.154,2.409-.276,3.609-.465a.829.829,0,0,0-.22-1.625c-1.253.1-2.5.163-3.76.219l.213,1.568c.645-.088,1.291-.165,1.931-.283q-.211-.765-.421-1.528c-.37.094-.745.148-1.118.226-.348.072-.691.151-1.045.192a.57.57,0,0,0-.552.487.555.555,0,0,0,.4.618Z" transform="translate(-65.837 -170.86)" fill="#fff"/>
        </g>
      </g>
      <g id="Group_78" data-name="Group 78" transform="translate(33.241 18.364)">
        <g id="Group_77" data-name="Group 77">
          <path id="Path_70" data-name="Path 70" d="M72,171.562a14.337,14.337,0,0,1,1.411-.4,11.226,11.226,0,0,0,1.445-.582,18.513,18.513,0,0,0,2.564-1.525.668.668,0,0,0-.673-1.153c-.864.46-1.754.879-2.583,1.394-.411.255-.82.5-1.205.79a10.4,10.4,0,0,1-1.2.892c-.306.168-.093.717.244.579Z" transform="translate(-71.612 -167.817)" fill="#fff"/>
        </g>
      </g>
      <g id="Group_80" data-name="Group 80" transform="translate(31.083 23.073)">
        <g id="Group_79" data-name="Group 79">
          <path id="Path_71" data-name="Path 71" d="M70.587,172.4l-.063,0c-.414-.054-.484.613-.1.717a2.524,2.524,0,0,0,1.216-.214c.391-.108.772-.258,1.154-.393a11.374,11.374,0,0,0,2.246-.979c.237-.145.163-.6-.154-.567a8.05,8.05,0,0,0-1.193.223c-.408.108-.8.244-1.2.378-.384.129-.777.246-1.151.4a2.607,2.607,0,0,0-1.13.615h.63l-.055-.078.018.138.009-.064c.015-.115-.1-.258-.223-.172Z" transform="translate(-70.172 -170.959)" fill="#fff"/>
        </g>
      </g>
      <g id="Group_82" data-name="Group 82" transform="translate(0 28.206)">
        <g id="Group_81" data-name="Group 81">
          <path id="Path_72" data-name="Path 72" d="M76.23,176.862c5.366,1.591,10.106,4.279,13.271,9.049C92.743,190.8,94.247,196.7,95,202.45c1.441,11-.337,23.4-9.47,30.74a19.052,19.052,0,0,1-13.521,4.337,20.07,20.07,0,0,1-12.559-6.619c-7.856-8.431-7.8-20.714-4.19-31.047a41.579,41.579,0,0,1,9.166-15.385,25.74,25.74,0,0,1,6.623-5,24.305,24.305,0,0,1,8.189-2.183c1.4-.18,2.111-2.522.375-2.769-5.522-.787-10.92,1.907-15.1,5.336a39.833,39.833,0,0,0-10.5,14.113c-5.312,11.475-7.12,26,.786,36.784,6.814,9.294,18.758,13.422,29.215,7.575,11.449-6.4,15.475-19.731,14.634-32.147-.493-7.294-2.027-15.1-6.157-21.266-3.487-5.2-9.623-10.141-16.257-9.019-.513.087-.441.835,0,.965Z" transform="translate(-49.439 -174.382)" fill="#1a1818"/>
        </g>
      </g>
      <g id="Group_83" data-name="Group 83" transform="translate(63.743 31.866)">
        <path id="Path_73" data-name="Path 73" d="M94.206,189.195a1.148,1.148,0,0,1,.9.207,1.133,1.133,0,0,1,.36.664,1.8,1.8,0,0,1-.069.841,2.622,2.622,0,0,1-.331.717l-.22.25-.36.082a1.4,1.4,0,0,0-.345,1.036,1.34,1.34,0,0,0,.429.814,1.91,1.91,0,0,0,.9.454,1.984,1.984,0,0,0,1.063-.04,3.426,3.426,0,0,0,1.381-.774,6.317,6.317,0,0,0,1.063-1.256,7.05,7.05,0,0,0,.732-1.49,8.812,8.812,0,0,0,.387-1.477v-.414l-.111-.5a4.129,4.129,0,0,0-1.325-1.243,4.306,4.306,0,0,0-1.835-.622,3.674,3.674,0,0,0-3.631,1.947c-.166.24-.336.286-.511.138a1.776,1.776,0,0,1-.456-.661,3.264,3.264,0,0,1-.249-.967,1.174,1.174,0,0,1,.138-.8,3.871,3.871,0,0,1,.843-.994,3.952,3.952,0,0,1,1.229-.552,4.755,4.755,0,0,1,1.726-.18,6.305,6.305,0,0,1,3.174,1.145,6.1,6.1,0,0,1,1.2,1.1,4.515,4.515,0,0,1,.7,1.283,5.8,5.8,0,0,1,.291,1.505,3.339,3.339,0,0,1-.208,1.213,10.325,10.325,0,0,1-.594,1.4q-.358.7-.772,1.352a12.073,12.073,0,0,1-.774,1.091,5.193,5.193,0,0,1-.636.636,7.223,7.223,0,0,1-.772.552,2.7,2.7,0,0,1-1.478.427,3.956,3.956,0,0,1-1.475-.318,2.59,2.59,0,0,1-1.187-1.063,4.563,4.563,0,0,1-.594-1.615,4.8,4.8,0,0,1,.027-1.78,3.8,3.8,0,0,1,.676-1.561,3.25,3.25,0,0,1,.318-.331A.917.917,0,0,1,94.206,189.195Z" transform="translate(-91.957 -173.06)"/>
        <path id="Path_74" data-name="Path 74" d="M100.4,187.528a2.175,2.175,0,0,1-.579-.814,1.7,1.7,0,0,1-.124-.925.8.8,0,0,1,.565-.648q.663-.193,1.421-.372a7.039,7.039,0,0,1,1.52-.193,4.026,4.026,0,0,1,1.421.219,2.453,2.453,0,0,1,1.132.844,3.893,3.893,0,0,1,.745,2.25,11.77,11.77,0,0,1-.234,2.787,19.876,19.876,0,0,1-.787,2.831q-.5,1.381-.938,2.346c-.313.222-.552.3-.718.234a.624.624,0,0,1-.36-.4,1.814,1.814,0,0,1-.082-.732,2.974,2.974,0,0,1,.139-.759,14.5,14.5,0,0,1,.745-1.837q.414-.843.745-1.67a8.538,8.538,0,0,0,.483-1.685,4.573,4.573,0,0,0-.069-1.822l-.082-.249-.138-.138-.193-.084-.084-.055-.276-.109-.276-.027-.331.027-.663.193-2.153,1.076A1.012,1.012,0,0,1,100.4,187.528Z" transform="translate(-88.102 -172.954)"/>
        <path id="Path_75" data-name="Path 75" d="M108.4,194.891a1.284,1.284,0,0,1-.456,1.187,1.247,1.247,0,0,1-1.049.193,1.66,1.66,0,0,1-.965-.691,1.768,1.768,0,0,1-.208-1.462,13.428,13.428,0,0,1,.953-2.968,2.984,2.984,0,0,1,1.063-1.312,1.211,1.211,0,0,1,1.118-.055,3.78,3.78,0,0,1,1.117.789,9.967,9.967,0,0,1,1.063,1.228q.51.69.94,1.256a6.577,6.577,0,0,0,.759.869c.222.2.4.22.525.056q.25-.8.525-1.685a6.073,6.073,0,0,0,.289-1.7,2.866,2.866,0,0,0-.358-1.475,2.441,2.441,0,0,0-1.423-1.022,3.472,3.472,0,0,0-1.132-.207,11.557,11.557,0,0,0-1.256.042c-.432.036-.861.078-1.283.124a7.98,7.98,0,0,1-1.214.04,1.9,1.9,0,0,1-1.174-.442.791.791,0,0,1-.124-1.021,2.793,2.793,0,0,1,.538-.774,2.4,2.4,0,0,1,.649-.441,5.138,5.138,0,0,1,.8-.289c.294-.084.618-.189.967-.318a20.246,20.246,0,0,1,2-.567q.924-.207,1.892-.331t2.042-.208q1.077-.081,2.4-.247a1.159,1.159,0,0,1,.747.469,2.08,2.08,0,0,1,.427.9,1.492,1.492,0,0,1-.069.883.781.781,0,0,1-.718.456,5.006,5.006,0,0,1-.511-.042c-.229-.027-.472-.054-.73-.082s-.5-.055-.733-.084a4.855,4.855,0,0,0-.51-.04q-.994-.027-1.85-.069a15.173,15.173,0,0,0-1.712.014,11.351,11.351,0,0,0-1.768.262,13.619,13.619,0,0,0-1.959.622,17.062,17.062,0,0,1,4.031-.249,5.21,5.21,0,0,1,2.511.76,2.959,2.959,0,0,1,1.216,1.711,6.962,6.962,0,0,1,.138,2.609,4.45,4.45,0,0,1-.207.938,9.938,9.938,0,0,1-.456,1.187,10.669,10.669,0,0,1-.594,1.132,2.663,2.663,0,0,1-.649.774.856.856,0,0,1-.925.165,3.6,3.6,0,0,1-1.048-.648,10.931,10.931,0,0,1-1.091-1.076q-.553-.621-1.049-1.118a4.663,4.663,0,0,0-.925-.745.628.628,0,0,0-.732-.029,1.753,1.753,0,0,0-.511.594,2.025,2.025,0,0,0-.22.663,1.217,1.217,0,0,0,.027.525c.047.139.124.2.235.18a.454.454,0,0,1,.345.069.675.675,0,0,1,.193.234.812.812,0,0,1,.084.276Q108.4,194.837,108.4,194.891Z" transform="translate(-85.116 -173.51)"/>
        <path id="Path_76" data-name="Path 76" d="M115.079,187.528a2.179,2.179,0,0,1-.58-.814,1.713,1.713,0,0,1-.124-.925.807.807,0,0,1,.565-.648q.663-.193,1.423-.372a7.025,7.025,0,0,1,1.519-.193,4.02,4.02,0,0,1,1.421.219,2.445,2.445,0,0,1,1.132.844,3.894,3.894,0,0,1,.747,2.25,11.771,11.771,0,0,1-.235,2.787,19.874,19.874,0,0,1-.787,2.831q-.5,1.381-.939,2.346c-.313.222-.552.3-.718.234a.622.622,0,0,1-.358-.4,1.763,1.763,0,0,1-.082-.732,2.912,2.912,0,0,1,.138-.759,14.506,14.506,0,0,1,.745-1.837q.414-.843.745-1.67a8.538,8.538,0,0,0,.483-1.685,4.545,4.545,0,0,0-.069-1.822l-.082-.249-.138-.138-.193-.084-.082-.055-.276-.109-.276-.027-.333.027-.661.193-2.154,1.076A1.009,1.009,0,0,1,115.079,187.528Z" transform="translate(-80.776 -172.954)"/>
        <path id="Path_77" data-name="Path 77" d="M125.933,188.951a1.012,1.012,0,0,1-.787-.222,1.907,1.907,0,0,1-.538-.676,1.941,1.941,0,0,1-.193-.856,1.219,1.219,0,0,1,.3-.814,2.088,2.088,0,0,1,1.214-.166,1.921,1.921,0,0,1,.952.484,2.677,2.677,0,0,1,.636.923,2.95,2.95,0,0,1,.234,1.16,8.883,8.883,0,0,1-.082,1.174,13.711,13.711,0,0,1-.87,3.216,12.651,12.651,0,0,0-.678,2.016,2.217,2.217,0,0,0,.871.33,7.767,7.767,0,0,0,1.172.138q.607.029,1.187,0c.387-.017.7-.027.938-.027a.731.731,0,0,1,.222-.028,4.277,4.277,0,0,0,.718-1.117,8.728,8.728,0,0,0,.454-1.3c.12-.451.216-.9.291-1.339s.147-.856.22-1.243q.193-1.048.358-2.139c.111-.727.249-1.453.415-2.181a17.974,17.974,0,0,1,.621-2.126,10.392,10.392,0,0,1,.98-2,.677.677,0,0,1,.745-.318,1.2,1.2,0,0,1,.649.553,2.756,2.756,0,0,1,.358.979,1.594,1.594,0,0,1-.1.967A8.813,8.813,0,0,0,135,186.327a16.939,16.939,0,0,0-.814,2.222q-.331,1.147-.58,2.291t-.552,2.225q-.277.992-.663,2.028a4.757,4.757,0,0,1-1.159,1.781.416.416,0,0,1-.3.109h-.166a17.039,17.039,0,0,1-1.986.166,8.568,8.568,0,0,1-1.961-.166,2.565,2.565,0,0,1-1.367-.7,2.143,2.143,0,0,1-.523-1.145,4.318,4.318,0,0,1,.054-1.45q.153-.787.373-1.615t.414-1.643a6.549,6.549,0,0,0,.193-1.505A.025.025,0,0,1,125.933,188.951Z" transform="translate(-75.755 -174.333)"/>
        <path id="Path_78" data-name="Path 78" d="M126.734,182.535a1.555,1.555,0,0,1,.415-.994.935.935,0,0,1,1.366.013,1.029,1.029,0,0,1,.291.76l.027.249c-.24.349-.336.592-.291.73s.18.2.4.18a2.793,2.793,0,0,0,.856-.262,6.045,6.045,0,0,0,1.049-.607,6.541,6.541,0,0,0,.967-.841,2.958,2.958,0,0,0,.634-1,1.724,1.724,0,0,1,.732-.567,4.056,4.056,0,0,1,1.036-.316,2.626,2.626,0,0,1,.883-.014c.24.045.331.16.276.345a12.625,12.625,0,0,1-1.339,1.684,11.594,11.594,0,0,1-1.49,1.34,7.388,7.388,0,0,1-1.547.9,4.389,4.389,0,0,1-1.532.36,3.261,3.261,0,0,1-.979-.1,2.912,2.912,0,0,1-.87-.373A2.015,2.015,0,0,1,127,183.4,1.792,1.792,0,0,1,126.734,182.535Z" transform="translate(-74.596 -175.317)"/>
        <path id="Path_79" data-name="Path 79" d="M134.441,187.883a1.011,1.011,0,0,1-.787-.22,1.915,1.915,0,0,1-.538-.678,1.939,1.939,0,0,1-.193-.855,1.222,1.222,0,0,1,.3-.814,2.653,2.653,0,0,1,1.436-.333,2.245,2.245,0,0,1,1.187.429,2.572,2.572,0,0,1,.787.994,3,3,0,0,1,.262,1.394,6.1,6.1,0,0,1-.429,2.07q-.4,1.021-.786,2.016c-.148.4-.3.825-.442,1.256a5.41,5.41,0,0,0-.277,1.283,3.129,3.129,0,0,0,1.12-.525c.394-.276.8-.585,1.214-.925s.832-.681,1.256-1.021a6.364,6.364,0,0,1,1.27-.814c.018-.313.042-.631.069-.953a11.877,11.877,0,0,1,.442-2.139q.207-.636.456-1.3t.523-1.27a11.885,11.885,0,0,1,.553-1.078.676.676,0,0,1,.745-.316,1.2,1.2,0,0,1,.649.553,2.786,2.786,0,0,1,.358.979,1.607,1.607,0,0,1-.1.967,4.89,4.89,0,0,0-.4.621q-.207.373-.387.76t-.345.759c-.111.247-.2.465-.276.649q-.166.387-.3.8t-.276.854a2,2,0,0,1,.87.858,4.051,4.051,0,0,1,.469,1.324,4.72,4.72,0,0,1,.027,1.438,2.627,2.627,0,0,1-.454,1.213c-.259.351-.511.52-.76.511a1.114,1.114,0,0,1-.7-.3,2.639,2.639,0,0,1-.567-.7,3.308,3.308,0,0,1-.318-.717c-.073-.315-.138-.618-.193-.913a7.165,7.165,0,0,1-.109-.938,1.812,1.812,0,0,1-.249.193,8.069,8.069,0,0,0-.885.76c-.33.322-.676.64-1.034.952a12.783,12.783,0,0,1-1.091.856,2.975,2.975,0,0,1-1.048.5,1.21,1.21,0,0,1-.938-.165,1.979,1.979,0,0,1-.718-1.1,1.908,1.908,0,0,1-.166-.663,2.837,2.837,0,0,1,.028-.69c.036-.313.082-.612.138-.9a8.306,8.306,0,0,1,.22-.87c.147-.571.3-1.139.469-1.711s.322-1.142.469-1.712a1.3,1.3,0,0,1,.042-.235,3.925,3.925,0,0,0,.069-.4h-.193A1.841,1.841,0,0,0,134.441,187.883Zm6.82,4.472a6.27,6.27,0,0,0-.07,1.091,3.948,3.948,0,0,0,.153,1.009l.082-.084a2.687,2.687,0,0,0,.373-1.132.916.916,0,0,0-.511-.885Z" transform="translate(-71.507 -173.211)"/>
        <path id="Path_80" data-name="Path 80" d="M143.8,189.195a1.15,1.15,0,0,1,.9.207,1.133,1.133,0,0,1,.36.664,1.8,1.8,0,0,1-.069.841,2.665,2.665,0,0,1-.331.717l-.222.25-.358.082a1.4,1.4,0,0,0-.345,1.036,1.338,1.338,0,0,0,.427.814,1.915,1.915,0,0,0,.9.454,1.984,1.984,0,0,0,1.063-.04,3.42,3.42,0,0,0,1.379-.774,6.268,6.268,0,0,0,1.063-1.256,6.985,6.985,0,0,0,.733-1.49,8.812,8.812,0,0,0,.387-1.477v-.414l-.111-.5a4.144,4.144,0,0,0-1.325-1.243,4.306,4.306,0,0,0-1.837-.622,3.678,3.678,0,0,0-3.631,1.947c-.165.24-.336.286-.51.138a1.76,1.76,0,0,1-.456-.661,3.219,3.219,0,0,1-.249-.967,1.165,1.165,0,0,1,.138-.8,3.813,3.813,0,0,1,.843-.994,3.935,3.935,0,0,1,1.229-.552,4.75,4.75,0,0,1,1.724-.18,6.3,6.3,0,0,1,3.175,1.145,6.044,6.044,0,0,1,1.2,1.1,4.484,4.484,0,0,1,.7,1.283,5.746,5.746,0,0,1,.289,1.505,3.3,3.3,0,0,1-.207,1.213,10.519,10.519,0,0,1-.594,1.4q-.358.7-.772,1.352a12.08,12.08,0,0,1-.774,1.091,5.2,5.2,0,0,1-.636.636,7.228,7.228,0,0,1-.772.552,2.7,2.7,0,0,1-1.478.427,3.97,3.97,0,0,1-1.477-.318,2.605,2.605,0,0,1-1.187-1.063,4.623,4.623,0,0,1-.594-1.615,4.8,4.8,0,0,1,.028-1.78,3.784,3.784,0,0,1,.676-1.561,3.4,3.4,0,0,1,.316-.331A.922.922,0,0,1,143.8,189.195Z" transform="translate(-67.2 -173.06)"/>
        <path id="Path_81" data-name="Path 81" d="M142.428,183.864a.957.957,0,0,1-.456-.346,2.552,2.552,0,0,1-.372-.648,1.65,1.65,0,0,1-.151-.565,2.06,2.06,0,0,1,.7-1.7,2.14,2.14,0,0,1,1.892-.069,11.191,11.191,0,0,1,1.408.525q.744.331,1.519.607a9.577,9.577,0,0,0,1.532.414,3.343,3.343,0,0,0,1.421-.027,1.123,1.123,0,0,1,.525.33,2.53,2.53,0,0,1,.456.621,1.681,1.681,0,0,1,.193.72.638.638,0,0,1-.235.565,7.554,7.554,0,0,1-2.6-.372,11.376,11.376,0,0,1-1.726-.8q-.731-.429-1.408-.745a3.083,3.083,0,0,0-1.67-.208l-.331.165-.22.249-.084.249-.027.331.027.387C142.719,183.8,142.584,183.91,142.428,183.864Z" transform="translate(-67.251 -175.058)"/>
        <path id="Path_82" data-name="Path 82" d="M147.921,181.143a.833.833,0,0,1-.663,0,1.78,1.78,0,0,1-.621-.4,1.168,1.168,0,0,1-.331-.58.525.525,0,0,1,.18-.538.91.91,0,0,0,.207-.1.382.382,0,0,0,.18-.372,3.275,3.275,0,0,0-.055-.427c-.037-.211-.064-.438-.084-.678a2.154,2.154,0,0,1,.055-.69.857.857,0,0,1,.387-.525,1.08,1.08,0,0,1,.7.151,2.266,2.266,0,0,1,.621.5.964.964,0,0,1,.262.58q.016.29-.373.4a.365.365,0,0,0-.138.082.762.762,0,0,0-.165.511q0,.317.027.661a5.705,5.705,0,0,1,.014.72A1.476,1.476,0,0,1,147.921,181.143Z" transform="translate(-64.834 -176.823)"/>
        <path id="Path_83" data-name="Path 83" d="M153.938,186.208a6.012,6.012,0,0,1,.373,1.768,7.74,7.74,0,0,1-.069,1.559,8.434,8.434,0,0,1-.289,1.256c-.121.369-.217.663-.291.885l.58.358q.634.387,1.132.7a4.958,4.958,0,0,1,.994.87c.127-.423.258-.894.387-1.409s.243-1.039.345-1.573.193-1.067.276-1.6.151-1.03.207-1.49q.083-.634.22-1.394a3.291,3.291,0,0,1,.525-1.312c.24-.294.478-.4.718-.318a1.23,1.23,0,0,1,.622.54,2.643,2.643,0,0,1,.358.965,1.487,1.487,0,0,1-.1.939,2.26,2.26,0,0,0-.565,1.2c-.082.489-.162.916-.235,1.283-.091.426-.193.909-.3,1.45s-.24,1.091-.387,1.643-.313,1.082-.5,1.589a9.737,9.737,0,0,1-.58,1.312.288.288,0,0,0-.138.109.2.2,0,0,0-.084.014.1.1,0,0,1-.055.013,1.006,1.006,0,0,1-.33-.04.987.987,0,0,1-.249-.151c-.166-.166-.322-.331-.469-.5s-.3-.321-.442-.469a11.283,11.283,0,0,0-1.1-.912,12.919,12.919,0,0,0-1.241-.8,8.762,8.762,0,0,1-.594,1.394,7.93,7.93,0,0,1-.87,1.312,3.285,3.285,0,0,1-.387.372.992.992,0,0,1-.745.262,1.539,1.539,0,0,1-1.381-.967,3.372,3.372,0,0,1-.318-1.268,2.49,2.49,0,0,1,.289-1.325,2.262,2.262,0,0,1,.345-.526,3.493,3.493,0,0,1,.54-.508,2.512,2.512,0,0,1,.621-.361,1.38,1.38,0,0,1,.621-.1,1.2,1.2,0,0,1,.3.111q.166-.357.456-1.078a10.663,10.663,0,0,0,.456-1.381,2.715,2.715,0,0,0,.1-1.075q-.07-.416-.621-.222a1.008,1.008,0,0,1-.745-.3,1.565,1.565,0,0,1-.415-.72,1.676,1.676,0,0,1-.014-.826,1.082,1.082,0,0,1,.456-.664,1.266,1.266,0,0,1,1.684,0,2.643,2.643,0,0,1,.567.664A3.626,3.626,0,0,1,153.938,186.208Zm-2.622,5.742a.619.619,0,0,0-.553-.012.885.885,0,0,0-.358.427.622.622,0,0,0,.027.622.337.337,0,0,0,.18.15c.064.02.115-.009.151-.081.111-.2.2-.382.277-.54S151.2,192.172,151.316,191.95Z" transform="translate(-63.506 -173)"/>
      </g>
      <g id="Group_84" data-name="Group 84" transform="translate(54.211 63.093)">
        <path id="Path_84" data-name="Path 84" d="M87.118,206.762a1,1,0,0,1-.787-.22,1.893,1.893,0,0,1-.538-.676,1.945,1.945,0,0,1-.193-.856,1.223,1.223,0,0,1,.3-.816,2.086,2.086,0,0,1,1.214-.165,1.944,1.944,0,0,1,.952.483,2.7,2.7,0,0,1,.636.925,2.955,2.955,0,0,1,.234,1.16,8.81,8.81,0,0,1-.082,1.172,13.691,13.691,0,0,1-.87,3.217A12.481,12.481,0,0,0,87.311,213a2.176,2.176,0,0,0,.87.333,7.961,7.961,0,0,0,1.172.138q.607.027,1.187,0c.387-.018.7-.028.938-.028a.737.737,0,0,1,.222-.027,4.335,4.335,0,0,0,.718-1.118,9.04,9.04,0,0,0,.456-1.3q.178-.675.289-1.339t.22-1.241q.193-1.05.36-2.141c.109-.726.247-1.454.414-2.181a18.128,18.128,0,0,1,.621-2.126,10.389,10.389,0,0,1,.98-2,.677.677,0,0,1,.745-.318,1.213,1.213,0,0,1,.649.552,2.761,2.761,0,0,1,.358.982,1.592,1.592,0,0,1-.1.965,8.755,8.755,0,0,0-1.228,1.988,16.758,16.758,0,0,0-.816,2.223q-.331,1.145-.58,2.291t-.552,2.222q-.277,1-.663,2.03a4.758,4.758,0,0,1-1.159,1.781.413.413,0,0,1-.3.111h-.166a17.365,17.365,0,0,1-1.986.165A8.566,8.566,0,0,1,88,214.8a2.559,2.559,0,0,1-1.367-.7,2.147,2.147,0,0,1-.523-1.147,4.283,4.283,0,0,1,.054-1.45c.1-.523.226-1.063.373-1.615s.285-1.1.414-1.642a6.556,6.556,0,0,0,.193-1.505A.024.024,0,0,1,87.118,206.762Z" transform="translate(-85.599 -196.668)"/>
        <path id="Path_85" data-name="Path 85" d="M87.919,200.349a1.556,1.556,0,0,1,.415-.994.932.932,0,0,1,1.366.013,1.027,1.027,0,0,1,.291.759l.027.249c-.24.351-.336.6-.291.732s.18.2.4.18a2.792,2.792,0,0,0,.856-.262,6.042,6.042,0,0,0,1.049-.607,6.46,6.46,0,0,0,.967-.843,2.937,2.937,0,0,0,.634-.994,1.718,1.718,0,0,1,.733-.565A3.974,3.974,0,0,1,95.4,197.7a2.632,2.632,0,0,1,.883-.015c.24.048.331.163.276.346a12.5,12.5,0,0,1-1.339,1.684,11.362,11.362,0,0,1-1.49,1.339,7.36,7.36,0,0,1-1.546.9,4.3,4.3,0,0,1-1.534.358,3.126,3.126,0,0,1-.979-.1,2.947,2.947,0,0,1-.87-.372,2.035,2.035,0,0,1-.622-.622A1.791,1.791,0,0,1,87.919,200.349Z" transform="translate(-84.441 -197.653)"/>
        <path id="Path_86" data-name="Path 86" d="M95.626,205.7a1.006,1.006,0,0,1-.787-.22,1.951,1.951,0,0,1-.732-1.534,1.231,1.231,0,0,1,.3-.814,2.636,2.636,0,0,1,1.436-.33,2.22,2.22,0,0,1,1.187.427,2.584,2.584,0,0,1,.787.994,3,3,0,0,1,.262,1.394,6.155,6.155,0,0,1-.427,2.072q-.4,1.021-.787,2.013-.223.609-.442,1.256a5.345,5.345,0,0,0-.276,1.285,3.1,3.1,0,0,0,1.118-.525c.394-.277.8-.585,1.214-.925s.832-.681,1.256-1.022a6.692,6.692,0,0,1,1.27-.814c.018-.312.042-.63.069-.952a11.8,11.8,0,0,1,.442-2.139q.207-.636.456-1.3c.165-.441.34-.865.523-1.27a11.653,11.653,0,0,1,.553-1.076c.238-.294.487-.4.745-.318a1.2,1.2,0,0,1,.649.552,2.8,2.8,0,0,1,.358.98,1.594,1.594,0,0,1-.1.967,4.775,4.775,0,0,0-.4.621q-.207.373-.387.759c-.12.259-.235.511-.345.76s-.2.465-.276.649c-.111.256-.211.525-.3.8s-.184.562-.276.856a2,2,0,0,1,.87.855,4.092,4.092,0,0,1,.469,1.327,4.749,4.749,0,0,1,.028,1.435,2.674,2.674,0,0,1-.456,1.216c-.259.349-.511.519-.76.51a1.106,1.106,0,0,1-.7-.3,2.662,2.662,0,0,1-.567-.7,3.255,3.255,0,0,1-.318-.718c-.073-.312-.138-.616-.193-.91a7.219,7.219,0,0,1-.109-.938,1.839,1.839,0,0,1-.249.193,7.866,7.866,0,0,0-.885.757c-.33.322-.676.642-1.034.954a12.5,12.5,0,0,1-1.091.856,2.981,2.981,0,0,1-1.048.5,1.218,1.218,0,0,1-.938-.166,1.98,1.98,0,0,1-.718-1.1,1.959,1.959,0,0,1-.166-.664,2.837,2.837,0,0,1,.029-.69q.054-.468.138-.9a8.313,8.313,0,0,1,.22-.87q.22-.855.469-1.712t.469-1.711a1.307,1.307,0,0,1,.042-.235c.027-.12.051-.253.069-.4h-.193A1.8,1.8,0,0,0,95.626,205.7Zm6.82,4.474a6.406,6.406,0,0,0-.07,1.09,3.948,3.948,0,0,0,.153,1.009l.082-.084a2.659,2.659,0,0,0,.373-1.132.911.911,0,0,0-.511-.883Z" transform="translate(-81.352 -195.546)"/>
      </g>
      <g id="Group_85" data-name="Group 85" transform="translate(111.271 57.286)">
        <path id="Path_87" data-name="Path 87" d="M126.653,210.426a14.387,14.387,0,0,0-.609,4.474,1.187,1.187,0,0,1,.622.373,2.221,2.221,0,0,1,.414.676,1.927,1.927,0,0,1,.138.772.976.976,0,0,1-.235.636,1.893,1.893,0,0,1-.745.471.94.94,0,0,1-.759-.042,1.712,1.712,0,0,1-.58-.484,2.754,2.754,0,0,1-.387-.7,3.85,3.85,0,0,1-.207-.733,5.384,5.384,0,0,1-.054-1.559q.081-.841.192-1.586a16.069,16.069,0,0,1,.429-2.016q.288-1.05.676-2.112t.828-2.07q.443-1.007.912-1.892.441-.854.967-1.753a18.088,18.088,0,0,0,.925-1.81,9.945,9.945,0,0,0,.607-1.848,5.174,5.174,0,0,0,.069-1.877,2.4,2.4,0,0,0-.193-.6,2.925,2.925,0,0,0-.358-.565l-.333-.193a1.783,1.783,0,0,1-.247-.013,2.071,2.071,0,0,0-.249-.013,2.148,2.148,0,0,0-1.174.427,3.568,3.568,0,0,0-.828.91,5.318,5.318,0,0,0-.567,1.2c-.147.441-.276.874-.387,1.3q-.3.58-.663.525a1.063,1.063,0,0,1-.663-.441,2.611,2.611,0,0,1-.454-.953,1.785,1.785,0,0,1-.015-1.006c.073-.222.133-.406.18-.555s.1-.283.151-.412a3.589,3.589,0,0,1,.195-.387,5.552,5.552,0,0,1,.33-.5,8.274,8.274,0,0,1,.691-.841,4.369,4.369,0,0,1,.828-.733,3.459,3.459,0,0,1,1.892-.717,2.475,2.475,0,0,1,1.477.454,3.671,3.671,0,0,1,1.063,1.229,7.137,7.137,0,0,1,.649,1.6,3.464,3.464,0,0,1,.027,1.16,8.931,8.931,0,0,1-.276,1.339q-.193.677-.442,1.31c-.165.424-.3.774-.414,1.049q-.443,1-.912,2.057t-.924,2.168q-.457,1.1-.871,2.181T126.653,210.426Z" transform="translate(-123.66 -193.779)"/>
        <path id="Path_88" data-name="Path 88" d="M127.779,210.708a5.065,5.065,0,0,1,.276-1.354q.25-.744.538-1.532c.193-.525.373-1.052.54-1.588a6.977,6.977,0,0,0,.3-1.49,1.8,1.8,0,0,1-.69-1.021,1.33,1.33,0,0,1,.247-1.187,1.658,1.658,0,0,0,.3-.138.528.528,0,0,1,.276-.084,1.228,1.228,0,0,1,1.007.3,2.054,2.054,0,0,1,.538.912,4.343,4.343,0,0,1,.18,1.159,5.123,5.123,0,0,1-.069,1.049,10.278,10.278,0,0,1-.456,1.49c-.193.5-.4,1-.621,1.492s-.424.994-.607,1.492a7.38,7.38,0,0,0-.387,1.49,1.263,1.263,0,0,0-.027.3,1.563,1.563,0,0,0,.565-.234,6.89,6.89,0,0,0,1.007-.844,12.022,12.022,0,0,0,1.354-1.574,5.392,5.392,0,0,1-.166-.814,3.159,3.159,0,0,1,0-.841,9.262,9.262,0,0,1,.414-1.7,7.542,7.542,0,0,1,.816-1.685,5.344,5.344,0,0,1,1.228-1.337,3.48,3.48,0,0,1,1.657-.691.775.775,0,0,1,.58.373,1.842,1.842,0,0,1,.249.7l-.222.5h0a23.407,23.407,0,0,1-1.366,2.775,29.686,29.686,0,0,1-1.754,2.693,3.788,3.788,0,0,0,.7,1.339,3.271,3.271,0,0,0,1.228.926h.745a1.3,1.3,0,0,1,.787.469,2.593,2.593,0,0,1,.54.9,1.4,1.4,0,0,1,.04.885c-.082.265-.316.418-.7.454a5.114,5.114,0,0,1-1.574-.385,4.17,4.17,0,0,1-1.2-.789,5.367,5.367,0,0,1-.9-1.117,8.015,8.015,0,0,1-.663-1.382q-.717.886-1.49,1.672a19.488,19.488,0,0,1-1.63,1.478,2.426,2.426,0,0,1-.441-.055,1.525,1.525,0,0,1-.663-.5,2.345,2.345,0,0,1-.373-.759,3.558,3.558,0,0,1-.138-.885C127.757,211.275,127.761,210.984,127.779,210.708Zm6.157-5a2.323,2.323,0,0,0-.22.441l-.166.442,1.1-1.932A4.264,4.264,0,0,0,133.936,205.711Z" transform="translate(-121.612 -189.532)"/>
        <path id="Path_89" data-name="Path 89" d="M130.7,201.422a2.612,2.612,0,0,0,.415-.663,2.17,2.17,0,0,1-.3-.387,1.312,1.312,0,0,1-.18-.429.663.663,0,0,1,.042-.4.5.5,0,0,1,.3-.277.977.977,0,0,1,.649.111,1.575,1.575,0,0,1,.5.456,1.816,1.816,0,0,1,.289.649,1.746,1.746,0,0,1,.027.691,4.2,4.2,0,0,0,1.256-.58,6.8,6.8,0,0,0,1.063-.9,10.535,10.535,0,0,0,.94-1.1q.441-.594.828-1.172a.656.656,0,0,1,.622.109,2.192,2.192,0,0,1,.565.594,3.085,3.085,0,0,1,.373.774,1.082,1.082,0,0,1,.04.649,10.359,10.359,0,0,1-1.448,1.118,12.423,12.423,0,0,1-1.588.855q-.83.373-1.7.691c-.58.213-1.154.427-1.726.649a.483.483,0,0,1-.318-.055,1.3,1.3,0,0,1-.289-.222,2.029,2.029,0,0,1-.249-.3,1.624,1.624,0,0,1-.165-.3.116.116,0,0,0-.029-.084.843.843,0,0,1-.013-.249A.719.719,0,0,1,130.7,201.422Z" transform="translate(-120.196 -191.98)"/>
        <path id="Path_90" data-name="Path 90" d="M138.373,212.705a1.287,1.287,0,0,1-.456,1.187,1.263,1.263,0,0,1-1.049.193,1.678,1.678,0,0,1-.966-.691,1.78,1.78,0,0,1-.207-1.465,13.368,13.368,0,0,1,.952-2.967,2.984,2.984,0,0,1,1.063-1.312,1.2,1.2,0,0,1,1.118-.054,3.848,3.848,0,0,1,1.118.786,10.216,10.216,0,0,1,1.063,1.228q.511.693.939,1.256a6.482,6.482,0,0,0,.759.87c.222.2.4.222.525.057q.25-.8.525-1.684a6.019,6.019,0,0,0,.289-1.7,2.859,2.859,0,0,0-.358-1.478,2.446,2.446,0,0,0-1.423-1.021,3.5,3.5,0,0,0-1.13-.207,11.97,11.97,0,0,0-1.256.04c-.433.039-.861.079-1.285.124a7.626,7.626,0,0,1-1.214.042,1.9,1.9,0,0,1-1.172-.441.792.792,0,0,1-.126-1.022,2.849,2.849,0,0,1,.538-.774,2.426,2.426,0,0,1,.651-.442,5.573,5.573,0,0,1,.8-.289c.292-.084.616-.189.965-.318a20.757,20.757,0,0,1,2-.565q.924-.209,1.892-.331t2.043-.207q1.075-.083,2.4-.249a1.154,1.154,0,0,1,.745.469,2.08,2.08,0,0,1,.427.9,1.491,1.491,0,0,1-.069.883.783.783,0,0,1-.718.456,4.551,4.551,0,0,1-.51-.042c-.231-.027-.474-.055-.732-.082s-.5-.056-.732-.082a4.6,4.6,0,0,0-.511-.042q-.994-.027-1.85-.069a15.54,15.54,0,0,0-1.712.013,11.309,11.309,0,0,0-1.766.262,13.758,13.758,0,0,0-1.961.621,17.141,17.141,0,0,1,4.031-.247,5.25,5.25,0,0,1,2.513.759,2.967,2.967,0,0,1,1.214,1.712,6.957,6.957,0,0,1,.138,2.609,4.478,4.478,0,0,1-.207.94,10.141,10.141,0,0,1-.456,1.187,11.118,11.118,0,0,1-.594,1.132,2.7,2.7,0,0,1-.648.772.856.856,0,0,1-.927.166,3.672,3.672,0,0,1-1.048-.649,10.644,10.644,0,0,1-1.091-1.078c-.369-.414-.717-.786-1.049-1.118a4.77,4.77,0,0,0-.923-.745.635.635,0,0,0-.733-.027,1.763,1.763,0,0,0-.51.594,1.992,1.992,0,0,0-.22.663,1.174,1.174,0,0,0,.027.525c.045.138.124.2.235.178a.457.457,0,0,1,.343.07.659.659,0,0,1,.193.234.787.787,0,0,1,.084.277Q138.373,212.649,138.373,212.705Z" transform="translate(-117.683 -190.037)"/>
        <path id="Path_91" data-name="Path 91" d="M138.049,200.349a1.563,1.563,0,0,1,.414-.994.933.933,0,0,1,1.367.013,1.026,1.026,0,0,1,.289.759l.028.249c-.24.351-.336.6-.291.732s.18.2.4.18a2.792,2.792,0,0,0,.856-.262,6.043,6.043,0,0,0,1.049-.607,6.461,6.461,0,0,0,.967-.843,2.937,2.937,0,0,0,.634-.994,1.722,1.722,0,0,1,.732-.565,4,4,0,0,1,1.036-.318,2.632,2.632,0,0,1,.883-.015c.24.048.331.163.276.346a12.623,12.623,0,0,1-1.339,1.684,11.358,11.358,0,0,1-1.49,1.339,7.369,7.369,0,0,1-1.547.9,4.289,4.289,0,0,1-1.532.358,3.122,3.122,0,0,1-.979-.1,2.947,2.947,0,0,1-.87-.372,2.019,2.019,0,0,1-.622-.622A1.792,1.792,0,0,1,138.049,200.349Z" transform="translate(-116.476 -191.845)"/>
        <path id="Path_92" data-name="Path 92" d="M144.823,208.779a1.394,1.394,0,0,1-.345-.745,3.461,3.461,0,0,1-.069-1.118,2.18,2.18,0,0,1,.318-.982.777.777,0,0,1,.841-.33,2.614,2.614,0,0,1,.994.772,5.665,5.665,0,0,1,.663,1.091,7.8,7.8,0,0,1,.456,1.256c.12.442.243.874.372,1.3q.139.524.235.9a4.832,4.832,0,0,0,.318.843h.055a3.325,3.325,0,0,0,.883-1.091,10.173,10.173,0,0,0,.552-1.283q.193-.5.387-1.063a8.288,8.288,0,0,0,.3-1.159,6.6,6.6,0,0,0,.109-1.2,4.284,4.284,0,0,0-.165-1.187.523.523,0,0,0-.207.22c-.046.093-.1.193-.151.3a.675.675,0,0,1-.733.138,1.287,1.287,0,0,1-.523-.538,2.427,2.427,0,0,1-.277-.829,2.028,2.028,0,0,1,.013-.786,1.891,1.891,0,0,1,1.1-.87,1.263,1.263,0,0,1,.994.22,2.572,2.572,0,0,1,.76.925,4.319,4.319,0,0,1,.427,1.186,6.016,6.016,0,0,1,.055,1.823,10.813,10.813,0,0,1-.4,1.892,16.718,16.718,0,0,1-.691,1.863c-.267.607-.537,1.177-.814,1.712-.147.258-.312.579-.5.965a1.74,1.74,0,0,1-.747.829.745.745,0,0,1-.579.084,1.18,1.18,0,0,1-.5-.3,2.538,2.538,0,0,1-.387-.5c-.109-.184-.2-.349-.276-.5a8.872,8.872,0,0,1-.358-.938q-.193-.578-.442-1.159a7.6,7.6,0,0,0-.552-1.063,2.314,2.314,0,0,0-.634-.7c-.093-.018-.153,0-.181.055S145.007,208.852,144.823,208.779Z" transform="translate(-113.31 -189.479)"/>
        <path id="Path_93" data-name="Path 93" d="M156.2,206.336a1.522,1.522,0,0,1,.58.51,2.728,2.728,0,0,1,.441.858,1.393,1.393,0,0,1,.015.841c-.084.258-.318.406-.7.442l-.165-.027c-.148-.018-.286.142-.415.483s-.289.765-.483,1.27a13.343,13.343,0,0,1-.732,1.574,3.955,3.955,0,0,1-1.16,1.339.693.693,0,0,1-.387-.04,2.637,2.637,0,0,1-.33-.207,3.492,3.492,0,0,1-.622-.994,9.137,9.137,0,0,1-.441-1.271q-.18-.663-.291-1.325a10.621,10.621,0,0,1-.138-1.214,9.474,9.474,0,0,1,.111-2.057,7.223,7.223,0,0,1,.634-1.974,3.4,3.4,0,0,1,1.63-1.505,7.491,7.491,0,0,1,2.444-.676,9.821,9.821,0,0,1,2.6.069,5.385,5.385,0,0,1,2.057.7,4.523,4.523,0,0,1,1.615,1.712,4.641,4.641,0,0,1,.511,2.153,7.216,7.216,0,0,1-.456,2.43,13.878,13.878,0,0,1-1.229,2.54c-.2.331-.423.673-.663,1.022a10.32,10.32,0,0,1-.744.967.732.732,0,0,1-.816.1,1.6,1.6,0,0,1-.649-.636,2.093,2.093,0,0,1-.276-.965,1.241,1.241,0,0,1,.276-.9,5.481,5.481,0,0,0,.538-.58q.456-.524.967-1.243a11.957,11.957,0,0,0,.912-1.505,2.823,2.823,0,0,0,.372-1.366,3.085,3.085,0,0,0-.718-1.863,3.807,3.807,0,0,0-1.559-1.078,5.4,5.4,0,0,0-2.03-.316,5.806,5.806,0,0,0-2.1.441,5.1,5.1,0,0,0-.816.415,2.373,2.373,0,0,0-.594.636,2.969,2.969,0,0,0-.454,1.255,9.707,9.707,0,0,0-.111,1.7,12.652,12.652,0,0,0,.151,1.793,12.3,12.3,0,0,0,.331,1.549,3.926,3.926,0,0,0,.759-1.6c.157-.643.3-1.256.442-1.835a4.007,4.007,0,0,1,.567-1.381A.882.882,0,0,1,156.2,206.336Z" transform="translate(-109.834 -189.523)"/>
        <path id="Path_94" data-name="Path 94" d="M165.327,204.021a6.02,6.02,0,0,1,.372,1.766,7.676,7.676,0,0,1-.069,1.562,8.137,8.137,0,0,1-.289,1.255q-.18.553-.289.883l.579.358q.636.389,1.132.7a5.013,5.013,0,0,1,1,.87c.127-.423.256-.891.385-1.406s.244-1.04.345-1.574.193-1.067.276-1.6.153-1.031.207-1.492c.057-.423.129-.888.222-1.394a3.278,3.278,0,0,1,.525-1.312c.238-.292.478-.4.718-.316a1.234,1.234,0,0,1,.621.537,2.643,2.643,0,0,1,.358.967,1.492,1.492,0,0,1-.1.94,2.262,2.262,0,0,0-.567,1.2q-.124.731-.234,1.283-.139.634-.3,1.45t-.387,1.642q-.223.83-.5,1.588a9.392,9.392,0,0,1-.58,1.312.317.317,0,0,0-.138.111.191.191,0,0,0-.082.013.11.11,0,0,1-.056.015,1.015,1.015,0,0,1-.331-.042.993.993,0,0,1-.249-.151c-.165-.166-.322-.333-.469-.5s-.294-.322-.441-.468a10.871,10.871,0,0,0-1.1-.913,13.031,13.031,0,0,0-1.243-.8,8.618,8.618,0,0,1-.594,1.4,7.891,7.891,0,0,1-.87,1.31,3.012,3.012,0,0,1-.387.373.994.994,0,0,1-.745.261,1.537,1.537,0,0,1-1.379-.966,3.353,3.353,0,0,1-.318-1.271,2.484,2.484,0,0,1,.289-1.325,2.25,2.25,0,0,1,.345-.523,3.577,3.577,0,0,1,.538-.511,2.415,2.415,0,0,1,.622-.358,1.342,1.342,0,0,1,.621-.1,1.323,1.323,0,0,1,.3.109q.164-.358.454-1.075a10.608,10.608,0,0,0,.457-1.381,2.79,2.79,0,0,0,.1-1.078q-.07-.412-.622-.219a1.015,1.015,0,0,1-.745-.3,1.57,1.57,0,0,1-.414-.718,1.688,1.688,0,0,1-.013-.829,1.09,1.09,0,0,1,.454-.663,1.377,1.377,0,0,1,.926-.316,1.361,1.361,0,0,1,.759.316,2.632,2.632,0,0,1,.565.663A3.563,3.563,0,0,1,165.327,204.021Zm-2.624,5.743a.612.612,0,0,0-.552-.015.9.9,0,0,0-.36.429.631.631,0,0,0-.069.331.6.6,0,0,0,.1.289.345.345,0,0,0,.18.153c.064.016.114-.009.151-.084.109-.2.2-.382.276-.538S162.594,209.985,162.7,209.765Z" transform="translate(-105.349 -189.527)"/>
      </g>
      <g id="Group_87" data-name="Group 87" transform="translate(16.185 45.857)">
        <g id="Group_86" data-name="Group 86">
          <path id="Path_95" data-name="Path 95" d="M62.451,188.589l-.013-.066.021.148a.652.652,0,0,1-.006-.094l-.3.526a1.013,1.013,0,0,0,.24-.174.948.948,0,0,0,.226-.4c.01-.033.021-.066.034-.1l-.091.216a.879.879,0,0,1,.115-.195l-.153.2a.9.9,0,0,1,.16-.159l-.211.163a.788.788,0,0,1,.162-.094l-.265.112a.747.747,0,0,1,.18-.049l-.312.042a.678.678,0,0,1,.156,0l-.325-.043a.711.711,0,0,1,.165.046l-.3-.129a.858.858,0,0,1,.145.088l-.27-.208a1.649,1.649,0,0,1,.229.24l-.22-.285a.934.934,0,0,1,.121.208l-.145-.345a.944.944,0,0,1,.06.211l-.052-.391a.868.868,0,0,1,0,.216l.054-.4a.757.757,0,0,1-.042.151l.153-.363a.373.373,0,0,1-.049.085l.921-.708c-.058.02-.12.027-.18.043a1.188,1.188,0,0,1-.178.043l.42-.057a.989.989,0,0,1-.258,0l.42.057a1.293,1.293,0,0,1-.289-.079l.378.159a1.334,1.334,0,0,1-.28-.16l.321.247c-.048-.037-.091-.078-.136-.118-.138-.126-.3-.22-.445-.331l.312.24a1.029,1.029,0,0,1-.178-.174l.229.3-.037-.052a1.29,1.29,0,0,0-.376-.412c.1.078-.111-.093-.157-.12a1.605,1.605,0,0,0-.393-.178,1.11,1.11,0,0,0-.531-.027l-.172.023-.312.132-.013.006c-.025.017-.253.195-.274.213a1.873,1.873,0,0,0-.117.151c-.043.057-.093.115-.135.177a1.145,1.145,0,0,0-.16.373,2.612,2.612,0,0,0-.051.4v.027a4.086,4.086,0,0,0,.066.505,2.69,2.69,0,0,0,.234.609,1.012,1.012,0,0,0,.147.21,1.9,1.9,0,0,0,.162.2,3.214,3.214,0,0,0,.262.21,2.092,2.092,0,0,0,.387.262,2.814,2.814,0,0,0,1.3.325,3.679,3.679,0,0,0,.558-.07.8.8,0,0,0,.142-.037,2.008,2.008,0,0,0,.786-.466,1.407,1.407,0,0,0,.174-.208l.12-.156.154-.367a3.427,3.427,0,0,0,.061-.448l-.055.408a3.489,3.489,0,0,0,.069-.543c0-.027,0-.052,0-.079-.015-.151-.033-.307-.063-.456a2.672,2.672,0,0,0-.19-.484.966.966,0,0,0-.073-.141,2.139,2.139,0,0,0-.43-.513,2.74,2.74,0,0,0-.4-.3l-.036-.016a2.358,2.358,0,0,0-.349-.145l-.085-.016a2.108,2.108,0,0,0-.962.012,2.161,2.161,0,0,0-.414.169,1.912,1.912,0,0,0-.349.256.628.628,0,0,0-.09.088,2.083,2.083,0,0,0-.249.334,2.914,2.914,0,0,0-.156.358.955.955,0,0,0-.039.142,1.95,1.95,0,0,0-.025.678,1.435,1.435,0,0,0,.049.264,1.076,1.076,0,0,0,.237.421.845.845,0,0,0,.669.247L61.4,189a1.211,1.211,0,0,0,.276.187.661.661,0,0,0,.265.072.513.513,0,0,0,.319-.114.527.527,0,0,0,.189-.553Z" transform="translate(-60.235 -186.156)" fill="#1a1818"/>
        </g>
      </g>
      <g id="Group_89" data-name="Group 89" transform="translate(31.6 46.336)">
        <g id="Group_88" data-name="Group 88">
          <path id="Path_96" data-name="Path 96" d="M72.671,189.1l-.039-.045.114.147a.8.8,0,0,1-.1-.177l.084.2a.878.878,0,0,1-.057-.213l.033.249a2.887,2.887,0,0,0-.049-.453,1.6,1.6,0,0,1-.049-.223l.037.276a1.4,1.4,0,0,1,0-.336l-.037.283c.018-.129.036-.258.052-.388l-.037.285a1.282,1.282,0,0,1,.079-.3l-.108.255a1.173,1.173,0,0,1,.133-.229l-.168.217a1,1,0,0,1,.159-.159l-.217.168a1.007,1.007,0,0,1,.186-.109l-.255.108a.959.959,0,0,1,.231-.063l-.285.039a1.027,1.027,0,0,1,.235,0l-.285-.037a1.172,1.172,0,0,1,.3.082l-.256-.108a1.464,1.464,0,0,1,.273.16l-.217-.166a1.44,1.44,0,0,1,.226.222l-.168-.216a1.207,1.207,0,0,1,.159.268l-.108-.256a.518.518,0,0,1,.036.112l-.037-.285a.968.968,0,0,1-.009.186l.04-.3a.966.966,0,0,1-.055.2l.117-.279a.836.836,0,0,1-.1.177l.19-.246c-.1.126-.2.25-.294.378l.192-.249a.905.905,0,0,1-.156.156l.249-.192a1.046,1.046,0,0,1-.225.13l.294-.123a1.324,1.324,0,0,1-.313.084l.327-.043a1.317,1.317,0,0,1-.343,0l.327.043a1.192,1.192,0,0,1-.27-.072l.294.124a.967.967,0,0,1-.2-.117l.249.193a2.824,2.824,0,0,0-.333-.253,1.1,1.1,0,0,1-.1-.061l.238.184a.784.784,0,0,1-.123-.121l.175.226a.691.691,0,0,1-.052-.076,1.1,1.1,0,0,0-.522-.445,1.05,1.05,0,0,0-.709-.055,1.314,1.314,0,0,0-.48.28,1.22,1.22,0,0,0-.319.771.77.77,0,0,0,0,.144,2.1,2.1,0,0,0,.064.432,2.354,2.354,0,0,0,.163.4,1.507,1.507,0,0,0,.522.52,2.254,2.254,0,0,0,1.144.352,2.559,2.559,0,0,0,.624-.054,1.421,1.421,0,0,0,.294-.081,2.506,2.506,0,0,0,.775-.454,1.8,1.8,0,0,0,.382-.459,1.885,1.885,0,0,0,.13-.312l.012-.043a.8.8,0,0,0,.017-.082,2.09,2.09,0,0,0,.048-.489,2.276,2.276,0,0,0-.078-.5,4.066,4.066,0,0,0-.189-.441l.109.256a2.1,2.1,0,0,0-.286-.6,2.95,2.95,0,0,0-.279-.345,2.873,2.873,0,0,0-.366-.3,2.209,2.209,0,0,0-.6-.289,1.345,1.345,0,0,0-.186-.045,2.393,2.393,0,0,0-.474-.048,2.08,2.08,0,0,0-.888.235.881.881,0,0,0-.142.09,2.065,2.065,0,0,0-.336.279,1.972,1.972,0,0,0-.336.484,2.359,2.359,0,0,0-.211.708,2.155,2.155,0,0,0,.049.789,1.383,1.383,0,0,0,.06.189c.043.108.087.217.138.321a1.142,1.142,0,0,0,.4.412l-.2-.157a2.17,2.17,0,0,0,.672.4,1.362,1.362,0,0,0,.526.073.706.706,0,0,0,.5-1.2Z" transform="translate(-70.517 -186.475)" fill="#1a1818"/>
        </g>
      </g>
      <g id="Group_96" data-name="Group 96" transform="translate(83.623 62.632)">
        <g id="Group_91" data-name="Group 91" transform="translate(0 9.778)">
          <g id="Group_90" data-name="Group 90">
            <path id="Path_97" data-name="Path 97" d="M105.618,207.963a15.26,15.26,0,0,0,11.373,3.4,17.782,17.782,0,0,0,5.974-1.625c1.754-.831,3.78-2.075,4.652-3.88.544-1.121-.6-2.517-1.795-1.795-1.459.883-2.643,2.1-4.18,2.88a13.582,13.582,0,0,1-4.787,1.394,14.854,14.854,0,0,1-9.674-2.4c-1.2-.8-2.691,1.076-1.564,2.027Z" transform="translate(-105.218 -203.867)" fill="#fbaf00"/>
          </g>
        </g>
        <g id="Group_93" data-name="Group 93" transform="translate(2.601 0.214)">
          <g id="Group_92" data-name="Group 92">
            <path id="Path_98" data-name="Path 98" d="M110.987,199.663v0a1.712,1.712,0,0,0-1.2-1.2l-.042-.015.412.174a.572.572,0,0,1-.1-.063l.355.274a2.979,2.979,0,0,0-.441-.345.768.768,0,0,1-.109-.072l.357.277a.967.967,0,0,1-.151-.151l.273.354a1.215,1.215,0,0,1-.121-.21,1.619,1.619,0,0,0-.375-.537,2.726,2.726,0,0,0-1.021-.61,1.487,1.487,0,0,0-.786,0,1.482,1.482,0,0,0-1.031,1.031,1.486,1.486,0,0,0,0,.786c.006.024.011.049.015.075l-.055-.4a2.407,2.407,0,0,1-.012.36l.06.456.007.025.015.052.027.094a4.369,4.369,0,0,0,.232.589.9.9,0,0,0,.1.168,2.906,2.906,0,0,0,.4.492,1.947,1.947,0,0,0,.835.492,4.334,4.334,0,0,0,.538.076,1.855,1.855,0,0,0,.622-.067,1.543,1.543,0,0,0,1.226-1.426,1.287,1.287,0,0,0-.03-.678Z" transform="translate(-106.953 -197.488)" fill="#fbaf00"/>
          </g>
        </g>
        <g id="Group_95" data-name="Group 95" transform="translate(14.411)">
          <g id="Group_94" data-name="Group 94">
            <path id="Path_99" data-name="Path 99" d="M117.606,200.174l0-.036-.042.3a1.02,1.02,0,0,1,.051-.19l-.886.886.019,0a1.4,1.4,0,0,0,.621-.361,1.421,1.421,0,0,0,.363-.622,1.235,1.235,0,0,1,.049-.142l-.147.348.021-.048-.883.679.04-.009.375-.159a1.189,1.189,0,0,0,.441-.4.794.794,0,0,0,.2-.346,1.171,1.171,0,0,0,.135-.606,1.3,1.3,0,0,1,.012-.151l-.055.409a1.271,1.271,0,0,1,.079-.3l-.148.354a1.148,1.148,0,0,1,.142-.25l-.222.288c.094-.118.193-.232.28-.36l.141-.334.051-.373-.051-.372a1.074,1.074,0,0,0-.25-.478,1.422,1.422,0,0,0-.561-.432.7.7,0,0,0-.354-.094,1.059,1.059,0,0,0-.559.024,1.868,1.868,0,0,0-.517.247,2.959,2.959,0,0,0-.451.369,3.492,3.492,0,0,0-.364.474,3.7,3.7,0,0,0-.255.562l-.055.417a1.171,1.171,0,0,0,.135.606.809.809,0,0,0,.2.346,1.19,1.19,0,0,0,.441.4l.032.018-.681-.883c.012.048.025.1.042.144a3.25,3.25,0,0,0,.162.39,1.381,1.381,0,0,0,.9.658l-.556-.324a1.132,1.132,0,0,0,.088.081,3.326,3.326,0,0,0,.316.241,1.127,1.127,0,0,0,1.693-.971Z" transform="translate(-114.83 -197.345)" fill="#fbaf00"/>
          </g>
        </g>
      </g>
      <g id="Group_98" data-name="Group 98" transform="translate(13.307 56.6)">
        <g id="Group_97" data-name="Group 97">
          <path id="Path_100" data-name="Path 100" d="M58.579,194.94c3.334,3.679,7.614,7.271,12.823,7.488,4.1.171,9.156-1.639,10.049-6.124.27-1.354-1.694-2.411-2.376-1a8.312,8.312,0,0,1-8.084,4.8c-4.373-.322-8.049-3.633-11.07-6.51a.949.949,0,0,0-1.342,1.342Z" transform="translate(-58.315 -193.322)" fill="#1a1818"/>
        </g>
      </g>
      <g id="Group_100" data-name="Group 100" transform="translate(37.235 53.196)">
        <g id="Group_99" data-name="Group 99">
          <path id="Path_101" data-name="Path 101" d="M74.567,193.746a5.73,5.73,0,0,1,.3-.528,3.649,3.649,0,0,0,.289-.6c.081-.193.163-.385.244-.579a2.027,2.027,0,0,0,.087-.3.749.749,0,0,0,.016-.418.366.366,0,0,0-.532-.217.666.666,0,0,0-.195.193,1.473,1.473,0,0,0-.075.18,2.56,2.56,0,0,0-.112.292c-.055.2-.094.4-.141.607a3.7,3.7,0,0,0-.114.651,5.275,5.275,0,0,1-.06.594c-.025.162.2.3.289.121Z" transform="translate(-74.276 -191.051)" fill="#1a1818"/>
        </g>
      </g>
      <g id="Group_102" data-name="Group 102" transform="translate(38.695 53.007)">
        <g id="Group_101" data-name="Group 101">
          <path id="Path_102" data-name="Path 102" d="M75.529,194.385c.345.13.634-.42.736-.669.094-.231.19-.463.277-.7s.172-.469.258-.7a1.7,1.7,0,0,0,.186-.971.564.564,0,0,0-.4-.4.583.583,0,0,0-.553.145,1.845,1.845,0,0,0-.381.907c-.069.258-.141.514-.208.774a4.9,4.9,0,0,0-.19.862c-.018.273-.03.639.271.751Z" transform="translate(-75.25 -190.925)" fill="#1a1818"/>
        </g>
      </g>
      <g id="Group_104" data-name="Group 104" transform="translate(40.343 53.505)">
        <g id="Group_103" data-name="Group 103">
          <path id="Path_103" data-name="Path 103" d="M77.2,194.267c.154-.364.31-.729.465-1.093a11.866,11.866,0,0,0,.435-1.223.556.556,0,0,0-.385-.678.565.565,0,0,0-.676.384,10.532,10.532,0,0,0-.375,1.118c-.1.381-.2.76-.3,1.139a.459.459,0,0,0,.264.54.452.452,0,0,0,.571-.187Z" transform="translate(-76.349 -191.257)" fill="#1a1818"/>
        </g>
      </g>
      <g id="Group_106" data-name="Group 106" transform="translate(9.127 50.703)">
        <g id="Group_105" data-name="Group 105">
          <path id="Path_104" data-name="Path 104" d="M56.215,192.428a1.643,1.643,0,0,0,.187-.369c.018-.054.037-.106.057-.159l.039-.1c-.016.043-.013.033,0,0,.033-.076.067-.153.1-.229l.031-.079c.049-.124-.025.053.007-.018.051-.108.1-.216.154-.322.106-.2.216-.408.336-.606a3.592,3.592,0,0,0,.352-.7.361.361,0,0,0-.129-.382.372.372,0,0,0-.4-.028,1.912,1.912,0,0,0-.649.6,3.572,3.572,0,0,0-.388.651,4.118,4.118,0,0,0-.285.769c-.028.123-.052.247-.072.372a1.174,1.174,0,0,0-.028.259,2.183,2.183,0,0,0,.045.259.355.355,0,0,0,.642.084Z" transform="translate(-55.527 -189.388)" fill="#1a1818"/>
        </g>
      </g>
      <g id="Group_108" data-name="Group 108" transform="translate(10.808 51.335)">
        <g id="Group_107" data-name="Group 107">
          <path id="Path_105" data-name="Path 105" d="M57.39,192.473c.156-.327.313-.652.471-.979a2.909,2.909,0,0,0,.378-1.219.474.474,0,0,0-.288-.429.465.465,0,0,0-.513.1c-.03.036-.061.072-.091.109a.775.775,0,0,0-.153.267l-.1.258a4.231,4.231,0,0,0-.163.523l-.27,1.066a.4.4,0,0,0,.231.469.4.4,0,0,0,.5-.163Z" transform="translate(-56.648 -189.81)" fill="#1a1818"/>
        </g>
      </g>
      <g id="Group_110" data-name="Group 110" transform="translate(11.863 52.164)">
        <g id="Group_109" data-name="Group 109">
          <path id="Path_106" data-name="Path 106" d="M58.065,192.952c.177-.324.36-.646.532-.974s.322-.669.483-1a.411.411,0,0,0-.709-.414c-.169.328-.354.652-.511.986s-.309.678-.463,1.015a.4.4,0,0,0,.139.529.392.392,0,0,0,.529-.139Z" transform="translate(-57.352 -190.363)" fill="#1a1818"/>
        </g>
      </g>
      <g id="Group_112" data-name="Group 112" transform="translate(15.154 24.99)">
        <g id="Group_111" data-name="Group 111">
          <path id="Path_107" data-name="Path 107" d="M60.157,176.117c1.826-.583,3.592-1.283,5.468-1.721a25.533,25.533,0,0,1,6.072-.658,33.835,33.835,0,0,1,6.13.658c1.971.384,3.908,1.06,5.9,1.3.624.073.877-.928.322-1.189a24.93,24.93,0,0,0-6.166-1.654,35.17,35.17,0,0,0-6.366-.613c-3.919.018-8.421.768-11.746,2.97-.45.3-.18,1.091.384.91Z" transform="translate(-59.547 -172.237)" fill="#1a1818"/>
        </g>
      </g>
      <g id="Group_114" data-name="Group 114" transform="translate(7.702 8.97)">
        <g id="Group_113" data-name="Group 113">
          <path id="Path_108" data-name="Path 108" d="M63,179.388a19.306,19.306,0,0,0-2.441-3.486c-.817-1.069-1.663-2.123-2.444-3.219-1.472-2.06-2.789-4.823-1.385-7.264a4.542,4.542,0,0,1,2.048-2.214,3.151,3.151,0,0,1,3.145.811,28.41,28.41,0,0,1,3.669,6.643c.268.634,1.325.181,1.114-.469a26.11,26.11,0,0,0-3.121-6.445,4.225,4.225,0,0,0-2.357-1.913,4.648,4.648,0,0,0-3.057-.04,6.636,6.636,0,0,0-3.489,4.689,8.846,8.846,0,0,0,1.867,6.607c.832,1.189,1.781,2.289,2.709,3.4a21.152,21.152,0,0,0,3.157,3.483c.382.289.738-.247.585-.585Z" transform="translate(-54.577 -161.551)" fill="#1a1818"/>
        </g>
      </g>
      <g id="Group_116" data-name="Group 116" transform="translate(17.835)">
        <g id="Group_115" data-name="Group 115">
          <path id="Path_109" data-name="Path 109" d="M62.894,172.055a25.994,25.994,0,0,0-.4-3.483,14.586,14.586,0,0,1,.189-3.418A12.756,12.756,0,0,1,64.9,159.3a5.194,5.194,0,0,1,5.31-2.114,7.43,7.43,0,0,1,4.815,3.947c1.292,2.532,1.249,5.34,1.3,8.1a.726.726,0,0,0,1.451,0c.567-5.135-1.036-11.431-6.429-13.3a6.547,6.547,0,0,0-6.541,1.315,10.892,10.892,0,0,0-3.132,6.241,17.378,17.378,0,0,0-.309,4.4,8.228,8.228,0,0,0,1.249,4.241.148.148,0,0,0,.273-.073Z" transform="translate(-61.336 -155.568)" fill="#1a1818"/>
        </g>
      </g>
      <g id="Group_118" data-name="Group 118" transform="translate(33.87 8.032)">
        <g id="Group_117" data-name="Group 117">
          <path id="Path_110" data-name="Path 110" d="M72.625,167.9c.882-.669,1.645-1.528,2.487-2.252a29.736,29.736,0,0,1,2.863-2.225c.947-.633,2.189-1.361,3.369-1a2.966,2.966,0,0,1,1.844,2.433c.375,2.177-.471,4.731-1.411,6.674a19.259,19.259,0,0,1-3.823,5.147c-.706.715.328,1.673,1.076,1.078a15.793,15.793,0,0,0,4.513-6.282c.989-2.373,1.868-5.517.816-8a4.16,4.16,0,0,0-2.414-2.381,4.62,4.62,0,0,0-3.726.621,20.179,20.179,0,0,0-3.331,2.559,14.268,14.268,0,0,0-2.809,3.079c-.187.319.214.8.546.544Z" transform="translate(-72.031 -160.925)" fill="#1a1818"/>
        </g>
      </g>
    </g>
    <g id="Group_129" data-name="Group 129" transform="translate(71.02 161.424)">
      <g id="Group_125" data-name="Group 125" transform="translate(0.078 7.92)">
        <g id="Group_120" data-name="Group 120" transform="translate(0 0.747)">
          <path id="Path_111" data-name="Path 111" d="M63.658,168.946h-.532v.418h.532a.2.2,0,0,1,.2.2v.172a.779.779,0,0,0-.384-.1.8.8,0,0,0-.792.813v.371a.793.793,0,1,0,1.586,0v-1.254A.616.616,0,0,0,63.658,168.946Zm.2,1.877a.383.383,0,1,1-.767,0v-.371a.383.383,0,1,1,.767,0v.371Z" transform="translate(-62.68 -168.946)" fill="#181617"/>
        </g>
        <g id="Group_121" data-name="Group 121" transform="translate(3.583 0.747)">
          <path id="Path_112" data-name="Path 112" d="M67.9,170.637v-1.069a.616.616,0,0,0-.608-.623h-.532v.418h.532a.2.2,0,0,1,.2.2v.172a.766.766,0,0,0-.383-.1.8.8,0,0,0-.792.814v.37a.793.793,0,1,0,1.585,0Zm-.41.185a.384.384,0,1,1-.767,0v-.37a.383.383,0,1,1,.767,0v.37Z" transform="translate(-66.311 -168.946)" fill="#181617"/>
        </g>
        <g id="Group_122" data-name="Group 122" transform="translate(6.658 0.747)">
          <path id="Path_113" data-name="Path 113" d="M70.219,171.635a.8.8,0,0,0,.791-.813v-1.253a.615.615,0,0,0-.607-.623h-.532v.418H70.4a.2.2,0,0,1,.2.2v.172a.775.775,0,0,0-.384-.1.8.8,0,0,0-.792.814v.37A.8.8,0,0,0,70.219,171.635Zm-.384-1.183a.384.384,0,1,1,.768,0v.37a.384.384,0,1,1-.768,0Z" transform="translate(-69.427 -168.946)" fill="#181617"/>
        </g>
        <g id="Group_123" data-name="Group 123" transform="translate(5.527 0.747)">
          <path id="Path_114" data-name="Path 114" d="M68.69,169.569a.2.2,0,0,1,.2-.2h.532v-.418h-.532a.616.616,0,0,0-.607.623v2.024h.409Z" transform="translate(-68.281 -168.946)" fill="#181617"/>
        </g>
        <g id="Group_124" data-name="Group 124" transform="translate(1.981)">
          <path id="Path_115" data-name="Path 115" d="M66.3,171.582l-1.1-1.335,1.07-1.3h-.535l-.639.776v-1.533h-.408v3.394H65.1v-.809l.667.809Z" transform="translate(-64.687 -168.188)" fill="#181617"/>
        </g>
      </g>
      <g id="Group_128" data-name="Group 128">
        <g id="Group_126" data-name="Group 126">
          <path id="Path_116" data-name="Path 116" d="M64.439,161.009c4.426-3.351,10.254,6.221,2.979,6.8a4.923,4.923,0,0,1-3.909-1.249C62,164.929,62.92,162.16,64.439,161.009Z" transform="translate(-62.603 -160.164)" fill="#ffb600"/>
          <path id="Path_117" data-name="Path 117" d="M66.992,167.957a4.864,4.864,0,0,1-3.584-1.305,3.185,3.185,0,0,1-.791-2.516,4.738,4.738,0,0,1,1.739-3.237h0a3.521,3.521,0,0,1,4.28-.025c1.682,1.122,2.679,3.236,2.27,4.811-.338,1.3-1.574,2.107-3.477,2.259C67.3,167.953,67.15,167.957,66.992,167.957Zm-.532-7.521a3.188,3.188,0,0,0-1.941.679h0a4.453,4.453,0,0,0-1.632,3.044,2.945,2.945,0,0,0,.72,2.308,4.87,4.87,0,0,0,3.8,1.207c1.8-.144,2.921-.855,3.234-2.057.382-1.47-.565-3.455-2.158-4.517A3.646,3.646,0,0,0,66.46,160.436Z" transform="translate(-62.601 -160.163)" fill="#fff"/>
        </g>
        <g id="Group_127" data-name="Group 127" transform="translate(1.059 0.698)">
          <path id="Path_118" data-name="Path 118" d="M70.261,165.155a2.453,2.453,0,0,1-1.311.462,2.28,2.28,0,0,1-.3-.024.68.68,0,0,1-.526-.339,2.719,2.719,0,0,1-.1-1.737c.119-.678.225-1.256.248-1.319a.235.235,0,0,0-.044-.21c-.117-.171-.381-.407-.518-.407a.157.157,0,0,0-.058.013l0,0a5.019,5.019,0,0,1-1.071.448c0-.009.016-1.117-.37-1.159a.8.8,0,0,0-.1-.015.418.418,0,0,0-.245.077c-.124.1-.112.279-.1.526,0,.034,0,.069.008.107a5.15,5.15,0,0,1-.02.764,2.335,2.335,0,0,1-.565.048,2.374,2.374,0,0,1-.437-.058,1.23,1.23,0,0,1-.148-.041.727.727,0,0,0-.221-.039.285.285,0,0,0-.095.015.262.262,0,0,0-.176.287c.025.226.165.364.422.471a3.136,3.136,0,0,0,1.006.167,4.779,4.779,0,0,1-1.583,2.562c-.131.133-.3.255-.287.43a.215.215,0,0,0,.162.216,1.34,1.34,0,0,0,.975-.437,4.821,4.821,0,0,0,1.666-2.864c.211-.074.486-.155.662-.214a11.732,11.732,0,0,0-.158,2.168,1.65,1.65,0,0,0,.837,1.455,2.013,2.013,0,0,0,.638.2c.043,0,.092.006.134.006h0a1.7,1.7,0,0,0,1.333-.594,2.573,2.573,0,0,0,.459-.8.215.215,0,0,1,.016-.041l.106-.266Z" transform="translate(-63.674 -160.87)" fill="#fff"/>
        </g>
      </g>
    </g>
  </g>
</svg>
