<svg xmlns="http://www.w3.org/2000/svg" viewBox="0 0 544.52 289.25"><defs><style>.cls-1{fill:#f4ddc3;}.cls-2{fill:#fff;}.cls-3{fill:#231f20;}.cls-4{fill:#211e1f;}.cls-5{fill:#ffc523;}</style></defs><g id="Layer_2" data-name="Layer 2"><g id="Layer_1-2" data-name="Layer 1"><path class="cls-1" d="M92.6,95.81s39.3,12,49,69.07-.84,93.59-42.66,113.17-81-15.81-89.35-49.49S-1.16,116.35,66.29,91.28C66.29,91.28,81.72,87,92.6,95.81Z"/><path class="cls-2" d="M42.59,36.6l-.36.11.92,1.53c1.91-2.36,3.54-4.93,5.48-7.28s4.08-4.59,6.2-6.8l-2.95-2.85c-4.61,6-9.06,12-13.89,17.77l3.75,2.1a52.35,52.35,0,0,1,7.11-11.61L45.33,27a46.21,46.21,0,0,1-8,10.2c1.15.84,2.29,1.69,3.43,2.54a48.9,48.9,0,0,1,7.71-15.45L45,21.67A107.1,107.1,0,0,1,34.64,34.78l3.7,2.07a102.65,102.65,0,0,1,7.67-15l-3.63-2a53.72,53.72,0,0,1-9,11.91l3.21,2.38a44.57,44.57,0,0,1,5.62-11.54c1.53-2.24-1.55-4.39-3.32-2.46L34.2,25.3l3.57,2a27.46,27.46,0,0,1,3.44-7.13c1.25-1.84-1.11-4.4-2.91-2.81l-3.18,2.81,3.27,1.28a8.25,8.25,0,0,1,1-5.89l-3.44-1.92a5,5,0,0,1-1.22,2l2.81,2.71c1.41-2,3-3.83,4.5-5.73a1.75,1.75,0,0,0-2.49-2.4,31,31,0,0,0-5.17,5.79c-1.26,1.74,1.15,4.3,2.82,2.7a9.36,9.36,0,0,0,2.44-3.63c.73-2-2.2-3.92-3.44-1.92a12.42,12.42,0,0,0-1.79,8.85,2.05,2.05,0,0,0,3.28,1.28c1.06-.93,2.12-1.86,3.19-2.78l-2.92-2.81a31.21,31.21,0,0,0-4,8,2.07,2.07,0,0,0,3.57,2c1.59-1.72,3.17-3.45,4.75-5.17l-3.32-2.46a48,48,0,0,0-6.13,12.46c-.57,1.76,1.62,4,3.21,2.38A61.87,61.87,0,0,0,46.27,21.41c1.16-2.07-2.37-4.05-3.63-2a108.41,108.41,0,0,0-8.27,15.89c-1,2.39,2.14,3.75,3.71,2.07A106.42,106.42,0,0,0,48.47,24.26c1.56-2.32-1.8-4.85-3.5-2.59a51.39,51.39,0,0,0-8.3,16.4c-.56,1.88,1.67,4.22,3.42,2.54a50,50,0,0,0,8.76-11c1.39-2.39-1.71-4.85-3.52-2.6a56.29,56.29,0,0,0-7.62,12.59c-1,2.34,2.24,3.95,3.76,2.1C46.24,35.89,51,30,55.2,23.78a2.07,2.07,0,0,0-3.32-2.47c-2.13,2.54-4.26,5.08-6.17,7.79a24.66,24.66,0,0,0-4.29,8.45,1,1,0,0,0,1.34,1,1.92,1.92,0,0,0,1.12-1.43c.19-.76-.88-1-1.29-.52Z"/><path class="cls-2" d="M40,15.58a10.51,10.51,0,0,1,6.78-6.43L44.21,6.71a7.58,7.58,0,0,1-4.59,3.69l2.62,2.53a4.21,4.21,0,0,1,4.88-2.86L45.39,7.86a.86.86,0,0,1-1,.62L46,11.25A4,4,0,0,1,50,9L48.67,5.83a3.94,3.94,0,0,1-3.55,1.94c.65,1.07,1.29,2.14,1.93,3.22a7.58,7.58,0,0,1,6.2-3L51.63,4.25,43.35,12.1l3.11,3a28.15,28.15,0,0,1,5-5.23L48.48,7A70.27,70.27,0,0,1,37.21,21.38l3.39,2.51a32.46,32.46,0,0,1,4.73-8,28.9,28.9,0,0,1,3-3.17c.67-.61,3-3.07,3.91-2.78L51,7.18a57.27,57.27,0,0,1-9.88,13.26l3,2.93A68.82,68.82,0,0,1,60.29,7.52l-3-2.91A125.57,125.57,0,0,1,41.2,24.81l3,2.91C48.31,22.35,52.44,17,58.06,13.15l-3.28-2.43c-4,8.71-10.22,16.06-16.38,23.3l3.35,2.49A75.78,75.78,0,0,1,60,15.55l-3.29-1.83c-.63,2.62-2.3,4.8-3.91,6.9C51,23,49.13,25.38,47.31,27.76,43.63,32.55,40,37.37,36.37,42.2c-1.74,2.31,1.75,4.84,3.57,2.65C45.47,38.22,51,31.57,57.57,25.92L54.5,23C49.4,31.23,44.18,39.43,39,47.65l3.6,2.68a161.52,161.52,0,0,1,14-20.41L52.9,27.85A207.6,207.6,0,0,1,39.13,51.23l3.51,2.6C46,48.49,49.2,43.1,52.44,37.71l-3.3-2.45a38.56,38.56,0,0,1-7.75,9.45L44.58,46a30.7,30.7,0,0,1,0-14.42c.46-1.8-2.62-2.6-3.17-.81a29.81,29.81,0,0,0-.76,15.81c.32,1.34,2,2.35,3.19,1.25a49.49,49.49,0,0,0,8.57-10.08c1.41-2.22-1.88-4.69-3.3-2.45-3.37,5.31-6.73,10.61-10,16-1.45,2.36,1.94,5,3.51,2.6A249.26,249.26,0,0,0,56.86,29.44c1.15-2.24-2.23-3.85-3.7-2.06A160.55,160.55,0,0,0,39,47.65c-1.45,2.46,2.07,5.16,3.6,2.68C47.72,42.05,52.78,33.75,58,25.52c1.23-2-1.1-4.61-3.07-2.95C48,28.4,42.13,35.28,36.37,42.2l3.57,2.65q6-7.92,11.89-15.89c3.38-4.58,7.52-9.09,8.89-14.75.44-1.81-2-2.84-3.29-1.83A78.49,78.49,0,0,0,38.4,34a2.09,2.09,0,0,0,3.35,2.49c6.42-7.53,12.78-15.17,17-24.22.94-2.06-1.67-3.53-3.28-2.43-5.9,4-10.32,9.7-14.6,15.34-1.41,1.85,1.31,4.67,3,2.91a130.09,130.09,0,0,0,16.81-21,2.12,2.12,0,0,0-3-2.91A72.67,72.67,0,0,0,40.77,20.83c-1.37,1.88,1.28,4.69,3,2.93a65.48,65.48,0,0,0,11.23-15A2.17,2.17,0,0,0,53.84,6c-4-1.26-7.62,2.59-10.17,5.24a35.09,35.09,0,0,0-7.12,11c-.77,1.88,1.8,4.13,3.39,2.51A91.32,91.32,0,0,0,51.83,9.48a2.09,2.09,0,0,0-3-2.86A26.66,26.66,0,0,0,43,12.5c-1.4,1.92,1.28,4.77,3.11,3l8.18-8a2.12,2.12,0,0,0-1.62-3.72,11.47,11.47,0,0,0-8.85,4.76,2.06,2.06,0,0,0,1.93,3.22,7.78,7.78,0,0,0,6.14-3.6A2,2,0,0,0,50.5,5a8.17,8.17,0,0,0-8.25,4.7,2,2,0,0,0,1.64,2.77,5,5,0,0,0,5.43-4.17,2,2,0,0,0-1.72-2.2,8.14,8.14,0,0,0-9,5.33A2,2,0,0,0,41.21,14a10.78,10.78,0,0,0,6.52-5.88c.73-1.56-1.07-3-2.53-2.44a11.81,11.81,0,0,0-7,9.44.94.94,0,0,0,1.79.46Z"/><path class="cls-2" d="M36,29.87C33.56,35.74,33.83,42,36,47.92c.63,1.78,3,1,3.3-.49A16.69,16.69,0,0,0,36.18,34,1.8,1.8,0,0,0,33,35.36a64.93,64.93,0,0,0,5.69,18,1.85,1.85,0,0,0,3.5-1C40.84,38,46.42,23,58.77,15l-1.86-2.33L51,17.4l2.44,1.81a22.28,22.28,0,0,1,4.15-7,19.26,19.26,0,0,1,1.56-1.57l.51-.43c.7-.29.69-.53,0-.74-.66.52-1.06,2.4-1.2,3.15C58.09,14.5,61,15.71,62,14c.59-1,1.19-1.94,1.78-2.92L60.38,9.2A59.79,59.79,0,0,1,53,25.2L56.3,27A30.15,30.15,0,0,1,66.38,12.35l-3-1.69c-.52,7.23-5,13.1-9.21,18.65l3.48,1.94A52.4,52.4,0,0,1,66.4,13.58l-3,.05c.75,1.18-.45,3.13-.95,4.19-.58,1.23-1.2,2.44-1.86,3.64-1.36,2.44-2.92,4.76-4.51,7.07l3.62,2c2.26-4.72,4.6-9.51,8.63-13l-3-1.68a28.17,28.17,0,0,1-6.25,16.46l3.49,1.95C64.64,28.09,66.82,22,69.45,16l-3.34-1.34a49.78,49.78,0,0,0-3.26,9.86l3.94.48A56.12,56.12,0,0,1,69,13.33l-3.64-.43a165.91,165.91,0,0,1,3.66,18.64l3.38-1A22.06,22.06,0,0,1,71,16.89l-3.32.05A47,47,0,0,1,66.62,33.4l3.73-.56a45.89,45.89,0,0,1-2-11.14l-3.88.57c1,3.82,2,7.65,3,11.45.7,2.47,4.69,2,4.06-.6l-2.91-12c-.47-1.95-3.87-2.31-3.85.05A51.16,51.16,0,0,0,66.2,33.75c.54,2.07,3.69,2.35,4,0q.84-7,1.66-14l-3.6,0A113.37,113.37,0,0,0,72.2,38C72.84,40,76.35,39,75.87,36.9c-1.27-5.62-2.4-11.28-3.25-17L69,21a149,149,0,0,1,7.34,20.2c.63,2.2,4.38,1.12,3.88-1.12A88.23,88.23,0,0,0,75.67,25.8c-.63-1.54-3.39-1.29-3.41.51A24.7,24.7,0,0,0,73,32.89c.47,1.81,3.24,1.5,2.94-.44a20.61,20.61,0,0,1-.12-5.71l-3.41.51c1.46,4.4,2.67,8.91,3.74,13.42L80,39.54a182.23,182.23,0,0,0-7.56-20.11,1.93,1.93,0,0,0-3.65,1.06,157.81,157.81,0,0,0,3.23,17l3.68-1.07a81.27,81.27,0,0,1-3.9-17.21c-.22-2.08-3.3-1.94-3.59,0q-1,7-2,14l4-.05a51.39,51.39,0,0,1-1.55-11.57l-3.85.05q1.35,6,2.69,12.08l4.06-.6c-1-3.83-2.15-7.62-3.22-11.42a2,2,0,0,0-3.88.57,50.42,50.42,0,0,0,2.35,12.16c.66,2,3.35,1.08,3.74-.56A45.44,45.44,0,0,0,71,16.44a1.68,1.68,0,0,0-3.32,0A27.66,27.66,0,0,0,69.19,32c.75,1.93,3.57,1,3.37-1a139.44,139.44,0,0,0-3.42-18.68c-.41-1.69-3-2.36-3.64-.43a45.91,45.91,0,0,0-2.65,12.57,2,2,0,0,0,3.94.48,33.66,33.66,0,0,1,2.66-9c1-2.1-2.36-3.43-3.34-1.34a146.87,146.87,0,0,0-7.29,18.17c-.67,2.12,2,3.85,3.49,2A33.56,33.56,0,0,0,69,16.33a1.88,1.88,0,0,0-3-1.68C61.34,18.46,58.52,23.73,55.82,29c-1.1,2.14,2.25,3.91,3.62,2A60.13,60.13,0,0,0,65.28,21c1.46-3.14,3-6.44,1.07-9.68-.66-1.09-2.32-.79-3,.06a51.7,51.7,0,0,0-9.48,18.42c-.57,2.09,2,3.91,3.48,1.95,4.57-6.11,9.24-12.7,9.71-20.58a1.9,1.9,0,0,0-3-1.69,34.75,34.75,0,0,0-11.27,16.2c-.64,1.95,2,3.73,3.3,1.84a63.21,63.21,0,0,0,8-16.8c.59-2-2.15-3.95-3.42-1.91l-1.79,2.9,3.56,1.42c.4-2,2-3.38.73-5.53a3.09,3.09,0,0,0-4.63-.84C54.73,9.3,52,13.81,50.53,18A1.59,1.59,0,0,0,53,19.85L58.77,15a1.49,1.49,0,0,0-1.86-2.33c-12,9.51-20,24.68-18.32,40.23l3.5-1a56.9,56.9,0,0,1-5.53-17l-3.15,1.37A14.73,14.73,0,0,1,35.81,47l3.31-.49A29.55,29.55,0,0,1,37,30.11a.5.5,0,0,0-1-.24Z"/><path class="cls-2" d="M85.38,40.45l-3,1.36,1.23,2A173.2,173.2,0,0,1,101.52,28c-.77-.94-1.53-1.9-2.29-2.85C92.52,31,86,37.18,79.4,43.24l2.47,2.37A71.58,71.58,0,0,1,109,22.88l-1.63-2.68A92.76,92.76,0,0,1,85.62,35.69L87.49,38A46.14,46.14,0,0,1,99.4,27.8a45.05,45.05,0,0,1,6.7-3.26c.51-.2,1-.39,1.55-.57.91-.31,1.54-.78,1,.39s-2.2,2.16-3.17,3c-9.14,7.6-18.33,15.14-27.42,22.8a1.62,1.62,0,0,0,2,2.52C90.41,44.38,101,35.77,113.34,30.82l-1.5-2.48q-16.74,13-33.38,26.09L80.55,57C90.41,49.25,100.4,41.32,112,36.22l-1.71-2.81Q95.39,47,79.6,59.45c-1.78,1.4.42,4.16,2.2,2.74C91,54.9,100.32,47.76,111.32,43.41l-2.24-1.65c0,2.24-4.41,4.67-6,5.93l-6.83,5.48L82.62,64.11c.72.9,1.45,1.8,2.17,2.71a96.73,96.73,0,0,1,25.6-16.72l-1.73-2.83c-8.38,7.33-16.8,14.62-25.12,22-1.58,1.4.46,4,2.06,2.57,7.22-6.35,14.54-12.67,23.22-17-.53-.87-1.06-1.74-1.58-2.61-6.33,6.36-12.91,12.46-19.64,18.38l2,2.52a78.45,78.45,0,0,1,16.56-11.86L104.36,59a117.07,117.07,0,0,1-12,12c-1.44,1.3.36,3.61,1.91,2.37,3.34-2.68,6.71-5.33,10-8.06-.48-.37-1-.73-1.46-1.09a25.6,25.6,0,0,1-5.66,8.18.82.82,0,1,0,1.18,1.14,48.55,48.55,0,0,0,6.11-8.41,1,1,0,0,0-1.35-1.29c-3.61,2.33-7.17,4.76-10.74,7.16l1.91,2.37a81.84,81.84,0,0,0,12.56-12.61A1.53,1.53,0,0,0,105,58.55,76.29,76.29,0,0,0,87.6,70.66c-1.49,1.41.46,3.92,2,2.52,6.7-6,13.18-12.17,19.54-18.5,1.14-1.14.1-3.43-1.58-2.6-8.93,4.38-16.53,10.79-24,17.21l2.06,2.57c8.43-7.28,16.77-14.66,25.15-22A1.68,1.68,0,0,0,109,47,89.71,89.71,0,0,0,82.62,64.11c-1.62,1.5.42,4.14,2.17,2.71q7.9-6.46,15.83-12.9l7.53-6.14c1.84-1.49,4.12-3,4.11-5.64A1.63,1.63,0,0,0,110,40.49C98.57,44.39,89,52,79.6,59.45l2.2,2.74Q97.54,49.65,112.33,36c1.34-1.23.09-3.61-1.7-2.81-11.86,5.3-22.07,13.2-32.17,21.24A1.67,1.67,0,0,0,80.55,57q16.61-13.15,33.12-26.41a1.47,1.47,0,0,0-1.51-2.47c-12.7,5.22-23.4,13.46-34,22l2,2.52c6.08-5.1,12.09-10.26,18.12-15.4l9.06-7.7c1.78-1.52,4.65-3.2,4.58-5.87-.15-6.14-9.87-.65-12.24.61A48.85,48.85,0,0,0,85,36.19a1.56,1.56,0,0,0,1.86,2.34,96,96,0,0,0,22.46-15.86c1.23-1.17.09-3.5-1.63-2.68A76.42,76.42,0,0,0,79.1,43.56c-1.14,1.53,1,3.71,2.46,2.37,6.67-6,13.41-11.87,20-18,1.7-1.58-.42-4.32-2.29-2.85A96.08,96.08,0,0,0,81.89,42.19c-.87,1.15.62,2.32,1.7,1.64l2.77-1.76c.92-.59,0-2-1-1.62Z"/><path class="cls-2" d="M4.09,50.36l-1.51.53L4,52.66A49.88,49.88,0,0,1,17.8,40.37l-2-2.53A91.9,91.9,0,0,1,4.59,53.92C3.3,55.38,5.67,57.7,7.08,56.31c4.61-4.5,8.92-9.07,14.22-12.78l-2.05-2A115,115,0,0,1,5.42,58.75c-1.37,1.41.52,3.85,2,2.43C12.63,55.94,18,50.66,24.51,47l-2-2.52A112,112,0,0,1,10.08,60.15c-1.43,1.52,1,3.52,2.51,2.42C17.94,58.76,23.15,54.76,28.52,51l-2.31-2.23q-5.88,7-11.76,14c-1.49,1.78,1.3,3.69,2.83,2.1A61.43,61.43,0,0,1,29.36,55.1L27,52.84c-3.48,4.88-7.2,9.55-10.86,14.29-1.17,1.52,1,3.73,2.48,2.38C23.5,65,28.42,60.58,34.43,57.7l-1.84-2.31C28,60.87,23,66.09,18.4,71.56c-1.28,1.51,1,3.73,2.51,2.41,5.35-4.76,10.76-9.49,17.3-12.55l-1.88-2.35C31.77,64.56,27,69.88,22.49,75.41c-1.21,1.47,1,3.56,2.4,2.31,5.73-4.94,11.5-9.86,18.49-13l-1.77-2.21c-5,5.44-10,10.84-15.07,16.26-1.19,1.29.87,3.2,2.18,2.1,6.15-5.13,12.35-10.25,19.67-13.64L46.57,65q-7.24,8.75-15.25,16.78c-1.38,1.38.37,3.75,1.94,2.43,6.14-5.16,12-10.36,19.54-13.29l-1.56-2c-4.09,4.41-8.43,8.58-12.64,12.87-1.3,1.31.32,3.52,1.84,2.3A126.5,126.5,0,0,1,56.84,73c-.53-.65-1.05-1.31-1.58-2a30.87,30.87,0,0,1-8,8.41c-1.43,1.06.3,3.21,1.74,2.16,4.51-3.33,9.26-6.3,14.06-9.19,1.07-.65.4-2.41-.81-1.84a96.23,96.23,0,0,0-15,8.87L49,81.59a33,33,0,0,0,8.34-9c.65-1-.35-2.64-1.58-2A131.28,131.28,0,0,0,38.6,81.83l1.84,2.3c4.45-4.39,8.62-9.06,12.88-13.63,1-1-.47-2.37-1.57-2-7.59,2.92-14.27,8-20.43,13.23l1.94,2.43Q41.54,75.87,49,66.8a1.52,1.52,0,0,0-1.83-2.28c-7.55,3.52-14,8.73-20.36,14L29,80.64C34,75.2,39,69.73,44,64.3c1-1.12-.51-2.76-1.77-2.21-7.2,3.17-13.36,8.06-19.41,13l2.41,2.31c4.64-5.41,9-11,13.63-16.49,1-1.21-.51-3-1.87-2.34C30.1,61.64,24.36,66.4,18.71,71.23l2.51,2.42c4.7-5.4,9.1-11.05,13.82-16.44,1-1.17-.52-2.91-1.85-2.31-6.31,2.89-11.55,7.36-16.72,11.91l2.47,2.38c3.76-4.65,7.23-9.54,10.71-14.4,1.16-1.61-.83-3.18-2.34-2.25a66.8,66.8,0,0,0-12.55,9.91l2.52,2.42Q23,57.76,28.81,50.68c1.2-1.47-.87-3.27-2.31-2.23C21.18,52.33,15.73,56,10.39,59.83l2.51,2.42A112,112,0,0,0,25.17,46.49c.82-1.26-.44-3.41-2-2.52-6.8,3.86-12.3,9.25-17.74,14.78l2.22,2.14A125.34,125.34,0,0,0,21.56,43.26a1.45,1.45,0,0,0-2.06-2A114.4,114.4,0,0,0,4.9,53.6L7.39,56A75.81,75.81,0,0,0,18.68,39.46c.81-1.64-1.35-2.78-2.61-1.93a52.4,52.4,0,0,0-14,13.73A1.19,1.19,0,0,0,3.53,53L5,52.43c1.36-.57.45-2.55-.91-2.07Z"/><path class="cls-2" d="M42.43,63.7a19.19,19.19,0,0,0,5.28-4.5q2.15-2.93,4.49-5.69c3-3.59,6.39-6.87,9.42-10.47L51.4,37.33a101.76,101.76,0,0,1-6.91,10.55,70.18,70.18,0,0,1-8,9.93L44,65c4.61-5,8.82-10.34,13.45-15.3A141.89,141.89,0,0,1,72,36.69l-8.7-6.45c-2.92,6.09-7.76,11.28-12.08,16.42a150.44,150.44,0,0,0-12.76,16.7,5.08,5.08,0,0,0,.58,6.57c1.67,1.56,4.78,2.1,6.58.33C54.57,61.46,62,50.73,73.71,45.38L67.64,42c-.09-.49.33-.47-.18,0s-.85,1-1.29,1.47C65.11,44.69,64,45.83,63,47l-6.78,7.2C51.77,58.86,47.41,63.59,43,68.3c-3.82,4.12,3.17,11,7.15,6.88A124.9,124.9,0,0,1,83.33,50.59l-6.73-6.5c-1.07,2-3.31,3.41-5,4.82-2.37,2-4.69,4.11-7,6.22C60,59.46,55.44,64,51.06,68.61c-1.74,1.84-1.09,5.17.59,6.75a5.24,5.24,0,0,0,6.77.33c5.18-3.37,9.8-7.48,14.72-11.2a47.48,47.48,0,0,1,15.47-8.07q-2.85-3.59-5.72-7.16C77.19,56.17,69.46,61.88,62,66.81l6,7.42c5.27-4.62,11-7.86,17.27-10.92l-5.38-6.73A106.86,106.86,0,0,1,71.74,66c-2.69,2.91,1.34,7.06,4.56,5.7a38.85,38.85,0,0,0,4.52-2c1.45-.84,2.66-2,4.18-2.76l-2.81-3.52c-1.88,2.87-4.62,4.43-7.55,6.13-3.84,2.21-1.18,8.59,2.84,6.42,3.17-1.71,6-4,9.21-5.6L83,65.65a73.52,73.52,0,0,0-4.27,6.07c-1.31,2,1.12,4.68,3.16,3a70.93,70.93,0,0,0,5.54-4.85,3.11,3.11,0,0,0-3.19-5.25c-3.51,1.26-7.51,2.82-10.33,5.32l4.4,5.48a25.29,25.29,0,0,0,3.91-4.56,27.41,27.41,0,0,1,3.76-4.74c1.33-1.41-.31-4.22-2.21-3.7-1.73.48-3.5.36-5.25.68a44.52,44.52,0,0,0-5.23,1.63q2,3.2,3.89,6.39a105.61,105.61,0,0,1,9.13-8.45,4.46,4.46,0,0,0,1-5.78c-1.27-2-3.38-2.44-5.58-1.78-7.23,2.19-14,6.67-19.62,11.66-4.61,4.1.9,10.84,6,7.42,8-5.41,14.69-11.86,21.66-18.45,3.24-3.06,1.28-9.2-3.66-8.38C72.61,49.61,62.81,60.45,52,67.66l7.36,7.08c4.35-4.69,8.89-9.21,13.62-13.51s10-7.8,13-13.38c2.11-3.89-3-8.37-6.73-6.5A129.42,129.42,0,0,0,43,68.3l8,6c4.83-5.54,9.68-11.06,14.48-16.63l7-8.17c2.19-2.53,4.36-5.11,3.66-8.7a4.4,4.4,0,0,0-6.07-3.34C58,43,49.38,53.87,39.37,62.44l7.16,6.89c3.58-6.28,8.26-11.62,13-17A197.74,197.74,0,0,0,73,35.65a5.72,5.72,0,0,0-.13-6.83c-1.42-1.77-4.53-2.86-6.63-1.62-6.57,3.89-12,9.18-17.19,14.76A148.19,148.19,0,0,0,35.57,58.77C31.78,64.33,39.85,70.36,44,65c2.88-3.72,6.13-7.13,9.09-10.77s5.71-7.45,8.55-11.2c4-5.25-3.33-12.62-8.44-8.12a60.62,60.62,0,0,0-10,11.91q-2,3-3.85,6.17a11.83,11.83,0,0,0-1.82,3.91c-.2,1.26-.22,2.61-.32,3.88a3.27,3.27,0,0,0,5.23,2.91Z"/><path class="cls-2" d="M57,31.37l0,0,.4-.25a4.19,4.19,0,0,1-1,.42l.57-.16a3.15,3.15,0,0,1-.42.09,7.24,7.24,0,0,0-1,.28L58.86,35a7.32,7.32,0,0,1,.71-1.74c-.12.21-.23.42-.35.62a7.41,7.41,0,0,1,1.09-1.46c-.18.19-.36.37-.53.56l.23-.23-4.36-4.2c-.52.69-1,1.39-1.52,2.08a2.38,2.38,0,0,0-.52,1.14,2.39,2.39,0,0,0-.09,1.3l.24.84a2.45,2.45,0,0,0,.74,1,1.82,1.82,0,0,0,.67.5,2.43,2.43,0,0,0,1.19.41h.88a3.31,3.31,0,0,0,1.58-.69l.33-.29A8.93,8.93,0,0,0,60,34l-.59.61c.51-.52,1.14-.93,1.6-1.5a5.57,5.57,0,0,0,.52-.93A3,3,0,0,0,59.18,28a2.62,2.62,0,0,0-.28,0,3.1,3.1,0,0,0-1.35.13,1.77,1.77,0,0,0-.55.19c-.43.25-.86.5-1.28.79a6.73,6.73,0,0,0-1.59,1.56l5.68,3.18c.37-.77.76-1.53,1.12-2.3a2.28,2.28,0,0,0,.19-1.18,2.35,2.35,0,0,0-.23-1.19l-.41-.68a2.28,2.28,0,0,0-.9-.73,1.5,1.5,0,0,0-.73-.29,2.42,2.42,0,0,0-1.2-.09l-.78.23a3,3,0,0,0-1.22,1,10.21,10.21,0,0,0-1.17,2.53,9.81,9.81,0,0,0-.43,2.68c0,.23,0,.45,0,.68l.19.64.34.56a1.89,1.89,0,0,0,.74.6,1.16,1.16,0,0,0,.59.23,1.21,1.21,0,0,0,.65.08,1.24,1.24,0,0,0,.66-.1,1.87,1.87,0,0,0,.88-.43,3.1,3.1,0,0,0,.62-.58l.16-.2c.1-.14.2-.28.29-.43a6.37,6.37,0,0,0,.65-1.37L60,33a1.36,1.36,0,0,0-.08-.72,1.65,1.65,0,0,0-.64-.94,2,2,0,0,0-.85-.34,1.32,1.32,0,0,0-.71.07,1.34,1.34,0,0,0-.63.31Z"/><path class="cls-2" d="M57.85,74.79A31.92,31.92,0,0,0,62,74.66a20.63,20.63,0,0,0,4.15-1.09A2.43,2.43,0,0,0,64.81,69c-2.15.55-4.26,1.23-6.37,1.87a2.45,2.45,0,0,0,1.35,4.66c3.77-.78,7.53-1.52,11.33-2.18l-.75-5c-1.81.46-3.61,1-5.41,1.52L60.3,71.18,61.68,76a97.12,97.12,0,0,1,11.81-3l-1.86-4.26c-.29.19-.64.35-1.06.65a10.06,10.06,0,0,0-.92.81c-.61.54-1.23,1-1.87,1.54l1.94,2.42a8.45,8.45,0,0,1,2.89-1.77c1-.4.51-1.88-.51-1.78a21.68,21.68,0,0,0-4,.92c-1.68.52-.84,3.26.86,2.95.86-.15,1.72-.34,2.58-.56a9.52,9.52,0,0,0,1.49-.46,15.49,15.49,0,0,0,1.6-1,2.41,2.41,0,0,0,.69-2.85,2.46,2.46,0,0,0-2.55-1.4c-4.43.83-8.82,1.89-13.14,3.14A2.52,2.52,0,0,0,61,76.15c3.57-1,7.18-1.92,10.73-3a2.53,2.53,0,0,0-1.4-4.82c-3.75.85-7.52,1.62-11.3,2.35l1.35,4.66c1.91-.56,3.84-1.08,5.73-1.73l-2-4.44c-1.08.45-2.19.78-3.29,1.19s-2,.77-3.08,1.05a1.77,1.77,0,0,0-1.46,1.73,1.71,1.71,0,0,0,1.5,1.69Z"/><path class="cls-2" d="M83,63.7a44.5,44.5,0,0,1,4.1-1.84,33.33,33.33,0,0,0,4.12-2.41,56.08,56.08,0,0,0,7.09-5.78,2,2,0,0,0-2.56-3.19c-2.41,1.78-4.92,3.45-7.21,5.39-1.13,1-2.26,1.88-3.3,2.94A32.07,32.07,0,0,1,82,62.06c-.85.64,0,2.21,1,1.64Z"/><path class="cls-2" d="M77.61,72h-.19c-1.29,0-1.2,2.08,0,2.22S80,73.48,81,73s2.22-1.13,3.32-1.71a35.23,35.23,0,0,0,6.37-4c.65-.55.22-1.9-.72-1.65a24.38,24.38,0,0,0-3.52,1.21C85.3,67.39,84.16,68,83,68.56s-2.25,1.1-3.31,1.74-2.53,1.24-3.16,2.37l1.91-.28-.2-.21.12.41v-.2c0-.36-.42-.74-.75-.42Z"/><path class="cls-3" d="M66.11,92.81c17,2.4,32.58,8.42,44.34,21.47,12,13.36,19.25,30.57,24.14,47.69,9.32,32.7,9.52,71.12-14.88,97.52-10.14,11-24,18.37-39.06,19.25s-29.56-5.24-41.08-14.42c-27.63-22-33-59.33-26.71-92.3,3.44-18,10.08-35.84,20.87-50.79a78.9,78.9,0,0,1,17.84-18.17C58.81,97.87,67,95.15,75.43,92.75c4.16-1.18,5.27-8.61-.11-8.57-17.11.1-32.27,10.7-43.4,23-12.14,13.4-20.43,30.3-25.5,47.55-10.94,37.2-9.88,82.09,19,111.23,24.86,25.12,63,32.26,92,9.81,31.85-24.58,38.05-66.83,29.9-104.12-4.79-21.9-12.95-44.9-28.27-61.73-12.91-14.2-33.76-26.43-53.38-20-1.51.49-1,2.73.44,2.93Z"/><path class="cls-2" d="M195.81,142.26a3.49,3.49,0,0,1,2.81.22,3.42,3.42,0,0,1,1.39,1.85,5.4,5.4,0,0,1,.17,2.58,8.07,8.07,0,0,1-.68,2.33l-.56.85-1.05.42a4.33,4.33,0,0,0-.58,3.29,4.09,4.09,0,0,0,1.67,2.28,5.94,5.94,0,0,0,2.92,1,6.12,6.12,0,0,0,3.21-.61,10.35,10.35,0,0,0,3.84-3,19.63,19.63,0,0,0,2.66-4.29,21.55,21.55,0,0,0,1.54-4.85,26.07,26.07,0,0,0,.51-4.66l-.19-1.26-.55-1.46a13,13,0,0,0-4.58-3.17,13.3,13.3,0,0,0-5.85-1.06,11.27,11.27,0,0,0-10.14,7.55c-.39.8-.89,1-1.49.64a5.27,5.27,0,0,1-1.68-1.8,9.94,9.94,0,0,1-1.19-2.82,3.57,3.57,0,0,1,.06-2.49,9.22,9.22,0,0,1,5.59-5.62,14.8,14.8,0,0,1,5.15-1.33,19.44,19.44,0,0,1,10.15,2,18.48,18.48,0,0,1,4.14,2.81,13.93,13.93,0,0,1,2.71,3.58,17.37,17.37,0,0,1,1.56,4.43,10.35,10.35,0,0,1-.08,3.78,33.6,33.6,0,0,1-1.17,4.5q-.78,2.29-1.74,4.45a37.36,37.36,0,0,1-1.85,3.66,17.36,17.36,0,0,1-1.64,2.21,22.85,22.85,0,0,1-2.1,2,8.23,8.23,0,0,1-4.29,2,12.24,12.24,0,0,1-4.62-.29,8,8,0,0,1-4.08-2.69,14,14,0,0,1-2.53-4.63,15,15,0,0,1-.72-5.42,11.57,11.57,0,0,1,1.35-5,11,11,0,0,1,.81-1.14A2.77,2.77,0,0,1,195.81,142.26Z"/><path class="cls-2" d="M225.59,133a6.59,6.59,0,0,1-2.12-2.21,5.21,5.21,0,0,1-.8-2.75,2.47,2.47,0,0,1,1.43-2.22q1.92-.89,4.14-1.77a22.24,22.24,0,0,1,4.52-1.27,12.08,12.08,0,0,1,4.41,0,7.43,7.43,0,0,1,3.82,2,11.9,11.9,0,0,1,3.27,6.49,35.75,35.75,0,0,1,.55,8.57,60.84,60.84,0,0,1-1.11,8.94q-.88,4.41-1.79,7.54c-.85.81-1.54,1.15-2.08,1a1.94,1.94,0,0,1-1.27-1,5.74,5.74,0,0,1-.58-2.18,9.47,9.47,0,0,1,.08-2.36,43.69,43.69,0,0,1,1.44-5.91q.87-2.74,1.5-5.4a26.44,26.44,0,0,0,.71-5.33,13.93,13.93,0,0,0-1-5.5l-.36-.71-.48-.36-.63-.17-.27-.13-.89-.21-.85,0-1,.24-1.93.88-6.05,4.24A3.08,3.08,0,0,1,225.59,133Z"/><path class="cls-2" d="M262,148.69c.31,1.72,0,3-.84,3.8a3.83,3.83,0,0,1-3.1,1.06,5.11,5.11,0,0,1-3.24-1.66,5.41,5.41,0,0,1-1.29-4.34,40.77,40.77,0,0,1,1.55-9.43,9.17,9.17,0,0,1,2.63-4.46,3.68,3.68,0,0,1,3.37-.67,11.78,11.78,0,0,1,3.75,1.88,30.85,30.85,0,0,1,3.78,3.25l3.41,3.39a20.64,20.64,0,0,0,2.7,2.29c.76.52,1.3.49,1.61-.07.27-1.69.54-3.47.83-5.34a18.55,18.55,0,0,0,.12-5.29,8.8,8.8,0,0,0-1.75-4.31,7.52,7.52,0,0,0-4.78-2.46,10.9,10.9,0,0,0-3.53-.12,36.65,36.65,0,0,0-3.79.69q-1.94.46-3.84,1a24,24,0,0,1-3.66.67,5.87,5.87,0,0,1-3.76-.81,2.43,2.43,0,0,1-.84-3,8.45,8.45,0,0,1,1.28-2.59,7.45,7.45,0,0,1,1.78-1.63,15.36,15.36,0,0,1,2.29-1.24c.86-.39,1.79-.85,2.79-1.4a61.21,61.21,0,0,1,5.82-2.62q2.72-1,5.59-1.86c1.91-.54,3.95-1.06,6.1-1.55s4.54-1.1,7.18-1.83a3.54,3.54,0,0,1,2.47,1.08,6.4,6.4,0,0,1,1.7,2.53,4.66,4.66,0,0,1,.19,2.72,2.4,2.4,0,0,1-2,1.7,15,15,0,0,1-1.57.1l-2.26.08-2.26.08a13.93,13.93,0,0,0-1.56.11q-3,.36-5.65.62a45.35,45.35,0,0,0-5.18.81,35.11,35.11,0,0,0-5.25,1.59,43,43,0,0,0-5.66,2.77,52.44,52.44,0,0,1,12.12-2.57,16.11,16.11,0,0,1,8,1.17,9.15,9.15,0,0,1,4.46,4.65,21.4,21.4,0,0,1,1.59,7.85,13.36,13.36,0,0,1-.21,2.94,30.16,30.16,0,0,1-.84,3.81,34.8,34.8,0,0,1-1.29,3.7,8.44,8.44,0,0,1-1.62,2.64,2.64,2.64,0,0,1-2.73.92,11.37,11.37,0,0,1-3.48-1.5,33.49,33.49,0,0,1-3.79-2.77c-1.31-1.09-2.53-2.07-3.69-2.92a14.37,14.37,0,0,0-3.14-1.85,1.93,1.93,0,0,0-2.23.25,5.29,5.29,0,0,0-1.28,2,6,6,0,0,0-.37,2.11,3.66,3.66,0,0,0,.31,1.58c.21.4.47.55.8.44a1.37,1.37,0,0,1,1.07.05,2.1,2.1,0,0,1,.7.62,2.46,2.46,0,0,1,.37.81A4.78,4.78,0,0,1,262,148.69Z"/><path class="cls-2" d="M292.34,123.07a6.75,6.75,0,0,1-2.12-2.2,5.26,5.26,0,0,1-.8-2.75,2.49,2.49,0,0,1,1.43-2.23q1.92-.89,4.14-1.77a22.24,22.24,0,0,1,4.52-1.27,12.31,12.31,0,0,1,4.41,0,7.45,7.45,0,0,1,3.82,2.05,11.86,11.86,0,0,1,3.27,6.49,35.63,35.63,0,0,1,.55,8.56,60.67,60.67,0,0,1-1.11,8.94q-.88,4.41-1.79,7.54c-.85.81-1.54,1.16-2.08,1a2,2,0,0,1-1.26-1.06,5.35,5.35,0,0,1-.58-2.18,9.08,9.08,0,0,1,.07-2.36,44.06,44.06,0,0,1,1.44-5.91q.87-2.75,1.5-5.4a25.66,25.66,0,0,0,.71-5.33,13.88,13.88,0,0,0-1-5.49l-.36-.72-.48-.36-.63-.16-.27-.14-.89-.2-.85,0-1,.23-1.93.89-6,4.23A3.1,3.1,0,0,1,292.34,123.07Z"/><path class="cls-2" d="M340.52,116.05a3.1,3.1,0,0,1-2.49-.32,5.89,5.89,0,0,1-1.94-1.81,6,6,0,0,1-1-2.51,3.76,3.76,0,0,1,.56-2.6,6.32,6.32,0,0,1,3.61-1,5.83,5.83,0,0,1,3.1,1,8,8,0,0,1,2.35,2.52,9,9,0,0,1,1.23,3.41,26.84,26.84,0,0,1,.28,3.6,33.26,33.26,0,0,1-.14,3.66,32.65,32.65,0,0,1-1.05,6.49,38,38,0,0,0-1.14,6.42,6.78,6.78,0,0,0,2.78.61,24.71,24.71,0,0,0,3.63-.11c1.23-.13,2.43-.3,3.6-.54s2.11-.39,2.83-.5a2.51,2.51,0,0,1,.66-.19,13.41,13.41,0,0,0,1.68-3.71,26.8,26.8,0,0,0,.79-4.14c.16-1.43.25-2.82.28-4.19s.06-2.67.11-3.87q.11-3.27.12-6.65t.28-6.81a55.58,55.58,0,0,1,.92-6.73,31.34,31.34,0,0,1,2.07-6.51c.6-1,1.3-1.44,2.12-1.3A3.64,3.64,0,0,1,368,91.63a8.55,8.55,0,0,1,1.53,2.81,4.88,4.88,0,0,1,.14,3,27,27,0,0,0-2.83,6.58,53.05,53.05,0,0,0-1.47,7.11c-.32,2.42-.57,4.82-.73,7.21s-.38,4.73-.67,7q-.39,3.13-1.09,6.45a14.69,14.69,0,0,1-2.72,5.93,1.24,1.24,0,0,1-.87.46l-.5.08a52.88,52.88,0,0,1-6,1.4,26.29,26.29,0,0,1-6,.38,7.81,7.81,0,0,1-4.46-1.52,6.61,6.61,0,0,1-2.11-3.24,13.16,13.16,0,0,1-.49-4.42c.07-1.64.21-3.33.41-5.07s.37-3.46.51-5.17a19.74,19.74,0,0,0-.09-4.65A.08.08,0,0,1,340.52,116.05Z"/><path class="cls-2" d="M343.13,92.72a4.76,4.76,0,0,1,.81-3.2,3,3,0,0,1,2-1.2,2.93,2.93,0,0,1,2.15.62,3.15,3.15,0,0,1,1.22,2.17l.2.75c-.57,1.17-.75,2-.55,2.34s.63.53,1.29.37a8.66,8.66,0,0,0,2.48-1.18,18.37,18.37,0,0,0,2.91-2.32,19.19,19.19,0,0,0,2.55-3,9,9,0,0,0,1.48-3.3,5.21,5.21,0,0,1,2-2,12.6,12.6,0,0,1,3-1.43,8.22,8.22,0,0,1,2.68-.44q1.11,0,1,.93A39.13,39.13,0,0,1,365,87.5a36.36,36.36,0,0,1-3.92,4.73,22.75,22.75,0,0,1-4.29,3.42,13.24,13.24,0,0,1-4.48,1.78,9.58,9.58,0,0,1-3,.15,9.09,9.09,0,0,1-2.81-.74,6.19,6.19,0,0,1-2.16-1.6A5.47,5.47,0,0,1,343.13,92.72Z"/><path class="cls-2" d="M379.24,110.46a3.1,3.1,0,0,1-2.49-.31,5.89,5.89,0,0,1-1.94-1.81,6,6,0,0,1-1-2.51,3.7,3.7,0,0,1,.56-2.6,8.1,8.1,0,0,1,4.2-1.66,6.87,6.87,0,0,1,3.8.77,7.93,7.93,0,0,1,2.83,2.65,9.33,9.33,0,0,1,1.43,4.12,18.92,18.92,0,0,1-.37,6.47c-.5,2.19-1,4.34-1.48,6.47-.26,1.29-.52,2.63-.77,4a16.25,16.25,0,0,0-.26,4,9.4,9.4,0,0,0,3.15-2.1q1.62-1.52,3.27-3.35t3.35-3.67a20.15,20.15,0,0,1,3.49-3c-.09-1-.16-1.93-.22-2.92a22.08,22.08,0,0,1,0-3,24.28,24.28,0,0,1,.35-3.65c.23-1.35.5-2.73.8-4.14s.64-2.78,1-4.09a34.33,34.33,0,0,1,1.19-3.52c.59-1,1.3-1.43,2.12-1.3a3.7,3.7,0,0,1,2.22,1.39,8.83,8.83,0,0,1,1.53,2.81,4.93,4.93,0,0,1,.14,3,14.71,14.71,0,0,0-.94,2.07c-.3.81-.58,1.64-.83,2.48s-.48,1.65-.7,2.46-.41,1.5-.55,2.09c-.22.83-.4,1.68-.56,2.57s-.3,1.78-.45,2.71a6.16,6.16,0,0,1,3,2.21,12.64,12.64,0,0,1,2,3.81,14.57,14.57,0,0,1,.73,4.34,8.05,8.05,0,0,1-.84,3.89q-.93,1.77-2.07,1.89a3.36,3.36,0,0,1-2.27-.6,8.22,8.22,0,0,1-2-1.88,9.56,9.56,0,0,1-1.28-2c-.37-.91-.7-1.8-1-2.67a23.73,23.73,0,0,1-.76-2.8,5.07,5.07,0,0,1-.67.7,24.48,24.48,0,0,0-2.33,2.7q-1.29,1.7-2.72,3.35a36,36,0,0,1-2.92,3.09,9,9,0,0,1-3,2,3.71,3.71,0,0,1-2.92-.08,6,6,0,0,1-2.67-3,5.89,5.89,0,0,1-.8-1.94,8.09,8.09,0,0,1-.23-2.1c0-1,0-1.9,0-2.79a24.25,24.25,0,0,1,.28-2.74c.19-1.8.41-3.59.65-5.4s.46-3.61.66-5.4a3.66,3.66,0,0,1,0-.74,12.14,12.14,0,0,0,0-1.24l-.58.09A5.34,5.34,0,0,0,379.24,110.46Zm22.7,10.5a19.39,19.39,0,0,0,.28,3.34,12.13,12.13,0,0,0,.92,3l.21-.29a8.06,8.06,0,0,0,.62-3.6,2.8,2.8,0,0,0-2-2.46Z"/><path class="cls-2" d="M421.36,108.74a3.52,3.52,0,0,1,2.81.23,3.42,3.42,0,0,1,1.39,1.85,5.39,5.39,0,0,1,.17,2.58,8.39,8.39,0,0,1-.68,2.33l-.56.85-1.05.42a4.28,4.28,0,0,0-.58,3.29,4.07,4.07,0,0,0,1.66,2.28,6,6,0,0,0,2.93,1,6.12,6.12,0,0,0,3.21-.61,10.32,10.32,0,0,0,3.83-3,18.47,18.47,0,0,0,2.66-4.29,21.26,21.26,0,0,0,1.55-4.85,26.81,26.81,0,0,0,.51-4.65l-.19-1.26-.56-1.46a12.64,12.64,0,0,0-4.58-3.17A13.3,13.3,0,0,0,428,99.23a11.28,11.28,0,0,0-10.13,7.55c-.4.8-.89,1-1.49.64a5.27,5.27,0,0,1-1.68-1.8,9.94,9.94,0,0,1-1.19-2.82,3.57,3.57,0,0,1,.06-2.49,11.55,11.55,0,0,1,2.1-3.39,12.08,12.08,0,0,1,3.48-2.23,14.91,14.91,0,0,1,5.16-1.33,19.32,19.32,0,0,1,5.22.34,18.91,18.91,0,0,1,4.92,1.71,18,18,0,0,1,4.14,2.81,13.87,13.87,0,0,1,2.72,3.57,17.58,17.58,0,0,1,1.56,4.44,10.29,10.29,0,0,1-.08,3.77,31.87,31.87,0,0,1-1.18,4.5q-.76,2.3-1.73,4.46a37.08,37.08,0,0,1-1.85,3.65,16,16,0,0,1-1.65,2.22,21.46,21.46,0,0,1-2.09,2,8.23,8.23,0,0,1-4.29,2,12.24,12.24,0,0,1-4.62-.29,8,8,0,0,1-4.08-2.69,14,14,0,0,1-2.53-4.64,14.47,14.47,0,0,1-.72-5.41,11.57,11.57,0,0,1,1.35-5,11,11,0,0,1,.81-1.14A2.73,2.73,0,0,1,421.36,108.74Z"/><path class="cls-2" d="M413.74,87.15a2.93,2.93,0,0,1-1.54-.84,7.9,7.9,0,0,1-1.42-1.8,5.21,5.21,0,0,1-.72-1.65c-.26-2.53.2-4.36,1.37-5.47s3.08-1.47,5.71-1.06a35.5,35.5,0,0,1,4.51,1q2.4.68,4.88,1.16a29.14,29.14,0,0,0,4.83.57,10.17,10.17,0,0,0,4.3-.73,3.52,3.52,0,0,1,1.74.77,7.78,7.78,0,0,1,1.66,1.68,5.12,5.12,0,0,1,.91,2.09,2,2,0,0,1-.45,1.82,23,23,0,0,1-8,0,33.49,33.49,0,0,1-5.6-1.65c-1.61-.64-3.14-1.19-4.61-1.62a9.49,9.49,0,0,0-5.16.12l-.93.65-.56.86-.14.79.07,1,.26,1.16C414.59,86.83,414.23,87.22,413.74,87.15Z"/><path class="cls-2" d="M435.71,70a2.5,2.5,0,0,1-2,.29,5.43,5.43,0,0,1-2.06-.93,3.61,3.61,0,0,1-1.27-1.61,1.63,1.63,0,0,1,.3-1.72,2.62,2.62,0,0,0,.59-.39,1.14,1.14,0,0,0,.37-1.2,8.54,8.54,0,0,0-.36-1.28c-.2-.62-.39-1.3-.56-2a6.65,6.65,0,0,1-.14-2.12,2.62,2.62,0,0,1,.94-1.77,3.33,3.33,0,0,1,2.2.14,6.94,6.94,0,0,1,2.11,1.23,3,3,0,0,1,1.06,1.65c.12.58-.2,1-.95,1.38a1,1,0,0,0-.38.31,2.29,2.29,0,0,0-.27,1.63c.09.63.22,1.3.38,2a18.19,18.19,0,0,1,.36,2.17A4.55,4.55,0,0,1,435.71,70Z"/><path class="cls-2" d="M462,93.63a18.62,18.62,0,0,1,1.92,5.2,23,23,0,0,1,.5,4.76,25.82,25.82,0,0,1-.31,3.94c-.2,1.17-.36,2.11-.49,2.81l1.92.83c1.4.59,2.65,1.13,3.76,1.62a15.65,15.65,0,0,1,3.4,2.19q.3-2,.54-4.44c.16-1.62.27-3.27.34-4.93s.1-3.33.11-5,0-3.19,0-4.61,0-2.75,0-4.33a9.93,9.93,0,0,1,1-4.21c.59-1,1.27-1.43,2-1.29a3.7,3.7,0,0,1,2.13,1.35,8.07,8.07,0,0,1,1.53,2.77,4.61,4.61,0,0,1,.13,2.89,6.94,6.94,0,0,0-1.18,3.9c0,1.52-.07,2.85-.13,4q-.13,2-.27,4.53c-.09,1.7-.23,3.42-.43,5.16s-.46,3.42-.79,5a28.63,28.63,0,0,1-1.17,4.24.93.93,0,0,0-.37.4.67.67,0,0,0-.25.08.33.33,0,0,1-.16.07,3.22,3.22,0,0,1-1,0,2.87,2.87,0,0,1-.82-.35c-.58-.43-1.13-.86-1.65-1.3s-1-.84-1.55-1.22a36.34,36.34,0,0,0-3.76-2.27,38.79,38.79,0,0,0-4.13-1.86,26.6,26.6,0,0,1-1.17,4.49,24.92,24.92,0,0,1-2.05,4.37,9.69,9.69,0,0,1-1,1.31,3.06,3.06,0,0,1-2.14,1.13,4.72,4.72,0,0,1-4.62-2.31,10.31,10.31,0,0,1-1.54-3.71,7.65,7.65,0,0,1,.28-4.15,7,7,0,0,1,.81-1.75,11.2,11.2,0,0,1,1.41-1.79,7.79,7.79,0,0,1,1.72-1.37,4.28,4.28,0,0,1,1.84-.57,3.49,3.49,0,0,1,1,.2q.35-1.17.9-3.48a32.64,32.64,0,0,0,.76-4.39,8.63,8.63,0,0,0-.19-3.31c-.27-.82-.93-1-2-.39a3.14,3.14,0,0,1-2.4-.58,4.92,4.92,0,0,1-1.58-2,5.24,5.24,0,0,1-.41-2.5,3.32,3.32,0,0,1,1.08-2.22,4.29,4.29,0,0,1,2.66-1.38,4.22,4.22,0,0,1,2.45.62,8.39,8.39,0,0,1,2,1.76A11.28,11.28,0,0,1,462,93.63Zm-5.37,18.6a1.9,1.9,0,0,0-1.68.21,2.77,2.77,0,0,0-.9,1.46,1.89,1.89,0,0,0,.37,1.88,1,1,0,0,0,.61.37c.2,0,.34-.08.42-.32.24-.66.44-1.25.6-1.75S456.39,113,456.63,112.23Z"/><path class="cls-2" d="M176,223.29a3.14,3.14,0,0,1-2.49-.32,5.76,5.76,0,0,1-1.93-1.81,5.9,5.9,0,0,1-1-2.51,3.79,3.79,0,0,1,.56-2.61,6.48,6.48,0,0,1,3.61-1,5.92,5.92,0,0,1,3.1,1,8.14,8.14,0,0,1,2.35,2.52,9,9,0,0,1,1.23,3.41,26.84,26.84,0,0,1,.28,3.6,33.26,33.26,0,0,1-.14,3.66,32.65,32.65,0,0,1-1.05,6.49,38,38,0,0,0-1.14,6.42,6.79,6.79,0,0,0,2.79.61,23.31,23.31,0,0,0,3.62-.11c1.23-.13,2.43-.31,3.6-.53s2.11-.4,2.83-.51a2.51,2.51,0,0,1,.66-.19,13.13,13.13,0,0,0,1.68-3.71,26.8,26.8,0,0,0,.79-4.14c.16-1.42.25-2.82.28-4.2s.06-2.66.11-3.86q.11-3.27.12-6.66t.28-6.8a55.58,55.58,0,0,1,.92-6.73,32.59,32.59,0,0,1,2.07-6.51c.6-1,1.3-1.44,2.12-1.3a3.69,3.69,0,0,1,2.22,1.38,8.46,8.46,0,0,1,1.53,2.81,4.88,4.88,0,0,1,.14,3,27,27,0,0,0-2.83,6.58,52.73,52.73,0,0,0-1.47,7.11c-.32,2.42-.57,4.82-.72,7.21s-.39,4.73-.68,7q-.39,3.15-1.09,6.46a14.76,14.76,0,0,1-2.72,5.93,1.29,1.29,0,0,1-.87.47l-.5.07a52.88,52.88,0,0,1-6,1.4,26.29,26.29,0,0,1-6,.38,7.81,7.81,0,0,1-4.46-1.52,6.57,6.57,0,0,1-2.11-3.24,13.16,13.16,0,0,1-.49-4.42c.07-1.64.21-3.33.41-5.07s.37-3.46.51-5.17a19.74,19.74,0,0,0-.09-4.65A.08.08,0,0,1,176,223.29Z"/><path class="cls-2" d="M178.64,200a4.78,4.78,0,0,1,.81-3.2,2.87,2.87,0,0,1,4.15-.57,3.11,3.11,0,0,1,1.22,2.17l.2.74c-.57,1.17-.75,2-.55,2.35s.63.52,1.29.37a8.66,8.66,0,0,0,2.48-1.18,19,19,0,0,0,2.91-2.32,19.66,19.66,0,0,0,2.55-3,8.8,8.8,0,0,0,1.48-3.3,5.21,5.21,0,0,1,2-2.05,12.6,12.6,0,0,1,3-1.43,8.22,8.22,0,0,1,2.68-.44c.74,0,1.07.35,1,.92a37.85,37.85,0,0,1-3.3,5.72,36.36,36.36,0,0,1-3.92,4.73,22.44,22.44,0,0,1-4.29,3.42,13.24,13.24,0,0,1-4.48,1.78,9.58,9.58,0,0,1-3,.15,8.89,8.89,0,0,1-2.81-.74,6.28,6.28,0,0,1-2.16-1.6A5.56,5.56,0,0,1,178.64,200Z"/><path class="cls-2" d="M214.75,217.7a3.1,3.1,0,0,1-2.49-.31,6,6,0,0,1-2.91-4.32,3.74,3.74,0,0,1,.56-2.61,8.17,8.17,0,0,1,4.2-1.65,6.82,6.82,0,0,1,3.79.76,7.91,7.91,0,0,1,2.84,2.66,9.29,9.29,0,0,1,1.43,4.11,19,19,0,0,1-.37,6.48c-.5,2.19-1,4.34-1.48,6.47-.26,1.29-.52,2.63-.77,4a16.74,16.74,0,0,0-.26,4,9.53,9.53,0,0,0,3.16-2.1c1.07-1,2.16-2.13,3.26-3.35l3.35-3.67a20.52,20.52,0,0,1,3.49-3c-.09-.95-.16-1.93-.22-2.92a22.07,22.07,0,0,1,0-3,24.28,24.28,0,0,1,.35-3.65c.23-1.35.5-2.73.8-4.14s.65-2.78,1-4.09a36.94,36.94,0,0,1,1.19-3.52c.59-1,1.3-1.43,2.12-1.3a3.66,3.66,0,0,1,2.21,1.39,8.55,8.55,0,0,1,1.54,2.81,5,5,0,0,1,.14,3,13.55,13.55,0,0,0-.93,2.06c-.31.82-.59,1.64-.84,2.47s-.48,1.66-.7,2.46-.41,1.51-.55,2.1c-.22.83-.4,1.69-.56,2.56s-.3,1.79-.45,2.73a6.14,6.14,0,0,1,3,2.2,12.42,12.42,0,0,1,2,3.81,14.57,14.57,0,0,1,.73,4.34,8.05,8.05,0,0,1-.84,3.89q-.93,1.77-2.07,1.89a3.36,3.36,0,0,1-2.27-.6,8.41,8.41,0,0,1-2-1.88,10.44,10.44,0,0,1-1.28-2c-.37-.91-.7-1.81-1-2.67a23.21,23.21,0,0,1-.76-2.8,4.56,4.56,0,0,1-.67.7,24.48,24.48,0,0,0-2.33,2.7c-.86,1.12-1.77,2.25-2.71,3.35a37.76,37.76,0,0,1-2.93,3.09,9.09,9.09,0,0,1-2.95,2,3.73,3.73,0,0,1-2.93-.08,6,6,0,0,1-2.67-3,5.89,5.89,0,0,1-.8-1.94,8.53,8.53,0,0,1-.23-2.11c0-1,0-1.89,0-2.78a24.25,24.25,0,0,1,.28-2.74c.19-1.79.41-3.6.65-5.4s.47-3.61.65-5.41a5.69,5.69,0,0,1,0-.73c0-.37,0-.79,0-1.24l-.58.08A5.65,5.65,0,0,0,214.75,217.7Zm22.7,10.5a19.39,19.39,0,0,0,.28,3.34,12.13,12.13,0,0,0,.92,3l.21-.29a8.08,8.08,0,0,0,.62-3.61,2.78,2.78,0,0,0-1.95-2.44Z"/><path class="cls-2" d="M353.93,199.16A44.29,44.29,0,0,0,354.1,213a3.61,3.61,0,0,1,2.06.85,6.75,6.75,0,0,1,1.56,1.86,6,6,0,0,1,.77,2.29,3.05,3.05,0,0,1-.43,2A5.73,5.73,0,0,1,356,221.8a2.89,2.89,0,0,1-2.32.21,5.17,5.17,0,0,1-2-1.2,8.58,8.58,0,0,1-1.49-2,11.7,11.7,0,0,1-1-2.13,16.93,16.93,0,0,1-.87-4.7c-.08-1.73-.12-3.37-.12-4.91a48,48,0,0,1,.38-6.3c.27-2.22.64-4.45,1.1-6.72s1-4.48,1.58-6.65,1.23-4.22,1.91-6.15,1.35-3.78,2.15-5.75a56.26,56.26,0,0,0,2-5.91,30.94,30.94,0,0,0,1-5.88,16,16,0,0,0-.64-5.73,7.58,7.58,0,0,0-.85-1.71,8.88,8.88,0,0,0-1.35-1.56l-1.09-.43a5.38,5.38,0,0,1-.76.06c-.23,0-.48,0-.76.08a6.63,6.63,0,0,0-3.37,1.82,11.21,11.21,0,0,0-2.1,3.14,16.27,16.27,0,0,0-1.18,3.9c-.24,1.4-.44,2.78-.58,4.11-.44,1.26-1,1.9-1.78,1.89a3.3,3.3,0,0,1-2.21-1,8.1,8.1,0,0,1-1.81-2.69,5.42,5.42,0,0,1-.49-3.05c.12-.7.22-1.29.29-1.76s.17-.9.28-1.32a11.51,11.51,0,0,1,.41-1.26,16.65,16.65,0,0,1,.78-1.66,25.32,25.32,0,0,1,1.71-2.86,13.07,13.07,0,0,1,2.19-2.59,10.54,10.54,0,0,1,5.41-3,7.55,7.55,0,0,1,4.69.71A11.2,11.2,0,0,1,359,152a21.41,21.41,0,0,1,2.69,4.57,10.25,10.25,0,0,1,.61,3.5,28.47,28.47,0,0,1-.23,4.19q-.28,2.15-.75,4.17c-.31,1.37-.58,2.49-.78,3.37-.6,2.15-1.21,4.36-1.84,6.66s-1.24,4.62-1.83,7-1.14,4.7-1.66,7S354.24,197,353.93,199.16Z"/><path class="cls-2" d="M365.6,211.47a15.71,15.71,0,0,1,.23-4.23c.28-1.58.59-3.21.94-4.89s.66-3.36.92-5.06a21.09,21.09,0,0,0,.25-4.66,5.43,5.43,0,0,1-2.55-2.79,4.07,4.07,0,0,1,.21-3.71,4.87,4.87,0,0,0,.86-.55,1.64,1.64,0,0,1,.8-.38,3.76,3.76,0,0,1,3.2.47,6.26,6.26,0,0,1,2,2.52,13.44,13.44,0,0,1,1.07,3.43,15.47,15.47,0,0,1,.26,3.22,30.4,30.4,0,0,1-.71,4.73q-.54,2.38-1.21,4.8c-.44,1.61-.84,3.2-1.17,4.8a22.34,22.34,0,0,0-.5,4.69,4.08,4.08,0,0,0,.05.94,4.76,4.76,0,0,0,1.61-1,20.27,20.27,0,0,0,2.68-3,37.8,37.8,0,0,0,3.4-5.38,17,17,0,0,1-.87-2.4,9.78,9.78,0,0,1-.38-2.55,27.69,27.69,0,0,1,.49-5.34,22.66,22.66,0,0,1,1.71-5.48,16.58,16.58,0,0,1,3.12-4.61,10.8,10.8,0,0,1,4.72-2.85,2.35,2.35,0,0,1,1.92.88,5.54,5.54,0,0,1,1.08,2l-.45,1.6h0a70.25,70.25,0,0,1-2.9,9,89.27,89.27,0,0,1-4.1,8.95,11.5,11.5,0,0,0,2.74,3.75,9.82,9.82,0,0,0,4.14,2.25l2.26-.33a4,4,0,0,1,2.6,1.07,7.93,7.93,0,0,1,2,2.47,4.26,4.26,0,0,1,.52,2.67c-.13.84-.77,1.41-1.93,1.7a15.59,15.59,0,0,1-4.94-.47,12.85,12.85,0,0,1-4-1.84,16.24,16.24,0,0,1-3.23-3,24.3,24.3,0,0,1-2.63-3.89c-1.19,2-2.45,3.92-3.77,5.74a61.2,61.2,0,0,1-4.28,5.22,7.13,7.13,0,0,1-1.36,0,4.8,4.8,0,0,1-2.24-1.21,7.27,7.27,0,0,1-1.47-2.14,11.1,11.1,0,0,1-.82-2.62C365.79,213.2,365.67,212.32,365.6,211.47ZM382,193.54a7,7,0,0,0-.47,1.43c-.1.48-.2.95-.31,1.42l2.48-6.36A13.34,13.34,0,0,0,382,193.54Z"/><path class="cls-2" d="M373.46,173.92a7.88,7.88,0,0,0,1-2.2,6.16,6.16,0,0,1-1.09-1,4,4,0,0,1-.74-1.22,2,2,0,0,1-.06-1.23,1.57,1.57,0,0,1,.8-1,3,3,0,0,1,2,.05,4.62,4.62,0,0,1,1.71,1.15,5.45,5.45,0,0,1,1.17,1.84,5.37,5.37,0,0,1,.4,2.08,12.82,12.82,0,0,0,3.55-2.32,21.17,21.17,0,0,0,2.82-3.2,34.86,34.86,0,0,0,2.35-3.78q1.06-2,2-3.93a2,2,0,0,1,1.94,0,6.9,6.9,0,0,1,2,1.55,9,9,0,0,1,1.48,2.18,3.35,3.35,0,0,1,.42,1.95,31.75,31.75,0,0,1-3.89,4,37.92,37.92,0,0,1-4.44,3.31q-2.34,1.52-4.84,2.86c-1.66.91-3.31,1.82-4.94,2.75a1.41,1.41,0,0,1-1,0,3.68,3.68,0,0,1-1-.54,6,6,0,0,1-.88-.8,4.39,4.39,0,0,1-.64-.85.35.35,0,0,0-.13-.24,2.71,2.71,0,0,1-.15-.75A2.15,2.15,0,0,1,373.46,173.92Z"/><path class="cls-2" d="M410.33,209.45c.31,1.72,0,3-.85,3.81a3.85,3.85,0,0,1-3.09,1.06,5.12,5.12,0,0,1-3.24-1.67,5.41,5.41,0,0,1-1.29-4.34,41,41,0,0,1,1.55-9.44,9.18,9.18,0,0,1,2.63-4.45,3.71,3.71,0,0,1,3.37-.67,11.78,11.78,0,0,1,3.75,1.88,30.66,30.66,0,0,1,3.77,3.25q1.86,1.86,3.42,3.38a19.47,19.47,0,0,0,2.69,2.3c.77.52,1.3.49,1.62-.07q.39-2.53.83-5.34a18.86,18.86,0,0,0,.12-5.28,8.81,8.81,0,0,0-1.76-4.32,7.47,7.47,0,0,0-4.77-2.46,10.91,10.91,0,0,0-3.53-.12c-1.23.16-2.5.39-3.79.69s-2.58.63-3.84,1a23.94,23.94,0,0,1-3.67.67,5.86,5.86,0,0,1-3.75-.81,2.41,2.41,0,0,1-.84-3,8.56,8.56,0,0,1,1.28-2.59,7.39,7.39,0,0,1,1.77-1.63A16.47,16.47,0,0,1,405,180c.85-.39,1.79-.85,2.79-1.4q3.1-1.58,5.82-2.62t5.58-1.86q2.88-.81,6.11-1.55t7.17-1.84A3.52,3.52,0,0,1,435,171.8a6.39,6.39,0,0,1,1.71,2.53,4.64,4.64,0,0,1,.19,2.71,2.43,2.43,0,0,1-2,1.71,14.53,14.53,0,0,1-1.56.1l-2.26.08c-.8,0-1.55.06-2.26.08a14.36,14.36,0,0,0-1.57.11c-2,.24-3.89.44-5.64.62a50.25,50.25,0,0,0-5.18.81,33.72,33.72,0,0,0-5.25,1.6,41.09,41.09,0,0,0-5.66,2.76,52.9,52.9,0,0,1,12.11-2.57,16.13,16.13,0,0,1,8,1.17,9.13,9.13,0,0,1,4.45,4.65,21.35,21.35,0,0,1,1.6,7.85,13.93,13.93,0,0,1-.21,2.94,30.16,30.16,0,0,1-.84,3.81,34.8,34.8,0,0,1-1.29,3.7,8.44,8.44,0,0,1-1.62,2.64,2.64,2.64,0,0,1-2.74.92,11.22,11.22,0,0,1-3.47-1.5,32.62,32.62,0,0,1-3.79-2.77c-1.31-1.09-2.54-2.07-3.69-2.92a14.61,14.61,0,0,0-3.14-1.85,1.93,1.93,0,0,0-2.23.25,5.32,5.32,0,0,0-1.29,2,6.18,6.18,0,0,0-.37,2.11,3.68,3.68,0,0,0,.32,1.58c.2.4.47.54.8.44a1.42,1.42,0,0,1,1.07.05,2,2,0,0,1,.69.63,2.26,2.26,0,0,1,.38.8C410.27,209.14,410.31,209.33,410.33,209.45Z"/><path class="cls-2" d="M406.63,166.08a4.84,4.84,0,0,1,.8-3.2,3,3,0,0,1,2-1.2,3,3,0,0,1,2.15.63,3.15,3.15,0,0,1,1.22,2.17l.19.74c-.56,1.17-.75,1.95-.55,2.35s.64.52,1.3.36a8.51,8.51,0,0,0,2.48-1.18,18.88,18.88,0,0,0,2.91-2.31,20.24,20.24,0,0,0,2.55-3,9.17,9.17,0,0,0,1.48-3.31,5.22,5.22,0,0,1,2-2,12.12,12.12,0,0,1,3-1.43,8,8,0,0,1,2.67-.44c.75,0,1.08.34,1,.92a37.74,37.74,0,0,1-3.3,5.71,34.32,34.32,0,0,1-3.92,4.74,22.78,22.78,0,0,1-4.28,3.42,13.58,13.58,0,0,1-4.49,1.78,10.19,10.19,0,0,1-3,.15,9.31,9.31,0,0,1-2.8-.74,6.13,6.13,0,0,1-2.17-1.61A5.46,5.46,0,0,1,406.63,166.08Z"/><path class="cls-2" d="M441.64,194.35a4.36,4.36,0,0,1-1.38-2.1,10.46,10.46,0,0,1-.71-3.36,6.67,6.67,0,0,1,.52-3.12,2.38,2.38,0,0,1,2.4-1.39,8.09,8.09,0,0,1,3.37,1.9,17.46,17.46,0,0,1,2.5,3,25.8,25.8,0,0,1,2,3.6c.56,1.29,1.13,2.55,1.71,3.77l1.12,2.62a14.37,14.37,0,0,0,1.34,2.41l.17,0a10.28,10.28,0,0,0,2.19-3.71,31,31,0,0,0,1.09-4.14c.24-1.07.48-2.2.7-3.4a26.12,26.12,0,0,0,.4-3.65,20.83,20.83,0,0,0-.21-3.7,13.05,13.05,0,0,0-1-3.53,1.7,1.7,0,0,0-.53.77c-.09.3-.2.63-.32,1a2.06,2.06,0,0,1-2.16.74,3.94,3.94,0,0,1-1.83-1.39,7.48,7.48,0,0,1-1.21-2.39,6.29,6.29,0,0,1-.32-2.39q1.33-2.6,3-3.14a3.89,3.89,0,0,1,3.12.22,7.92,7.92,0,0,1,2.72,2.47,13.32,13.32,0,0,1,1.83,3.4,18.59,18.59,0,0,1,1,5.51,33.19,33.19,0,0,1-.36,5.92,50.5,50.5,0,0,1-1.26,6q-.79,2.94-1.7,5.56c-.33.85-.68,1.9-1.07,3.15a5.26,5.26,0,0,1-1.89,2.85,2.27,2.27,0,0,1-1.72.52,3.66,3.66,0,0,1-1.64-.7,8,8,0,0,1-1.4-1.33c-.42-.51-.77-1-1.06-1.39a28,28,0,0,1-1.51-2.68c-.57-1.12-1.19-2.22-1.87-3.32a23,23,0,0,0-2.15-3,7.23,7.23,0,0,0-2.24-1.85c-.29,0-.46.07-.52.25S442.23,194.49,441.64,194.35Z"/><path class="cls-2" d="M485.58,180.12a4.62,4.62,0,0,1,2,1.28,8.61,8.61,0,0,1,1.73,2.4,4.27,4.27,0,0,1,.42,2.55c-.13.82-.78,1.37-1.94,1.66h-.51c-.46,0-.8.56-1,1.65s-.54,2.45-.89,4.07a42.4,42.4,0,0,1-1.51,5.11,12.11,12.11,0,0,1-2.92,4.58,2.14,2.14,0,0,1-1.19.05,7.08,7.08,0,0,1-1.1-.48,10.67,10.67,0,0,1-2.33-2.73,28.76,28.76,0,0,1-1.91-3.66,38.3,38.3,0,0,1-1.48-3.89,34.8,34.8,0,0,1-1-3.62,29.9,29.9,0,0,1-.59-6.29,22.13,22.13,0,0,1,1-6.27,10.29,10.29,0,0,1,4.26-5.3,23.08,23.08,0,0,1,7.11-3.16,30.3,30.3,0,0,1,7.9-1,16.52,16.52,0,0,1,6.56,1.21,13.85,13.85,0,0,1,5.67,4.47,14.26,14.26,0,0,1,2.52,6.3,22.28,22.28,0,0,1-.28,7.58,43.31,43.31,0,0,1-2.59,8.26c-.46,1.09-1,2.23-1.55,3.39a29.86,29.86,0,0,1-1.82,3.27,2.23,2.23,0,0,1-2.43.66,4.88,4.88,0,0,1-2.25-1.63,6.42,6.42,0,0,1-1.28-2.81,3.78,3.78,0,0,1,.44-2.85,18,18,0,0,0,1.37-2q1.14-1.8,2.37-4.2a36.11,36.11,0,0,0,2.08-5,8.55,8.55,0,0,0,.52-4.31,9.45,9.45,0,0,0-3-5.33,11.66,11.66,0,0,0-5.22-2.57,16.39,16.39,0,0,0-6.29,0,17.64,17.64,0,0,0-6.17,2.28,16.46,16.46,0,0,0-2.29,1.62,7.35,7.35,0,0,0-1.51,2.2,9.15,9.15,0,0,0-.82,4,30.28,30.28,0,0,0,.44,5.21,38.5,38.5,0,0,0,1.27,5.37,36.9,36.9,0,0,0,1.7,4.54,12.1,12.1,0,0,0,1.58-5.2q.27-3,.51-5.77a12.22,12.22,0,0,1,1.1-4.44C482.83,180.2,483.94,179.79,485.58,180.12Z"/><path class="cls-2" d="M525.83,167a18.8,18.8,0,0,1,1.93,5.19,23.82,23.82,0,0,1,.49,4.76,25.86,25.86,0,0,1-.31,3.95c-.2,1.16-.36,2.1-.49,2.8l1.92.83c1.41.6,2.65,1.14,3.76,1.63a14.93,14.93,0,0,1,3.4,2.19c.2-1.34.38-2.82.54-4.45s.27-3.26.34-4.93.1-3.32.11-5,0-3.19,0-4.61,0-2.76,0-4.34a10,10,0,0,1,1-4.21c.59-1,1.27-1.43,2-1.28a3.71,3.71,0,0,1,2.12,1.35,8,8,0,0,1,1.53,2.77,4.61,4.61,0,0,1,.13,2.89,6.92,6.92,0,0,0-1.18,3.9c0,1.51-.07,2.85-.13,4q-.13,2-.27,4.53c-.09,1.7-.23,3.42-.43,5.16s-.46,3.42-.79,5a28.63,28.63,0,0,1-1.17,4.24.93.93,0,0,0-.37.4.45.45,0,0,0-.24.08.29.29,0,0,1-.17.06,3,3,0,0,1-1,0,3.18,3.18,0,0,1-.82-.35c-.58-.43-1.13-.86-1.65-1.3s-1-.84-1.55-1.22a34.67,34.67,0,0,0-3.76-2.27,41,41,0,0,0-4.13-1.87,26.7,26.7,0,0,1-1.17,4.5,25.26,25.26,0,0,1-2,4.37,9.23,9.23,0,0,1-1,1.3,3,3,0,0,1-2.14,1.14,4.74,4.74,0,0,1-4.62-2.31,10.28,10.28,0,0,1-1.54-3.72,7.66,7.66,0,0,1,.28-4.15,7,7,0,0,1,.81-1.74,10.77,10.77,0,0,1,1.41-1.79,7.25,7.25,0,0,1,1.72-1.37,4.17,4.17,0,0,1,1.84-.58,4.41,4.41,0,0,1,1,.2c.23-.77.53-1.93.9-3.47a32.92,32.92,0,0,0,.76-4.39,8.44,8.44,0,0,0-.19-3.31c-.27-.82-.93-1-2-.39a3.11,3.11,0,0,1-2.4-.59,4.89,4.89,0,0,1-1.58-2,5.26,5.26,0,0,1-.41-2.51,3.31,3.31,0,0,1,1.08-2.21,4.23,4.23,0,0,1,2.67-1.38,4.13,4.13,0,0,1,2.44.62,8.34,8.34,0,0,1,2,1.75A11.69,11.69,0,0,1,525.83,167Zm-5.37,18.6a1.87,1.87,0,0,0-1.68.21,2.74,2.74,0,0,0-.9,1.46,1.88,1.88,0,0,0,.37,1.87,1,1,0,0,0,.61.38c.2,0,.34-.08.42-.32.25-.66.44-1.25.6-1.76S520.22,186.27,520.46,185.55Z"/><path class="cls-3" d="M48.6,150a1.46,1.46,0,0,1-.07-.19l.12.44-.06-.28-.67,1.72a3,3,0,0,0,.65-.63,2.91,2.91,0,0,0,.5-1.31l.06-.31-.18.69a3,3,0,0,1,.26-.64c-.12.22-.24.45-.37.67a3.28,3.28,0,0,1,.42-.56l-.57.6a2,2,0,0,1,.45-.36l-.76.46a2.08,2.08,0,0,1,.53-.23l-.93.26a1.89,1.89,0,0,1,.47-.06h-1a1.86,1.86,0,0,1,.52.07l-1-.26a2.06,2.06,0,0,1,.48.21l-.91-.51a4.83,4.83,0,0,1,.81.62l-.8-.77a3.17,3.17,0,0,1,.46.58c-.19-.33-.39-.65-.59-1a3,3,0,0,1,.27.61l-.33-1.16a2.93,2.93,0,0,1,.1.66c0-.41,0-.83,0-1.24a2,2,0,0,1-.06.48l.3-1.17a1,1,0,0,1-.11.28l2.48-2.56c-.18.09-.36.14-.53.22s-.34.15-.52.21l1.24-.36a3.34,3.34,0,0,1-.78.11l1.3,0a3.11,3.11,0,0,1-.91-.11l1.21.32a4.88,4.88,0,0,1-.92-.36l1.08.6a4.53,4.53,0,0,1-.46-.3c-.48-.32-1-.53-1.5-.8l1,.59a3.92,3.92,0,0,1-.62-.45l.83.79a.86.86,0,0,1-.13-.14,4.19,4.19,0,0,0-1.33-1.08,4.1,4.1,0,0,0-.53-.29,5.14,5.14,0,0,0-1.27-.37,3.5,3.5,0,0,0-1.63.16l-.51.15-.88.54s0,0,0,0-.69.7-.74.77a4.14,4.14,0,0,0-.29.51c-.1.19-.23.39-.32.59a3.25,3.25,0,0,0-.32,1.21,7.34,7.34,0,0,0,0,1.24l0,.08a11.6,11.6,0,0,0,.43,1.5,7.85,7.85,0,0,0,1,1.74,3.15,3.15,0,0,0,.54.57,5.89,5.89,0,0,0,.58.54c.28.19.59.35.89.52a7.22,7.22,0,0,0,1.29.61,8.61,8.61,0,0,0,4.09.41,12.05,12.05,0,0,0,1.66-.47,2.09,2.09,0,0,0,.41-.17,6,6,0,0,0,2.17-1.78,3.78,3.78,0,0,0,.44-.7l.29-.53c.1-.39.21-.79.31-1.19a10.59,10.59,0,0,0,0-1.38c0,.42,0,.84,0,1.26a11.75,11.75,0,0,0,0-1.68,2,2,0,0,0,0-.24,13,13,0,0,0-.4-1.35,7.74,7.74,0,0,0-.79-1.39c-.09-.13-.18-.26-.29-.39a7.07,7.07,0,0,0-1.53-1.36,8.26,8.26,0,0,0-1.36-.72l-.11,0a7.77,7.77,0,0,0-1.13-.28h-.27a6.33,6.33,0,0,0-2.91.47,6.12,6.12,0,0,0-1.18.7,5.92,5.92,0,0,0-.94.93,2.34,2.34,0,0,0-.24.31,6.79,6.79,0,0,0-.6,1.13,7.62,7.62,0,0,0-.31,1.16,3.11,3.11,0,0,0-.06.44,5.92,5.92,0,0,0,.23,2.07,5.13,5.13,0,0,0,.27.78,3.37,3.37,0,0,0,.91,1.17,2.61,2.61,0,0,0,2.14.45l-1.4-.35a3.12,3.12,0,0,0,.92.44,1.84,1.84,0,0,0,.84.1,1.59,1.59,0,0,0,.91-.48A1.63,1.63,0,0,0,48.6,150Z"/><path class="cls-3" d="M95.47,145.09l-.14-.12c.14.13.28.26.41.4a3.11,3.11,0,0,1-.39-.49l.35.56a2.65,2.65,0,0,1-.27-.62l.21.74a9.24,9.24,0,0,0-.35-1.35,4,4,0,0,1-.25-.65c.08.27.15.54.23.82a4.49,4.49,0,0,1-.15-1c0,.29,0,.58,0,.87,0-.4,0-.8,0-1.2,0,.3,0,.59,0,.88a3.71,3.71,0,0,1,.1-.94l-.21.82a3.46,3.46,0,0,1,.3-.75l-.41.73a3.15,3.15,0,0,1,.41-.55l-.58.6a3,3,0,0,1,.51-.42l-.72.45a3.11,3.11,0,0,1,.67-.3l-.85.25a3.48,3.48,0,0,1,.72-.11l-.88,0a3.31,3.31,0,0,1,.94.11l-.82-.21a4.38,4.38,0,0,1,.9.37l-.74-.41a4.07,4.07,0,0,1,.79.57l-.61-.58a3.94,3.94,0,0,1,.61.74l-.45-.73a1.44,1.44,0,0,1,.16.33l-.24-.85a5.51,5.51,0,0,1,.06.57c0-.31,0-.61,0-.92a2.73,2.73,0,0,1-.07.64c.07-.3.15-.6.23-.9a2.7,2.7,0,0,1-.23.58l.46-.83c-.24.43-.49.85-.72,1.28.16-.28.32-.56.47-.84a2.36,2.36,0,0,1-.4.54l.67-.69a3.85,3.85,0,0,1-.63.5l.84-.51a4.34,4.34,0,0,1-.91.4l1-.28a4.58,4.58,0,0,1-1,.15h1a3.47,3.47,0,0,1-.85-.1l1,.24a2.9,2.9,0,0,1-.67-.26l.85.47a9.52,9.52,0,0,0-1.13-.62,2.33,2.33,0,0,1-.33-.14l.81.45a2.13,2.13,0,0,1-.43-.31l.64.61a1.34,1.34,0,0,1-.2-.21,3.35,3.35,0,0,0-1.78-1.11,3.18,3.18,0,0,0-2.17.15A4.09,4.09,0,0,0,89.78,143a2.5,2.5,0,0,0-.52,1.16,2.56,2.56,0,0,0-.1,1.32,3.56,3.56,0,0,0,.06.44,6.72,6.72,0,0,0,.39,1.28,7.21,7.21,0,0,0,.68,1.13,4.71,4.71,0,0,0,1.81,1.34,7,7,0,0,0,3.63.55,8,8,0,0,0,1.87-.44,4.32,4.32,0,0,0,.85-.38,7.52,7.52,0,0,0,2.15-1.73,5.23,5.23,0,0,0,1-1.56,6,6,0,0,0,.26-1s0-.09,0-.13a2.46,2.46,0,0,0,0-.26,6.11,6.11,0,0,0-.54-3,12.48,12.48,0,0,0-.77-1.26l.44.73a5.93,5.93,0,0,0-1.13-1.67,9.75,9.75,0,0,0-1-.93,10.33,10.33,0,0,0-1.24-.73,7.13,7.13,0,0,0-1.95-.61,3.79,3.79,0,0,0-.58,0,6.47,6.47,0,0,0-1.46.07A6.3,6.3,0,0,0,91,138.36a2.5,2.5,0,0,0-.39.34,6.43,6.43,0,0,0-.89,1,5.83,5.83,0,0,0-.8,1.62,7,7,0,0,0-.32,2.25,6.54,6.54,0,0,0,.5,2.37,3.4,3.4,0,0,0,.27.54c.18.31.36.62.56.92a3.57,3.57,0,0,0,1.39,1.07l-.69-.39a6.92,6.92,0,0,0,2.22.9,4.26,4.26,0,0,0,1.63,0,2.15,2.15,0,0,0,1.75-1.6,2.19,2.19,0,0,0-.78-2.26Z"/><path class="cls-3" d="M263.36,220.6c10.81,6.68,23.72,8.22,36,5.19a54.31,54.31,0,0,0,17.39-7.62c5-3.31,10.53-8,12.37-13.87,1.14-3.64-3-7.36-6.25-4.63-4,3.33-7.08,7.55-11.39,10.62a41.72,41.72,0,0,1-13.89,6.39,45.56,45.56,0,0,1-30.43-2.94c-4-1.89-7.68,4.48-3.83,6.86Z"/><path class="cls-3" d="M277.1,183h0a5.19,5.19,0,0,0-1.67-2.1,5.3,5.3,0,0,0-2.5-1l-.13,0,1.33.34a1.43,1.43,0,0,1-.34-.14l1.2.67a10,10,0,0,0-1.5-.85,2.83,2.83,0,0,1-.36-.16l1.21.68a2.9,2.9,0,0,1-.53-.39l1,.95a3.8,3.8,0,0,1-.47-.59,4.87,4.87,0,0,0-1.38-1.45,8.21,8.21,0,0,0-3.37-1.4,4.53,4.53,0,0,0-2.38.36,4.37,4.37,0,0,0-1.8,1.44,4.45,4.45,0,0,0-.86,2.15,4.51,4.51,0,0,0,.35,2.38c0,.08.05.15.08.22-.12-.4-.23-.8-.35-1.19a6.73,6.73,0,0,1,.12,1.1l.39,1.35,0,.07.06.16c0,.09.09.18.13.27a12.83,12.83,0,0,0,1,1.68,2.45,2.45,0,0,0,.38.47,9.22,9.22,0,0,0,1.44,1.31,5.88,5.88,0,0,0,2.75,1.11,13.29,13.29,0,0,0,1.67,0,5.62,5.62,0,0,0,1.85-.48,5.3,5.3,0,0,0,2.1-1.68,5.12,5.12,0,0,0,1-2.49,4.21,4.21,0,0,0,0-.71,3.91,3.91,0,0,0-.39-2Z"/><path class="cls-3" d="M309.3,179.53v-.12c0,.32,0,.63,0,1a3.08,3.08,0,0,1,.07-.61l-2.29,3.09h.06a4.34,4.34,0,0,0,2.54-3.43c0-.15.05-.31.08-.46-.09.38-.19.75-.29,1.13,0-.06,0-.11,0-.16l-2.37,2.46.11-.05,1.07-.65a3.6,3.6,0,0,0,1.15-1.42,2.48,2.48,0,0,0,.46-1.14,3.71,3.71,0,0,0,.14-1.9,3.57,3.57,0,0,1,0-.46c0,.42,0,.84,0,1.26a3.72,3.72,0,0,1,.11-.94l-.3,1.14a3.88,3.88,0,0,1,.32-.82l-.54,1c.23-.4.48-.79.69-1.22s.18-.72.28-1.07,0-.77,0-1.16-.21-.74-.32-1.11a3.17,3.17,0,0,0-1-1.33,2.08,2.08,0,0,0-.87-.65,4.19,4.19,0,0,0-2.14-.54,3.29,3.29,0,0,0-1.68.33,5.5,5.5,0,0,0-1.46,1,8.91,8.91,0,0,0-1.2,1.33,9.61,9.61,0,0,0-.89,1.6,9.9,9.9,0,0,0-.52,1.82c0,.43,0,.86,0,1.29a3.64,3.64,0,0,0,.69,1.77,2.33,2.33,0,0,0,.77,1,3.61,3.61,0,0,0,1.51,1l.1,0-2.46-2.37c.06.14.12.28.19.41a12.86,12.86,0,0,0,.67,1.11,4.22,4.22,0,0,0,3,1.59l-1.84-.73.31.21a10,10,0,0,0,1.07.58,3.43,3.43,0,0,0,3.44-.51,3.5,3.5,0,0,0,1-1.4,3.43,3.43,0,0,0,.21-1.79Z"/><path class="cls-3" d="M38.42,182.29c11.77,9.65,26.37,18.62,42.27,16.93,12.5-1.33,27-9.09,27.72-23.11.21-4.22-6.22-6.54-7.66-2C97.61,184.21,89,191.58,78.4,192.37c-13.42,1-26.06-7.4-36.52-14.76-3.08-2.17-6.35,2.31-3.46,4.68Z"/><path class="cls-3" d="M110,164.43a15.3,15.3,0,0,1,.68-1.74,10.92,10.92,0,0,0,.61-1.94l.48-1.86a6.2,6.2,0,0,0,.13-.95,2.43,2.43,0,0,0-.14-1.28,1.13,1.13,0,0,0-1.72-.42,2.1,2.1,0,0,0-.5.68,4.48,4.48,0,0,0-.14.58,7.83,7.83,0,0,0-.22.93c-.07.63-.1,1.27-.15,1.91a11.37,11.37,0,0,0,0,2c.06.62.09,1.21.09,1.83s.74.8.93.24Z"/><path class="cls-3" d="M114.69,165.53c1.1.23,1.73-1.57,1.93-2.36s.37-1.5.53-2.25.31-1.5.47-2.25a5.32,5.32,0,0,0,.12-3,1.72,1.72,0,0,0-1.38-1,1.79,1.79,0,0,0-1.61.69,5.72,5.72,0,0,0-.75,2.92c-.09.82-.2,1.63-.28,2.44a15.4,15.4,0,0,0-.19,2.7c.07.84.2,2,1.16,2.17Z"/><path class="cls-3" d="M121.44,164.67l.92-3.53a36.51,36.51,0,0,0,.77-3.91,1.72,1.72,0,0,0-1.47-1.88,1.75,1.75,0,0,0-1.89,1.47,33.34,33.34,0,0,0-.63,3.57l-.39,3.59a1.41,1.41,0,0,0,1,1.51,1.37,1.37,0,0,0,1.64-.82Z"/><path class="cls-3" d="M25,170.4a5.64,5.64,0,0,0,.4-1.2c0-.17.06-.34.1-.51s0-.21.08-.32c0,.14,0,.11,0,0s.14-.49.2-.74l.06-.25c.1-.4-.05.17,0-.06s.2-.7.32-1.05c.23-.67.47-1.33.75-2a10.88,10.88,0,0,0,.75-2.28,1.11,1.11,0,0,0-.57-1.1,1.13,1.13,0,0,0-1.23.1,5.93,5.93,0,0,0-1.7,2.11,10.91,10.91,0,0,0-.88,2.15,12.82,12.82,0,0,0-.52,2.46c0,.38-.05.77-.05,1.16a3.55,3.55,0,0,0,0,.8,6.91,6.91,0,0,0,.25.77,1.1,1.1,0,0,0,2,0Z"/><path class="cls-3" d="M30.38,170.4l1-3.19a9,9,0,0,0,.6-3.87,1.46,1.46,0,0,0-1.07-1.17,1.42,1.42,0,0,0-1.51.53l-.23.37a2.31,2.31,0,0,0-.34.88c-.07.27-.13.55-.19.83a15.1,15.1,0,0,0-.26,1.66L28,169.79a1.22,1.22,0,0,0,2.34.61Z"/><path class="cls-3" d="M33.84,172.22c.39-1.06.8-2.12,1.17-3.19s.68-2.18,1-3.26a1.3,1.3,0,0,0-.7-1.64,1.28,1.28,0,0,0-1.64.7c-.37,1.07-.78,2.14-1.11,3.22s-.63,2.2-.94,3.29a1.18,1.18,0,1,0,2.2.88Z"/><path class="cls-3" d="M31.84,92.27c5.28-2.6,10.32-5.52,15.81-7.69a78.27,78.27,0,0,1,18.12-4.73,103.87,103.87,0,0,1,18.9-.77c6.15.28,12.33,1.45,18.49,1.28,1.92-.06,2.24-3.22.44-3.76-6.18-1.86-13-2-19.45-2.23a107.82,107.82,0,0,0-19.59,1c-11.88,1.81-25.2,6.12-34.29,14.3-1.23,1.11-.06,3.39,1.57,2.59Z"/><path class="cls-3" d="M32,85.84c-2.27-3.54-6-6.54-9-9.47s-6-5.69-8.86-8.66C8.78,62.12,3.55,54.33,6.7,46.3c1.09-2.76,2.45-6.16,5.22-7.64s7.58-1.12,9.9,1C27.4,44.89,32,51.73,36,58.2c1.1,1.8,4.1-.05,3.16-1.93A79.75,79.75,0,0,0,26.74,38.13c-2.34-2.58-4.51-4.16-8-4.74a14.24,14.24,0,0,0-9.29,1.25C4.41,37.5,1.17,44.85,1,50.44c-.26,7.44,3.68,14,8.64,19.2,3.06,3.23,6.43,6.14,9.75,9.1,3.49,3.11,7,6.9,11.15,9.14,1.29.71,2.12-1.08,1.51-2Z"/><path class="cls-3" d="M37.27,53.07c-.3-3.5-2-7-2.77-10.39a44.77,44.77,0,0,1-1-10.45c.07-6.49.9-13,4.09-18.77,3.1-5.59,8.61-9.32,15.16-8.81s12.57,4.46,16.38,9.8c5.06,7.1,6.2,15.64,7.6,24,.49,2.89,4.51,2.16,4.41-.65C80.57,22,72.87,3.59,55.67.36A20.07,20.07,0,0,0,36.42,7.29C31.76,12.85,30,20.53,29.73,27.64a52.93,52.93,0,0,0,1.05,13.47c.95,4.18,2.54,9.26,5.69,12.3a.45.45,0,0,0,.8-.34Z"/><path class="cls-3" d="M82.32,41.79c2.37-2.42,4.3-5.37,6.53-7.95a92.58,92.58,0,0,1,7.68-8c2.59-2.34,6-5.12,9.77-4.54,3.36.51,5.69,3.5,6.7,6.55,2.11,6.44.7,14.57-1.27,20.88A59.35,59.35,0,0,1,102.45,66c-1.82,2.49,1.75,4.92,3.75,2.78,5.41-5.79,8.93-13.46,10.86-21.09s3.17-17.58-1.14-24.63A12.76,12.76,0,0,0,107.53,17c-4-.71-7.91,1.11-11,3.56a61.87,61.87,0,0,0-9,9.27C85,32.92,82,36.58,80.42,40.39c-.43,1,1,2.32,1.9,1.4Z"/><path class="cls-4" d="M45.35,62.71l-2.45.36L43.18,65l2.45-.37a1,1,0,0,1,1.06.81l.12.79A3.68,3.68,0,0,0,45,66a3.76,3.76,0,0,0-3.1,4.29L42.13,72a3.69,3.69,0,1,0,7.3-1.08l-.12-.85-.13-.86-.61-4.07A2.86,2.86,0,0,0,45.35,62.71Zm2.2,8.51a1.79,1.79,0,1,1-3.54.52L43.76,70a1.78,1.78,0,1,1,3.53-.52l.13.86Z"/><path class="cls-4" d="M65.82,67.63l-.13-.85-.6-4.07a2.88,2.88,0,0,0-3.23-2.46l-2.45.37.28,1.93,2.45-.37A1,1,0,0,1,63.2,63l.12.79a3.57,3.57,0,0,0-1.84-.21,3.75,3.75,0,0,0-3.09,4.29l.25,1.71a3.69,3.69,0,1,0,7.3-1.09Zm-1.76,1.13a1.79,1.79,0,1,1-3.54.53l-.25-1.71a1.78,1.78,0,1,1,3.53-.52l.13.85Z"/><path class="cls-4" d="M77,70.67a3.74,3.74,0,0,0,3.09-4.29L80,65.53l-.12-.86-.61-4.07A2.86,2.86,0,0,0,76,58.15l-2.46.36.29,1.93,2.45-.36a.93.93,0,0,1,1.06.8l.12.79a3.68,3.68,0,0,0-1.84-.21,3.74,3.74,0,0,0-3.09,4.3l.25,1.7A3.75,3.75,0,0,0,77,70.67Zm-2.58-5.19A1.79,1.79,0,1,1,78,65l.12.86.13.85a1.79,1.79,0,1,1-3.54.52Z"/><path class="cls-4" d="M68.62,62.18a1,1,0,0,1,.78-1.08l2.45-.36-.29-1.93-2.45.36a2.87,2.87,0,0,0-2.37,3.29l1.39,9.33L70,71.51Z"/><polygon class="cls-4" points="59.2 73.11 53.22 67.71 57.27 60.98 54.8 61.35 52.39 65.36 51.34 58.3 49.46 58.58 51.78 74.22 53.66 73.94 53.11 70.21 56.74 73.48 59.2 73.11"/><path class="cls-5" d="M43.59,26.12C61.69,7.64,95.11,47.77,62,55.43c-6.59,1.36-13.85.93-18.87-3.08C35,45.86,37.37,32.46,43.59,26.12Z"/><path class="cls-2" d="M60.12,56.4c-4.79.71-12,.78-17.41-3.56a14.84,14.84,0,0,1-5.37-11.05,22.1,22.1,0,0,1,5.8-16.11h0c5.26-5.37,12.44-6.48,19.71-3.05,8.52,4,14.56,13.08,13.75,20.62C75.93,49.5,70.79,54,62.12,56.05,61.52,56.17,60.85,56.29,60.12,56.4Zm-7.6-34.3A14.87,14.87,0,0,0,44,26.56h0A20.79,20.79,0,0,0,38.6,41.71a13.73,13.73,0,0,0,4.9,10.14c5.84,4.67,14,3.86,18.35,3,8.21-1.9,12.88-5.94,13.5-11.69.75-7-5-15.54-13-19.35A17,17,0,0,0,52.52,22.1Z"/><path class="cls-2" d="M73.2,41.21c-2.83,2.35-4.55,2.85-5.73,3a10,10,0,0,1-1.39.09,3.15,3.15,0,0,1-2.66-1.2c-1.18-1.43-1.74-4.17-1.65-7.94.08-3.2.18-5.94.24-6.25a1.1,1.1,0,0,0-.35-.93c-.66-.71-2-1.62-2.67-1.52a.59.59,0,0,0-.26.1h0a23.56,23.56,0,0,1-4.63,2.8s-.69-5.16-2.49-5.09a2.35,2.35,0,0,0-.46,0,1.84,1.84,0,0,0-1.07.52c-.51.55-.34,1.36-.09,2.49,0,.15.07.31.11.49a25.25,25.25,0,0,1,.43,3.53,11.3,11.3,0,0,1-2.58.61,10.77,10.77,0,0,1-2,0,4.92,4.92,0,0,1-.71-.09,3.11,3.11,0,0,0-1,0,1.29,1.29,0,0,0-.42.13,1.21,1.21,0,0,0-.61,1.44c.26,1,1,1.57,2.26,1.89a14.32,14.32,0,0,0,4.75.07c-.2,2.81-.65,6.22-5.54,12.9-.51.7-1.19,1.37-1,2.18a1,1,0,0,0,.9.88c.94.14,2.72-.92,4.19-2.68,2.86-3.43,4.84-6.3,5.72-14.34.92-.48,2.13-1,2.9-1.44A55.21,55.21,0,0,0,58,43a7.69,7.69,0,0,0,4.85,6.13,9.42,9.42,0,0,0,3.08.48,6.2,6.2,0,0,0,.62-.06h0a7.92,7.92,0,0,0,5.74-3.65,11.83,11.83,0,0,0,1.56-4,1.93,1.93,0,0,1,0-.2l.31-1.3Z"/><path class="cls-3" d="M150.72,103.47a2.2,2.2,0,0,1,3,1.39,3.83,3.83,0,0,1,.15,1.8,5.48,5.48,0,0,1-.44,1.63l-.38.61-.73.3a3,3,0,0,0-.35,2.31,2.91,2.91,0,0,0,1.19,1.57,4.18,4.18,0,0,0,2.06.64,4.4,4.4,0,0,0,2.23-.47,7.42,7.42,0,0,0,2.63-2.13,13.55,13.55,0,0,0,1.8-3,15.18,15.18,0,0,0,1-3.41,18.33,18.33,0,0,0,.28-3.26l-.14-.87-.42-1a8.84,8.84,0,0,0-3.24-2.15,9.17,9.17,0,0,0-4.1-.65,8.07,8.07,0,0,0-4,1.4,8.25,8.25,0,0,0-3,4c-.26.56-.61.72-1,.47a3.92,3.92,0,0,1-1.2-1.23,6.9,6.9,0,0,1-.87-2,2.49,2.49,0,0,1,0-1.74,8,8,0,0,1,1.42-2.4A8.66,8.66,0,0,1,149,93.69a10.35,10.35,0,0,1,3.58-1,13.47,13.47,0,0,1,3.65.16A13,13,0,0,1,159.69,94a12.63,12.63,0,0,1,2.93,1.9,9.44,9.44,0,0,1,1.95,2.46,12.48,12.48,0,0,1,1.15,3.07,7.22,7.22,0,0,1,0,2.63,22.94,22.94,0,0,1-.76,3.16c-.33,1.08-.72,2.12-1.14,3.13a26.27,26.27,0,0,1-1.25,2.58,11,11,0,0,1-1.11,1.57,14.86,14.86,0,0,1-1.43,1.44,5.76,5.76,0,0,1-3,1.43,8.21,8.21,0,0,1-3.23-.14,5.47,5.47,0,0,1-2.88-1.82,9.6,9.6,0,0,1-1.83-3.19,10.2,10.2,0,0,1-.58-3.77,8.11,8.11,0,0,1,.86-3.54,8.51,8.51,0,0,1,.56-.81A2,2,0,0,1,150.72,103.47Z"/><path class="cls-3" d="M155.82,118.44a9.79,9.79,0,0,1-2.21-.25,6.67,6.67,0,0,1-3.42-2.14,10.94,10.94,0,0,1-2-3.52,11.31,11.31,0,0,1-.64-4.13,9.09,9.09,0,0,1,1-4,9.42,9.42,0,0,1,.64-1,3,3,0,0,1,1.16-.92l.15,0a3.37,3.37,0,0,1,2.75.23,3.51,3.51,0,0,1,1.41,1.78,4.92,4.92,0,0,1,.2,2.27,6.73,6.73,0,0,1-.53,1.93l-.6,1L153,110a1.7,1.7,0,0,0,.65,2.27,3.23,3.23,0,0,0,1.57.48,3.17,3.17,0,0,0,1.71-.36,6.42,6.42,0,0,0,2.31-1.85,13,13,0,0,0,1.66-2.82,13.67,13.67,0,0,0,.94-3.18,17.57,17.57,0,0,0,.28-3.07l-.14-.72-.27-.62A7.88,7.88,0,0,0,159,98.32a8.37,8.37,0,0,0-3.66-.59,6.89,6.89,0,0,0-6.1,4.79,2,2,0,0,1-1.15,1.15,1.63,1.63,0,0,1-1.32-.19,4.86,4.86,0,0,1-1.52-1.54,8,8,0,0,1-1-2.23,3.47,3.47,0,0,1,.06-2.44,9.08,9.08,0,0,1,1.6-2.65,9.24,9.24,0,0,1,2.68-1.82,11.16,11.16,0,0,1,3.93-1.1,14.69,14.69,0,0,1,3.92.18,14.37,14.37,0,0,1,3.71,1.2,14.17,14.17,0,0,1,3.16,2,10.87,10.87,0,0,1,2.16,2.74,13.4,13.4,0,0,1,1.25,3.32,8,8,0,0,1,0,3,23.77,23.77,0,0,1-.78,3.3,33.29,33.29,0,0,1-1.19,3.22,24.21,24.21,0,0,1-1.29,2.68,11.44,11.44,0,0,1-1.22,1.73,17,17,0,0,1-1.53,1.53,6.74,6.74,0,0,1-3.48,1.68A9.19,9.19,0,0,1,155.82,118.44Zm-4.76-14a.88.88,0,0,0-.31.27,5.55,5.55,0,0,0-.48.71,7.19,7.19,0,0,0-.74,3.06,9.59,9.59,0,0,0,.53,3.41,8.84,8.84,0,0,0,1.64,2.87,4.56,4.56,0,0,0,2.38,1.51,7.51,7.51,0,0,0,2.83.12,4.81,4.81,0,0,0,2.46-1.2,12.86,12.86,0,0,0,1.33-1.34,9.73,9.73,0,0,0,1-1.43,24.1,24.1,0,0,0,1.18-2.46c.41-1,.78-2,1.11-3a21.23,21.23,0,0,0,.72-3,6.13,6.13,0,0,0,0-2.26,11.41,11.41,0,0,0-1.06-2.8A8.83,8.83,0,0,0,162,96.61a11.72,11.72,0,0,0-2.69-1.73,12.61,12.61,0,0,0-3.2-1,12.81,12.81,0,0,0-3.39-.15,9.23,9.23,0,0,0-3.23.9A7.63,7.63,0,0,0,147.33,96a7.75,7.75,0,0,0-1.23,2.11,1.58,1.58,0,0,0,0,1.08,6.2,6.2,0,0,0,.75,1.67,3.68,3.68,0,0,0,.55.68,8.84,8.84,0,0,1,7.74-5.78,10.12,10.12,0,0,1,4.54.73,9.91,9.91,0,0,1,3.6,2.39l.19.31.41,1,.21,1.08a19.37,19.37,0,0,1-.29,3.59,15.46,15.46,0,0,1-1.08,3.63,14.56,14.56,0,0,1-1.92,3.26,8.42,8.42,0,0,1-3,2.41,5.19,5.19,0,0,1-2.72.56,5,5,0,0,1-2.54-.8,3.83,3.83,0,0,1-1.6-2.09,3.92,3.92,0,0,1,.42-3.07l.16-.33.78-.32.21-.34a5,5,0,0,0,.29-1.24,2.78,2.78,0,0,0-.1-1.33,1.39,1.39,0,0,0-.6-.76A1.49,1.49,0,0,0,151.06,104.42Z"/><path class="cls-3" d="M149.87,84.31a3.27,3.27,0,0,1,.52-2.24,2,2,0,0,1,2.89-.46,2.22,2.22,0,0,1,.88,1.5l.15.51c-.41.91-.47,1.52-.17,1.83a1.6,1.6,0,0,0,1.49.28,8.2,8.2,0,0,0,2.45-.92A18.93,18.93,0,0,0,160.8,83a15.35,15.35,0,0,0,2.32-2.22,5.28,5.28,0,0,0,1.22-2.37,2.89,2.89,0,0,1,1.32-1.39,9.51,9.51,0,0,1,2.09-1,4.81,4.81,0,0,1,1.87-.25c.55,0,.8.27.75.68a14.6,14.6,0,0,1-2.71,4,23.79,23.79,0,0,1-3.75,3.31,26.69,26.69,0,0,1-4,2.36,16.35,16.35,0,0,1-3.56,1.26,6.73,6.73,0,0,1-2.1.15,6.26,6.26,0,0,1-2-.48,4.15,4.15,0,0,1-1.54-1.09A3.76,3.76,0,0,1,149.87,84.31Z"/><path class="cls-3" d="M154.82,88.64q-.33,0-.66,0a7.26,7.26,0,0,1-2.28-.55A5.21,5.21,0,0,1,150,86.72a4.77,4.77,0,0,1-1.09-2.19l0-.17a4.28,4.28,0,0,1,.73-2.9,3,3,0,0,1,4.25-.67,3.15,3.15,0,0,1,1.29,2.15l.23.75-.15.34a3.28,3.28,0,0,0-.26.78c.07,0,.23,0,.5-.06a7.66,7.66,0,0,0,2.15-.82,18.37,18.37,0,0,0,2.58-1.69,14.34,14.34,0,0,0,2.17-2.08,4.29,4.29,0,0,0,1-1.9,3.87,3.87,0,0,1,1.79-2.07,10.72,10.72,0,0,1,2.3-1,5.81,5.81,0,0,1,2.26-.3,1.85,1.85,0,0,1,1.33.62,1.51,1.51,0,0,1,.32,1.17l-.08.29a15.63,15.63,0,0,1-2.89,4.3,24.78,24.78,0,0,1-3.91,3.44,25.8,25.8,0,0,1-4.16,2.45,17.35,17.35,0,0,1-3.78,1.34A8.09,8.09,0,0,1,154.82,88.64Zm-4-4.46a2.9,2.9,0,0,0,.62,1.21,3.26,3.26,0,0,0,1.18.84,5.44,5.44,0,0,0,1.44.37,2,2,0,0,1-.69-.47,2.43,2.43,0,0,1-.16-2.58l-.05-.17a1.33,1.33,0,0,0-.5-1,1.07,1.07,0,0,0-.79-.23,1.09,1.09,0,0,0-.73.49A2.39,2.39,0,0,0,150.86,84.18Zm18.25-7.34a4.3,4.3,0,0,0-1.07.21,8.54,8.54,0,0,0-1.86.85,2,2,0,0,0-.91.89,6,6,0,0,1-1.38,2.66,16.33,16.33,0,0,1-2.47,2.36,19.4,19.4,0,0,1-2.88,1.88l-.24.13c.37-.15.77-.32,1.18-.52A24.77,24.77,0,0,0,163.33,83a22.79,22.79,0,0,0,3.6-3.17A14,14,0,0,0,169.11,76.84Z"/><path class="cls-3" d="M180.75,97.06a3.21,3.21,0,0,1,1.4.87,5.59,5.59,0,0,1,1.24,1.65,2.85,2.85,0,0,1,.33,1.77c-.08.57-.52,1-1.32,1.18H182c-.32,0-.56.41-.7,1.17s-.34,1.72-.57,2.85a28.15,28.15,0,0,1-1,3.59,8.52,8.52,0,0,1-2,3.24,1.52,1.52,0,0,1-.83.05,4.73,4.73,0,0,1-.77-.32,7.52,7.52,0,0,1-1.67-1.87,19.19,19.19,0,0,1-1.38-2.53,24.82,24.82,0,0,1-1.09-2.69,21.11,21.11,0,0,1-.73-2.51,20.51,20.51,0,0,1-.5-4.38,15.3,15.3,0,0,1,.63-4.4,7.21,7.21,0,0,1,2.9-3.75,16,16,0,0,1,4.91-2.31,20.71,20.71,0,0,1,5.51-.78,11.56,11.56,0,0,1,4.59.74,9.78,9.78,0,0,1,4,3A10,10,0,0,1,195.26,96a15.25,15.25,0,0,1-.09,5.29,30.5,30.5,0,0,1-1.68,5.81c-.31.77-.66,1.56-1,2.39a19.94,19.94,0,0,1-1.22,2.3,1.55,1.55,0,0,1-1.69.5,3.31,3.31,0,0,1-1.59-1.11,4.44,4.44,0,0,1-.93-1.94,2.64,2.64,0,0,1,.26-2,13.83,13.83,0,0,0,.93-1.42q.76-1.26,1.59-3a25.75,25.75,0,0,0,1.39-3.5,6,6,0,0,0,.29-3,6.59,6.59,0,0,0-2.18-3.67A8.12,8.12,0,0,0,185.62,91a11.67,11.67,0,0,0-4.4.06A12.45,12.45,0,0,0,177,92.72a11.56,11.56,0,0,0-1.58,1.17,5.06,5.06,0,0,0-1,1.55,6.33,6.33,0,0,0-.51,2.82,20.59,20.59,0,0,0,.37,3.62,27.22,27.22,0,0,0,1,3.73,26.16,26.16,0,0,0,1.25,3.15,8.53,8.53,0,0,0,1-3.65c.1-1.42.19-2.76.27-4a8.77,8.77,0,0,1,.7-3.11C178.82,97.16,179.59,96.85,180.75,97.06Z"/><path class="cls-3" d="M177.28,114.47a2.14,2.14,0,0,1-.58-.08,7.62,7.62,0,0,1-.92-.38,8.09,8.09,0,0,1-2.06-2.23,20,20,0,0,1-1.46-2.65,26.46,26.46,0,0,1-1.12-2.78,23.7,23.7,0,0,1-.76-2.63,21.77,21.77,0,0,1-.53-4.59,16.55,16.55,0,0,1,.67-4.68,8.3,8.3,0,0,1,3.29-4.29A16.88,16.88,0,0,1,179,87.71a22.27,22.27,0,0,1,5.77-.82,13.16,13.16,0,0,1,5,.83,10.77,10.77,0,0,1,4.43,3.35,10.9,10.9,0,0,1,2,4.8,16.22,16.22,0,0,1-.09,5.63,31.19,31.19,0,0,1-1.74,6c-.31.79-.66,1.61-1,2.45a21.9,21.9,0,0,1-1.28,2.41,2.62,2.62,0,0,1-2.84.92,4.37,4.37,0,0,1-2.06-1.42,5.71,5.71,0,0,1-1.14-2.36,3.62,3.62,0,0,1,.38-2.72l.18-.22c.07-.1.34-.52.76-1.21s1-1.78,1.55-2.88a25.64,25.64,0,0,0,1.33-3.37,5.19,5.19,0,0,0,.27-2.5,5.63,5.63,0,0,0-1.84-3.12A7.28,7.28,0,0,0,185.43,92a10.86,10.86,0,0,0-4,.06,11.35,11.35,0,0,0-3.93,1.55,9.48,9.48,0,0,0-1.42,1.05,4,4,0,0,0-.81,1.24,5.33,5.33,0,0,0-.41,2.38,20.4,20.4,0,0,0,.35,3.46,28.29,28.29,0,0,0,.93,3.6l.23.66a8.58,8.58,0,0,0,.11-.92l.28-4a9.76,9.76,0,0,1,.79-3.48c.34-.71,1.22-1.84,3.38-1.45h0a4.17,4.17,0,0,1,1.88,1.12,6.8,6.8,0,0,1,1.45,1.93,4,4,0,0,1,.42,2.36,2.44,2.44,0,0,1-2.06,2l-.24,0a2.39,2.39,0,0,0-.09.38l-.57,2.86a28.8,28.8,0,0,1-1,3.71,9.59,9.59,0,0,1-2.21,3.62l-.17.18-.25.07A2.89,2.89,0,0,1,177.28,114.47ZM185,88.88h-.15a20.41,20.41,0,0,0-5.24.75A15.26,15.26,0,0,0,175,91.79,6.29,6.29,0,0,0,172.43,95a14.49,14.49,0,0,0-.58,4.09,19.18,19.18,0,0,0,.47,4.17,22.81,22.81,0,0,0,.7,2.4,25.23,25.23,0,0,0,1,2.6,19.37,19.37,0,0,0,1.32,2.41,6.42,6.42,0,0,0,1.44,1.62l.44.15h0a7.63,7.63,0,0,0,1.55-2.65,26.52,26.52,0,0,0,.94-3.46l.57-2.85c.25-1.28.8-1.94,1.64-2h.39c-.08,0,.32-.13.35-.32a2,2,0,0,0-.24-1.19,4.8,4.8,0,0,0-1-1.36,2.22,2.22,0,0,0-.92-.62c-1-.17-1.12.17-1.21.35a7.69,7.69,0,0,0-.6,2.75l-.28,4a9.51,9.51,0,0,1-1.15,4.07l-.94,1.63-.83-1.69a28,28,0,0,1-1.3-3.26,28.83,28.83,0,0,1-1-3.87,23.33,23.33,0,0,1-.39-3.79,7.45,7.45,0,0,1,.61-3.26,5.9,5.9,0,0,1,1.24-1.85,12.73,12.73,0,0,1,1.72-1.28A13.44,13.44,0,0,1,181,90.06a12.84,12.84,0,0,1,4.78-.06,9.17,9.17,0,0,1,4.12,1.93,7.55,7.55,0,0,1,2.52,4.21,7,7,0,0,1-.31,3.55,27,27,0,0,1-1.44,3.64c-.56,1.16-1.11,2.18-1.64,3a13.84,13.84,0,0,1-1,1.48,1.75,1.75,0,0,0-.1,1.19,3.56,3.56,0,0,0,.72,1.53,2.44,2.44,0,0,0,1.14.79c.14,0,.33.1.66-.24.28-.51.68-1.24,1-2s.71-1.59,1-2.35a29.3,29.3,0,0,0,1.63-5.6,14.8,14.8,0,0,0,.09-5,8.93,8.93,0,0,0-1.67-3.93A8.75,8.75,0,0,0,189,89.55,10.51,10.51,0,0,0,185,88.88Zm-2.87,14.65h0Z"/><path class="cls-3" d="M208.16,108.11a2.65,2.65,0,0,1-1.33-.76,4.19,4.19,0,0,1-1-1.37,1.84,1.84,0,0,1-.1-1.33q.19-.6,1.2-.66l.56.09a5.75,5.75,0,0,0,2-1.32,9.9,9.9,0,0,0,1.57-2.07,12.32,12.32,0,0,0,1.08-2.46,8,8,0,0,0,.41-2.38l-.07,0a6.09,6.09,0,0,0-1.88-.14,10.16,10.16,0,0,0-2,.38,11.44,11.44,0,0,0-1.94.75,16.64,16.64,0,0,0-1.7.94c-.58.34-1.06.64-1.43.91a4.28,4.28,0,0,1-1.43.6,2.4,2.4,0,0,1-1.17-.88,4.25,4.25,0,0,1-.88-2.55,8.57,8.57,0,0,1,.44-2.89,12.17,12.17,0,0,1,1.32-2.81,14,14,0,0,1,1.77-2.27,16.16,16.16,0,0,1,2.39-2,14.13,14.13,0,0,1,2.71-1.51q.4-.12,1-.36l1.36-.47,1.33-.43,1-.32a2,2,0,0,1,1.39.57,4.22,4.22,0,0,1,1,1.32,2.47,2.47,0,0,1,.25,1.49,1.14,1.14,0,0,1-1,.94l-1,.21-1.33.28-1.33.32c-.42.11-.77.19-1,.24a12.14,12.14,0,0,0-5.3,3,9.22,9.22,0,0,0-2.8,5.37c.72-.68,1.58-1.43,2.58-2.24a11.26,11.26,0,0,1,2.85-1.74c.65-.23,1.29-.43,1.94-.6a5.36,5.36,0,0,1,1.89-.17,3,3,0,0,1,2.71,1.81,8.57,8.57,0,0,1,.6,3.74,16.51,16.51,0,0,1-.75,4.23,16.87,16.87,0,0,1-1.4,3.39,11,11,0,0,1-1.92,2.3A3.48,3.48,0,0,1,208.16,108.11Z"/><path class="cls-3" d="M208.44,109.11H208a3.49,3.49,0,0,1-1.86-1,5.31,5.31,0,0,1-1.17-1.69,2.82,2.82,0,0,1-.13-2,2.07,2.07,0,0,1,2.1-1.34l.47.06a4.78,4.78,0,0,0,1.39-1,9,9,0,0,0,1.41-1.85,11.44,11.44,0,0,0,1-2.27,8.55,8.55,0,0,0,.3-1.27,4.5,4.5,0,0,0-.82,0,9.48,9.48,0,0,0-1.8.33,12.11,12.11,0,0,0-1.78.69,18,18,0,0,0-1.6.89c-.59.35-1.05.63-1.4.88a5,5,0,0,1-1.77.76l-.3.07-.28-.11a3.31,3.31,0,0,1-1.64-1.25,5.19,5.19,0,0,1-1.06-3.09,9.81,9.81,0,0,1,.49-3.22,13.29,13.29,0,0,1,1.43-3,14.54,14.54,0,0,1,1.9-2.44A17.55,17.55,0,0,1,205.4,85a15,15,0,0,1,2.91-1.61L209.4,83l1.14-.39,1.58-.52,1.32-.37a2.91,2.91,0,0,1,2.05.81,5.15,5.15,0,0,1,1.27,1.64,3.47,3.47,0,0,1,.35,2.08,2.13,2.13,0,0,1-1.74,1.76l-1.07.22-1.24.26-1.36.32a10.62,10.62,0,0,1-1.14.26,11.24,11.24,0,0,0-4.77,2.77,8.62,8.62,0,0,0-1.13,1.31,11.35,11.35,0,0,1,2.71-1.58c.7-.25,1.37-.46,2.06-.64a6.77,6.77,0,0,1,2.22-.2,4,4,0,0,1,3.53,2.42,9.47,9.47,0,0,1,.69,4.17,17.6,17.6,0,0,1-.8,4.49,16.9,16.9,0,0,1-1.49,3.59,11.88,11.88,0,0,1-2.11,2.54A4.37,4.37,0,0,1,208.44,109.11Zm-.15-2a2.45,2.45,0,0,0,1.85-.62,10.34,10.34,0,0,0,1.74-2.09,17.58,17.58,0,0,0,2-7.13,7.62,7.62,0,0,0-.53-3.3,2,2,0,0,0-1.89-1.22,4.83,4.83,0,0,0-1.53.14c-.63.16-1.25.36-1.86.58a10.41,10.41,0,0,0-2.56,1.57c-1,.8-1.82,1.53-2.53,2.19l-.92.87a.57.57,0,0,0,.13.08,3,3,0,0,0,.76-.36c.4-.28.9-.59,1.51-1a17.35,17.35,0,0,1,1.76-1,12.37,12.37,0,0,1,2.11-.81,11.07,11.07,0,0,1,2.2-.41,6.58,6.58,0,0,1,2.19.16l.34.15.42.3.07.56a8.74,8.74,0,0,1-.45,2.68,13.12,13.12,0,0,1-1.17,2.66,10.77,10.77,0,0,1-1.72,2.27A6.76,6.76,0,0,1,207.9,105l-.25.1-.82-.13a.54.54,0,0,0-.17.08,4.51,4.51,0,0,0,.14.54,3.53,3.53,0,0,0,.73,1A1.77,1.77,0,0,0,208.29,107.12Zm5.28-23.36-.85.27-1.31.43-1.34.46c-.45.16-.82.29-1.09.37a14,14,0,0,0-2.44,1.38,15.26,15.26,0,0,0-2.24,1.87,13,13,0,0,0-1.65,2.12,10.94,10.94,0,0,0-1.21,2.57,7.74,7.74,0,0,0-.39,2.56,3.63,3.63,0,0,0,.18,1.07l.08-.49a10.21,10.21,0,0,1,3.1-5.94,13.32,13.32,0,0,1,5.73-3.27c.35-.06.67-.13,1.05-.23s.89-.22,1.36-.33l1.33-.28,1.1-.22a1,1,0,0,0,0-1,3.16,3.16,0,0,0-.79-1A1.25,1.25,0,0,0,213.57,83.76Z"/><path class="cls-3" d="M222.65,87.88a4.76,4.76,0,0,1-1.51-1.52,3.57,3.57,0,0,1-.6-1.9,1.76,1.76,0,0,1,1-1.58c.89-.43,1.85-.86,2.87-1.29a15.52,15.52,0,0,1,3.14-1,8.64,8.64,0,0,1,3.08,0A5.34,5.34,0,0,1,233.28,82a8.39,8.39,0,0,1,2.38,4.49,25.61,25.61,0,0,1,.5,6,42,42,0,0,1-.65,6.25c-.36,2.06-.75,3.82-1.14,5.29-.58.58-1.05.83-1.43.75a1.33,1.33,0,0,1-.9-.71,3.79,3.79,0,0,1-.43-1.52,6.46,6.46,0,0,1,0-1.65,31.59,31.59,0,0,1,.92-4.14c.38-1.28.71-2.55,1-3.8a18.13,18.13,0,0,0,.42-3.72,9.74,9.74,0,0,0-.8-3.82l-.26-.5-.34-.24-.44-.1-.19-.09-.63-.14-.59,0-.69.18-1.33.65-4.16,3A2.17,2.17,0,0,1,222.65,87.88Z"/><path class="cls-3" d="M233.08,105.72a2,2,0,0,1-.34,0,2.32,2.32,0,0,1-1.57-1.2,5,5,0,0,1-.56-1.91,7.45,7.45,0,0,1,0-1.9,33.42,33.42,0,0,1,.94-4.28c.38-1.25.7-2.49,1-3.71a17.59,17.59,0,0,0,.39-3.53,8.73,8.73,0,0,0-.72-3.43l-.1-.19-.88-.25-1,.18L229.1,86l-4.31,3.1a3.12,3.12,0,0,1-2.67-.42,5.71,5.71,0,0,1-1.83-1.83,4.6,4.6,0,0,1-.74-2.42A2.67,2.67,0,0,1,221,82c1-.48,1.95-.92,3-1.36a16.22,16.22,0,0,1,3.34-1,9.72,9.72,0,0,1,3.44,0A6.29,6.29,0,0,1,234,81.23a9.29,9.29,0,0,1,2.68,5,26.1,26.1,0,0,1,.53,6.2,44.07,44.07,0,0,1-.66,6.41c-.37,2.06-.76,3.87-1.16,5.37l-.07.26-.19.19A3.15,3.15,0,0,1,233.08,105.72Zm-1.73-22.44,1.75.52.65.58.26.49a11,11,0,0,1,.92,4.31,19.32,19.32,0,0,1-.44,3.93c-.27,1.26-.6,2.55-1,3.86a29.65,29.65,0,0,0-.89,4,5.41,5.41,0,0,0,0,1.4,2.87,2.87,0,0,0,.31,1.12.46.46,0,0,0,.21.23s.12-.08.36-.3c.36-1.39.72-3.05,1.05-4.93a41.49,41.49,0,0,0,.63-6.11,24.2,24.2,0,0,0-.48-5.73,7.36,7.36,0,0,0-2.09-4,4.19,4.19,0,0,0-2.17-1.11,7.39,7.39,0,0,0-2.73,0,14.11,14.11,0,0,0-2.93.89c-1,.43-1.95.85-2.82,1.27a.71.71,0,0,0-.4.66,2.64,2.64,0,0,0,.44,1.39,3.62,3.62,0,0,0,1.2,1.2h0a1.23,1.23,0,0,0,.89.24l4-2.93,1.49-.74.87-.24Z"/></g></g></svg>