<svg id="ico_how_we_do_02" xmlns="http://www.w3.org/2000/svg" width="85.944" height="85.946" viewBox="0 0 85.944 85.946">
  <g id="Group_951" data-name="Group 951" transform="translate(11.414 75.874)">
    <g id="Group_950" data-name="Group 950">
      <path id="Path_144" data-name="Path 144" d="M70.868,452.493a1.677,1.677,0,1,0,.492,1.187A1.69,1.69,0,0,0,70.868,452.493Z" transform="translate(-68.003 -452.001)" fill="#fff"/>
    </g>
  </g>
  <g id="Group_953" data-name="Group 953" transform="translate(75.949 30.217)">
    <g id="Group_952" data-name="Group 952">
      <path id="Path_145" data-name="Path 145" d="M455.319,180.5a1.674,1.674,0,1,0,.493,1.187A1.688,1.688,0,0,0,455.319,180.5Z" transform="translate(-452.454 -180.008)" fill="#fff"/>
    </g>
  </g>
  <g id="Group_955" data-name="Group 955" transform="translate(0)">
    <g id="Group_954" data-name="Group 954">
      <path id="Path_146" data-name="Path 146" d="M85.459.492A1.68,1.68,0,0,0,84.272,0L42.979,0A1.679,1.679,0,0,0,41.3,1.681v4.8L25.388,10.745A1.679,1.679,0,0,0,24.2,12.8l8.247,30.776-7.134,7.134a5.034,5.034,0,0,0-4.157-2.2H5.043A5.041,5.041,0,0,0,.007,53.549V80.91a5.041,5.041,0,0,0,5.036,5.036H21.157a5.044,5.044,0,0,0,4.887-3.824l2,1.741A8.457,8.457,0,0,0,33.6,85.946H84.272a1.679,1.679,0,0,0,1.679-1.679V1.679A1.68,1.68,0,0,0,85.459.492ZM22.836,80.91a1.681,1.681,0,0,1-1.679,1.679H5.043A1.681,1.681,0,0,1,3.364,80.91V53.549a1.681,1.681,0,0,1,1.679-1.679h6.379V71.208a1.679,1.679,0,0,0,3.357,0V51.871h6.379a1.681,1.681,0,0,1,1.679,1.679V80.91Zm5.043-67.357L41.3,9.957v6.22l-1.125.3a1.679,1.679,0,0,0-1.187,2.056,4.525,4.525,0,0,1-3.2,5.536,1.679,1.679,0,0,0-1.186,2.059l6.543,24.229H37.78l-1.736-6.792a1.676,1.676,0,0,0-.281-.589ZM41.3,23.875V38.04L38.238,26.7A7.864,7.864,0,0,0,41.3,23.875ZM65.416,82.589H33.6a5.1,5.1,0,0,1-3.353-1.256L26.193,77.8V54.58l7.329-7.329,1.329,5.2a1.678,1.678,0,0,0,1.626,1.263l33,0a2.35,2.35,0,1,1,0,4.7H52.569a1.679,1.679,0,1,0,0,3.357H74.734a2.35,2.35,0,1,1,0,4.7H52.569a1.679,1.679,0,0,0,0,3.357H71.142a2.35,2.35,0,0,1,0,4.7H52.569a1.679,1.679,0,0,0,0,3.357H65.416a2.35,2.35,0,1,1,0,4.7Zm17.178,0H70.615a5.687,5.687,0,0,0,0-4.7h.527a5.7,5.7,0,0,0,5.1-8.262,5.7,5.7,0,0,0,3.071-8.9V39.449a1.679,1.679,0,0,0-3.357,0v19.1a5.708,5.708,0,0,0-1.224-.133h-.055a5.7,5.7,0,0,0-5.2-8.057h-2.7a8.033,8.033,0,1,0-6.312,0H51.293V18.442a7.9,7.9,0,0,0,6.018-6.018H69.938a7.9,7.9,0,0,0,6.018,6.018v5.219a1.679,1.679,0,1,0,3.357,0V16.943a1.679,1.679,0,0,0-1.679-1.679,4.525,4.525,0,0,1-4.52-4.52,1.679,1.679,0,0,0-1.679-1.679H55.813a1.679,1.679,0,0,0-1.679,1.679,4.525,4.525,0,0,1-4.52,4.52,1.679,1.679,0,0,0-1.679,1.679V50.36H44.658v-47l37.936,0ZM63.625,47.649A4.676,4.676,0,1,1,68.3,42.973,4.681,4.681,0,0,1,63.625,47.649Z" transform="translate(-0.007 0)" fill="#fff"/>
    </g>
  </g>
</svg>
