<svg id="_002-help" data-name="002-help" xmlns="http://www.w3.org/2000/svg" width="42.069" height="39.193" viewBox="0 0 42.069 39.193">
  <path id="Path_123" data-name="Path 123" d="M17.677,121.629v-1.642c0-.006,0-.013,0-.019a16.4,16.4,0,0,0-.426-3.955c-.832-3.114-2.636-4.833-6.032-5.748l-.055-.015c-.1-.026-.213-.057-.255-.075a1.422,1.422,0,0,1-.148-.213l-2.14-3.471a2.834,2.834,0,0,0-1.762-1.274L6.346,98.6a2.842,2.842,0,0,0-2.771-2.714A2.82,2.82,0,0,0,.8,98.6L.009,110.314c0,.008,0,.017,0,.025-.114,3.1.976,4.085,2.625,5.58l.032.029c.208.189.453.4.713.62,1.427,1.22,3.582,3.063,3.582,4.839v.223a2.065,2.065,0,0,0-1.43,1.962v2.983a2.065,2.065,0,0,0,2.063,2.062H8.624a.822.822,0,1,0,0-1.643H7.592a.425.425,0,0,1-.42-.418v-2.983a.425.425,0,0,1,.42-.418h9.452a.425.425,0,0,1,.42.418v2.983a.42.42,0,0,1-.42.418H16.005a.822.822,0,1,0,0,1.643h1.039a2.065,2.065,0,0,0,2.063-2.062v-2.983a2.065,2.065,0,0,0-1.43-1.962Zm-1.643-.1H8.6v-.123c0-2.533-2.5-4.672-4.158-6.088-.25-.214-.487-.416-.677-.589l-.032-.029c-1.533-1.39-2.17-1.966-2.087-4.29l.786-11.7a1.2,1.2,0,0,1,1.137-1.183,1.207,1.207,0,0,1,1.134,1.2l.511,6.586a2.843,2.843,0,0,0-1.444,4.161L7.242,115.1a.822.822,0,0,0,1.4-.862L5.174,108.61a1.2,1.2,0,0,1,2.048-1.258l2.14,3.47a1.886,1.886,0,0,0,1.376,1.014l.054.015c3.262.88,4.307,2.47,4.873,4.586a15.088,15.088,0,0,1,.371,3.56v1.532Z" transform="translate(0.001 -89.442)"/>
  <path id="Path_124" data-name="Path 124" d="M298.547,110.339c0-.008,0-.017,0-.025L297.758,98.6a2.775,2.775,0,0,0-5.55,0l-.513,6.618a2.833,2.833,0,0,0-1.761,1.274l-2.141,3.473a1.406,1.406,0,0,1-.147.212c-.043.018-.16.05-.255.075l-.054.015c-3.4.916-5.2,2.635-6.032,5.749a16.39,16.39,0,0,0-.426,3.954c0,.007,0,.013,0,.019v1.642a2.065,2.065,0,0,0-1.43,1.962v2.983a2.065,2.065,0,0,0,2.063,2.062h9.452a2.065,2.065,0,0,0,2.063-2.062v-2.983a2.065,2.065,0,0,0-1.43-1.962v-.223c0-1.776,2.156-3.619,3.583-4.839.259-.222.5-.431.713-.62l.032-.029C297.571,114.424,298.66,113.437,298.547,110.339Zm-7.165,16.235a.425.425,0,0,1-.42.418H281.51a.425.425,0,0,1-.42-.418v-2.983a.425.425,0,0,1,.42-.418h9.452a.425.425,0,0,1,.42.418Zm3.437-11.873-.032.029c-.19.173-.427.375-.677.589-1.656,1.416-4.158,3.555-4.158,6.088v.123H282.52V120a15.078,15.078,0,0,1,.37-3.56c.566-2.117,1.611-3.707,4.873-4.586l.053-.014a1.884,1.884,0,0,0,1.375-1.013l2.141-3.472a1.2,1.2,0,0,1,1.087-.569h0a1.2,1.2,0,0,1,.957,1.827l-3.468,5.628a.822.822,0,1,0,1.4.862l3.468-5.628a2.847,2.847,0,0,0-.933-3.915,2.849,2.849,0,0,0-.51-.247l.511-6.585a1.137,1.137,0,1,1,2.272-.016l.786,11.7c.083,2.323-.553,2.9-2.087,4.29Z" transform="translate(-256.486 -89.442)"/>
  <path id="Path_125" data-name="Path 125" d="M132.166,30.036a7.76,7.76,0,0,0,0-10.7,6.079,6.079,0,0,0-4.691-1.835,7.294,7.294,0,0,0-4.668,1.984l-.086.081c-.131.123-.273.255-.383.35-.109-.095-.251-.227-.383-.35l-.086-.08A7.3,7.3,0,0,0,117.2,17.5a6.078,6.078,0,0,0-4.689,1.834,7.755,7.755,0,0,0,0,10.7l.02.02,9.235,8.9a.822.822,0,0,0,1.141,0l9.237-8.9Zm-9.828,7.192-3.716-3.583a3.747,3.747,0,0,1,1.794-2.856,3.791,3.791,0,0,0,3.845,0,3.747,3.747,0,0,1,1.794,2.857Zm-2.157-9.712a2.157,2.157,0,1,1,2.157,2.154A2.158,2.158,0,0,1,120.18,27.515Zm7.262,4.792a5.41,5.41,0,0,0-1.953-2.672,3.8,3.8,0,1,0-6.3,0,5.41,5.41,0,0,0-1.953,2.671l-3.55-3.422a6.1,6.1,0,0,1,.01-8.4,5.069,5.069,0,0,1,7.054.209l.085.08c.569.532.945.883,1.5.883s.936-.351,1.5-.883l.086-.08a5.073,5.073,0,0,1,7.056-.208,6.1,6.1,0,0,1,.01,8.4Z" transform="translate(-101.303 -17.498)"/>
  <path id="Path_126" data-name="Path 126" d="M140.69,474.5a.822.822,0,0,0,0,1.643h0a.822.822,0,1,0,0-1.643Z" transform="translate(-128.376 -436.948)"/>
</svg>
