<svg id="_001-problem" data-name="001-problem" xmlns="http://www.w3.org/2000/svg" width="42.069" height="42.069" viewBox="0 0 42.069 42.069">
  <path id="Path_119" data-name="Path 119" d="M193.25,69.828a11.664,11.664,0,1,0-11.664-11.664A11.677,11.677,0,0,0,193.25,69.828Zm0-21.685a10.021,10.021,0,1,1-10.021,10.021A10.032,10.032,0,0,1,193.25,48.143Zm0,0" transform="translate(-166.666 -42.679)"/>
  <path id="Path_120" data-name="Path 120" d="M26.463,31.214a15.622,15.622,0,1,0-12.876-6.8L11.034,26.97l-.348-.348a.822.822,0,0,0-1.162,0l-8.3,8.3a4.189,4.189,0,1,0,5.924,5.924l8.3-8.3a.823.823,0,0,0,0-1.162l-.348-.348,2.553-2.553a15.517,15.517,0,0,0,8.809,2.731Zm0-29.57A13.963,13.963,0,1,1,12.5,15.608,13.979,13.979,0,0,1,26.463,1.644ZM5.99,39.681a2.546,2.546,0,0,1-3.6-3.6l7.716-7.716.348.347h0l3.252,3.252Zm7.949-9.807L12.2,28.132l2.4-2.4a15.782,15.782,0,0,0,1.742,1.742Zm0,0" transform="translate(0 -0.001)"/>
  <path id="Path_121" data-name="Path 121" d="M280.131,112.4a.822.822,0,0,0,.822-.822,1.991,1.991,0,1,1,2.961,1.74,3.442,3.442,0,0,0-1.791,2.982v1.172a.822.822,0,0,0,1.643,0V116.3a1.8,1.8,0,0,1,.95-1.547,3.635,3.635,0,1,0-5.406-3.174A.822.822,0,0,0,280.131,112.4Zm0,0" transform="translate(-256.359 -99.076)"/>
  <path id="Path_122" data-name="Path 122" d="M314.361,252.891a.822.822,0,1,0,.581.241A.827.827,0,0,0,314.361,252.891Zm0,0" transform="translate(-287.777 -232.112)"/>
</svg>
