<svg id="Layer_1" data-name="Layer 1" xmlns="http://www.w3.org/2000/svg" viewBox="0 0 282.38 150"><defs><style>.cls-1{fill:#f4ddc3;}.cls-2{fill:#fff;}.cls-3{fill:#231f20;}.cls-4{fill:#ffc523;}.cls-5{fill:#211e1f;}</style></defs><path class="cls-1" d="M116,119.63s20.38,6.23,25.39,35.82-.43,48.53-22.12,58.69-42-8.2-46.33-25.66-5.56-58.19,29.42-71.2C102.33,117.28,110.33,115.06,116,119.63Z" transform="translate(-67.95 -69.95)"/><path class="cls-2" d="M90,88.93l-.19.06.48.79c1-1.23,1.83-2.56,2.84-3.78s2.11-2.38,3.22-3.53L94.85,81c-2.39,3.08-4.7,6.22-7.2,9.21L89.6,91.3a26.92,26.92,0,0,1,3.68-6l-1.82-1.35a24,24,0,0,1-4.15,5.29l1.78,1.32a25.3,25.3,0,0,1,4-8l-1.82-1.35A53.25,53.25,0,0,1,85.91,88l1.92,1.08a53.67,53.67,0,0,1,4-7.77l-1.88-1.05a28.27,28.27,0,0,1-4.64,6.17L87,87.65a23,23,0,0,1,2.92-6,1.07,1.07,0,0,0-1.73-1.27l-2.46,2.68,1.86,1a14,14,0,0,1,1.78-3.7c.65-1-.57-2.28-1.51-1.46l-1.65,1.46,1.7.66a4.27,4.27,0,0,1,.5-3l-1.78-1A2.72,2.72,0,0,1,86,78.08l1.45,1.4c.73-1,1.55-2,2.34-3a.91.91,0,0,0-1.3-1.24,16.3,16.3,0,0,0-2.68,3c-.65.9.6,2.23,1.46,1.4a4.83,4.83,0,0,0,1.27-1.88c.38-1.05-1.14-2-1.78-1a6.4,6.4,0,0,0-.93,4.59,1.06,1.06,0,0,0,1.7.66l1.65-1.44-1.51-1.45a16,16,0,0,0-2.07,4.16,1.07,1.07,0,0,0,1.85,1c.83-.89,1.65-1.78,2.47-2.68l-1.73-1.27A25.06,25.06,0,0,0,85,86.85c-.29.91.84,2.06,1.67,1.23a32.06,32.06,0,0,0,5.32-7C92.55,80,90.72,79,90.06,80a57,57,0,0,0-4.29,8.24c-.52,1.24,1.12,2,1.93,1.08a55.88,55.88,0,0,0,5.39-6.78,1.13,1.13,0,0,0-1.82-1.35A26.79,26.79,0,0,0,87,89.69c-.29,1,.86,2.19,1.77,1.31a25.37,25.37,0,0,0,4.54-5.72,1.13,1.13,0,0,0-1.82-1.35,28.79,28.79,0,0,0-3.95,6.53c-.53,1.21,1.16,2.05,1.95,1.09,2.47-3,5-6,7.12-9.27A1.08,1.08,0,0,0,94.85,81c-1.1,1.32-2.21,2.63-3.2,4a12.69,12.69,0,0,0-2.22,4.38.51.51,0,0,0,.7.52,1,1,0,0,0,.58-.75c.1-.39-.46-.51-.67-.26Z" transform="translate(-67.95 -69.95)"/><path class="cls-2" d="M88.67,78a5.47,5.47,0,0,1,3.52-3.34l-1.31-1.26a4,4,0,0,1-2.39,1.91l1.36,1.31a2.19,2.19,0,0,1,2.53-1.48L91.49,74a.46.46,0,0,1-.52.33l.84,1.43a2.09,2.09,0,0,1,2.08-1.18c-.23-.54-.47-1.08-.7-1.63a2.06,2.06,0,0,1-1.84,1l1,1.67a3.91,3.91,0,0,1,3.22-1.57c-.28-.64-.57-1.28-.85-1.93l-4.29,4.07L92,77.77a14.78,14.78,0,0,1,2.59-2.71l-1.54-1.48A36.31,36.31,0,0,1,87.25,81L89,82.34a16.85,16.85,0,0,1,2.46-4.12A14.21,14.21,0,0,1,93,76.57c.34-.32,1.54-1.59,2-1.44l-.63-1.46a29.48,29.48,0,0,1-5.12,6.88l1.58,1.52a35.56,35.56,0,0,1,8.34-8.22l-1.57-1.51a64.6,64.6,0,0,1-8.33,10.47l1.58,1.51c2.11-2.78,4.25-5.56,7.17-7.56l-1.7-1.25c-2.07,4.51-5.3,8.33-8.5,12.08l1.74,1.29A39.35,39.35,0,0,1,99.05,78l-1.7-1a10,10,0,0,1-2,3.58q-1.41,1.86-2.84,3.7-2.85,3.73-5.67,7.49c-.9,1.2.91,2.51,1.85,1.38a81,81,0,0,1,9.15-9.82l-1.6-1.53c-2.64,4.28-5.35,8.53-8,12.8l1.87,1.39A82.25,82.25,0,0,1,97.3,85.46l-1.92-1.07a107.54,107.54,0,0,1-7.14,12.12l1.82,1.35c1.73-2.77,3.41-5.56,5.09-8.36l-1.72-1.27a19.75,19.75,0,0,1-4,4.9l1.65.65a16,16,0,0,1,0-7.48c.24-.93-1.36-1.34-1.64-.42a15.55,15.55,0,0,0-.4,8.2,1,1,0,0,0,1.66.65,25.9,25.9,0,0,0,4.45-5.23c.73-1.15-1-2.43-1.72-1.27-1.74,2.76-3.49,5.5-5.19,8.28-.75,1.23,1,2.58,1.82,1.35a128.61,128.61,0,0,0,7.38-12.64c.59-1.17-1.16-2-1.92-1.07a82.07,82.07,0,0,0-7.34,10.51c-.75,1.27,1.07,2.67,1.87,1.39,2.65-4.29,5.27-8.6,8-12.87.64-1-.57-2.39-1.59-1.53a81.11,81.11,0,0,0-9.6,10.18l1.85,1.38Q91.77,89.1,94.83,85c1.75-2.37,3.9-4.71,4.61-7.64.23-.94-1-1.48-1.71-.95a40.76,40.76,0,0,0-9.87,11.22,1.08,1.08,0,0,0,1.74,1.29C92.93,85,96.23,81,98.39,76.32c.49-1.07-.86-1.83-1.7-1.26-3.06,2.09-5.35,5-7.57,8-.73,1,.68,2.43,1.57,1.52a67.65,67.65,0,0,0,8.72-10.88,1.11,1.11,0,0,0-1.57-1.52,37.88,37.88,0,0,0-8.75,8.62c-.71,1,.67,2.43,1.58,1.52A33.85,33.85,0,0,0,96.5,74.5a1.12,1.12,0,0,0-.63-1.45c-2.09-.66-4,1.34-5.27,2.72a18.15,18.15,0,0,0-3.7,5.72c-.4,1,.94,2.15,1.76,1.31a47.46,47.46,0,0,0,6.17-7.94,1.09,1.09,0,0,0-1.55-1.48,14,14,0,0,0-3,3.05c-.72,1,.67,2.47,1.61,1.55l4.25-4.13a1.1,1.1,0,0,0-.84-1.93,6,6,0,0,0-4.59,2.47,1.07,1.07,0,0,0,1,1.67,4,4,0,0,0,3.18-1.86,1,1,0,0,0-.7-1.64A4.24,4.24,0,0,0,89.86,75a1.07,1.07,0,0,0,.85,1.44,2.6,2.6,0,0,0,2.82-2.17,1,1,0,0,0-.9-1.14A4.23,4.23,0,0,0,88,75.89a1,1,0,0,0,1.36,1.32,5.6,5.6,0,0,0,3.38-3,1,1,0,0,0-1.31-1.27,6.14,6.14,0,0,0-3.65,4.9.49.49,0,0,0,.93.24Z" transform="translate(-67.95 -69.95)"/><path class="cls-2" d="M86.63,85.44a12.77,12.77,0,0,0,0,9.36c.33.92,1.54.52,1.72-.25a8.69,8.69,0,0,0-1.6-7,.93.93,0,0,0-1.63.71,33.49,33.49,0,0,0,3,9.33,1,1,0,0,0,1.82-.52c-.72-7.43,2.17-15.2,8.58-19.38l-1-1.2L94.4,79l1.27.94a11.56,11.56,0,0,1,2.15-3.64,9,9,0,0,1,.81-.82,2.75,2.75,0,0,0,.26-.22c.36-.15.36-.28,0-.38a3.6,3.6,0,0,0-.62,1.63,1,1,0,0,0,1.85.74l.92-1.51-1.77-1A31.13,31.13,0,0,1,95.43,83l1.71,1a15.69,15.69,0,0,1,5.23-7.62l-1.57-.87c-.27,3.74-2.57,6.79-4.78,9.67l1.81,1A27.13,27.13,0,0,1,102.38,77l-1.55,0c.39.61-.24,1.62-.5,2.17s-.62,1.27-1,1.88c-.7,1.27-1.52,2.48-2.34,3.67l1.88,1.05c1.17-2.45,2.39-4.93,4.47-6.74l-1.56-.87a14.61,14.61,0,0,1-3.24,8.54l1.81,1c1.08-3.22,2.21-6.4,3.57-9.51l-1.73-.69a26.39,26.39,0,0,0-1.69,5.11l2,.25a28.82,28.82,0,0,1,1.16-6l-1.89-.22a85.43,85.43,0,0,1,1.9,9.66l1.75-.51a11.41,11.41,0,0,1-.73-7.08l-1.72,0a24.56,24.56,0,0,1-.56,8.54l1.93-.29a23.66,23.66,0,0,1-1.06-5.78l-2,.3c.52,2,1,4,1.57,5.93.37,1.29,2.43,1,2.11-.31-.5-2.08-1-4.16-1.51-6.25-.24-1-2-1.19-2,0a26.71,26.71,0,0,0,.75,6.55,1,1,0,0,0,2.06,0l.87-7.27-1.87,0a58.86,58.86,0,0,0,2,9.46c.33,1.07,2.16.54,1.91-.56-.66-2.91-1.25-5.84-1.69-8.8l-1.9.55a78.1,78.1,0,0,1,3.81,10.48c.32,1.14,2.27.58,2-.58a45.44,45.44,0,0,0-2.34-7.4c-.33-.8-1.76-.67-1.77.26A12.61,12.61,0,0,0,105.8,87c.24.94,1.68.78,1.53-.22a10.88,10.88,0,0,1-.07-3l-1.76.26c.75,2.28,1.38,4.62,1.94,7l2-.59A92.89,92.89,0,0,0,105.53,80a1,1,0,0,0-1.89.55,80,80,0,0,0,1.68,8.81l1.9-.56a41.92,41.92,0,0,1-2-8.92.94.94,0,0,0-1.86,0c-.36,2.42-.71,4.83-1.06,7.25l2.06,0a26.41,26.41,0,0,1-.8-6l-2,0c.46,2.09.93,4.18,1.39,6.26l2.11-.31c-.53-2-1.12-4-1.67-5.92a1,1,0,0,0-2,.3,26.11,26.11,0,0,0,1.22,6.3c.34,1.07,1.73.56,1.93-.29a23.46,23.46,0,0,0,.27-9,.87.87,0,0,0-1.72,0,14.35,14.35,0,0,0,.77,8c.39,1,1.85.49,1.75-.51a73.88,73.88,0,0,0-1.77-9.68c-.22-.88-1.54-1.23-1.89-.23a23.57,23.57,0,0,0-1.38,6.52,1,1,0,0,0,2,.25A17.29,17.29,0,0,1,104,78.22c.52-1.09-1.22-1.77-1.73-.69A78.11,78.11,0,0,0,98.45,87a1,1,0,0,0,1.81,1,17.38,17.38,0,0,0,3.48-9.54,1,1,0,0,0-1.56-.87c-2.42,2-3.88,4.7-5.28,7.43-.57,1.11,1.16,2,1.87,1a30.86,30.86,0,0,0,3-5.22c.76-1.63,1.58-3.34.56-5a1,1,0,0,0-1.55,0,26.86,26.86,0,0,0-4.92,9.56c-.29,1.08,1,2,1.81,1,2.37-3.17,4.79-6.59,5-10.68a1,1,0,0,0-1.58-.87,18,18,0,0,0-5.84,8.4c-.33,1,1,1.93,1.71,1a32.72,32.72,0,0,0,4.14-8.71c.31-1-1.12-2-1.77-1L98.46,76l1.84.74c.21-1,1-1.75.38-2.87a1.6,1.6,0,0,0-2.4-.43,11.93,11.93,0,0,0-4.12,5.87.82.82,0,0,0,1.26.94l3-2.53a.77.77,0,0,0-1-1.2c-6.21,4.93-10.37,12.8-9.5,20.86l1.81-.53A29.76,29.76,0,0,1,86.91,88l-1.64.72a7.6,7.6,0,0,1,1.25,5.6l1.72-.26a15.31,15.31,0,0,1-1.11-8.51.26.26,0,0,0-.5-.12Z" transform="translate(-67.95 -69.95)"/><path class="cls-2" d="M112.23,90.93l-1.57.7.64,1a88.67,88.67,0,0,1,9.3-8.23L119.41,83c-3.48,3.07-6.86,6.26-10.28,9.4l1.28,1.23a37.1,37.1,0,0,1,14.06-11.79l-.85-1.38a48.46,48.46,0,0,1-11.27,8c.33.4.65.81,1,1.21a23.82,23.82,0,0,1,6.18-5.31A23.13,23.13,0,0,1,123,82.68c.27-.11.53-.21.8-.3.48-.16.81-.41.55.2s-1.14,1.12-1.64,1.54c-4.75,3.94-9.51,7.85-14.22,11.82a.84.84,0,0,0,1.05,1.31c5.32-4.29,10.81-8.75,17.22-11.32L126,84.65q-8.69,6.72-17.31,13.52l1.08,1.35c5.11-4,10.29-8.14,16.29-10.79l-.88-1.46q-7.71,7-15.9,13.51a.91.91,0,0,0,1.14,1.42c4.77-3.78,9.6-7.48,15.31-9.74l-1.16-.86c0,1.16-2.29,2.42-3.11,3.08l-3.54,2.84-7.08,5.67,1.13,1.41a50.22,50.22,0,0,1,13.27-8.67c-.29-.49-.59-1-.89-1.47-4.35,3.8-8.71,7.58-13,11.42-.82.73.24,2.06,1.07,1.33,3.74-3.29,7.54-6.57,12-8.8l-.82-1.35c-3.28,3.3-6.69,6.46-10.18,9.53l1.05,1.31a40.43,40.43,0,0,1,8.59-6.15c-.32-.4-.64-.79-1-1.19a60.46,60.46,0,0,1-6.25,6.25c-.74.67.19,1.87,1,1.23,1.74-1.39,3.49-2.77,5.2-4.19l-.76-.56a13.41,13.41,0,0,1-2.93,4.25.43.43,0,1,0,.61.59,25.55,25.55,0,0,0,3.17-4.36.49.49,0,0,0-.7-.68c-1.88,1.21-3.72,2.47-5.58,3.72l1,1.23a42.89,42.89,0,0,0,6.52-6.54.79.79,0,0,0-1-1.19,39.62,39.62,0,0,0-9,6.28c-.78.73.24,2,1.05,1.31,3.47-3.1,6.83-6.31,10.13-9.6.59-.59,0-1.78-.82-1.35-4.63,2.27-8.57,5.6-12.47,8.93l1.07,1.33c4.37-3.77,8.7-7.6,13-11.4a.87.87,0,0,0-.9-1.47,46.75,46.75,0,0,0-13.7,8.85c-.84.78.22,2.15,1.13,1.41,2.73-2.24,5.47-4.46,8.21-6.69L124,94.73c.95-.78,2.13-1.57,2.12-2.93a.84.84,0,0,0-1.15-.86c-5.94,2-10.93,6-15.78,9.84l1.14,1.42q8.16-6.51,15.83-13.58a.86.86,0,0,0-.88-1.46c-6.15,2.75-11.45,6.84-16.68,11a.86.86,0,0,0,1.08,1.35q8.61-6.83,17.18-13.69a.76.76,0,0,0-.78-1.29c-6.59,2.71-12.14,7-17.66,11.4l1.05,1.31c3.15-2.64,6.26-5.32,9.39-8l4.7-4c.92-.79,2.41-1.66,2.37-3-.07-3.18-5.12-.34-6.34.31a25.49,25.49,0,0,0-7.6,6.17.81.81,0,0,0,1,1.22,49.74,49.74,0,0,0,11.65-8.23c.64-.6,0-1.81-.85-1.39A39.72,39.72,0,0,0,109,92.53c-.59.8.5,1.93,1.28,1.24,3.45-3.1,7-6.16,10.35-9.33.88-.82-.22-2.24-1.19-1.47a49.61,49.61,0,0,0-9,8.86c-.46.59.32,1.2.88.84l1.44-.91c.47-.3,0-1.06-.51-.83Z" transform="translate(-67.95 -69.95)"/><path class="cls-2" d="M70.07,96.06l-.78.28.73.92a26,26,0,0,1,7.16-6.38l-1.05-1.31a47.47,47.47,0,0,1-5.8,8.34c-.67.76.56,2,1.29,1.24A59.51,59.51,0,0,1,79,92.52l-1.07-1a59.82,59.82,0,0,1-7.17,8.93c-.71.73.27,2,1,1.25,2.73-2.71,5.5-5.45,8.89-7.34l-1-1.3a58.44,58.44,0,0,1-6.43,8.11c-.75.79.5,1.82,1.3,1.26,2.77-2,5.48-4.05,8.26-6l-1.2-1.15q-3,3.63-6.1,7.27c-.77.92.68,1.91,1.47,1.09a31.88,31.88,0,0,1,6.27-5.07L82,97.35c-1.8,2.53-3.73,5-5.63,7.41-.61.79.52,1.94,1.29,1.23a34,34,0,0,1,8.19-6.12l-1-1.2c-2.4,2.85-4.95,5.55-7.36,8.39-.66.78.53,1.93,1.3,1.25a38.45,38.45,0,0,1,9-6.51l-1-1.22c-2.37,2.85-4.84,5.61-7.18,8.47a.88.88,0,0,0,1.25,1.2c3-2.56,6-5.11,9.59-6.71l-.92-1.15c-2.6,2.82-5.22,5.62-7.82,8.43-.61.67.45,1.66,1.13,1.09,3.19-2.66,6.41-5.32,10.21-7.07l-1-1.18q-3.75,4.53-7.91,8.7c-.72.71.2,1.94,1,1.26,3.18-2.68,6.2-5.37,10.13-6.9l-.81-1c-2.12,2.29-4.37,4.45-6.56,6.67-.66.68.17,1.83,1,1.19a66.27,66.27,0,0,1,8.51-5.77l-.82-1a16.21,16.21,0,0,1-4.14,4.36c-.74.55.15,1.66.9,1.12,2.34-1.73,4.8-3.27,7.29-4.77.56-.33.21-1.25-.42-.95a49,49,0,0,0-7.77,4.6l.9,1.12a17.07,17.07,0,0,0,4.32-4.68c.34-.51-.17-1.36-.81-1A69,69,0,0,0,88,112.38l1,1.19c2.31-2.27,4.47-4.69,6.68-7.06.49-.53-.24-1.23-.81-1a38.08,38.08,0,0,0-10.6,6.87l1,1.26c2.86-2.89,5.58-5.89,8.16-9a.79.79,0,0,0-1-1.18,49.48,49.48,0,0,0-10.56,7.27c.38.36.76.72,1.13,1.09,2.59-2.83,5.17-5.66,7.77-8.48.53-.58-.27-1.43-.92-1.14a44.44,44.44,0,0,0-10.07,6.74l1.25,1.2c2.41-2.8,4.69-5.72,7.07-8.55.53-.63-.26-1.53-1-1.22a40.07,40.07,0,0,0-9.46,6.57c.44.41.87.83,1.3,1.25,2.44-2.8,4.73-5.73,7.17-8.52.54-.61-.27-1.51-1-1.2a36.39,36.39,0,0,0-8.67,6.17l1.28,1.24c2-2.41,3.75-5,5.56-7.47.6-.84-.44-1.65-1.22-1.17a35.17,35.17,0,0,0-6.51,5.14l1.31,1.26q3-3.69,6-7.36c.62-.77-.45-1.7-1.2-1.15-2.75,2-5.58,3.9-8.35,5.89l1.3,1.26A57,57,0,0,0,81,94.06c.43-.66-.23-1.77-1-1.31a42.8,42.8,0,0,0-9.2,7.67l1.15,1.11a65.73,65.73,0,0,0,7.22-9.15.75.75,0,0,0-1.07-1,60.57,60.57,0,0,0-7.57,6.38L71.78,99a39.19,39.19,0,0,0,5.86-8.57c.42-.85-.7-1.44-1.36-1A27.39,27.39,0,0,0,69,96.53a.62.62,0,0,0,.74.92l.76-.32c.71-.29.23-1.32-.47-1.07Z" transform="translate(-67.95 -69.95)"/><path class="cls-2" d="M90,103a9.9,9.9,0,0,0,2.74-2.33c.74-1,1.52-2,2.33-3,1.57-1.86,3.31-3.57,4.88-5.43l-5.3-3A54.08,54.08,0,0,1,91,94.78a37.35,37.35,0,0,1-4.14,5.15l3.88,3.73c2.39-2.59,4.57-5.36,7-7.94A74.61,74.61,0,0,1,105.3,89l-4.51-3.34c-1.52,3.16-4,5.85-6.27,8.51a78.19,78.19,0,0,0-6.62,8.67,2.62,2.62,0,0,0,.31,3.4,2.57,2.57,0,0,0,3.41.17c4.63-4.56,8.47-10.13,14.55-12.9L103,91.75c0-.25.17-.24-.1,0s-.44.51-.66.76l-1.68,1.77L97.08,98c-2.28,2.43-4.54,4.88-6.81,7.33-2,2.13,1.64,5.67,3.7,3.57a64.58,64.58,0,0,1,17.19-12.76l-3.49-3.37a10.18,10.18,0,0,1-2.57,2.5q-1.84,1.57-3.63,3.23c-2.43,2.24-4.77,4.58-7,7a2.64,2.64,0,0,0,.31,3.5,2.72,2.72,0,0,0,3.51.17c2.68-1.75,5.08-3.88,7.63-5.81a24.5,24.5,0,0,1,8-4.18l-3-3.72a49.21,49.21,0,0,1-10.82,9.1l3.09,3.85a39.51,39.51,0,0,1,9-5.66l-2.79-3.49a55.89,55.89,0,0,1-4.23,4.87c-1.39,1.51.7,3.66,2.37,3a18.11,18.11,0,0,0,2.34-1c.75-.44,1.38-1,2.17-1.43-.49-.61-1-1.22-1.46-1.82a10.55,10.55,0,0,1-3.91,3.17c-2,1.15-.62,4.46,1.47,3.33,1.64-.88,3.1-2,4.78-2.9L111,104a36.42,36.42,0,0,0-2.22,3.15,1.15,1.15,0,0,0,1.64,1.57,36,36,0,0,0,2.87-2.51,1.61,1.61,0,0,0-1.65-2.72,16.45,16.45,0,0,0-5.36,2.76l2.28,2.84a12.73,12.73,0,0,0,2-2.37,14.88,14.88,0,0,1,2-2.45,1.22,1.22,0,0,0-1.15-1.92,27.32,27.32,0,0,1-2.72.35,22.34,22.34,0,0,0-2.71.85c.68,1.1,1.35,2.21,2,3.31a54.39,54.39,0,0,1,4.73-4.38,2.31,2.31,0,0,0,.51-3,2.36,2.36,0,0,0-2.89-.92,28.1,28.1,0,0,0-10.18,6,2.47,2.47,0,0,0,3.09,3.85,89.92,89.92,0,0,0,11.24-9.57c1.68-1.58.66-4.77-1.9-4.34-7,1.14-12,6.76-17.65,10.5l3.82,3.68q3.38-3.66,7.06-7c2.39-2.17,5.19-4,6.75-6.94,1.1-2-1.56-4.34-3.49-3.37a66.91,66.91,0,0,0-18.77,14l4.16,3.09q3.76-4.3,7.51-8.63l3.65-4.23c1.14-1.32,2.26-2.65,1.9-4.52a2.27,2.27,0,0,0-3.14-1.73c-6.32,2.91-10.79,8.54-16,13l3.72,3.57a52.85,52.85,0,0,1,6.76-8.81,103,103,0,0,0,7-8.65,3,3,0,0,0-.07-3.55,2.9,2.9,0,0,0-3.43-.84,40.56,40.56,0,0,0-8.92,7.66,76.27,76.27,0,0,0-7,8.72c-2,2.88,2.21,6,4.36,3.23,1.49-1.93,3.17-3.7,4.71-5.59s3-3.86,4.43-5.8c2.06-2.72-1.72-6.55-4.37-4.21a30.91,30.91,0,0,0-5.18,6.17c-.7,1-1.37,2.11-2,3.2a6.16,6.16,0,0,0-.94,2c-.1.65-.12,1.35-.17,2A1.7,1.7,0,0,0,90,103Z" transform="translate(-67.95 -69.95)"/><path class="cls-2" d="M97.53,86.21l0,0,.21-.13a1.86,1.86,0,0,1-.5.22l.3-.09-.23,0a3.21,3.21,0,0,0-.53.15l1.73,1.67a3.53,3.53,0,0,1,.36-.9l-.18.32a3.87,3.87,0,0,1,.57-.76l-.28.29.12-.12-2.26-2.17c-.27.35-.53.71-.79,1.07a1.92,1.92,0,0,0-.32,1.27l.13.43a1.15,1.15,0,0,0,.39.53.8.8,0,0,0,.34.26,1.36,1.36,0,0,0,.62.22h.46a1.75,1.75,0,0,0,.81-.36l.17-.15c.17-.14.31-.3.46-.45l-.31.32c.27-.28.59-.49.83-.78a3.84,3.84,0,0,0,.27-.49,1.39,1.39,0,0,0,.12-.88,1.47,1.47,0,0,0-.56-1,1.45,1.45,0,0,0-.79-.32h-.15a1.87,1.87,0,0,0-.7.07,1.28,1.28,0,0,0-.28.1,7.31,7.31,0,0,0-.66.41,3.36,3.36,0,0,0-.83.81l3,1.65c.19-.4.39-.79.58-1.19a1.18,1.18,0,0,0,.1-.61,1.32,1.32,0,0,0-.12-.62l-.22-.35a1.12,1.12,0,0,0-.46-.38.7.7,0,0,0-.38-.15,1.19,1.19,0,0,0-.62-.05l-.41.12a1.55,1.55,0,0,0-.63.51,5.15,5.15,0,0,0-.61,1.3,5.6,5.6,0,0,0-.22,1.4c0,.11,0,.23,0,.34l.09.34.18.29a1,1,0,0,0,.38.31.59.59,0,0,0,.31.12.57.57,0,0,0,.34,0,.66.66,0,0,0,.34-.05,1,1,0,0,0,.45-.22,1.35,1.35,0,0,0,.32-.31l.09-.1.15-.22a3.85,3.85,0,0,0,.34-.71l.06-.24a.78.78,0,0,0,0-.37.92.92,0,0,0-.33-.49,1.09,1.09,0,0,0-.44-.17.76.76,0,0,0-.37,0,.73.73,0,0,0-.33.16Z" transform="translate(-67.95 -69.95)"/><path class="cls-2" d="M98,108.73a17.1,17.1,0,0,0,2.15-.06,10.65,10.65,0,0,0,2.15-.57,1.26,1.26,0,0,0-.69-2.4c-1.11.29-2.21.64-3.31,1a1.27,1.27,0,0,0,.7,2.41c2-.4,3.91-.79,5.88-1.13l-.39-2.6c-.94.24-1.87.51-2.8.79l-2.42.71.72,2.48a51.67,51.67,0,0,1,6.12-1.55l-1-2.21c-.15.1-.34.19-.55.34a6.27,6.27,0,0,0-.48.42c-.31.28-.64.55-1,.8.33.42.67.84,1,1.25a4.26,4.26,0,0,1,1.5-.91.49.49,0,0,0-.27-.92,11,11,0,0,0-2.06.47c-.87.27-.44,1.69.44,1.53.45-.08.9-.18,1.34-.29a5.28,5.28,0,0,0,.77-.24,7,7,0,0,0,.83-.5,1.25,1.25,0,0,0,.36-1.48,1.28,1.28,0,0,0-1.32-.73A69.74,69.74,0,0,0,98.88,107a1.31,1.31,0,0,0,.72,2.48c1.86-.53,3.73-1,5.57-1.58a1.32,1.32,0,0,0-.73-2.5c-1.94.44-3.9.84-5.86,1.22.23.81.47,1.61.7,2.42,1-.29,2-.56,3-.9l-1-2.3c-.56.23-1.14.4-1.7.61s-1.06.4-1.6.55a.92.92,0,0,0-.76.9.89.89,0,0,0,.78.87Z" transform="translate(-67.95 -69.95)"/><path class="cls-2" d="M111,103a22.62,22.62,0,0,1,2.13-1,18.37,18.37,0,0,0,2.14-1.25,30,30,0,0,0,3.67-3,1.06,1.06,0,0,0-1.33-1.66c-1.24.93-2.55,1.79-3.73,2.8-.59.5-1.18,1-1.72,1.52a15.77,15.77,0,0,1-1.68,1.69c-.44.34,0,1.15.52.85Z" transform="translate(-67.95 -69.95)"/><path class="cls-2" d="M108.2,107.27h-.1c-.67,0-.62,1.07,0,1.15a4,4,0,0,0,1.86-.63c.59-.26,1.16-.58,1.73-.88a17.6,17.6,0,0,0,3.3-2.07c.34-.28.12-1-.37-.85a12,12,0,0,0-1.83.63c-.62.26-1.21.57-1.8.87s-1.17.57-1.72.9-1.31.64-1.64,1.24l1-.15-.1-.11.06.21v-.1c0-.19-.22-.39-.39-.22Z" transform="translate(-67.95 -69.95)"/><path class="cls-3" d="M102.23,118.07c8.82,1.25,16.9,4.37,23,11.14,6.24,6.93,10,15.86,12.51,24.73,4.84,17,4.94,36.89-7.71,50.57a30.29,30.29,0,0,1-20.26,10c-7.74.45-15.33-2.71-21.3-7.47-14.33-11.43-17.1-30.77-13.85-47.87a66.24,66.24,0,0,1,10.82-26.34,41,41,0,0,1,9.26-9.42c3.75-2.69,8-4.1,12.37-5.35,2.15-.61,2.73-4.46-.06-4.44-8.87.05-16.73,5.55-22.51,11.92-6.29,7-10.59,15.71-13.22,24.66-5.68,19.29-5.13,42.57,9.83,57.68,12.89,13,32.65,16.73,47.73,5.09,16.52-12.75,19.73-34.66,15.51-54-2.48-11.36-6.72-23.29-14.66-32-6.7-7.36-17.51-13.7-27.68-10.38-.79.25-.5,1.41.22,1.51Z" transform="translate(-67.95 -69.95)"/><path class="cls-2" d="M169.49,143.72a1.87,1.87,0,0,1,1.46.11,1.74,1.74,0,0,1,.72,1,2.72,2.72,0,0,1,.09,1.34,4.26,4.26,0,0,1-.35,1.21l-.29.44-.55.22a2.21,2.21,0,0,0-.3,1.71,2.15,2.15,0,0,0,.87,1.18,3,3,0,0,0,1.51.5,3.1,3.1,0,0,0,1.67-.31,5.41,5.41,0,0,0,2-1.54,9.69,9.69,0,0,0,1.37-2.22,11.23,11.23,0,0,0,.81-2.52,14.48,14.48,0,0,0,.26-2.41l-.1-.65-.29-.76a6.39,6.39,0,0,0-2.37-1.64,6.77,6.77,0,0,0-3-.55,6,6,0,0,0-3,1,6.12,6.12,0,0,0-2.27,2.94c-.21.41-.46.53-.77.33a2.81,2.81,0,0,1-.87-.93,4.91,4.91,0,0,1-.62-1.46,1.88,1.88,0,0,1,0-1.3,6.09,6.09,0,0,1,1.09-1.76,6.22,6.22,0,0,1,1.81-1.15,7.81,7.81,0,0,1,2.67-.69,10.21,10.21,0,0,1,5.26,1.06,9.56,9.56,0,0,1,2.15,1.46,7.51,7.51,0,0,1,1.41,1.85,9,9,0,0,1,.8,2.3,5.23,5.23,0,0,1,0,2,16.86,16.86,0,0,1-.61,2.34,22,22,0,0,1-.9,2.3,17.51,17.51,0,0,1-1,1.9,7.78,7.78,0,0,1-.85,1.15,11.08,11.08,0,0,1-1.09,1.05,4.34,4.34,0,0,1-2.22,1,6.29,6.29,0,0,1-2.4-.16,4.14,4.14,0,0,1-2.11-1.39,7.18,7.18,0,0,1-1.31-2.4,7.62,7.62,0,0,1-.38-2.81,6.1,6.1,0,0,1,.7-2.62,6.52,6.52,0,0,1,.42-.59A1.52,1.52,0,0,1,169.49,143.72Z" transform="translate(-67.95 -69.95)"/><path class="cls-2" d="M184.94,138.91a3.42,3.42,0,0,1-1.1-1.14,2.72,2.72,0,0,1-.42-1.43,1.29,1.29,0,0,1,.74-1.15c.67-.31,1.38-.61,2.15-.92a12.28,12.28,0,0,1,2.35-.66,6.45,6.45,0,0,1,2.28,0,3.82,3.82,0,0,1,2,1.06,6.17,6.17,0,0,1,1.7,3.36,18.47,18.47,0,0,1,.28,4.45,32.54,32.54,0,0,1-.57,4.63c-.31,1.53-.62,2.83-.93,3.91q-.66.63-1.08.54a1,1,0,0,1-.65-.55,2.74,2.74,0,0,1-.31-1.13,5.35,5.35,0,0,1,0-1.22,23.38,23.38,0,0,1,.75-3.07c.3-1,.56-1.88.78-2.8a13.76,13.76,0,0,0,.37-2.76,7.41,7.41,0,0,0-.54-2.85l-.19-.37-.25-.19-.32-.08-.14-.07-.46-.11-.44,0-.52.12-1,.46-3.13,2.2A1.58,1.58,0,0,1,184.94,138.91Z" transform="translate(-67.95 -69.95)"/><path class="cls-2" d="M203.81,147.05a1.9,1.9,0,0,1-2,2.53,2.69,2.69,0,0,1-1.68-.86,2.83,2.83,0,0,1-.67-2.26,21.35,21.35,0,0,1,.81-4.89,4.7,4.7,0,0,1,1.36-2.31,1.94,1.94,0,0,1,1.75-.35,6,6,0,0,1,1.94,1,16.53,16.53,0,0,1,2,1.68c.64.65,1.23,1.23,1.77,1.76a10.36,10.36,0,0,0,1.4,1.19q.59.4.84,0c.13-.88.27-1.81.43-2.78a9.76,9.76,0,0,0,.06-2.74,4.7,4.7,0,0,0-.91-2.24,3.92,3.92,0,0,0-2.48-1.27,5.57,5.57,0,0,0-1.83-.06,18.08,18.08,0,0,0-2,.36l-2,.49a12.12,12.12,0,0,1-1.9.35,3,3,0,0,1-1.95-.42,1.27,1.27,0,0,1-.43-1.58,4.09,4.09,0,0,1,.67-1.34,3.87,3.87,0,0,1,.91-.85,8.38,8.38,0,0,1,1.2-.64q.66-.3,1.44-.72a30.47,30.47,0,0,1,3-1.36c.94-.36,1.9-.69,2.9-1s2-.55,3.16-.8,2.36-.57,3.72-1a1.81,1.81,0,0,1,1.28.56,3.33,3.33,0,0,1,.89,1.31,2.46,2.46,0,0,1,.1,1.41,1.25,1.25,0,0,1-1,.88,6.13,6.13,0,0,1-.81.06l-1.17,0-1.17,0c-.37,0-.64,0-.81,0-1.05.13-2,.24-2.93.33a24.64,24.64,0,0,0-2.69.42,18.63,18.63,0,0,0-2.72.82,23.21,23.21,0,0,0-2.94,1.44,27.13,27.13,0,0,1,6.29-1.33,8.28,8.28,0,0,1,4.13.61A4.74,4.74,0,0,1,214,136a11.05,11.05,0,0,1,.82,4.08,6.77,6.77,0,0,1-.1,1.52,17.33,17.33,0,0,1-.44,2,17.75,17.75,0,0,1-.67,1.91,4.24,4.24,0,0,1-.84,1.37,1.38,1.38,0,0,1-1.42.48,5.71,5.71,0,0,1-1.8-.78,18.24,18.24,0,0,1-2-1.43c-.67-.57-1.31-1.08-1.91-1.52a7.87,7.87,0,0,0-1.63-1,1,1,0,0,0-1.16.13,2.86,2.86,0,0,0-.66,1.05,3.27,3.27,0,0,0-.19,1.1,1.9,1.9,0,0,0,.16.82c.11.21.25.28.41.23a.7.7,0,0,1,.56,0,1.15,1.15,0,0,1,.36.33,1.2,1.2,0,0,1,.2.41A3,3,0,0,1,203.81,147.05Z" transform="translate(-67.95 -69.95)"/><path class="cls-2" d="M219.55,133.77a3.52,3.52,0,0,1-1.1-1.14,2.73,2.73,0,0,1-.41-1.43,1.28,1.28,0,0,1,.74-1.15c.66-.31,1.38-.62,2.15-.92a11.06,11.06,0,0,1,2.34-.66,6.52,6.52,0,0,1,2.29,0,4,4,0,0,1,2,1.07,6.23,6.23,0,0,1,1.7,3.36,18.94,18.94,0,0,1,.28,4.44,31.3,31.3,0,0,1-.58,4.64c-.3,1.52-.61,2.83-.93,3.91-.44.42-.79.6-1.07.54a1,1,0,0,1-.66-.55,3,3,0,0,1-.3-1.13,4.5,4.5,0,0,1,0-1.23,23.64,23.64,0,0,1,.74-3.06c.31-.95.57-1.88.79-2.8a13.75,13.75,0,0,0,.36-2.77,7.16,7.16,0,0,0-.53-2.84l-.19-.38-.25-.18-.32-.09-.15-.07-.46-.1-.44,0-.51.12-1,.46L220.92,134A1.58,1.58,0,0,1,219.55,133.77Z" transform="translate(-67.95 -69.95)"/><path class="cls-2" d="M244.54,130.13a1.62,1.62,0,0,1-1.29-.17,3.1,3.1,0,0,1-1-.93,3.17,3.17,0,0,1-.5-1.31,1.92,1.92,0,0,1,.29-1.35,3.3,3.3,0,0,1,1.87-.54,3.15,3.15,0,0,1,1.61.53,4.24,4.24,0,0,1,1.21,1.31,4.44,4.44,0,0,1,.64,1.77,13.49,13.49,0,0,1,.15,1.87c0,.66,0,1.29-.07,1.89a16.81,16.81,0,0,1-.55,3.37,20.41,20.41,0,0,0-.59,3.33,3.57,3.57,0,0,0,1.44.32,13.27,13.27,0,0,0,1.88-.06c.64-.07,1.27-.16,1.87-.28s1.09-.21,1.47-.26a1.15,1.15,0,0,1,.34-.1,6.67,6.67,0,0,0,.87-1.92,13.84,13.84,0,0,0,.41-2.15c.09-.74.13-1.46.15-2.18s0-1.38.05-2c0-1.13.06-2.28.07-3.45s.05-2.35.14-3.53a28.73,28.73,0,0,1,.48-3.49,17,17,0,0,1,1.07-3.38c.31-.52.68-.74,1.1-.67a1.88,1.88,0,0,1,1.15.72,4.42,4.42,0,0,1,.8,1.45,2.6,2.6,0,0,1,.07,1.55,14.12,14.12,0,0,0-1.47,3.41,26.82,26.82,0,0,0-.76,3.69c-.17,1.25-.29,2.5-.38,3.74s-.2,2.45-.35,3.62-.32,2.2-.56,3.35a7.64,7.64,0,0,1-1.41,3.07.64.64,0,0,1-.45.25l-.27,0a29.45,29.45,0,0,1-3.08.72,13.92,13.92,0,0,1-3.13.2,4.1,4.1,0,0,1-2.31-.79,3.42,3.42,0,0,1-1.09-1.68,6.66,6.66,0,0,1-.25-2.29c0-.85.1-1.73.2-2.63s.2-1.79.27-2.68a10,10,0,0,0-.05-2.41S244.57,130.12,244.54,130.13Z" transform="translate(-67.95 -69.95)"/><path class="cls-2" d="M245.89,118a2.48,2.48,0,0,1,.42-1.66,1.54,1.54,0,0,1,1-.62,1.5,1.5,0,0,1,1.11.32,1.66,1.66,0,0,1,.64,1.13l.1.38c-.3.61-.39,1-.29,1.22s.33.27.67.19a4.26,4.26,0,0,0,1.29-.61,10.18,10.18,0,0,0,1.51-1.2,10.82,10.82,0,0,0,1.32-1.55,4.76,4.76,0,0,0,.77-1.72,2.75,2.75,0,0,1,1-1.06,6.66,6.66,0,0,1,1.55-.74,4.31,4.31,0,0,1,1.39-.23q.58,0,.51.48a19.17,19.17,0,0,1-1.71,3,18.22,18.22,0,0,1-2,2.46,12,12,0,0,1-2.22,1.77,6.86,6.86,0,0,1-2.33.92,4.87,4.87,0,0,1-1.57.08,4.56,4.56,0,0,1-1.45-.38,3.22,3.22,0,0,1-1.12-.83A2.85,2.85,0,0,1,245.89,118Z" transform="translate(-67.95 -69.95)"/><path class="cls-2" d="M264.62,127.23a1.61,1.61,0,0,1-1.29-.16,3.08,3.08,0,0,1-1.51-2.24,2,2,0,0,1,.28-1.35,4.25,4.25,0,0,1,2.19-.86,3.47,3.47,0,0,1,2,.4,4.08,4.08,0,0,1,1.47,1.37,4.79,4.79,0,0,1,.74,2.14,9.51,9.51,0,0,1-.19,3.35l-.76,3.36c-.14.67-.27,1.37-.4,2.08a8.22,8.22,0,0,0-.14,2.08,5,5,0,0,0,1.64-1.08c.55-.53,1.12-1.11,1.69-1.74s1.15-1.27,1.74-1.9a10.39,10.39,0,0,1,1.81-1.58c-.05-.5-.09-1-.12-1.52a11.78,11.78,0,0,1,0-1.57,12.33,12.33,0,0,1,.19-1.89c.12-.7.25-1.42.41-2.15s.33-1.44.53-2.12a16.94,16.94,0,0,1,.62-1.83c.3-.52.67-.74,1.09-.67a1.88,1.88,0,0,1,1.15.72,4.29,4.29,0,0,1,.8,1.46,2.49,2.49,0,0,1,.07,1.54,8.58,8.58,0,0,0-.48,1.07c-.16.42-.31.85-.43,1.28l-.37,1.28c-.12.41-.21.78-.28,1.08s-.21.88-.29,1.34-.16.92-.24,1.4a3.17,3.17,0,0,1,1.57,1.15,6.32,6.32,0,0,1,1.05,2,7.6,7.6,0,0,1,.38,2.26,4.28,4.28,0,0,1-.43,2c-.33.61-.69.94-1.08,1a1.76,1.76,0,0,1-1.18-.31,4.36,4.36,0,0,1-1.05-1,5,5,0,0,1-.67-1.06c-.19-.47-.36-.94-.52-1.39a13.23,13.23,0,0,1-.39-1.45,2.26,2.26,0,0,1-.35.36,13,13,0,0,0-1.21,1.41c-.44.58-.91,1.16-1.4,1.73a21.42,21.42,0,0,1-1.52,1.61,4.74,4.74,0,0,1-1.53,1,2,2,0,0,1-1.52,0,3.14,3.14,0,0,1-1.39-1.57,3,3,0,0,1-.41-1,4.14,4.14,0,0,1-.12-1.09c0-.5,0-1,0-1.45s.07-.93.14-1.42c.1-.93.21-1.86.34-2.8s.24-1.87.34-2.8a1.7,1.7,0,0,1,0-.38c0-.19,0-.41,0-.65l-.3,0A2.83,2.83,0,0,0,264.62,127.23Zm11.77,5.44a11,11,0,0,0,.14,1.74A6.24,6.24,0,0,0,277,136l.11-.15a4.13,4.13,0,0,0,.32-1.87,1.44,1.44,0,0,0-1-1.27Z" transform="translate(-67.95 -69.95)"/><path class="cls-2" d="M286.46,126.34a1.84,1.84,0,0,1,1.46.12,1.86,1.86,0,0,1,.72,1,2.88,2.88,0,0,1,.08,1.35,4,4,0,0,1-.35,1.2l-.29.44-.54.22a2.21,2.21,0,0,0-.3,1.71,2.08,2.08,0,0,0,.86,1.18,3.13,3.13,0,0,0,1.52.51,3.17,3.17,0,0,0,1.66-.32,5.33,5.33,0,0,0,2-1.54,10.09,10.09,0,0,0,1.38-2.22,11.2,11.2,0,0,0,.8-2.52,13.56,13.56,0,0,0,.27-2.41l-.1-.65-.29-.76A6.51,6.51,0,0,0,293,122a6.77,6.77,0,0,0-3-.55,5.87,5.87,0,0,0-5.26,3.91c-.2.42-.46.53-.77.34a2.86,2.86,0,0,1-.87-.94,5.18,5.18,0,0,1-.62-1.46,1.85,1.85,0,0,1,0-1.29,6,6,0,0,1,1.1-1.76,6.28,6.28,0,0,1,1.8-1.16,7.86,7.86,0,0,1,2.67-.69,10.17,10.17,0,0,1,2.71.18,9.66,9.66,0,0,1,2.55.89,9.31,9.31,0,0,1,2.15,1.45,7.09,7.09,0,0,1,1.41,1.86,9.29,9.29,0,0,1,.81,2.3,5.39,5.39,0,0,1,0,1.95,18,18,0,0,1-.61,2.34q-.41,1.18-.9,2.31t-1,1.89a8.79,8.79,0,0,1-.85,1.15,12.32,12.32,0,0,1-1.09,1,4.4,4.4,0,0,1-2.23,1,6.25,6.25,0,0,1-2.39-.16,4.1,4.1,0,0,1-2.12-1.39,7.36,7.36,0,0,1-1.31-2.4,7.61,7.61,0,0,1-.37-2.81,6,6,0,0,1,.7-2.61,5.46,5.46,0,0,1,.42-.6A1.38,1.38,0,0,1,286.46,126.34Z" transform="translate(-67.95 -69.95)"/><path class="cls-2" d="M282.51,115.14a1.44,1.44,0,0,1-.8-.44,3.89,3.89,0,0,1-.74-.93,2.62,2.62,0,0,1-.37-.85,3.27,3.27,0,0,1,.71-2.84,3.41,3.41,0,0,1,3-.55,17.05,17.05,0,0,1,2.34.5c.83.23,1.67.43,2.53.6a15.71,15.71,0,0,0,2.51.29,5.24,5.24,0,0,0,2.23-.38,1.84,1.84,0,0,1,.9.4,4.17,4.17,0,0,1,.86.87,2.7,2.7,0,0,1,.47,1.09,1,1,0,0,1-.23.94,11.86,11.86,0,0,1-4.17,0,17.82,17.82,0,0,1-2.91-.85c-.83-.34-1.63-.62-2.39-.85a5,5,0,0,0-2.67.07l-.48.33L283,113l-.08.41,0,.53.13.6C283,115,282.76,115.18,282.51,115.14Z" transform="translate(-67.95 -69.95)"/><path class="cls-2" d="M293.9,106.24a1.31,1.31,0,0,1-1,.15,2.75,2.75,0,0,1-1.07-.49,1.8,1.8,0,0,1-.66-.83.84.84,0,0,1,.16-.89,1.21,1.21,0,0,0,.3-.2.63.63,0,0,0,.2-.63,5.73,5.73,0,0,0-.19-.66c-.11-.32-.2-.67-.29-1a3.44,3.44,0,0,1-.07-1.1,1.33,1.33,0,0,1,.48-.92,1.73,1.73,0,0,1,1.15.08,3.75,3.75,0,0,1,1.09.63,1.6,1.6,0,0,1,.55.85c.06.31-.11.54-.5.72a.6.6,0,0,0-.19.16,1.19,1.19,0,0,0-.14.85c0,.33.11.67.19,1a7.83,7.83,0,0,1,.19,1.13A2.33,2.33,0,0,1,293.9,106.24Z" transform="translate(-67.95 -69.95)"/><path class="cls-2" d="M307.53,118.5a9.67,9.67,0,0,1,1,2.7,12.42,12.42,0,0,1,.26,2.46,13.88,13.88,0,0,1-.16,2c-.11.61-.19,1.09-.25,1.46l1,.43q1.1.45,1.95.84a7.59,7.59,0,0,1,1.76,1.14c.11-.7.2-1.47.28-2.31s.14-1.69.18-2.56,0-1.72.06-2.58,0-1.66,0-2.39,0-1.43,0-2.25a5.08,5.08,0,0,1,.52-2.18c.3-.52.66-.75,1.05-.67a1.92,1.92,0,0,1,1.1.7,4,4,0,0,1,.79,1.44,2.37,2.37,0,0,1,.07,1.5,3.6,3.6,0,0,0-.61,2c0,.78,0,1.48-.07,2.07s-.09,1.47-.13,2.35-.13,1.77-.23,2.68-.24,1.77-.41,2.61a14,14,0,0,1-.61,2.2c-.1.08-.17.14-.19.21a.17.17,0,0,0-.12,0l-.09,0a1.36,1.36,0,0,1-.53,0,1.32,1.32,0,0,1-.43-.18c-.3-.22-.58-.44-.85-.67s-.54-.44-.8-.63a17.53,17.53,0,0,0-2-1.18,19.52,19.52,0,0,0-2.14-1,13.06,13.06,0,0,1-1.67,4.6,4.32,4.32,0,0,1-.52.68,1.57,1.57,0,0,1-1.11.58,2.43,2.43,0,0,1-2.4-1.2,5.3,5.3,0,0,1-.79-1.92,4.05,4.05,0,0,1,.14-2.15,3.8,3.8,0,0,1,.42-.91,6.27,6.27,0,0,1,.73-.92,3.75,3.75,0,0,1,.9-.72,2.27,2.27,0,0,1,.95-.29,1.64,1.64,0,0,1,.5.1c.12-.4.28-1,.47-1.8a17,17,0,0,0,.39-2.28,4.28,4.28,0,0,0-.1-1.71c-.13-.43-.48-.5-1-.21a1.61,1.61,0,0,1-1.24-.3,2.49,2.49,0,0,1-.82-1,2.65,2.65,0,0,1-.21-1.3,1.67,1.67,0,0,1,.56-1.15,2.17,2.17,0,0,1,1.38-.72,2.27,2.27,0,0,1,1.27.32,4.3,4.3,0,0,1,1,.92A5.35,5.35,0,0,1,307.53,118.5Zm-2.78,9.65a1,1,0,0,0-.87.11,1.35,1.35,0,0,0-.47.75,1,1,0,0,0,0,.54,1,1,0,0,0,.22.44.55.55,0,0,0,.32.19c.1,0,.18,0,.22-.16.12-.35.23-.65.31-.91S304.63,128.52,304.75,128.15Z" transform="translate(-67.95 -69.95)"/><path class="cls-2" d="M159.24,185.74a1.58,1.58,0,0,1-1.29-.17,3,3,0,0,1-1-.93,3.18,3.18,0,0,1-.5-1.3,2,2,0,0,1,.28-1.36,3.35,3.35,0,0,1,1.88-.54,3.07,3.07,0,0,1,1.61.54,4.2,4.2,0,0,1,1.21,1.3,4.72,4.72,0,0,1,.64,1.77,13.49,13.49,0,0,1,.15,1.87,16.64,16.64,0,0,1-.08,1.9,16.12,16.12,0,0,1-.54,3.36,20.41,20.41,0,0,0-.59,3.33,3.57,3.57,0,0,0,1.44.32,11.93,11.93,0,0,0,1.88-.06c.64-.07,1.27-.16,1.87-.28l1.47-.26a1.18,1.18,0,0,1,.34-.09,6.73,6.73,0,0,0,.87-1.93,13.84,13.84,0,0,0,.41-2.15c.08-.74.13-1.46.15-2.17s0-1.38,0-2c0-1.13.06-2.28.07-3.45s0-2.35.14-3.53a29,29,0,0,1,.48-3.49,17,17,0,0,1,1.07-3.38c.31-.51.68-.74,1.1-.67a1.88,1.88,0,0,1,1.15.72,4.27,4.27,0,0,1,.79,1.46,2.49,2.49,0,0,1,.08,1.54,14.12,14.12,0,0,0-1.47,3.41,27.13,27.13,0,0,0-.76,3.69c-.17,1.25-.3,2.5-.38,3.74s-.2,2.45-.35,3.63-.32,2.2-.56,3.34a7.74,7.74,0,0,1-1.41,3.08.66.66,0,0,1-.45.24l-.27,0a27.12,27.12,0,0,1-3.08.72,13.36,13.36,0,0,1-3.13.2,4,4,0,0,1-2.31-.79,3.31,3.31,0,0,1-1.09-1.68,6.91,6.91,0,0,1-.26-2.29c0-.85.11-1.72.21-2.63s.19-1.79.27-2.68a10.58,10.58,0,0,0,0-2.41S159.26,185.73,159.24,185.74Z" transform="translate(-67.95 -69.95)"/><path class="cls-2" d="M160.59,173.64A2.48,2.48,0,0,1,161,172a1.49,1.49,0,0,1,2.15-.3,1.68,1.68,0,0,1,.64,1.13l.1.38c-.3.61-.39,1-.29,1.22s.33.27.67.19a4.26,4.26,0,0,0,1.29-.61,10.18,10.18,0,0,0,1.51-1.2,10.3,10.3,0,0,0,1.32-1.55,4.62,4.62,0,0,0,.77-1.72,2.75,2.75,0,0,1,1-1.06,6.47,6.47,0,0,1,1.55-.74,4.31,4.31,0,0,1,1.39-.23c.38,0,.56.18.51.48a19.17,19.17,0,0,1-1.71,3,18.22,18.22,0,0,1-2,2.46,11.71,11.71,0,0,1-2.23,1.77,7,7,0,0,1-2.32.93,5.17,5.17,0,0,1-1.57.07,4.56,4.56,0,0,1-1.45-.38,3.13,3.13,0,0,1-1.12-.83A2.85,2.85,0,0,1,160.59,173.64Z" transform="translate(-67.95 -69.95)"/><path class="cls-2" d="M179.31,182.84a1.56,1.56,0,0,1-1.28-.16,3,3,0,0,1-1-.94,3,3,0,0,1-.5-1.3,1.9,1.9,0,0,1,.28-1.35,4.22,4.22,0,0,1,2.18-.86,3.49,3.49,0,0,1,2,.4,4,4,0,0,1,1.47,1.38,4.71,4.71,0,0,1,.74,2.13,9.81,9.81,0,0,1-.19,3.36c-.26,1.13-.52,2.25-.77,3.35-.13.67-.27,1.37-.4,2.08a8.77,8.77,0,0,0-.13,2.09,5,5,0,0,0,1.64-1.09c.55-.53,1.12-1.11,1.69-1.74s1.15-1.27,1.74-1.9a10.45,10.45,0,0,1,1.81-1.58c-.05-.49-.09-1-.12-1.51a11.92,11.92,0,0,1,0-1.58,12.57,12.57,0,0,1,.19-1.89c.11-.7.25-1.42.41-2.15s.33-1.44.53-2.12a16,16,0,0,1,.62-1.82c.3-.52.67-.75,1.09-.68a1.88,1.88,0,0,1,1.15.72,4.47,4.47,0,0,1,.8,1.46,2.57,2.57,0,0,1,.07,1.54,7.33,7.33,0,0,0-.48,1.07c-.16.43-.31.85-.43,1.28l-.37,1.28c-.12.42-.21.78-.28,1.09a13.59,13.59,0,0,0-.29,1.33q-.12.68-.24,1.41a3.2,3.2,0,0,1,1.57,1.14,6.27,6.27,0,0,1,1.05,2,7.48,7.48,0,0,1,.38,2.25,4.32,4.32,0,0,1-.43,2c-.33.61-.69.93-1.08,1a1.77,1.77,0,0,1-1.18-.32,4.17,4.17,0,0,1-1.05-1,5,5,0,0,1-.67-1.06c-.19-.47-.36-.93-.52-1.38a13.42,13.42,0,0,1-.39-1.46,2.79,2.79,0,0,1-.35.37,11.86,11.86,0,0,0-1.21,1.4q-.66.87-1.41,1.74a21,21,0,0,1-1.51,1.6,5,5,0,0,1-1.53,1,1.92,1.92,0,0,1-1.52-.05,3.15,3.15,0,0,1-1.39-1.56,3.11,3.11,0,0,1-.41-1,4.14,4.14,0,0,1-.12-1.09c0-.5,0-1,0-1.45a12,12,0,0,1,.14-1.42c.1-.93.21-1.86.34-2.8s.24-1.87.34-2.8a1.7,1.7,0,0,1,0-.38c0-.19,0-.41,0-.65l-.3.05A2.87,2.87,0,0,0,179.31,182.84Zm11.78,5.45a10.92,10.92,0,0,0,.14,1.73,6.24,6.24,0,0,0,.48,1.55l.11-.15a4.27,4.27,0,0,0,.32-1.87,1.45,1.45,0,0,0-1-1.27Z" transform="translate(-67.95 -69.95)"/><path class="cls-2" d="M251.49,173.23a23,23,0,0,0,.09,7.18,1.91,1.91,0,0,1,1.07.44,3.49,3.49,0,0,1,.81,1,3,3,0,0,1,.39,1.18,1.51,1.51,0,0,1-.22,1.06,3.07,3.07,0,0,1-1.06.91,1.5,1.5,0,0,1-1.2.11,2.71,2.71,0,0,1-1-.62,4.48,4.48,0,0,1-.77-1,6.52,6.52,0,0,1-.5-1.11,9,9,0,0,1-.45-2.44c0-.89-.07-1.74-.07-2.54a25.21,25.21,0,0,1,.21-3.27q.21-1.72.57-3.48c.24-1.18.51-2.32.82-3.45s.63-2.19,1-3.19.7-2,1.11-3a29.13,29.13,0,0,0,1-3.07,15.33,15.33,0,0,0,.52-3,8.21,8.21,0,0,0-.33-3A3.36,3.36,0,0,0,253,151a4.07,4.07,0,0,0-.7-.81l-.56-.23a3.18,3.18,0,0,1-.4,0,1.84,1.84,0,0,0-.39,0,3.42,3.42,0,0,0-1.75.94,5.75,5.75,0,0,0-1.09,1.63,8.49,8.49,0,0,0-.61,2q-.19,1.1-.3,2.13c-.23.66-.54,1-.92,1a1.68,1.68,0,0,1-1.15-.54,4.1,4.1,0,0,1-.94-1.39,2.78,2.78,0,0,1-.25-1.58l.15-.91a7,7,0,0,1,.14-.69c.06-.21.13-.43.21-.65s.23-.51.41-.86a12.27,12.27,0,0,1,.89-1.49,7,7,0,0,1,1.13-1.34,5.45,5.45,0,0,1,2.81-1.57,3.93,3.93,0,0,1,2.43.37,6,6,0,0,1,2,1.68,11.39,11.39,0,0,1,1.39,2.37,5.59,5.59,0,0,1,.32,1.82,16.05,16.05,0,0,1-.12,2.17q-.15,1.11-.39,2.16c-.16.71-.3,1.29-.41,1.75-.31,1.11-.63,2.26-.95,3.45s-.64,2.4-.95,3.63-.59,2.44-.86,3.63S251.65,172.11,251.49,173.23Z" transform="translate(-67.95 -69.95)"/><path class="cls-2" d="M257.55,179.61a8,8,0,0,1,.11-2.19c.15-.82.31-1.67.49-2.54s.34-1.74.48-2.62a11.38,11.38,0,0,0,.13-2.42,2.87,2.87,0,0,1-1.33-1.44,2.13,2.13,0,0,1,.12-1.93,2.23,2.23,0,0,0,.44-.29.8.8,0,0,1,.42-.19,1.92,1.92,0,0,1,1.65.24,3.29,3.29,0,0,1,1.06,1.31,7,7,0,0,1,.56,1.78,8.69,8.69,0,0,1,.13,1.67,16.52,16.52,0,0,1-.37,2.45c-.18.82-.39,1.66-.62,2.49s-.44,1.66-.61,2.49a11.29,11.29,0,0,0-.26,2.43,2.26,2.26,0,0,0,0,.49,2.5,2.5,0,0,0,.83-.5,11.52,11.52,0,0,0,1.39-1.57,18.25,18.25,0,0,0,1.76-2.79,9.06,9.06,0,0,1-.45-1.24,5.48,5.48,0,0,1-.2-1.32,14.59,14.59,0,0,1,.26-2.77,11.58,11.58,0,0,1,.89-2.84,8.32,8.32,0,0,1,1.62-2.4,5.53,5.53,0,0,1,2.44-1.47,1.24,1.24,0,0,1,1,.45,3.13,3.13,0,0,1,.56,1.05l-.24.83h0a38.05,38.05,0,0,1-1.5,4.69,45.74,45.74,0,0,1-2.13,4.64,6.28,6.28,0,0,0,1.42,2,5.28,5.28,0,0,0,2.15,1.16L271,179a2,2,0,0,1,1.35.56,4,4,0,0,1,1.06,1.28,2.2,2.2,0,0,1,.27,1.38c-.07.44-.4.73-1,.88a8.12,8.12,0,0,1-2.57-.24,6.55,6.55,0,0,1-2.07-1,8.35,8.35,0,0,1-1.67-1.54,12.78,12.78,0,0,1-1.37-2c-.61,1-1.26,2-1.95,3a31.83,31.83,0,0,1-2.22,2.7,3.79,3.79,0,0,1-.71,0,2.53,2.53,0,0,1-1.16-.63,3.83,3.83,0,0,1-.76-1.11,5.24,5.24,0,0,1-.42-1.36A11.46,11.46,0,0,1,257.55,179.61Zm8.51-9.3a3.83,3.83,0,0,0-.24.75c-.05.24-.11.49-.16.73l1.29-3.3A7,7,0,0,0,266.06,170.31Z" transform="translate(-67.95 -69.95)"/><path class="cls-2" d="M261.62,160.14a4.31,4.31,0,0,0,.5-1.14,3.59,3.59,0,0,1-.57-.54,1.93,1.93,0,0,1-.38-.63,1,1,0,0,1,0-.64.8.8,0,0,1,.41-.5,1.51,1.51,0,0,1,1.05,0,2.59,2.59,0,0,1,.89.6,2.84,2.84,0,0,1,.6.95,2.66,2.66,0,0,1,.21,1.08,6.8,6.8,0,0,0,1.84-1.2,11.64,11.64,0,0,0,1.46-1.66,18.44,18.44,0,0,0,1.22-2c.37-.69.71-1.37,1-2a1,1,0,0,1,1,0,3.46,3.46,0,0,1,1,.8,4.62,4.62,0,0,1,.77,1.13,1.82,1.82,0,0,1,.22,1,17.51,17.51,0,0,1-2,2.1,19.31,19.31,0,0,1-2.3,1.71c-.81.52-1.65,1-2.51,1.49s-1.72.94-2.56,1.42a.77.77,0,0,1-.52,0,1.92,1.92,0,0,1-.5-.28,2.61,2.61,0,0,1-.46-.42,2.38,2.38,0,0,1-.34-.44.14.14,0,0,0-.06-.12,1.57,1.57,0,0,1-.08-.39A1.21,1.21,0,0,1,261.62,160.14Z" transform="translate(-67.95 -69.95)"/><path class="cls-2" d="M280.74,178.56a1.91,1.91,0,0,1-2,2.53,2.74,2.74,0,0,1-1.69-.86,2.83,2.83,0,0,1-.66-2.26,20.9,20.9,0,0,1,.8-4.89,4.66,4.66,0,0,1,1.37-2.31,1.9,1.9,0,0,1,1.74-.35,6.16,6.16,0,0,1,1.95,1,16.46,16.46,0,0,1,2,1.68l1.78,1.76a10.37,10.37,0,0,0,1.39,1.19c.4.27.68.25.84,0,.14-.87.28-1.8.43-2.77a9.76,9.76,0,0,0,.06-2.74,4.51,4.51,0,0,0-.91-2.24,3.89,3.89,0,0,0-2.47-1.27,5.57,5.57,0,0,0-1.83-.06c-.64.08-1.3.2-2,.35l-2,.5a12.56,12.56,0,0,1-1.9.35,3,3,0,0,1-1.95-.42,1.26,1.26,0,0,1-.43-1.58,4.4,4.4,0,0,1,.66-1.34,3.71,3.71,0,0,1,.92-.85,8.81,8.81,0,0,1,1.19-.64c.44-.2.93-.44,1.45-.73a32.63,32.63,0,0,1,3-1.35c.94-.37,1.91-.69,2.9-1s2.05-.54,3.17-.8,2.35-.57,3.72-1a1.82,1.82,0,0,1,1.28.56,3.23,3.23,0,0,1,.88,1.31,2.38,2.38,0,0,1,.1,1.41,1.24,1.24,0,0,1-1,.88,6.47,6.47,0,0,1-.82.06l-1.17,0-1.17,0c-.36,0-.64,0-.81.05-1.05.13-2,.24-2.93.33a24.64,24.64,0,0,0-2.69.42,18.89,18.89,0,0,0-2.71.82,20.82,20.82,0,0,0-2.94,1.44,27.17,27.17,0,0,1,6.28-1.33,8.27,8.27,0,0,1,4.13.6,4.76,4.76,0,0,1,2.31,2.41,11,11,0,0,1,.83,4.07,6.89,6.89,0,0,1-.11,1.53,14.21,14.21,0,0,1-.44,2,14.77,14.77,0,0,1-.67,1.91,4.24,4.24,0,0,1-.84,1.37,1.36,1.36,0,0,1-1.41.48,5.53,5.53,0,0,1-1.8-.78,15.55,15.55,0,0,1-2-1.44c-.68-.56-1.31-1.07-1.91-1.51a8.14,8.14,0,0,0-1.63-1,1,1,0,0,0-1.16.13,2.89,2.89,0,0,0-.67,1,3.49,3.49,0,0,0-.19,1.1,1.89,1.89,0,0,0,.17.82c.1.2.24.28.41.22a.75.75,0,0,1,.56,0,1.26,1.26,0,0,1,.36.33,1.17,1.17,0,0,1,.19.41A2.75,2.75,0,0,1,280.74,178.56Z" transform="translate(-67.95 -69.95)"/><path class="cls-2" d="M278.82,156.07a2.51,2.51,0,0,1,.42-1.66,1.47,1.47,0,0,1,2.15-.29,1.61,1.61,0,0,1,.63,1.12l.11.39c-.3.6-.39,1-.29,1.22s.33.27.67.18a4.37,4.37,0,0,0,1.29-.61,10,10,0,0,0,1.51-1.2,10.3,10.3,0,0,0,1.32-1.55,4.82,4.82,0,0,0,.77-1.71,2.68,2.68,0,0,1,1-1.06,6,6,0,0,1,1.55-.74,4.05,4.05,0,0,1,1.39-.23c.38,0,.55.18.51.48a20,20,0,0,1-1.71,3,19.58,19.58,0,0,1-2,2.45,11.39,11.39,0,0,1-2.23,1.78,6.82,6.82,0,0,1-2.32.92,5.17,5.17,0,0,1-1.57.08,4.85,4.85,0,0,1-1.45-.39,3.13,3.13,0,0,1-1.13-.83A2.79,2.79,0,0,1,278.82,156.07Z" transform="translate(-67.95 -69.95)"/><path class="cls-2" d="M297,170.73a2.22,2.22,0,0,1-.72-1.09,5.47,5.47,0,0,1-.37-1.74,3.55,3.55,0,0,1,.27-1.62,1.26,1.26,0,0,1,1.25-.72,4.17,4.17,0,0,1,1.74,1,8.55,8.55,0,0,1,1.3,1.56,12.37,12.37,0,0,1,1,1.87c.29.67.59,1.32.89,2l.58,1.36a7.43,7.43,0,0,0,.7,1.25h.08a5.33,5.33,0,0,0,1.14-1.92,17.08,17.08,0,0,0,.56-2.15c.13-.56.25-1.14.36-1.76a12.14,12.14,0,0,0,.21-1.9,9.52,9.52,0,0,0-.11-1.92,7,7,0,0,0-.53-1.83.8.8,0,0,0-.28.4l-.16.52a1.07,1.07,0,0,1-1.12.38,2,2,0,0,1-.95-.72,3.72,3.72,0,0,1-.63-1.24,3.21,3.21,0,0,1-.17-1.24,3,3,0,0,1,1.54-1.63,2,2,0,0,1,1.61.12,3.93,3.93,0,0,1,1.41,1.28,6.47,6.47,0,0,1,1,1.76,9.34,9.34,0,0,1,.52,2.86,16.94,16.94,0,0,1-.19,3.07,27.37,27.37,0,0,1-.65,3.09c-.28,1-.57,2-.88,2.88-.17.44-.36,1-.56,1.64a2.77,2.77,0,0,1-1,1.48,1.18,1.18,0,0,1-.89.26,1.77,1.77,0,0,1-.85-.36,4.33,4.33,0,0,1-.73-.69c-.21-.27-.4-.5-.55-.72a13.91,13.91,0,0,1-.78-1.39c-.29-.58-.62-1.15-1-1.72a12.56,12.56,0,0,0-1.11-1.55,3.9,3.9,0,0,0-1.17-1c-.15,0-.24,0-.27.13S297.28,170.81,297,170.73Z" transform="translate(-67.95 -69.95)"/><path class="cls-2" d="M319.76,163.35a2.54,2.54,0,0,1,1,.67,4.24,4.24,0,0,1,.89,1.24,2.2,2.2,0,0,1,.22,1.33c-.07.42-.41.71-1,.86h-.27c-.24,0-.42.29-.54.86s-.28,1.27-.46,2.11a21.59,21.59,0,0,1-.79,2.65,6.25,6.25,0,0,1-1.51,2.37,1.12,1.12,0,0,1-.62,0,3.5,3.5,0,0,1-.56-.25,5.43,5.43,0,0,1-1.22-1.42,16.08,16.08,0,0,1-1-1.89c-.29-.67-.54-1.34-.76-2a15.63,15.63,0,0,1-.5-1.88,14.46,14.46,0,0,1-.31-3.26,11.52,11.52,0,0,1,.54-3.25,5.31,5.31,0,0,1,2.21-2.75,11.9,11.9,0,0,1,3.68-1.64,15.87,15.87,0,0,1,4.1-.5,8.63,8.63,0,0,1,3.4.63,7.14,7.14,0,0,1,2.94,2.32,7.37,7.37,0,0,1,1.31,3.26,11.46,11.46,0,0,1-.15,3.93,21.79,21.79,0,0,1-1.34,4.29c-.24.57-.51,1.15-.8,1.76a15.87,15.87,0,0,1-.95,1.69,1.16,1.16,0,0,1-1.26.35,2.53,2.53,0,0,1-1.16-.85,3.44,3.44,0,0,1-.67-1.46,2,2,0,0,1,.23-1.47,9.9,9.9,0,0,0,.71-1,24.28,24.28,0,0,0,1.23-2.18,20.08,20.08,0,0,0,1.08-2.58,4.46,4.46,0,0,0,.27-2.24,4.9,4.9,0,0,0-1.57-2.76,6,6,0,0,0-2.7-1.33,8.54,8.54,0,0,0-3.27,0,9.23,9.23,0,0,0-3.2,1.19,7.65,7.65,0,0,0-1.18.84,3.7,3.7,0,0,0-.79,1.14,4.8,4.8,0,0,0-.42,2.08,16.34,16.34,0,0,0,.22,2.7,21.23,21.23,0,0,0,.66,2.78,20.55,20.55,0,0,0,.88,2.36,6.08,6.08,0,0,0,.82-2.7c.1-1.05.19-2,.27-3A6.29,6.29,0,0,1,318,164C318.34,163.39,318.91,163.18,319.76,163.35Z" transform="translate(-67.95 -69.95)"/><path class="cls-2" d="M340.63,156.52a9.47,9.47,0,0,1,1,2.7,11.74,11.74,0,0,1,.26,2.47,13.85,13.85,0,0,1-.16,2c-.11.61-.19,1.09-.25,1.46l1,.43q1.09.45,1.95.84a8.14,8.14,0,0,1,1.77,1.13c.1-.69.19-1.46.28-2.3s.14-1.69.17-2.56.05-1.72.06-2.58,0-1.66,0-2.39,0-1.43,0-2.25a5.27,5.27,0,0,1,.52-2.19c.3-.51.66-.74,1-.66a1.94,1.94,0,0,1,1.11.7,4.16,4.16,0,0,1,.79,1.44,2.36,2.36,0,0,1,.06,1.5,3.6,3.6,0,0,0-.61,2c0,.78,0,1.47-.07,2.07s-.09,1.47-.13,2.35-.13,1.78-.23,2.68-.24,1.77-.41,2.61a15.28,15.28,0,0,1-.6,2.2.53.53,0,0,0-.2.21.28.28,0,0,0-.12,0,.16.16,0,0,1-.09,0,1.36,1.36,0,0,1-.53,0,1.2,1.2,0,0,1-.42-.18c-.3-.22-.59-.44-.86-.67s-.54-.44-.8-.63a18.33,18.33,0,0,0-2-1.18,21.39,21.39,0,0,0-2.14-1,14.08,14.08,0,0,1-.61,2.33,12.72,12.72,0,0,1-1.06,2.27,4.94,4.94,0,0,1-.53.68,1.57,1.57,0,0,1-1.11.58,2.42,2.42,0,0,1-2.39-1.19,5.44,5.44,0,0,1-.8-1.93,4,4,0,0,1,.15-2.15,3.16,3.16,0,0,1,.42-.91,6.12,6.12,0,0,1,.72-.93,4,4,0,0,1,.9-.71,1.54,1.54,0,0,1,1.45-.19c.12-.4.28-1,.47-1.8a17,17,0,0,0,.39-2.28,4.35,4.35,0,0,0-.1-1.72c-.13-.42-.48-.49-1-.2a1.62,1.62,0,0,1-1.25-.3,2.58,2.58,0,0,1-.82-1,2.65,2.65,0,0,1-.21-1.3,1.69,1.69,0,0,1,.56-1.15,2.17,2.17,0,0,1,1.38-.72,2.25,2.25,0,0,1,1.27.32,4.28,4.28,0,0,1,1,.91A5.25,5.25,0,0,1,340.63,156.52Zm-2.78,9.65a1,1,0,0,0-.87.11,1.44,1.44,0,0,0-.47.76,1,1,0,0,0,0,.53,1.07,1.07,0,0,0,.22.44.55.55,0,0,0,.32.19c.11,0,.18,0,.22-.16.13-.35.23-.65.31-.92Z" transform="translate(-67.95 -69.95)"/><path class="cls-3" d="M93.15,147.73a.42.42,0,0,0,0-.1,2,2,0,0,1,.07.23l0-.15-.35.9a2.1,2.1,0,0,0,.34-.33,1.61,1.61,0,0,0,.26-.68l0-.16-.09.36a1.2,1.2,0,0,1,.13-.33l-.19.34a1.94,1.94,0,0,1,.21-.29l-.29.31a1.3,1.3,0,0,1,.23-.18l-.39.23.27-.12-.48.14a1,1,0,0,1,.25,0h-.52a1.09,1.09,0,0,1,.26,0l-.5-.13a1.22,1.22,0,0,1,.24.1l-.47-.26a2.59,2.59,0,0,1,.42.32c-.14-.13-.28-.26-.41-.4a1.76,1.76,0,0,1,.24.3l-.31-.5a1.73,1.73,0,0,1,.14.31c-.06-.2-.12-.4-.17-.6a1.86,1.86,0,0,1,0,.34c0-.21,0-.43,0-.64a1.07,1.07,0,0,1,0,.25l.15-.61a.88.88,0,0,1,0,.15l1.28-1.33-.27.11-.28.11.65-.19a1.39,1.39,0,0,1-.4.06h.67a2.42,2.42,0,0,1-.47,0l.63.16a2,2,0,0,1-.48-.19l.56.32-.24-.16c-.25-.16-.52-.28-.78-.42l.55.31a1.54,1.54,0,0,1-.32-.23l.43.41-.07-.07a1.89,1.89,0,0,0-.69-.56c.17.09-.2-.13-.28-.16a2.94,2.94,0,0,0-.66-.19,1.79,1.79,0,0,0-.84.09l-.27.07-.45.28,0,0s-.36.36-.39.4-.19.33-.14.26a3.07,3.07,0,0,0-.17.31,1.69,1.69,0,0,0-.17.62,4.68,4.68,0,0,0,0,.65v0c.06.26.14.52.22.78a5,5,0,0,0,.51.9,1.92,1.92,0,0,0,.28.3,2,2,0,0,0,.31.27,2.64,2.64,0,0,0,.46.27A2.75,2.75,0,0,0,92,150a4.32,4.32,0,0,0,2.11.21,5.08,5.08,0,0,0,.87-.24,1,1,0,0,0,.21-.09,3.26,3.26,0,0,0,1.13-.92,2.16,2.16,0,0,0,.22-.36,2.54,2.54,0,0,1,.16-.28l.15-.61a4.31,4.31,0,0,0,0-.72c0,.22,0,.43,0,.65a5.06,5.06,0,0,0,0-.87.5.5,0,0,0,0-.12c-.06-.23-.13-.48-.21-.7a4.11,4.11,0,0,0-.41-.72,1,1,0,0,0-.15-.2,3.19,3.19,0,0,0-.8-.71,4.15,4.15,0,0,0-.7-.38h-.06a3.8,3.8,0,0,0-.58-.15h-.14a3.06,3.06,0,0,0-2.12.61,2.79,2.79,0,0,0-.49.48.66.66,0,0,0-.12.17,3,3,0,0,0-.32.58,5.87,5.87,0,0,0-.16.6l0,.23a3.15,3.15,0,0,0,.12,1.07,2.83,2.83,0,0,0,.14.41,1.76,1.76,0,0,0,.47.61,1.38,1.38,0,0,0,1.11.23l-.72-.18a2,2,0,0,0,.47.23,1.11,1.11,0,0,0,.44.05.83.83,0,0,0,.47-.25.85.85,0,0,0,.17-.92Z" transform="translate(-67.95 -69.95)"/><path class="cls-3" d="M117.46,145.19l-.07-.06.21.2a1.22,1.22,0,0,1-.2-.25l.18.29a1.3,1.3,0,0,1-.14-.32c0,.13.07.26.11.38a6,6,0,0,0-.18-.7,2,2,0,0,1-.14-.34l.13.43a1.89,1.89,0,0,1-.08-.53c0,.15,0,.3,0,.45,0-.2,0-.41,0-.62,0,.15,0,.31,0,.46a1.6,1.6,0,0,1,0-.49c0,.14-.07.28-.11.42a2.14,2.14,0,0,1,.16-.39l-.22.38a1.18,1.18,0,0,1,.22-.28l-.31.31a2,2,0,0,1,.27-.22l-.38.23a2.17,2.17,0,0,1,.35-.15l-.44.13a2.5,2.5,0,0,1,.38-.06h-.46a2.05,2.05,0,0,1,.49.06l-.43-.11a2.72,2.72,0,0,1,.47.19l-.38-.21a1.9,1.9,0,0,1,.4.3c-.1-.1-.21-.2-.31-.31a2.31,2.31,0,0,1,.31.39c-.07-.13-.15-.25-.23-.38a1.4,1.4,0,0,1,.09.17c0-.15-.09-.29-.13-.44a1.53,1.53,0,0,1,0,.3c0-.16,0-.32,0-.48a1.24,1.24,0,0,1,0,.33l.12-.46a1.25,1.25,0,0,1-.12.3l.24-.43-.37.66.25-.44a1.46,1.46,0,0,1-.21.28l.34-.36a1.35,1.35,0,0,1-.32.26l.43-.26a2,2,0,0,1-.47.21l.5-.15a1.91,1.91,0,0,1-.54.08h.53a1.61,1.61,0,0,1-.44-.05l.49.13a1.51,1.51,0,0,1-.35-.14l.44.25a4.71,4.71,0,0,0-.58-.32l-.17-.08.42.24a1.25,1.25,0,0,1-.22-.16l.32.31-.1-.11a1.76,1.76,0,0,0-.92-.58,1.69,1.69,0,0,0-1.13.08,2.08,2.08,0,0,0-.69.56,1.36,1.36,0,0,0-.27.6,1.21,1.21,0,0,0,0,.68.85.85,0,0,0,0,.23,4,4,0,0,0,.2.67,3.44,3.44,0,0,0,.35.58,2.5,2.5,0,0,0,.94.7,3.68,3.68,0,0,0,1.88.29,4.59,4.59,0,0,0,1-.24,2,2,0,0,0,.45-.19,4.18,4.18,0,0,0,1.11-.9,2.7,2.7,0,0,0,.49-.81,3,3,0,0,0,.13-.52.17.17,0,0,0,0-.07.66.66,0,0,0,0-.14,2.87,2.87,0,0,0,0-.77,3,3,0,0,0-.24-.77,5.4,5.4,0,0,0-.4-.65c.08.12.16.25.23.38a3.23,3.23,0,0,0-.58-.87,5.8,5.8,0,0,0-.52-.48,4.24,4.24,0,0,0-.65-.38,3.84,3.84,0,0,0-1-.32l-.3,0a3.23,3.23,0,0,0-.76,0,3.28,3.28,0,0,0-1.34.58l-.2.17a3.23,3.23,0,0,0-.46.52,3.3,3.3,0,0,0-.42.84,3.83,3.83,0,0,0-.17,1.16,3.47,3.47,0,0,0,.26,1.23,2.59,2.59,0,0,0,.14.29c.1.16.19.32.3.47a1.78,1.78,0,0,0,.72.55l-.36-.2a3.49,3.49,0,0,0,1.15.47,2.21,2.21,0,0,0,.85,0,1.12,1.12,0,0,0,.5-2Z" transform="translate(-67.95 -69.95)"/><path class="cls-4" d="M204.52,184.35A24.31,24.31,0,0,0,223.21,187a28.41,28.41,0,0,0,9-3.95c2.56-1.72,5.46-4.15,6.41-7.19.59-1.9-1.53-3.82-3.24-2.41-2.09,1.73-3.67,3.92-5.9,5.51a21.49,21.49,0,0,1-7.21,3.31,23.59,23.59,0,0,1-15.78-1.52c-2.08-1-4,2.32-2,3.56Z" transform="translate(-67.95 -69.95)"/><path class="cls-4" d="M211.65,164.82h0a2.73,2.73,0,0,0-2.17-1.61h-.07l.69.18-.18-.08.63.35a5.4,5.4,0,0,0-.78-.44l-.19-.08.63.35a1.39,1.39,0,0,1-.27-.21l.51.5a2.25,2.25,0,0,1-.24-.3,2.48,2.48,0,0,0-.72-.76,4.3,4.3,0,0,0-1.74-.72,2.35,2.35,0,0,0-2.18.93,2.34,2.34,0,0,0-.44,1.11,2.4,2.4,0,0,0,.18,1.24.76.76,0,0,1,0,.11l-.18-.62a5.54,5.54,0,0,1,.07.57c.06.24.13.47.2.7l0,0,0,.08a1,1,0,0,0,.07.15,7,7,0,0,0,.5.87,2.23,2.23,0,0,0,.19.24,5.53,5.53,0,0,0,.75.68,3.21,3.21,0,0,0,1.43.58,8.45,8.45,0,0,0,.87,0,3,3,0,0,0,1-.25,2.85,2.85,0,0,0,1.08-.87,2.7,2.7,0,0,0,.52-1.29c0-.12,0-.25,0-.37a2.05,2.05,0,0,0-.2-1.06Z" transform="translate(-67.95 -69.95)"/><path class="cls-4" d="M228.35,163.05v.43a1.75,1.75,0,0,1,0-.32l-1.19,1.61h0a2.29,2.29,0,0,0,1.32-1.78,2,2,0,0,1,0-.24l-.15.59,0-.09-1.24,1.28.07,0,.55-.34a2,2,0,0,0,.6-.74,1.16,1.16,0,0,0,.23-.59,1.82,1.82,0,0,0,.07-1,2,2,0,0,1,0-.25c0,.22,0,.44,0,.66a1.63,1.63,0,0,1,.05-.49l-.15.59a1.68,1.68,0,0,1,.17-.42l-.29.5c.12-.21.25-.41.36-.63s.1-.37.14-.56v-.6c-.06-.19-.11-.38-.17-.57a1.6,1.6,0,0,0-.51-.69,1.08,1.08,0,0,0-.45-.34,1,1,0,0,0-.53-.21,1.05,1.05,0,0,0-.58-.07,1.76,1.76,0,0,0-.87.17,3,3,0,0,0-.76.51,4.55,4.55,0,0,0-.62.69,4.49,4.49,0,0,0-.46.83,5.29,5.29,0,0,0-.27.94c0,.22,0,.45,0,.67a1.79,1.79,0,0,0,.35.92,1.22,1.22,0,0,0,.4.5,1.87,1.87,0,0,0,.79.53l0,0-1.28-1.23a2.14,2.14,0,0,0,.1.22,5.28,5.28,0,0,0,.35.57,2.21,2.21,0,0,0,1.57.83l-1-.38.16.1a6,6,0,0,0,.55.31,1.8,1.8,0,0,0,2.33-1,1.8,1.8,0,0,0,.11-.92Z" transform="translate(-67.95 -69.95)"/><path class="cls-3" d="M87.87,164.48c6.11,5,13.68,9.65,21.92,8.78,6.49-.69,14-4.72,14.38-12,.11-2.19-3.23-3.4-4-1a13.24,13.24,0,0,1-11.6,9.45c-6.95.51-13.51-3.84-18.93-7.66a1.51,1.51,0,0,0-1.8,2.43Z" transform="translate(-67.95 -69.95)"/><path class="cls-3" d="M125,155.22a8.88,8.88,0,0,1,.36-.9,6.18,6.18,0,0,0,.31-1c.09-.32.17-.65.25-1a3.85,3.85,0,0,0,.07-.49,1.24,1.24,0,0,0-.07-.66A.58.58,0,0,0,125,151a1.1,1.1,0,0,0-.26.35,1.67,1.67,0,0,0-.08.3,3.88,3.88,0,0,0-.11.49c0,.32,0,.66-.08,1a6.12,6.12,0,0,0,0,1.05c0,.31,0,.62,0,.94s.39.42.48.13Z" transform="translate(-67.95 -69.95)"/><path class="cls-3" d="M127.43,155.79c.57.12.9-.81,1-1.23s.19-.77.27-1.16l.24-1.17a2.72,2.72,0,0,0,.07-1.57.89.89,0,0,0-.72-.53.9.9,0,0,0-.83.35,3,3,0,0,0-.39,1.52l-.15,1.26a8.32,8.32,0,0,0-.1,1.4c0,.44.11,1,.61,1.13Z" transform="translate(-67.95 -69.95)"/><path class="cls-3" d="M130.93,155.34c.16-.61.32-1.22.47-1.83a17.59,17.59,0,0,0,.4-2,.88.88,0,0,0-.76-1,.9.9,0,0,0-1,.76c-.13.62-.26,1.23-.33,1.85s-.13,1.24-.2,1.86a.73.73,0,0,0,.54.79.72.72,0,0,0,.86-.43Z" transform="translate(-67.95 -69.95)"/><path class="cls-3" d="M80.92,158.31a3.23,3.23,0,0,0,.21-.62,2,2,0,0,1,.05-.26c0-.06,0-.11,0-.17s0,.06,0,0,.07-.26.1-.39a.5.5,0,0,0,0-.13c0-.21,0,.09,0,0s.11-.36.17-.54c.12-.35.25-.7.39-1a5.71,5.71,0,0,0,.39-1.19.58.58,0,0,0-.29-.57.63.63,0,0,0-.65.05,3.15,3.15,0,0,0-.88,1.1,6.29,6.29,0,0,0-.45,1.11,6.2,6.2,0,0,0-.27,1.28q0,.3,0,.6a2,2,0,0,0,0,.42,3,3,0,0,0,.13.39.56.56,0,0,0,1,0Z" transform="translate(-67.95 -69.95)"/><path class="cls-3" d="M83.71,158.31l.51-1.65a4.79,4.79,0,0,0,.31-2,.75.75,0,0,0-.56-.6.74.74,0,0,0-.78.27l-.12.19a1.43,1.43,0,0,0-.18.46l-.09.43a6.42,6.42,0,0,0-.14.86c-.06.58-.11,1.16-.17,1.74a.63.63,0,0,0,.47.68.63.63,0,0,0,.75-.37Z" transform="translate(-67.95 -69.95)"/><path class="cls-3" d="M85.5,159.26c.2-.55.41-1.1.61-1.66s.35-1.13.52-1.69a.67.67,0,0,0-.36-.85.67.67,0,0,0-.85.37c-.19.55-.4,1.1-.57,1.67s-.33,1.13-.49,1.7a.61.61,0,1,0,1.14.46Z" transform="translate(-67.95 -69.95)"/><path class="cls-3" d="M84.46,117.8c2.74-1.35,5.35-2.86,8.2-4a40.3,40.3,0,0,1,9.4-2.45,52.62,52.62,0,0,1,9.8-.4c3.19.14,6.39.75,9.58.66a1,1,0,0,0,.23-2,40.1,40.1,0,0,0-10.08-1.16,55.7,55.7,0,0,0-10.16.53c-6.16.94-13.07,3.17-17.78,7.41-.64.58,0,1.76.81,1.35Z" transform="translate(-67.95 -69.95)"/><path class="cls-3" d="M84.55,114.46a30.8,30.8,0,0,0-4.65-4.91c-1.54-1.49-3.11-3-4.6-4.49-2.8-2.9-5.51-6.94-3.87-11.1.56-1.44,1.27-3.2,2.7-4a5,5,0,0,1,5.14.53,45.35,45.35,0,0,1,7.32,9.6c.57.93,2.13,0,1.64-1a41.3,41.3,0,0,0-6.41-9.41,6.71,6.71,0,0,0-4.16-2.46,7.39,7.39,0,0,0-4.81.65c-2.61,1.49-4.3,5.3-4.4,8.19-.13,3.86,1.91,7.25,4.48,10,1.59,1.68,3.34,3.19,5.06,4.72s3.65,3.58,5.78,4.74c.67.37,1.1-.56.78-1.06Z" transform="translate(-67.95 -69.95)"/><path class="cls-3" d="M87.28,97.47c-.16-1.81-1-3.62-1.44-5.39a23,23,0,0,1-.5-5.42,20.3,20.3,0,0,1,2.12-9.73,8.26,8.26,0,0,1,7.86-4.57,11.83,11.83,0,0,1,8.5,5.08c2.62,3.68,3.21,8.11,3.94,12.45a1.15,1.15,0,0,0,2.28-.34c-.31-8.21-4.3-17.74-13.22-19.42a10.39,10.39,0,0,0-10,3.6c-2.42,2.88-3.36,6.86-3.47,10.55a27.82,27.82,0,0,0,.54,7c.49,2.16,1.32,4.8,3,6.38a.24.24,0,0,0,.42-.18Z" transform="translate(-67.95 -69.95)"/><path class="cls-3" d="M110.64,91.62c1.23-1.26,2.23-2.79,3.39-4.12a46.13,46.13,0,0,1,4-4.17c1.34-1.22,3.13-2.66,5.07-2.36a4.73,4.73,0,0,1,3.47,3.4c1.1,3.34.36,7.55-.66,10.83a30.83,30.83,0,0,1-4.81,9c-1,1.29.9,2.55,1.94,1.44a25,25,0,0,0,5.63-10.93c1-4,1.65-9.12-.58-12.78a6.67,6.67,0,0,0-4.36-3.18A7.3,7.3,0,0,0,118,80.59a32,32,0,0,0-4.65,4.8,23.08,23.08,0,0,0-3.7,5.5c-.22.55.53,1.2,1,.73Z" transform="translate(-67.95 -69.95)"/><path class="cls-5" d="M91.47,102.47l-1.28.18.15,1,1.27-.18a.48.48,0,0,1,.55.41l.06.41a1.89,1.89,0,0,0-1-.1,2,2,0,0,0-1.61,2.22l.14.89a1.91,1.91,0,1,0,3.78-.57l-.06-.44-.07-.44-.31-2.11A1.48,1.48,0,0,0,91.47,102.47Zm1.14,4.41a.93.93,0,1,1-1.84.27l-.13-.88a.93.93,0,1,1,1.84-.28l.06.45Z" transform="translate(-67.95 -69.95)"/><path class="cls-5" d="M102.08,105l-.06-.44-.32-2.11a1.48,1.48,0,0,0-1.67-1.28l-1.27.19.15,1,1.27-.19a.48.48,0,0,1,.54.42l.06.41a1.89,1.89,0,0,0-1-.11,2,2,0,0,0-1.6,2.23l.13.88a1.92,1.92,0,1,0,3.79-.56Zm-.91.59a.93.93,0,1,1-1.83.27L99.2,105a1,1,0,0,1,.78-1.07.93.93,0,0,1,1.06.8l.06.45Z" transform="translate(-67.95 -69.95)"/><path class="cls-5" d="M107.89,106.6a2,2,0,0,0,1.6-2.23l-.06-.44-.07-.45-.31-2.11a1.48,1.48,0,0,0-1.67-1.27l-1.28.19.15,1,1.28-.19a.48.48,0,0,1,.54.42l.06.41a1.89,1.89,0,0,0-.95-.11,2,2,0,0,0-1.6,2.23l.13.88A1.94,1.94,0,0,0,107.89,106.6Zm-1.34-2.7a.93.93,0,1,1,1.84-.27l.06.44.07.45a.93.93,0,1,1-1.84.27Z" transform="translate(-67.95 -69.95)"/><path class="cls-5" d="M103.54,102.19a.48.48,0,0,1,.4-.56l1.27-.18-.15-1-1.27.18a1.5,1.5,0,0,0-1.23,1.71l.72,4.84,1-.15Z" transform="translate(-67.95 -69.95)"/><polygon class="cls-5" points="30.7 37.91 27.6 35.11 29.7 31.62 28.42 31.81 27.17 33.89 26.62 30.23 25.65 30.38 26.85 38.49 27.83 38.34 27.54 36.41 29.42 38.1 30.7 37.91"/><path class="cls-4" d="M90.55,83.49c9.39-9.58,26.72,11.23,9.54,15.2-3.42.71-7.18.49-9.79-1.6C86.12,93.73,87.33,86.78,90.55,83.49Z" transform="translate(-67.95 -69.95)"/><path class="cls-2" d="M99.13,99.2c-2.49.36-6.22.4-9-1.85a7.71,7.71,0,0,1-2.79-5.73,11.53,11.53,0,0,1,3-8.36h0c2.73-2.78,6.45-3.36,10.22-1.58,4.42,2.09,7.55,6.79,7.13,10.7-.34,3.24-3,5.59-7.5,6.63C99.85,99.08,99.51,99.14,99.13,99.2ZM95.19,81.41a7.71,7.71,0,0,0-4.4,2.31h0A10.78,10.78,0,0,0,88,91.58a7.1,7.1,0,0,0,2.54,5.26c3,2.42,7.26,2,9.51,1.53,4.26-1,6.68-3.08,7-6.06.39-3.65-2.58-8.06-6.76-10A8.73,8.73,0,0,0,95.19,81.41Z" transform="translate(-67.95 -69.95)"/><path class="cls-2" d="M105.91,91.32a5.91,5.91,0,0,1-3,1.57,4.67,4.67,0,0,1-.72,0,1.64,1.64,0,0,1-1.38-.63c-.61-.74-.9-2.16-.86-4.11,0-1.66.09-3.08.13-3.24a.58.58,0,0,0-.19-.49c-.34-.36-1-.84-1.38-.79l-.13,0h0A11.65,11.65,0,0,1,96,85.19s-.36-2.67-1.29-2.64c-.08,0-.15,0-.24,0a1.09,1.09,0,0,0-.56.27c-.26.29-.17.71,0,1.29,0,.08,0,.17,0,.26a12.84,12.84,0,0,1,.23,1.83,5.9,5.9,0,0,1-1.34.32,5.35,5.35,0,0,1-1.06,0,1.72,1.72,0,0,1-.37,0,1.64,1.64,0,0,0-.54,0,.56.56,0,0,0-.23.07.64.64,0,0,0-.31.75,1.37,1.37,0,0,0,1.17,1,7.49,7.49,0,0,0,2.47,0c-.11,1.46-.34,3.22-2.87,6.69-.27.36-.62.71-.54,1.13a.52.52,0,0,0,.47.46,3.28,3.28,0,0,0,2.17-1.39c1.48-1.78,2.51-3.27,3-7.44.48-.25,1.11-.54,1.51-.75A28.46,28.46,0,0,0,98,92.24a4,4,0,0,0,2.52,3.18,4.88,4.88,0,0,0,1.6.25l.32,0h0a4.07,4.07,0,0,0,3-1.9,6,6,0,0,0,.81-2.08.62.62,0,0,1,0-.1l.16-.68Z" transform="translate(-67.95 -69.95)"/><path class="cls-4" d="M146.11,123.61a1.23,1.23,0,0,1,1,.06,1.2,1.2,0,0,1,.52.65,2.09,2.09,0,0,1,.08.94,3,3,0,0,1-.23.85l-.2.31-.37.16a1.52,1.52,0,0,0-.19,1.19,1.5,1.5,0,0,0,.62.82,2.3,2.3,0,0,0,2.22.09,3.78,3.78,0,0,0,1.37-1.11,6.7,6.7,0,0,0,.93-1.57,7.34,7.34,0,0,0,.52-1.77,8.6,8.6,0,0,0,.15-1.69l-.07-.45-.22-.52a4.54,4.54,0,0,0-1.68-1.12,4.85,4.85,0,0,0-2.12-.34,4.35,4.35,0,0,0-2.07.73,4.28,4.28,0,0,0-1.55,2.08c-.13.29-.31.38-.53.25a2.11,2.11,0,0,1-.62-.64,3.37,3.37,0,0,1-.45-1,1.25,1.25,0,0,1,0-.9,4.16,4.16,0,0,1,.74-1.24,4.33,4.33,0,0,1,1.24-.83,5.28,5.28,0,0,1,1.85-.52,7,7,0,0,1,3.69.66,6.65,6.65,0,0,1,1.52,1,4.83,4.83,0,0,1,1,1.27,6.18,6.18,0,0,1,.6,1.6,3.85,3.85,0,0,1,0,1.36,13,13,0,0,1-.39,1.64q-.27.84-.6,1.62a12.21,12.21,0,0,1-.64,1.34,5.58,5.58,0,0,1-.58.81,6.5,6.5,0,0,1-.74.75,3,3,0,0,1-1.54.74,4.28,4.28,0,0,1-1.67-.07,2.85,2.85,0,0,1-1.5-.94,5.14,5.14,0,0,1-.95-1.66,5.31,5.31,0,0,1-.3-1.95,4.27,4.27,0,0,1,.45-1.84c.08-.13.17-.27.28-.42A1.06,1.06,0,0,1,146.11,123.61Z" transform="translate(-67.95 -69.95)"/><path class="cls-4" d="M148.75,131.37a4.92,4.92,0,0,1-1.14-.13,3.4,3.4,0,0,1-1.77-1.11,5.54,5.54,0,0,1-1.05-1.83,5.92,5.92,0,0,1-.33-2.14,4.64,4.64,0,0,1,.51-2,4.32,4.32,0,0,1,.33-.5,1.72,1.72,0,0,1,.6-.48l.08,0a1.71,1.71,0,0,1,1.43.12,1.8,1.8,0,0,1,.73.92,2.58,2.58,0,0,1,.1,1.18,3.3,3.3,0,0,1-.27,1l-.31.5-.35.15a1,1,0,0,0-.08.64,1,1,0,0,0,.41.53,1.65,1.65,0,0,0,.82.25,1.63,1.63,0,0,0,.89-.19,3.17,3.17,0,0,0,1.19-1,6.64,6.64,0,0,0,.87-1.45,7.41,7.41,0,0,0,.48-1.65,9.63,9.63,0,0,0,.15-1.6l-.07-.37-.14-.32a4.27,4.27,0,0,0-1.44-.93,4.41,4.41,0,0,0-1.9-.3,3.54,3.54,0,0,0-3.16,2.48,1,1,0,0,1-.6.6.8.8,0,0,1-.68-.1,2.51,2.51,0,0,1-.79-.8,4,4,0,0,1-.52-1.16,1.79,1.79,0,0,1,0-1.26,3.81,3.81,0,0,1,2.22-2.32,6.16,6.16,0,0,1,2-.57,7.65,7.65,0,0,1,2,.09,7.4,7.4,0,0,1,1.93.63,6.83,6.83,0,0,1,1.63,1.06,5.75,5.75,0,0,1,1.13,1.41,6.91,6.91,0,0,1,.64,1.73,4.27,4.27,0,0,1,0,1.56,12.45,12.45,0,0,1-.41,1.71,17.57,17.57,0,0,1-.61,1.68,15.28,15.28,0,0,1-.67,1.39,6.37,6.37,0,0,1-.64.89,8.42,8.42,0,0,1-.79.8,3.52,3.52,0,0,1-1.8.87A5.84,5.84,0,0,1,148.75,131.37Zm-2.46-7.27a.55.55,0,0,0-.17.14c-.09.12-.17.24-.25.37a3.57,3.57,0,0,0-.37,1.58,4.79,4.79,0,0,0,.27,1.77,4.48,4.48,0,0,0,.85,1.49,2.37,2.37,0,0,0,1.23.78,3.65,3.65,0,0,0,1.47.06,2.47,2.47,0,0,0,1.28-.62,9,9,0,0,0,.69-.69,6.39,6.39,0,0,0,.52-.74,11.15,11.15,0,0,0,.61-1.28,15.56,15.56,0,0,0,.58-1.58,10.7,10.7,0,0,0,.38-1.56,3.26,3.26,0,0,0,0-1.17,5.83,5.83,0,0,0-.54-1.46,4.44,4.44,0,0,0-.91-1.14,6.05,6.05,0,0,0-1.39-.9,6.2,6.2,0,0,0-1.66-.54,6.91,6.91,0,0,0-1.76-.08,5,5,0,0,0-1.68.47,2.8,2.8,0,0,0-1.72,1.81.81.81,0,0,0,0,.57,3.21,3.21,0,0,0,.38.86,1.89,1.89,0,0,0,.29.36,4.77,4.77,0,0,1,1.69-2.19,4.84,4.84,0,0,1,2.32-.81,5.3,5.3,0,0,1,2.36.37,5.21,5.21,0,0,1,1.86,1.25l.1.15.21.53.11.56a8.54,8.54,0,0,1-.15,1.86,8.35,8.35,0,0,1-.55,1.89,8.11,8.11,0,0,1-1,1.68,4.35,4.35,0,0,1-1.55,1.25,2.85,2.85,0,0,1-1.41.3,2.61,2.61,0,0,1-1.32-.42,2,2,0,0,1-.83-1.09,2.06,2.06,0,0,1,.22-1.59l.08-.17.4-.17.11-.17a2.33,2.33,0,0,0,.16-.64,1.6,1.6,0,0,0-.06-.7.75.75,0,0,0-.31-.39A.79.79,0,0,0,146.29,124.1Z" transform="translate(-67.95 -69.95)"/><path class="cls-4" d="M145.67,113.67a1.66,1.66,0,0,1,.27-1.16,1,1,0,0,1,.71-.45,1.05,1.05,0,0,1,.79.21,1.11,1.11,0,0,1,.45.77l.08.27c-.21.47-.24.79-.09,1a.83.83,0,0,0,.77.15,4.28,4.28,0,0,0,1.28-.48,10.08,10.08,0,0,0,1.41-.93,7.31,7.31,0,0,0,1.2-1.15,2.59,2.59,0,0,0,.63-1.23,1.56,1.56,0,0,1,.69-.72,5.16,5.16,0,0,1,1.08-.49,2.53,2.53,0,0,1,1-.14c.29,0,.41.15.39.36a7.73,7.73,0,0,1-1.4,2.09,13,13,0,0,1-2,1.71,13.24,13.24,0,0,1-2.08,1.22,8,8,0,0,1-1.85.66,3.6,3.6,0,0,1-1.09.07,3.46,3.46,0,0,1-1-.24,2.06,2.06,0,0,1-.79-.57A1.92,1.92,0,0,1,145.67,113.67Z" transform="translate(-67.95 -69.95)"/><path class="cls-4" d="M148.24,115.91h-.35a3.78,3.78,0,0,1-1.18-.29,2.73,2.73,0,0,1-1-.69,2.69,2.69,0,0,1-.57-1.13v-.09a2.24,2.24,0,0,1,.38-1.51,1.56,1.56,0,0,1,1.06-.64,1.54,1.54,0,0,1,1.15.3,1.62,1.62,0,0,1,.66,1.11l.12.39-.08.17a1.83,1.83,0,0,0-.13.41l.26,0a3.88,3.88,0,0,0,1.11-.43,9.54,9.54,0,0,0,1.34-.87,8.32,8.32,0,0,0,1.13-1.08,2.14,2.14,0,0,0,.51-1,2.06,2.06,0,0,1,.93-1.07,5.59,5.59,0,0,1,1.2-.55,3.09,3.09,0,0,1,1.17-.15,1,1,0,0,1,.69.32.8.8,0,0,1,.16.61l0,.15a8,8,0,0,1-1.5,2.23,13,13,0,0,1-2,1.78,14,14,0,0,1-2.16,1.27,8.28,8.28,0,0,1-2,.69A3.8,3.8,0,0,1,148.24,115.91Zm-2.06-2.31a1.57,1.57,0,0,0,.32.63,1.61,1.61,0,0,0,.62.43,2.77,2.77,0,0,0,.74.2,1.07,1.07,0,0,1-.35-.25,1.24,1.24,0,0,1-.09-1.33l0-.09a.71.71,0,0,0-.26-.5.57.57,0,0,0-.41-.12.54.54,0,0,0-.38.25A1.25,1.25,0,0,0,146.18,113.6Zm9.46-3.81a2.43,2.43,0,0,0-.55.11,4.15,4.15,0,0,0-1,.45,1,1,0,0,0-.47.46,3.09,3.09,0,0,1-.72,1.37,8.31,8.31,0,0,1-1.28,1.23,10,10,0,0,1-1.49,1l-.13.07.61-.27a12.44,12.44,0,0,0,3.87-2.82A6.87,6.87,0,0,0,155.64,109.79Z" transform="translate(-67.95 -69.95)"/><path class="cls-4" d="M161.68,120.28a1.7,1.7,0,0,1,.73.45,2.8,2.8,0,0,1,.64.86,1.52,1.52,0,0,1,.18.91c0,.3-.28.51-.69.62h-.19c-.16,0-.29.21-.36.6l-.3,1.48a13.64,13.64,0,0,1-.5,1.86,4.51,4.51,0,0,1-1,1.68.73.73,0,0,1-.43,0,3.3,3.3,0,0,1-.4-.16,4,4,0,0,1-.86-1,9.16,9.16,0,0,1-.72-1.31,15,15,0,0,1-.56-1.39,10.86,10.86,0,0,1-.64-3.58,7.58,7.58,0,0,1,.33-2.28,3.73,3.73,0,0,1,1.5-1.94,8.08,8.08,0,0,1,2.55-1.2,11.09,11.09,0,0,1,2.85-.41,6.23,6.23,0,0,1,2.38.39,5,5,0,0,1,2.09,1.58,5.14,5.14,0,0,1,1,2.26,7.93,7.93,0,0,1-.05,2.74,15.42,15.42,0,0,1-.87,3c-.16.4-.34.81-.54,1.24a11.25,11.25,0,0,1-.63,1.2.81.81,0,0,1-.88.25,1.75,1.75,0,0,1-.82-.57,2.33,2.33,0,0,1-.49-1,1.38,1.38,0,0,1,.14-1c.05,0,.21-.3.48-.73s.54-1,.83-1.54a15,15,0,0,0,.72-1.82,3.21,3.21,0,0,0,.15-1.57,3.44,3.44,0,0,0-1.13-1.9,4.21,4.21,0,0,0-1.91-.89,5.85,5.85,0,0,0-2.28,0,6.55,6.55,0,0,0-2.21.87,5.6,5.6,0,0,0-.82.61,2.51,2.51,0,0,0-.53.8,3.46,3.46,0,0,0-.27,1.46,10.66,10.66,0,0,0,.2,1.88,14.15,14.15,0,0,0,.5,1.94,13.15,13.15,0,0,0,.65,1.63,4.41,4.41,0,0,0,.53-1.9c.05-.73.1-1.43.14-2.09a4.5,4.5,0,0,1,.37-1.61C160.68,120.33,161.08,120.17,161.68,120.28Z" transform="translate(-67.95 -69.95)"/><path class="cls-4" d="M159.88,129.31a1.35,1.35,0,0,1-.29,0,3.86,3.86,0,0,1-.48-.2,4.07,4.07,0,0,1-1.07-1.16,9.59,9.59,0,0,1-.76-1.37c-.22-.47-.41-1-.58-1.44a14.11,14.11,0,0,1-.4-1.36,11.45,11.45,0,0,1-.27-2.39,8.48,8.48,0,0,1,.35-2.42,4.28,4.28,0,0,1,1.7-2.23,8.88,8.88,0,0,1,2.71-1.27,11.66,11.66,0,0,1,3-.42,6.77,6.77,0,0,1,2.58.42,5.53,5.53,0,0,1,2.3,1.75,5.63,5.63,0,0,1,1.06,2.48,8.47,8.47,0,0,1-.05,2.92,16,16,0,0,1-.9,3.11c-.16.41-.35.83-.55,1.27a11.35,11.35,0,0,1-.66,1.25,1.36,1.36,0,0,1-1.47.48A2.29,2.29,0,0,1,165,128a2.78,2.78,0,0,1-.59-1.22,1.88,1.88,0,0,1,.19-1.41l.1-.12s.17-.27.39-.62a16.84,16.84,0,0,0,.8-1.5,12.35,12.35,0,0,0,.69-1.74,2.53,2.53,0,0,0,.14-1.3,2.9,2.9,0,0,0-1-1.62,3.71,3.71,0,0,0-1.68-.78,5.62,5.62,0,0,0-2.08,0,5.76,5.76,0,0,0-2,.8,4.58,4.58,0,0,0-.73.54,2,2,0,0,0-.42.65,2.93,2.93,0,0,0-.22,1.24,10.6,10.6,0,0,0,.19,1.79,13.69,13.69,0,0,0,.48,1.86l.12.35.06-.48.14-2.09a5,5,0,0,1,.41-1.81,1.46,1.46,0,0,1,1.75-.75h0a2.23,2.23,0,0,1,1,.58,3.8,3.8,0,0,1,.75,1,2.11,2.11,0,0,1,.22,1.23,1.28,1.28,0,0,1-1.07,1h-.12a.56.56,0,0,0-.05.19l-.3,1.48a16.45,16.45,0,0,1-.52,1.93,5.1,5.1,0,0,1-1.15,1.88l-.09.09-.13,0A1.33,1.33,0,0,1,159.88,129.31Zm4-13.27h-.07a10.45,10.45,0,0,0-2.72.39,7.72,7.72,0,0,0-2.39,1.12,3.24,3.24,0,0,0-1.31,1.68,7.06,7.06,0,0,0-.3,2.12,9.93,9.93,0,0,0,.24,2.16,11.3,11.3,0,0,0,.37,1.25,12.66,12.66,0,0,0,.54,1.35,10.58,10.58,0,0,0,.68,1.24,3.53,3.53,0,0,0,.75.85s.14.05.23.07h0a4,4,0,0,0,.8-1.37,14.37,14.37,0,0,0,.49-1.8l.29-1.48c.13-.66.42-1,.85-1h.2s.17-.07.18-.17a1,1,0,0,0-.12-.61,2.58,2.58,0,0,0-.53-.71,1.08,1.08,0,0,0-.48-.32c-.5-.09-.58.08-.63.18a4.05,4.05,0,0,0-.31,1.43l-.14,2.09a4.92,4.92,0,0,1-.6,2.11l-.49.85-.43-.88a12.93,12.93,0,0,1-.67-1.69,13.94,13.94,0,0,1-.52-2,10.7,10.7,0,0,1-.2-2,3.87,3.87,0,0,1,.31-1.69,3.09,3.09,0,0,1,.65-1,5.53,5.53,0,0,1,.89-.66,6.85,6.85,0,0,1,2.39-.95,6.48,6.48,0,0,1,2.48,0,4.7,4.7,0,0,1,2.14,1,3.93,3.93,0,0,1,1.3,2.18,3.56,3.56,0,0,1-.16,1.84,12.82,12.82,0,0,1-.75,1.89,16,16,0,0,1-.85,1.58,5.84,5.84,0,0,1-.5.77.86.86,0,0,0-.05.62,1.87,1.87,0,0,0,.37.79,1.22,1.22,0,0,0,.59.41c.07,0,.17,0,.35-.12s.35-.65.53-1,.37-.83.53-1.22a15.51,15.51,0,0,0,.84-2.91,7.4,7.4,0,0,0,0-2.56,4.66,4.66,0,0,0-.86-2,4.51,4.51,0,0,0-1.88-1.41A5.44,5.44,0,0,0,163.86,116Zm-1.48,7.6h0Z" transform="translate(-67.95 -69.95)"/><path class="cls-4" d="M175.9,126a1.28,1.28,0,0,1-.69-.39,2.27,2.27,0,0,1-.49-.71.94.94,0,0,1-.06-.69c.07-.21.28-.33.63-.34l.28,0a2.9,2.9,0,0,0,1-.68,5.58,5.58,0,0,0,.82-1.08,6.28,6.28,0,0,0,.56-1.27,4.18,4.18,0,0,0,.21-1.23l0,0a3.42,3.42,0,0,0-1-.07,4.66,4.66,0,0,0-1,.2,6.15,6.15,0,0,0-1,.38,9.92,9.92,0,0,0-.88.49l-.75.47a2.24,2.24,0,0,1-.73.32,1.26,1.26,0,0,1-.61-.46,2.25,2.25,0,0,1-.46-1.32,4.6,4.6,0,0,1,.23-1.5,6.08,6.08,0,0,1,.69-1.46,7.77,7.77,0,0,1,.91-1.18,9,9,0,0,1,1.24-1,7.82,7.82,0,0,1,1.41-.79l.54-.18.71-.24c.24-.09.47-.16.69-.23l.53-.17a1.09,1.09,0,0,1,.72.3,2.23,2.23,0,0,1,.54.69,1.3,1.3,0,0,1,.13.77.59.59,0,0,1-.51.49l-.54.1-.69.15-.69.17-.54.12a6.3,6.3,0,0,0-2.75,1.57,4.71,4.71,0,0,0-1.45,2.78c.37-.35.82-.74,1.34-1.16a5.93,5.93,0,0,1,1.48-.91c.33-.11.66-.22,1-.3a2.78,2.78,0,0,1,1-.09,1.52,1.52,0,0,1,1.4.94,4.4,4.4,0,0,1,.32,1.94,8.41,8.41,0,0,1-.39,2.19,8.66,8.66,0,0,1-.73,1.76,5.55,5.55,0,0,1-1,1.19A1.83,1.83,0,0,1,175.9,126Z" transform="translate(-67.95 -69.95)"/><path class="cls-4" d="M176,126.53h-.23a1.81,1.81,0,0,1-1-.54,2.61,2.61,0,0,1-.61-.87,1.48,1.48,0,0,1-.07-1,1.07,1.07,0,0,1,1.09-.7l.24,0a2.52,2.52,0,0,0,.73-.52,5.06,5.06,0,0,0,.73-1,5.85,5.85,0,0,0,.51-1.18,3.51,3.51,0,0,0,.16-.66,3,3,0,0,0-.42,0,4.43,4.43,0,0,0-.94.17,5.48,5.48,0,0,0-.92.36,7.93,7.93,0,0,0-.83.46c-.31.18-.54.33-.73.46a2.69,2.69,0,0,1-.92.39l-.15,0-.15-.06a1.8,1.8,0,0,1-.85-.65,2.7,2.7,0,0,1-.54-1.6,4.88,4.88,0,0,1,.25-1.67,6.42,6.42,0,0,1,.74-1.57,7.44,7.44,0,0,1,1-1.27,8.94,8.94,0,0,1,1.32-1.1,7.58,7.58,0,0,1,1.5-.83l.57-.2.59-.2.82-.27.69-.19a1.49,1.49,0,0,1,1.06.42,2.71,2.71,0,0,1,.66.85,1.84,1.84,0,0,1,.18,1.07,1.11,1.11,0,0,1-.9.92l-.56.11-.64.14-.71.17-.59.13a5.76,5.76,0,0,0-2.47,1.43,5.32,5.32,0,0,0-.59.68,6.55,6.55,0,0,1,1.41-.82c.36-.13.71-.24,1.06-.33a3.56,3.56,0,0,1,1.16-.1,2.05,2.05,0,0,1,1.83,1.26,5,5,0,0,1,.36,2.16,9.45,9.45,0,0,1-.42,2.32,9,9,0,0,1-.77,1.87,6.54,6.54,0,0,1-1.1,1.32A2.26,2.26,0,0,1,176,126.53Zm-.08-1a1.28,1.28,0,0,0,1-.32,5.48,5.48,0,0,0,.91-1.09,9,9,0,0,0,.67-1.63,8.33,8.33,0,0,0,.36-2.07,3.88,3.88,0,0,0-.27-1.71,1,1,0,0,0-1-.63,2.25,2.25,0,0,0-.8.08c-.32.08-.64.18-1,.29a5.59,5.59,0,0,0-1.33.82c-.5.41-.94.79-1.31,1.14l-.47.45.06,0a1.18,1.18,0,0,0,.39-.19c.21-.14.47-.31.79-.49a9.26,9.26,0,0,1,.91-.51,7,7,0,0,1,1.09-.42,5.71,5.71,0,0,1,1.14-.21,3.29,3.29,0,0,1,1.14.08l.18.08.22.15,0,.3a4.51,4.51,0,0,1-.24,1.38,6.3,6.3,0,0,1-.61,1.38,5.54,5.54,0,0,1-.89,1.18,3.46,3.46,0,0,1-1.2.8l-.13,0-.42-.06-.09,0s0,.09.07.28a2,2,0,0,0,.38.54A1,1,0,0,0,176,125.5Zm2.74-12.12-.44.14-.68.23-.69.24-.57.19a6.94,6.94,0,0,0-1.26.71,7.91,7.91,0,0,0-1.16,1A6.78,6.78,0,0,0,173,117a6,6,0,0,0-.63,1.34,4.11,4.11,0,0,0-.2,1.32,1.69,1.69,0,0,0,.1.56l0-.26a5.31,5.31,0,0,1,1.6-3.08,6.85,6.85,0,0,1,3-1.69c.18,0,.34-.07.54-.12l.7-.17.7-.15.56-.11a.53.53,0,0,0,0-.53,1.55,1.55,0,0,0-.41-.52A.72.72,0,0,0,178.7,113.38Z" transform="translate(-67.95 -69.95)"/><path class="cls-4" d="M183.41,115.52a2.56,2.56,0,0,1-.78-.79,1.8,1.8,0,0,1-.31-1,.9.9,0,0,1,.5-.82c.46-.22,1-.45,1.48-.67a8.26,8.26,0,0,1,1.63-.5,4.54,4.54,0,0,1,1.6,0,2.73,2.73,0,0,1,1.39.71,4.35,4.35,0,0,1,1.24,2.33,13.43,13.43,0,0,1,.26,3.09,22,22,0,0,1-.34,3.25c-.19,1.07-.39,2-.59,2.74-.3.3-.55.43-.74.39a.71.71,0,0,1-.47-.37,1.94,1.94,0,0,1-.22-.79,3,3,0,0,1,0-.85,15.89,15.89,0,0,1,.47-2.15c.2-.67.37-1.32.51-2a9.05,9.05,0,0,0,.21-1.93,5,5,0,0,0-.41-2l-.14-.26-.18-.12-.22-.06-.1,0-.33-.06-.3,0-.36.09-.69.33-2.16,1.58A1.13,1.13,0,0,1,183.41,115.52Z" transform="translate(-67.95 -69.95)"/><path class="cls-4" d="M188.82,124.77h-.17a1.21,1.21,0,0,1-.82-.63,2.57,2.57,0,0,1-.29-1,4.05,4.05,0,0,1,0-1,16.89,16.89,0,0,1,.5-2.22c.19-.65.35-1.29.49-1.93a9.33,9.33,0,0,0,.21-1.83,4.75,4.75,0,0,0-.38-1.78l-.05-.1-.46-.12-.51.09-.59.3-2.24,1.61a1.65,1.65,0,0,1-1.38-.22,3.08,3.08,0,0,1-.95-.95,2.45,2.45,0,0,1-.39-1.26,1.39,1.39,0,0,1,.75-1.26c.51-.25,1-.48,1.55-.71a8.46,8.46,0,0,1,1.74-.52,4.86,4.86,0,0,1,1.78,0,3.26,3.26,0,0,1,1.65.84,4.81,4.81,0,0,1,1.39,2.6,13.46,13.46,0,0,1,.28,3.22,23.07,23.07,0,0,1-.35,3.32c-.19,1.07-.39,2-.6,2.78l0,.14-.1.1A1.65,1.65,0,0,1,188.82,124.77Zm-.9-11.64.91.27.34.31.13.25a5.72,5.72,0,0,1,.48,2.23,10,10,0,0,1-.23,2q-.21,1-.51,2a14.54,14.54,0,0,0-.46,2.08,2.44,2.44,0,0,0,0,.72,1.61,1.61,0,0,0,.16.58.25.25,0,0,0,.11.12,2.28,2.28,0,0,0,.19-.16c.19-.72.37-1.58.54-2.55a21,21,0,0,0,.33-3.17,12.46,12.46,0,0,0-.25-3,3.82,3.82,0,0,0-1.08-2.06,2.2,2.2,0,0,0-1.13-.58,3.94,3.94,0,0,0-1.41,0,7.4,7.4,0,0,0-1.52.46l-1.47.66a.36.36,0,0,0-.2.35,1.36,1.36,0,0,0,.23.72,1.84,1.84,0,0,0,.62.62h0a.63.63,0,0,0,.46.12l2.07-1.52.77-.38.46-.12Z" transform="translate(-67.95 -69.95)"/></svg>