<svg id="ico_how_we_do_03" xmlns="http://www.w3.org/2000/svg" width="85.945" height="82.589" viewBox="0 0 85.945 82.589">
  <path id="Path_156" data-name="Path 156" d="M36.115,155.728V152.37c0-.013,0-.026,0-.039a33.547,33.547,0,0,0-.87-8.085c-1.7-6.365-5.386-9.88-12.322-11.752a2.66,2.66,0,0,1-.609-.175c-.144-.083-.244-.31-.328-.446l-4.371-7.094a5.766,5.766,0,0,0-3.6-2.608l-1.048-13.532a5.807,5.807,0,0,0-5.658-5.549H7.3a5.756,5.756,0,0,0-5.668,5.552l-.6,8.914a1.679,1.679,0,1,0,3.35.225l.6-8.915a2.438,2.438,0,0,1,2.319-2.42h0A2.467,2.467,0,0,1,9.618,108.9l1.043,13.464a5.822,5.822,0,0,0-2.949,8.507l7.085,11.5a1.679,1.679,0,0,0,2.859-1.761l-7.084-11.5a2.454,2.454,0,0,1,2.661-3.675,2.432,2.432,0,0,1,1.522,1.1l4.372,7.095a3.852,3.852,0,0,0,2.81,2.073l.11.03c6.664,1.8,8.8,5.049,9.955,9.377a30.871,30.871,0,0,1,.757,7.279v3.135H17.577v-.253c0-5.188-5.118-9.563-8.505-12.457-.507-.434-.986-.843-1.372-1.192l-.065-.059c-3.139-2.847-4.438-4.025-4.263-8.8a1.679,1.679,0,1,0-3.355-.123c-.232,6.333,1.994,8.351,5.362,11.407l.066.06c.422.382.919.807,1.445,1.257,2.919,2.494,7.329,6.264,7.329,9.905v.456a4.221,4.221,0,0,0-2.922,4.01v6.1a4.219,4.219,0,0,0,4.215,4.214H34.822a4.219,4.219,0,0,0,4.215-4.214v-6.1A4.221,4.221,0,0,0,36.115,155.728Zm-.436,10.109a.858.858,0,0,1-.858.857H15.513a.869.869,0,0,1-.857-.857v-6.1a.869.869,0,0,1,.857-.857H34.822a.869.869,0,0,1,.858.857Z" transform="translate(0 -87.462)" fill="#fff"/>
  <path id="Path_157" data-name="Path 157" d="M318.466,132.644c0-.017,0-.034,0-.051l-1.608-23.951a5.756,5.756,0,0,0-5.668-5.552h-.012a5.808,5.808,0,0,0-5.658,5.55l-1.048,13.531a5.763,5.763,0,0,0-3.6,2.6l-4.374,7.1c-.083.135-.183.362-.326.444a2.674,2.674,0,0,1-.608.174c-6.938,1.873-10.624,5.387-12.324,11.754a33.55,33.55,0,0,0-.87,8.084c0,.013,0,.026,0,.039v3.358a4.221,4.221,0,0,0-2.922,4.01v6.1a4.219,4.219,0,0,0,4.215,4.214H302.97a4.219,4.219,0,0,0,4.215-4.214v-6.1a4.221,4.221,0,0,0-2.922-4.01v-.456c0-3.641,4.411-7.411,7.329-9.905.526-.45,1.023-.874,1.446-1.258l.065-.059C316.472,140.995,318.7,138.976,318.466,132.644Zm-14.638,33.194a.869.869,0,0,1-.857.857H283.661a.869.869,0,0,1-.858-.857v-6.1a.869.869,0,0,1,.858-.857H302.97a.869.869,0,0,1,.857.857Zm7.02-24.274-.064.058c-.387.35-.866.76-1.373,1.193-3.387,2.895-8.505,7.269-8.505,12.457v.253H285.725V152.39a30.878,30.878,0,0,1,.757-7.279c1.156-4.328,3.291-7.579,9.956-9.378l.109-.029a3.849,3.849,0,0,0,2.808-2.071l4.375-7.1a2.43,2.43,0,0,1,1.52-1.1,2.486,2.486,0,0,1,.7-.065h.026a2.46,2.46,0,0,1,1.936,3.737l-7.085,11.5a1.679,1.679,0,1,0,2.859,1.761l7.085-11.5a5.821,5.821,0,0,0-1.9-8,5.835,5.835,0,0,0-1.045-.509l1.043-13.463a2.467,2.467,0,0,1,2.318-2.453h0a2.438,2.438,0,0,1,2.319,2.42l1.607,23.925c.169,4.751-1.131,5.931-4.264,8.772Z" transform="translate(-232.537 -87.462)" fill="#fff"/>
  <path id="Path_158" data-name="Path 158" d="M115.1,43.923h7.41a14.986,14.986,0,0,0-.286,2.9V49.48a1.679,1.679,0,0,0,1.679,1.679h26.9a1.679,1.679,0,0,0,1.679-1.679V46.826a14.973,14.973,0,0,0-.286-2.9h7.415a1.679,1.679,0,0,0,1.679-1.679V39.59a15.172,15.172,0,0,0-6.882-12.665,10.479,10.479,0,1,0-17.054-12.148A10.481,10.481,0,1,0,120.3,26.926a15.173,15.173,0,0,0-6.878,12.665v2.654a1.679,1.679,0,0,0,1.679,1.678ZM149.128,47.8H125.581v-.976a11.814,11.814,0,0,1,6.106-10.306,10.442,10.442,0,0,0,11.335,0,11.814,11.814,0,0,1,6.106,10.306V47.8Zm8.808-8.211v.976h-6.819a15.234,15.234,0,0,0-5.51-6.406,10.465,10.465,0,0,0,1.736-3.273,10.412,10.412,0,0,0,4.484-1.6A11.815,11.815,0,0,1,157.935,39.59ZM146.157,13.355A7.121,7.121,0,0,1,147.828,27.4a10.5,10.5,0,0,0-8.142-9.906A7.121,7.121,0,0,1,146.157,13.355Zm-8.8,7.23a7.124,7.124,0,1,1-7.124,7.122A7.131,7.131,0,0,1,137.354,20.586Zm-8.8-7.23a7.117,7.117,0,0,1,6.473,4.137,10.5,10.5,0,0,0-8.144,9.906,7.121,7.121,0,0,1,1.671-14.044ZM116.778,39.59a11.815,11.815,0,0,1,6.105-10.306,10.412,10.412,0,0,0,4.484,1.6A10.465,10.465,0,0,0,129.1,34.16a15.233,15.233,0,0,0-5.51,6.406h-6.814Z" transform="translate(-94.382 -9.998)" fill="#fff"/>
  <path id="Path_159" data-name="Path 159" d="M4.775,228.078A1.681,1.681,0,1,0,3.1,226.395v.01a1.675,1.675,0,0,0,1.679,1.674Z" transform="translate(-2.576 -188.673)" fill="#fff"/>
</svg>
