<svg id="ico_how_we_do_01" xmlns="http://www.w3.org/2000/svg" width="85.946" height="77.639" viewBox="0 0 85.946 77.639">
  <path id="Path_147" data-name="Path 147" d="M454.17,134.05H446.2a1.679,1.679,0,1,0,0,3.357h7.97a1.679,1.679,0,1,0,0-3.357Z" transform="translate(-369.902 -115.701)" fill="#fff"/>
  <path id="Path_148" data-name="Path 148" d="M426.557,33.336a1.672,1.672,0,0,0,1.041-.362l6.614-5.234a1.679,1.679,0,1,0-2.083-2.633l-6.614,5.234a1.679,1.679,0,0,0,1.043,3Z" transform="translate(-353.556 -24.745)" fill="#fff"/>
  <path id="Path_149" data-name="Path 149" d="M434.21,217.8l-6.614-5.234a1.679,1.679,0,1,0-2.083,2.633l6.614,5.234a1.679,1.679,0,0,0,2.083-2.633Z" transform="translate(-353.555 -180.734)" fill="#fff"/>
  <path id="Path_150" data-name="Path 150" d="M26.2,137.407h7.965a1.679,1.679,0,0,0,0-3.357H26.2a1.679,1.679,0,1,0,0,3.357Z" transform="translate(-20.403 -115.701)" fill="#fff"/>
  <path id="Path_151" data-name="Path 151" d="M52.878,27.74l6.614,5.234a1.679,1.679,0,1,0,2.083-2.633l-6.614-5.234a1.679,1.679,0,0,0-2.083,2.633Z" transform="translate(-43.472 -24.745)" fill="#fff"/>
  <path id="Path_152" data-name="Path 152" d="M59.493,212.564,52.879,217.8a1.679,1.679,0,1,0,2.083,2.633l6.614-5.234a1.679,1.679,0,0,0-2.083-2.633Z" transform="translate(-43.473 -180.734)" fill="#fff"/>
  <path id="Path_154" data-name="Path 154" d="M66.647,314.061l-12.9,6.627a6.058,6.058,0,0,0-4.341-1.83h-8.86a2.808,2.808,0,0,1-.6-.036,5.012,5.012,0,0,1-.468-.414l-.083-.078c-7.181-6.763-13.253-6.336-20.165-3.612a4.572,4.572,0,0,1-2.2.482l-2,0a4.378,4.378,0,0,0-4.138-2.963H4.372A4.376,4.376,0,0,0,0,316.611v17.1a4.377,4.377,0,0,0,4.372,4.372h6.514a4.378,4.378,0,0,0,4.138-2.964h3.632a1.67,1.67,0,0,1,.676.1c.138.039.308.087.527.146l16.859,4.51c.744.2,1.426.4,2.086.59a21.26,21.26,0,0,0,5.879,1.155c2.145,0,4.389-.675,7.342-2.646l.042-.029,20.786-14.8a5.921,5.921,0,0,0-6.206-10.082ZM11.9,333.707a1.016,1.016,0,0,1-1.015,1.015H4.372a1.028,1.028,0,0,1-1.015-1.015v-17.1A1.028,1.028,0,0,1,4.372,315.6h6.514a1.016,1.016,0,0,1,1.015,1.015Zm59-12.3L50.141,336.193c-4.249,2.83-6.053,2.306-10.4,1.045-.674-.2-1.371-.4-2.149-.608l-16.861-4.51c-.2-.054-.357-.1-.485-.134a4.538,4.538,0,0,0-1.587-.228h-3.4v-13.2h1.714l.074,0,.128-.006a7.651,7.651,0,0,0,3.287-.714c6.034-2.378,10.689-2.66,16.629,2.934l.081.076a4.018,4.018,0,0,0,3.373,1.365H49.4a2.718,2.718,0,0,1,2.356,1.366l0,.011c.013.026.029.05.044.076a2.69,2.69,0,0,1,.313,1.261,2.721,2.721,0,0,1-2.718,2.718H35.048a1.679,1.679,0,0,0,0,3.357H49.4a6.072,6.072,0,0,0,5.937-7.361l12.84-6.6A2.574,2.574,0,1,1,70.9,321.41Z" transform="translate(0 -263.979)" fill="#fff"/>
  <g id="Ellipse_13" data-name="Ellipse 13" transform="translate(30.695 0.329)" fill="none" stroke="#fff" stroke-width="4">
    <ellipse cx="15.5" cy="21" rx="15.5" ry="21" stroke="none"/>
    <ellipse cx="15.5" cy="21" rx="13.5" ry="19" fill="none"/>
  </g>
</svg>
